<svg width="60" height="60" viewBox="0 0 60 60" fill="none" xmlns="http://www.w3.org/2000/svg">
<path d="M16.479 20.4546V42.0973C16.479 43.7876 17.494 45.1136 19.2337 45.1136H21.5047C21.4267 45.1136 21.2517 45.6871 21.2517 45.9687V52.0985C21.2517 53.7005 22.7878 54.9995 24.4336 54.9995C26.0801 54.9995 27.6154 53.7005 27.6154 52.0985V45.9687C27.6154 45.6871 27.3083 45.1136 27.2328 45.1136H32.7723C32.6967 45.1136 32.3881 45.6871 32.3881 45.9687V52.0985C32.3881 53.7005 33.9209 54.9995 35.5667 54.9995C37.2165 54.9995 38.7517 53.7005 38.7517 52.0985V45.9687C38.7517 45.6871 38.5775 45.1136 38.4995 45.1136H40.7737C42.5134 45.1136 43.5244 43.7876 43.5244 42.0973V20.4546H16.2969H16.479Z" fill="#57C927"/>
<path d="M10.9084 20.8071C9.26099 20.8071 7.72656 22.1069 7.72656 23.7081V36.1291C7.72656 37.7312 9.26099 39.0301 10.9084 39.0301C12.555 39.0301 14.0902 37.7312 14.0902 36.1291V23.7089C14.0902 22.1069 12.555 20.8071 10.9084 20.8071Z" fill="#57C927"/>
<path d="M36.8481 9.18179L37.4033 8.36724L37.9594 7.56224L39.1979 5.75259C39.353 5.52827 39.2886 5.22918 39.0603 5.08202C38.8344 4.93168 38.5217 4.99452 38.3738 5.21725L36.483 7.9719L35.9142 8.80156C34.1173 8.12224 32.1152 7.74361 30.0001 7.74361C27.8897 7.74361 25.8836 8.12304 24.0867 8.80156L23.5211 7.9727L22.9619 7.15895L21.6335 5.21884C21.48 4.99532 21.1713 4.93646 20.9422 5.08361C20.7155 5.23157 20.6527 5.53066 20.8038 5.75418L22.0416 7.56463L22.5976 8.37042L23.156 9.18258C18.9369 11.0956 16.082 14.8868 16.082 18.864H43.9189C43.9189 14.8868 41.0648 11.0956 36.8481 9.18179ZM24.035 15.0021C23.2085 15.0021 22.5427 14.3522 22.5427 13.5496C22.5427 12.747 23.2085 12.1003 24.035 12.1003C24.8591 12.1003 25.5264 12.747 25.5264 13.5496C25.5264 14.3522 24.8598 15.0021 24.035 15.0021ZM35.9667 15.0021C35.1411 15.0021 34.4737 14.3522 34.4737 13.5496C34.4737 12.747 35.1411 12.1003 35.9667 12.1003C36.7908 12.1003 37.4582 12.747 37.4582 13.5496C37.4582 14.3522 36.7908 15.0021 35.9667 15.0021Z" fill="#57C927"/>
<path d="M11.05 27.2915C9.80985 27.2915 8.52201 26.1214 7.72656 24.2656V36.1298C7.72656 37.7318 9.26099 39.0308 10.9084 39.0308C12.555 39.0308 14.0902 37.7318 14.0902 36.1298V24.8845C13.2947 26.3752 12.1445 27.2915 11.05 27.2915Z" fill="#1CB71C"/>
<path d="M49.092 20.8071C47.4446 20.8071 45.9102 22.1069 45.9102 23.7081V36.1291C45.9102 37.7312 47.4446 39.0301 49.092 39.0301C50.7386 39.0301 52.2738 37.7312 52.2738 36.1291V23.7089C52.2738 22.1069 50.7386 20.8071 49.092 20.8071Z" fill="#57C927"/>
<path d="M49.2296 27.2915C47.9895 27.2915 46.7017 26.1214 45.9062 24.2656V36.1298C45.9062 37.7318 47.4407 39.0308 49.0881 39.0308C50.7346 39.0308 52.2699 37.7318 52.2699 36.1298V24.8845C51.4744 26.3752 50.3242 27.2915 49.2296 27.2915Z" fill="#1CB71C"/>
<path d="M29.9993 22.8318C23.7072 22.8318 18.0675 22.1039 16.4766 21.0706V42.0976C16.4766 43.7879 17.4916 45.114 19.2312 45.114H21.5022C21.4243 45.114 21.2493 45.6875 21.2493 45.9691V52.0988C21.2493 53.7009 22.7853 54.9998 24.4311 54.9998C26.0777 54.9998 27.6129 53.7009 27.6129 52.0988V45.9691C27.6129 45.6875 27.3059 45.114 27.2303 45.114H32.7698C32.6942 45.114 32.3856 45.6875 32.3856 45.9691V52.0988C32.3856 53.7009 33.9184 54.9998 35.5642 54.9998C37.214 54.9998 38.7492 53.7009 38.7492 52.0988V45.9691C38.7492 45.6875 38.575 45.114 38.4971 45.114H40.7713C42.5109 45.114 43.5219 43.7879 43.5219 42.0976V21.0698C41.931 22.1031 36.2921 22.8318 29.9993 22.8318Z" fill="#1CB71C"/>
<path d="M37.4582 13.5486C37.4582 14.3512 36.7908 15.0011 35.9667 15.0011C35.1411 15.0011 34.4737 14.3512 34.4737 13.5486C34.4737 13.1135 34.6733 12.7293 34.9844 12.4636C33.4118 12.2011 31.7389 12.0571 30.0001 12.0571C28.2612 12.0571 26.5892 12.2011 25.0158 12.4636C25.3276 12.7285 25.5272 13.1135 25.5272 13.5486C25.5272 14.3512 24.8598 15.0011 24.0358 15.0011C23.2093 15.0011 22.5435 14.3512 22.5435 13.5486C22.5435 13.3434 22.5888 13.1485 22.6676 12.9711C20.2828 13.5979 18.2337 14.5127 16.6874 15.6367C16.2976 16.6604 16.082 18.0684 16.082 18.8638H43.9189C43.9189 18.0684 43.7033 16.6612 43.3143 15.6383C41.7688 14.5127 39.7189 13.5963 37.3357 12.9695C37.4137 13.1469 37.4582 13.3442 37.4582 13.5486Z" fill="#1CB71C"/>
<path d="M30.0032 31.1319C24.6442 31.1319 19.6623 30.0748 16.4805 28.3423V42.0972C16.4805 43.7876 17.4955 45.1136 19.2351 45.1136H21.5061C21.4282 45.1136 21.2532 45.6871 21.2532 45.9687V52.0985C21.2532 53.7005 22.7892 54.9995 24.435 54.9995C26.0816 54.9995 27.6168 53.7005 27.6168 52.0985V45.9687C27.6168 45.6871 27.3098 45.1136 27.2342 45.1136H32.7737C32.6981 45.1136 32.3895 45.6871 32.3895 45.9687V52.0985C32.3895 53.7005 33.9223 54.9995 35.5681 54.9995C37.2179 54.9995 38.7531 53.7005 38.7531 52.0985V45.9687C38.7531 45.6871 38.5789 45.1136 38.501 45.1136H40.7752C42.5148 45.1136 43.5258 43.7876 43.5258 42.0972V28.3423C40.344 30.0756 35.3621 31.1319 30.0032 31.1319Z" fill="#049E42"/>
</svg>
