<svg width="188" height="54" viewBox="0 0 188 54" fill="none" xmlns="http://www.w3.org/2000/svg">
<path d="M160.732 43.0414C160.732 43.57 160.631 44.0934 160.433 44.5818C160.236 45.0701 159.947 45.5137 159.583 45.8873C159.219 46.2609 158.787 46.5571 158.311 46.759C157.835 46.9609 157.326 47.0646 156.811 47.064H28.4858C27.4458 47.0651 26.4478 46.642 25.7115 45.8876C24.9752 45.1333 24.5608 44.1095 24.5594 43.0414V10.9624C24.5608 9.89387 24.975 8.86954 25.7112 8.11435C26.4474 7.35917 27.4453 6.93485 28.4858 6.93457H156.81C157.325 6.93457 157.835 7.03876 158.311 7.24119C158.786 7.44362 159.219 7.74033 159.583 8.11437C159.947 8.4884 160.236 8.93244 160.433 9.42111C160.63 9.90979 160.731 10.4335 160.731 10.9624L160.732 43.0414Z" fill="white"/>
<path d="M156.811 48H28.4857C27.2044 47.9997 25.9756 47.4775 25.0689 46.5479C24.1621 45.6183 23.6515 44.3573 23.649 43.0416V10.9637C23.6509 9.64727 24.1612 8.3854 25.0679 7.45486C25.9747 6.52432 27.2038 6.00111 28.4857 6L156.81 6C158.091 6.00167 159.32 6.52506 160.227 7.45547C161.133 8.38589 161.644 9.64744 161.646 10.9637V43.0416C161.648 45.7765 159.475 48 156.811 48V48Z" fill="#A6A6A6"/>
<path d="M160.732 43.0414C160.732 43.57 160.631 44.0934 160.433 44.5818C160.236 45.0701 159.947 45.5137 159.583 45.8873C159.219 46.2609 158.787 46.5571 158.311 46.759C157.835 46.9609 157.326 47.0646 156.811 47.064H28.4858C27.4458 47.0651 26.4478 46.642 25.7115 45.8876C24.9752 45.1333 24.5608 44.1095 24.5594 43.0414V10.9624C24.5608 9.89387 24.975 8.86954 25.7112 8.11435C26.4474 7.35917 27.4453 6.93485 28.4858 6.93457H156.81C157.325 6.93457 157.835 7.03876 158.311 7.24119C158.786 7.44362 159.219 7.74033 159.583 8.11437C159.947 8.4884 160.236 8.93244 160.433 9.42111C160.63 9.90979 160.731 10.4335 160.731 10.9624L160.732 43.0414Z" fill="black"/>
<path d="M54.4647 26.7788C54.4351 23.3937 57.1638 21.7469 57.2886 21.6702C55.7432 19.3564 53.3479 19.0403 52.5061 19.0151C50.4943 18.7977 48.5429 20.2513 47.5181 20.2513C46.4728 20.2513 44.8947 19.0361 43.1939 19.0718C41.0052 19.1064 38.9576 20.4078 37.8346 22.4285C35.517 26.5488 37.2455 32.6037 39.4659 35.9342C40.5766 37.5663 41.8745 39.3865 43.5733 39.3224C45.2353 39.2531 45.8561 38.2354 47.8618 38.2354C49.849 38.2354 50.432 39.3224 52.1645 39.2814C53.9482 39.2531 55.0712 37.643 56.1431 35.9972C57.4266 34.1287 57.9421 32.2865 57.9626 32.192C57.9216 32.1773 54.4995 30.835 54.4647 26.7788V26.7788ZM51.1919 16.8242C52.0858 15.6762 52.6974 14.1144 52.5276 12.5295C51.2338 12.5884 49.6158 13.4485 48.6841 14.5713C47.8597 15.5607 47.1233 17.1823 47.3136 18.7073C48.7669 18.8187 50.2591 17.9543 51.1919 16.8242V16.8242Z" fill="white"/>
<path d="M156.812 6H88.0776L115 48H156.812C158.094 47.9989 159.323 47.476 160.229 46.5459C161.136 45.6158 161.647 44.3545 161.649 43.0384V10.9637C161.647 9.64736 161.136 8.38564 160.23 7.45517C159.323 6.52469 158.094 6.00139 156.812 6V6Z" fill="url(#paint0_linear_159_35)"/>
<path d="M78.5345 39.0882H76.2118L74.9395 34.9826H70.5171L69.3051 39.0882H67.0438L71.4263 25.111H74.1325L78.5345 39.0882V39.0882ZM74.556 33.2601L73.4053 29.6104C73.2836 29.2375 73.0545 28.3595 72.7191 26.9773H72.6782C72.5432 27.5718 72.3274 28.4498 72.0318 29.6104L70.9006 33.2601H74.556ZM89.7828 33.925C89.7828 35.6391 89.3298 36.9939 88.4226 37.9885C87.6105 38.8739 86.601 39.3161 85.3972 39.3161C84.0973 39.3161 83.1625 38.8403 82.5949 37.8867V43.1749H80.4143V32.3222C80.4143 31.2457 80.3867 30.1418 80.3335 29.0096H82.2512L82.3729 30.6071H82.4138C83.141 29.4035 84.2446 28.8017 85.7255 28.8017C86.8833 28.8017 87.8498 29.2712 88.623 30.2112C89.3952 31.1533 89.7828 32.3905 89.7828 33.925ZM87.5614 34.0069C87.5614 33.0259 87.3466 32.2172 86.915 31.5797C86.4435 30.917 85.8104 30.5851 85.0168 30.5851C84.4788 30.5851 83.9899 30.7699 83.5532 31.1344C83.1154 31.502 82.8291 31.9819 82.6951 32.5764C82.6353 32.7987 82.6013 33.0275 82.5938 33.258V34.9396C82.5938 35.6716 82.8127 36.2902 83.2505 36.7965C83.6882 37.3006 84.2569 37.5537 84.9564 37.5537C85.7777 37.5537 86.4169 37.2271 86.8741 36.5791C87.3323 35.9289 87.5614 35.0719 87.5614 34.0069V34.0069ZM101.071 33.925C101.071 35.6391 100.618 36.9939 99.7108 37.9885C98.8977 38.8739 97.8893 39.3161 96.6844 39.3161C95.3845 39.3161 94.4497 38.8403 93.8821 37.8867V43.1749H91.7015V32.3222C91.7015 31.2457 91.6739 30.1418 91.6207 29.0096H93.5384L93.6601 30.6071H93.701C94.4272 29.4035 95.5308 28.8017 97.0127 28.8017C98.1695 28.8017 99.136 29.2712 99.9113 30.2112C100.682 31.1533 101.071 32.3905 101.071 33.925V33.925ZM98.8486 34.0069C98.8486 33.0259 98.6328 32.2172 98.2012 31.5797C97.7297 30.917 97.0987 30.5851 96.305 30.5851C95.767 30.5851 95.2781 30.7699 94.8394 31.1344C94.4016 31.502 94.1163 31.9819 93.9823 32.5764C93.9158 32.8537 93.88 33.0795 93.88 33.258V34.9396C93.88 35.6716 94.0999 36.2902 94.5356 36.7965C94.9734 37.2996 95.542 37.5537 96.2436 37.5537C97.0659 37.5537 97.7052 37.2271 98.1613 36.5791C98.6195 35.9289 98.8486 35.0719 98.8486 34.0069V34.0069ZM113.692 35.1675C113.692 36.3575 113.287 37.3248 112.482 38.0715C111.596 38.8865 110.36 39.2951 108.775 39.2951C107.31 39.2951 106.136 39.0052 105.25 38.4244L105.754 36.5581C106.711 37.1399 107.761 37.4298 108.904 37.4298C109.727 37.4298 110.366 37.2386 110.822 36.8595C111.279 36.4793 111.51 35.9709 111.51 35.3366C111.51 34.7684 111.319 34.2926 110.944 33.905C110.566 33.5185 109.943 33.1583 109.066 32.8274C106.683 31.9147 105.49 30.5798 105.49 28.8237C105.49 27.6768 105.912 26.7379 106.753 26.0037C107.593 25.2706 108.708 24.9041 110.095 24.9041C111.333 24.9041 112.365 25.1257 113.185 25.5678L112.637 27.3932C111.866 26.9647 110.996 26.7505 110.022 26.7505C109.253 26.7505 108.65 26.9448 108.218 27.3313C107.855 27.6768 107.671 28.098 107.671 28.5979C107.671 29.1493 107.881 29.6072 108.298 29.9664C108.66 30.2973 109.321 30.6575 110.276 31.044C111.448 31.5293 112.309 32.0943 112.86 32.7434C113.416 33.3925 113.692 34.2023 113.692 35.1675ZM120.92 30.6901H118.516V35.5834C118.516 36.828 118.94 37.4487 119.789 37.4487C120.178 37.4487 120.502 37.4151 120.757 37.3447L120.818 39.0451C120.388 39.21 119.822 39.293 119.122 39.293C118.261 39.293 117.588 39.0231 117.102 38.4832C116.618 37.9434 116.375 37.0391 116.375 35.7661V30.6859H114.943V29.0054H116.375V27.1601L118.516 26.4963V29.0054H120.92V30.6901V30.6901ZM131.743 33.9659C131.743 35.5151 131.311 36.787 130.45 37.7816C129.549 38.8057 128.35 39.3161 126.856 39.3161C125.414 39.3161 124.267 38.8256 123.412 37.8457C122.557 36.8637 122.13 35.6264 122.13 34.134C122.13 32.5722 122.572 31.293 123.452 30.2983C124.335 29.3027 125.523 28.8048 127.018 28.8048C128.458 28.8048 129.614 29.2964 130.49 30.2773C131.326 31.2289 131.743 32.4577 131.743 33.9659ZM129.482 34.0174C129.482 33.0942 129.288 32.3023 128.898 31.6396C128.441 30.8392 127.787 30.4391 126.939 30.4391C126.065 30.4391 125.395 30.8392 124.939 31.6396C124.549 32.3023 124.354 33.1079 124.354 34.0594C124.354 34.9837 124.549 35.7777 124.939 36.4383C125.411 37.2386 126.068 37.6388 126.92 37.6388C127.754 37.6388 128.407 37.2302 128.88 36.4184C129.281 35.7399 129.482 34.9427 129.482 34.0174ZM138.834 30.9789C138.607 30.9369 138.377 30.9161 138.146 30.917C137.379 30.917 136.786 31.2131 136.369 31.8097C136.007 32.3348 135.825 32.9986 135.825 33.8V39.0882H133.644V32.1836C133.646 31.1256 133.625 30.0677 133.581 29.0107H135.48L135.56 30.939H135.62C135.851 30.2763 136.213 29.7417 136.71 29.3415C137.165 28.9919 137.718 28.8025 138.286 28.8017C138.488 28.8017 138.67 28.8164 138.831 28.8426L138.834 30.9789V30.9789ZM148.586 33.5721C148.591 33.9125 148.564 34.2526 148.506 34.5877H141.964C141.989 35.5834 142.306 36.3459 142.913 36.871C143.465 37.3395 144.177 37.5747 145.053 37.5747C146.021 37.5747 146.905 37.4172 147.7 37.099L148.041 38.6523C147.113 39.0682 146.016 39.2752 144.751 39.2752C143.229 39.2752 142.035 38.8151 141.165 37.8972C140.298 36.9782 139.863 35.743 139.863 34.196C139.863 32.6772 140.267 31.4116 141.076 30.4023C141.923 29.3247 143.068 28.7859 144.508 28.7859C145.922 28.7859 146.993 29.3247 147.72 30.4023C148.296 31.2562 148.586 32.3149 148.586 33.5721V33.5721ZM146.506 32.9913C146.522 32.3264 146.378 31.754 146.083 31.2699C145.705 30.646 145.125 30.3351 144.346 30.3351C143.633 30.3351 143.052 30.6386 142.611 31.2478C142.247 31.732 142.032 32.3138 141.965 32.9892L146.506 32.9913Z" fill="white"/>
<path d="M69.8895 20.1692C69.283 20.1692 68.7583 20.1388 68.3216 20.0873V13.3297C68.9324 13.2329 69.5496 13.1851 70.1677 13.1869C72.6683 13.1869 73.82 14.4504 73.82 16.51C73.82 18.8858 72.4597 20.1692 69.8895 20.1692ZM70.2556 14.0534C69.9181 14.0534 69.6307 14.0744 69.3924 14.1248V19.2618C69.5213 19.2828 69.7688 19.2922 70.1165 19.2922C71.755 19.2922 72.6878 18.3344 72.6878 16.5405C72.6878 14.9409 71.844 14.0534 70.2556 14.0534V14.0534ZM77.4088 20.2207C75.9995 20.2207 75.0861 19.1399 75.0861 17.6727C75.0861 16.1435 76.0189 15.0533 77.4886 15.0533C78.8775 15.0533 79.8113 16.0826 79.8113 17.5918C79.8113 19.1399 78.8489 20.2207 77.4088 20.2207ZM77.4497 15.8578C76.6755 15.8578 76.1795 16.6014 76.1795 17.6412C76.1795 18.661 76.6857 19.4046 77.4395 19.4046C78.1933 19.4046 78.6996 18.6095 78.6996 17.6202C78.6996 16.6119 78.2035 15.8578 77.4497 15.8578ZM87.8482 15.1551L86.3396 20.1083H85.3567L84.7318 17.9573C84.5764 17.4312 84.4471 16.8973 84.3442 16.3577H84.3237C84.245 16.8976 84.0957 17.4385 83.9371 17.9573L83.2723 20.1083H82.2792L80.8596 15.1551H81.9612L82.5073 17.5099C82.6362 18.0708 82.7446 18.6001 82.8346 19.1H82.855C82.9338 18.6831 83.0627 18.1621 83.2519 17.5204L83.9371 15.1562H84.8106L85.4662 17.47C85.6247 18.0308 85.7536 18.5812 85.8538 19.1011H85.8824C85.952 18.5917 86.0614 18.0508 86.2097 17.47L86.7957 15.1562L87.8482 15.1551V15.1551ZM93.4018 20.1083H92.3299V17.2641C92.3299 16.3882 92.0026 15.9492 91.3573 15.9492C90.7221 15.9492 90.2854 16.51 90.2854 17.1623V20.1083H89.2136V16.5709C89.2136 16.133 89.2033 15.6635 89.1737 15.1541H90.1167L90.1668 15.9187H90.1964C90.4849 15.3894 91.0699 15.0533 91.7255 15.0533C92.738 15.0533 93.4028 15.8483 93.4028 17.1423L93.4018 20.1083V20.1083ZM96.3575 20.1083H95.2847V12.8823H96.3575V20.1083ZM100.266 20.2207C98.8572 20.2207 97.9428 19.1399 97.9428 17.6727C97.9428 16.1435 98.8756 15.0533 100.344 15.0533C101.734 15.0533 102.667 16.0826 102.667 17.5918C102.668 19.1399 101.705 20.2207 100.266 20.2207ZM100.305 15.8578C99.5312 15.8578 99.0351 16.6014 99.0351 17.6412C99.0351 18.661 99.5424 19.4046 100.294 19.4046C101.049 19.4046 101.554 18.6095 101.554 17.6202C101.555 16.6119 101.06 15.8578 100.305 15.8578V15.8578ZM106.893 20.1083L106.815 19.538H106.787C106.459 19.997 105.982 20.2207 105.376 20.2207C104.512 20.2207 103.898 19.5989 103.898 18.7629C103.898 17.5404 104.93 16.9081 106.717 16.9081V16.8167C106.717 16.1645 106.381 15.8378 105.716 15.8378C105.24 15.8378 104.823 15.9607 104.456 16.2054L104.238 15.4818C104.684 15.1961 105.24 15.0533 105.894 15.0533C107.154 15.0533 107.79 15.736 107.79 17.1024V18.9267C107.79 19.4267 107.811 19.8142 107.86 20.1094L106.893 20.1083V20.1083ZM106.746 17.6412C105.555 17.6412 104.958 17.9374 104.958 18.64C104.958 19.1599 105.266 19.4141 105.693 19.4141C106.238 19.4141 106.746 18.9866 106.746 18.4058V17.6412V17.6412ZM112.995 20.1083L112.945 19.3132H112.915C112.607 19.914 112.09 20.2207 111.367 20.2207C110.204 20.2207 109.343 19.1704 109.343 17.6926C109.343 16.1435 110.235 15.0522 111.455 15.0522C112.1 15.0522 112.557 15.2759 112.815 15.7255H112.836V12.8823H113.909V18.7734C113.909 19.2523 113.92 19.7008 113.949 20.1083H112.995ZM112.836 17.1938C112.836 16.5006 112.389 15.9093 111.707 15.9093C110.912 15.9093 110.427 16.6329 110.427 17.6517C110.427 18.6505 110.931 19.3342 111.686 19.3342C112.36 19.3342 112.836 18.7324 112.836 18.0193V17.1938ZM120.712 20.2207C119.303 20.2207 118.39 19.1399 118.39 17.6727C118.39 16.1435 119.323 15.0533 120.791 15.0533C122.181 15.0533 123.114 16.0826 123.114 17.5918C123.115 19.1399 122.153 20.2207 120.712 20.2207ZM120.751 15.8578C119.978 15.8578 119.482 16.6014 119.482 17.6412C119.482 18.661 119.988 19.4046 120.741 19.4046C121.496 19.4046 122.001 18.6095 122.001 17.6202C122.003 16.6119 121.507 15.8578 120.751 15.8578ZM128.878 20.1083H127.805V17.2641C127.805 16.3882 127.478 15.9492 126.833 15.9492C126.198 15.9492 125.762 16.51 125.762 17.1623V20.1083H124.689V16.5709C124.689 16.133 124.679 15.6635 124.649 15.1541H125.592L125.642 15.9187H125.672C125.959 15.3894 126.545 15.0522 127.2 15.0522C128.213 15.0522 128.878 15.8473 128.878 17.1412V20.1083ZM136.09 15.9807H134.911V18.3858C134.911 18.9982 135.117 19.3038 135.534 19.3038C135.724 19.3038 135.882 19.2828 136.01 19.2523L136.04 20.0884C135.832 20.1703 135.554 20.2112 135.208 20.2112C134.363 20.2112 133.858 19.7323 133.858 18.4783V15.9807H133.154V15.1551H133.858V14.2477L134.911 13.9211V15.1541H136.09V15.9807V15.9807ZM141.764 20.1083H140.693V17.2851C140.693 16.3987 140.367 15.9502 139.721 15.9502C139.165 15.9502 138.648 16.3378 138.648 17.1223V20.1083H137.577V12.8823H138.648V15.8578H138.669C139.007 15.3179 139.496 15.0522 140.12 15.0522C141.14 15.0522 141.764 15.8672 141.764 17.1623V20.1083V20.1083ZM147.577 17.8964H144.361C144.381 18.8343 144.986 19.3637 145.881 19.3637C146.356 19.3637 146.794 19.2817 147.181 19.1294L147.347 19.8941C146.891 20.0978 146.354 20.1997 145.729 20.1997C144.221 20.1997 143.328 19.2208 143.328 17.7032C143.328 16.1844 144.242 15.0428 145.609 15.0428C146.841 15.0428 147.614 15.9807 147.614 17.3975C147.621 17.5647 147.609 17.7322 147.577 17.8964V17.8964ZM146.595 17.1118C146.595 16.3472 146.219 15.8074 145.534 15.8074C144.918 15.8074 144.431 16.3577 144.362 17.1118H146.595V17.1118Z" fill="white"/>
<defs>
<linearGradient id="paint0_linear_159_35" x1="124.862" y1="48.1115" x2="124.862" y2="-103.361" gradientUnits="userSpaceOnUse">
<stop stop-color="#1A1A1A" stop-opacity="0.1"/>
<stop offset="0.123" stop-color="#212121" stop-opacity="0.151"/>
<stop offset="0.308" stop-color="#353535" stop-opacity="0.227"/>
<stop offset="0.532" stop-color="#575757" stop-opacity="0.318"/>
<stop offset="0.783" stop-color="#858585" stop-opacity="0.421"/>
<stop offset="1" stop-color="#B3B3B3" stop-opacity="0.51"/>
</linearGradient>
</defs>
</svg>
