<svg width="80" height="80" viewBox="0 0 80 80" fill="none" xmlns="http://www.w3.org/2000/svg">
<circle cx="40" cy="40" r="40" fill="#222222"/>
<g clip-path="url(#clip0_759_4022)">
<path fill-rule="evenodd" clip-rule="evenodd" d="M40.9703 50.0391C37.2479 50.0391 34.0157 48.0127 32.2671 45.0195L39.1158 41.0727C40.2682 40.4105 41.6724 40.4105 42.8249 41.0727L49.6603 45.0195C47.9382 48.0259 44.6927 50.0391 40.9703 50.0391V50.0391Z" fill="#E1BEE7"/>
<path fill-rule="evenodd" clip-rule="evenodd" d="M39.1159 41.0728L32.2672 45.0195C31.4062 43.5362 30.916 41.8277 30.916 40C30.916 34.4507 35.4067 29.961 40.9572 29.961C46.5077 29.961 50.9984 34.4507 50.9984 40C50.9984 41.8277 50.5083 43.5494 49.6472 45.0195L42.8118 41.0728C41.6858 40.4106 40.2684 40.4106 39.1159 41.0728Z" fill="#FAFAFA"/>
<path fill-rule="evenodd" clip-rule="evenodd" d="M62.2051 27.7359L49.6735 34.9805C47.9381 31.974 44.6926 29.9609 40.9702 29.9609V14.0281C41.5663 14.0281 42.1492 14.187 42.6791 14.4916L62.2184 25.7757C62.2184 25.7757 62.2316 25.7757 62.2316 25.789C62.9867 26.2128 62.9602 27.3121 62.2051 27.7359V27.7359Z" fill="#7B1FA2"/>
<path fill-rule="evenodd" clip-rule="evenodd" d="M40.9706 29.9609C37.2481 29.9609 34.0026 31.9741 32.2673 34.9805L18.4639 27.0075C18.7553 26.491 19.1925 26.0672 19.7091 25.7626L39.2485 14.4786C39.7783 14.174 40.3612 14.015 40.9573 14.015V29.9609H40.9706Z" fill="#4A148C"/>
<path fill-rule="evenodd" clip-rule="evenodd" d="M40.9704 50.0392V65.9719C40.3743 65.9719 39.7914 65.813 39.2615 65.5084L19.7223 54.2244C19.1924 53.9197 18.7685 53.4827 18.4771 52.9794L32.2804 45.0064C34.0157 48.0261 37.2612 50.0392 40.9704 50.0392V50.0392Z" fill="#7B1FA2"/>
<path fill-rule="evenodd" clip-rule="evenodd" d="M62.2316 54.2243C62.2316 54.2243 62.2184 54.2243 62.2184 54.2376L42.6791 65.5216C42.1492 65.8262 41.5663 65.9851 40.9702 65.9851V50.0524C44.6926 50.0524 47.9381 48.0393 49.6735 45.0329L62.2051 52.2642C62.9602 52.688 62.9867 53.7873 62.2316 54.2243V54.2243Z" fill="#4A148C"/>
<path fill-rule="evenodd" clip-rule="evenodd" d="M30.9291 40.0002C30.9291 41.8279 31.4192 43.5496 32.2671 45.0197L18.4636 52.9927C18.1722 52.4762 18 51.8934 18 51.2842V28.7294C18 28.1201 18.159 27.5374 18.4636 27.0209L32.2671 34.9939C31.4192 36.4507 30.9291 38.1725 30.9291 40.0002Z" fill="#BA68C8"/>
<path fill-rule="evenodd" clip-rule="evenodd" d="M49.6734 34.9805C47.9381 31.9741 44.6925 29.961 40.9834 29.961C39.4997 29.961 38.0823 30.2921 36.8105 30.8616L53.939 20.9682L62.2316 25.7493C62.9999 26.1864 62.9999 27.2989 62.2316 27.7359L49.6734 34.9805Z" fill="url(#paint0_linear_759_4022)"/>
</g>
<defs>
<linearGradient id="paint0_linear_759_4022" x1="57.6755" y1="21.1624" x2="52.3885" y2="39.3573" gradientUnits="userSpaceOnUse">
<stop stop-color="#1A237E" stop-opacity="0.01"/>
<stop offset="1" stop-color="#1A237E" stop-opacity="0.3"/>
</linearGradient>
<clipPath id="clip0_759_4022">
<rect width="45" height="52" fill="white" transform="matrix(1 0 0 -1 18 66)"/>
</clipPath>
</defs>
</svg>
