<svg width="60" height="60" viewBox="0 0 60 60" fill="none" xmlns="http://www.w3.org/2000/svg">
<path d="M19.5264 26.529C19.5264 27.126 19.5904 27.609 19.7024 27.964C19.8304 28.319 19.9894 28.706 20.2134 29.125C20.2934 29.254 20.3254 29.383 20.3254 29.496C20.3254 29.657 20.2294 29.818 20.0224 29.98L19.0164 30.657C18.8724 30.754 18.7294 30.802 18.6014 30.802C18.4414 30.802 18.2824 30.721 18.1224 30.576C17.8984 30.334 17.7074 30.076 17.5474 29.818C17.3874 29.544 17.2284 29.238 17.0524 28.867C15.8074 30.35 14.2424 31.092 12.3584 31.092C11.0174 31.092 9.94737 30.705 9.16537 29.931C8.38337 29.157 7.98438 28.125 7.98438 26.835C7.98438 25.465 8.46337 24.352 9.43737 23.514C10.4114 22.676 11.7044 22.256 13.3484 22.256C13.8914 22.256 14.4504 22.304 15.0404 22.385C15.6304 22.466 16.2374 22.595 16.8764 22.74V21.563C16.8764 20.338 16.6214 19.483 16.1264 18.983C15.6154 18.483 14.7534 18.241 13.5244 18.241C12.9654 18.241 12.3914 18.305 11.8004 18.451C11.2094 18.596 10.6354 18.773 10.0764 18.999C9.82138 19.112 9.62937 19.176 9.51737 19.209C9.40537 19.241 9.32537 19.257 9.26237 19.257C9.03838 19.257 8.92737 19.096 8.92737 18.757V17.967C8.92737 17.709 8.95937 17.516 9.03937 17.403C9.11937 17.29 9.26337 17.177 9.48637 17.064C10.0454 16.774 10.7154 16.532 11.4984 16.338C12.2804 16.128 13.1104 16.032 13.9884 16.032C15.8884 16.032 17.2774 16.467 18.1714 17.338C19.0494 18.209 19.4964 19.531 19.4964 21.304V26.528H19.5264V26.529ZM13.0444 28.979C13.5714 28.979 14.1144 28.882 14.6884 28.689C15.2634 28.496 15.7744 28.141 16.2054 27.657C16.4604 27.351 16.6524 27.012 16.7484 26.625C16.8444 26.238 16.9084 25.77 16.9084 25.222V24.545C16.4454 24.432 15.9504 24.335 15.4394 24.271C14.9284 24.207 14.4334 24.174 13.9384 24.174C12.8684 24.174 12.0864 24.384 11.5594 24.819C11.0324 25.254 10.7774 25.867 10.7774 26.673C10.7774 27.431 10.9694 27.995 11.3684 28.382C11.7514 28.786 12.3104 28.979 13.0444 28.979ZM25.8644 30.721C25.5774 30.721 25.3854 30.673 25.2574 30.56C25.1294 30.463 25.0184 30.238 24.9224 29.931L21.1704 17.468C21.0744 17.146 21.0264 16.936 21.0264 16.823C21.0264 16.565 21.1544 16.42 21.4094 16.42H22.9744C23.2774 16.42 23.4854 16.468 23.5974 16.581C23.7254 16.678 23.8204 16.903 23.9164 17.21L26.5984 27.884L29.0884 17.21C29.1684 16.888 29.2644 16.678 29.3914 16.581C29.5194 16.484 29.7424 16.42 30.0304 16.42H31.3074C31.6104 16.42 31.8184 16.468 31.9464 16.581C32.0744 16.678 32.1854 16.903 32.2494 17.21L34.7714 28.013L37.5334 17.21C37.6294 16.888 37.7414 16.678 37.8524 16.581C37.9804 16.484 38.1874 16.42 38.4754 16.42H39.9604C40.2154 16.42 40.3594 16.549 40.3594 16.823C40.3594 16.904 40.3434 16.984 40.3274 17.081C40.3114 17.178 40.2794 17.307 40.2154 17.484L36.3684 29.947C36.2724 30.269 36.1604 30.479 36.0334 30.576C35.9064 30.673 35.6984 30.737 35.4264 30.737H34.0534C33.7504 30.737 33.5424 30.689 33.4144 30.576C33.2864 30.463 33.1754 30.254 33.1114 29.931L30.6374 19.531L28.1794 29.915C28.0994 30.237 28.0034 30.447 27.8764 30.56C27.7484 30.673 27.5254 30.721 27.2374 30.721H25.8644ZM46.3784 31.156C45.5484 31.156 44.7184 31.059 43.9204 30.866C43.1224 30.673 42.4994 30.463 42.0844 30.221C41.8294 30.076 41.6534 29.915 41.5894 29.77C41.5254 29.625 41.4934 29.464 41.4934 29.319V28.497C41.4934 28.158 41.6214 27.997 41.8604 27.997C41.9564 27.997 42.0524 28.013 42.1474 28.045C42.2434 28.077 42.3864 28.142 42.5464 28.206C43.0894 28.448 43.6794 28.641 44.3024 28.77C44.9414 28.899 45.5634 28.963 46.2024 28.963C47.2084 28.963 47.9904 28.786 48.5334 28.431C49.0764 28.076 49.3634 27.56 49.3634 26.899C49.3634 26.448 49.2194 26.077 48.9324 25.77C48.6454 25.464 48.1024 25.19 47.3204 24.932L45.0054 24.206C43.8404 23.835 42.9784 23.287 42.4514 22.561C41.9244 21.852 41.6534 21.062 41.6534 20.223C41.6534 19.546 41.7974 18.949 42.0844 18.433C42.3714 17.917 42.7554 17.466 43.2334 17.111C43.7124 16.74 44.2554 16.466 44.8934 16.273C45.5324 16.081 46.2024 16 46.9054 16C47.2564 16 47.6234 16.016 47.9754 16.064C48.3424 16.112 48.6774 16.177 49.0134 16.241C49.3324 16.322 49.6364 16.402 49.9234 16.499C50.2104 16.596 50.4344 16.692 50.5944 16.789C50.8184 16.918 50.9774 17.047 51.0734 17.192C51.1694 17.321 51.2174 17.498 51.2174 17.724V18.482C51.2174 18.821 51.0894 18.998 50.8504 18.998C50.7224 18.998 50.5154 18.934 50.2434 18.805C49.3334 18.386 48.3114 18.176 47.1784 18.176C46.2684 18.176 45.5504 18.321 45.0554 18.627C44.5604 18.933 44.3054 19.401 44.3054 20.062C44.3054 20.513 44.4654 20.9 44.7844 21.207C45.1034 21.513 45.6944 21.82 46.5404 22.094L48.8074 22.82C49.9564 23.191 50.7874 23.707 51.2814 24.368C51.7754 25.029 52.0154 25.787 52.0154 26.625C52.0154 27.318 51.8714 27.947 51.6004 28.495C51.3134 29.043 50.9294 29.527 50.4354 29.914C49.9404 30.317 49.3494 30.607 48.6634 30.817C47.9424 31.043 47.1924 31.156 46.3784 31.156Z" fill="#7A7D82"/>
<path d="M49.3967 38.9918C44.1447 42.9098 36.5137 44.9898 29.9517 44.9898C20.7567 44.9898 12.4707 41.5558 6.21271 35.8478C5.71771 35.3968 6.16471 34.7838 6.75571 35.1388C13.5247 39.1048 21.8737 41.5078 30.5107 41.5078C36.3377 41.5078 42.7397 40.2828 48.6297 37.7668C49.5087 37.3638 50.2587 38.3468 49.3967 38.9918ZM51.5837 36.4768C50.9127 35.6058 47.1457 36.0578 45.4377 36.2668C44.9267 36.3308 44.8467 35.8798 45.3097 35.5408C48.3107 33.4128 53.2437 34.0248 53.8187 34.7348C54.3937 35.4608 53.6587 40.4428 50.8497 42.8288C50.4187 43.1998 50.0037 43.0058 50.1947 42.5228C50.8337 40.9268 52.2547 37.3308 51.5837 36.4768Z" fill="#FF9900"/>
</svg>
