<svg width="40" height="40" viewBox="0 0 40 40" fill="none" xmlns="http://www.w3.org/2000/svg">
<circle cx="20" cy="20" r="19.5" stroke="#606060" stroke-dasharray="6 6"/>
<path d="M19.9386 8.92969C17.1522 8.92969 14.8818 11.2001 14.8818 13.9865C14.8818 16.7729 17.1523 19.0432 19.9386 19.0432C22.725 19.0432 24.9954 16.7728 24.9954 13.9865C24.9952 11.2001 22.725 8.92969 19.9386 8.92969Z" fill="#76D079"/>
<path d="M24.6079 20.8496H15.2683C12.869 20.8496 10.8564 22.7846 10.8564 25.2615V29.3379H15.6294C15.4487 28.8476 15.3199 28.306 15.3199 27.7641C15.3199 25.3131 17.3839 23.3007 19.9123 23.3007C22.4406 23.3007 24.5046 25.2874 24.5046 27.7641C24.5046 28.3317 24.4015 28.8477 24.1951 29.3379H28.9681L28.9679 25.2615C29.0195 22.7846 27.0845 20.8496 24.6077 20.8496H24.6079Z" fill="#76D079"/>
<path d="M19.938 24.0996C17.9256 24.0996 16.2744 25.725 16.2744 27.7632C16.2744 29.7756 17.8999 31.4268 19.938 31.4268C21.9761 31.4268 23.6016 29.8013 23.6016 27.7632C23.6016 25.7508 21.9504 24.0996 19.938 24.0996ZM18.5706 28.7436L17.3064 27.7117L18.5964 26.7829L18.9059 27.1957L18.1835 27.7376L18.9316 28.331L18.5706 28.7436ZM19.6799 29.4145L19.1897 29.2338L20.2734 26.1121L20.7636 26.2928L19.6799 29.4145ZM21.3053 28.7436L20.9699 28.3307L21.718 27.7374L20.9956 27.1955L21.3051 26.7827L22.5951 27.7115L21.3053 28.7436Z" fill="#76D079"/>
</svg>
