<svg width="222" height="62" viewBox="0 0 222 62" fill="none" xmlns="http://www.w3.org/2000/svg">
<path fill-rule="evenodd" clip-rule="evenodd" d="M189.998 3.15569C190.327 3.17303 190.649 3.35982 190.819 3.71881L192.804 7.91735L197.245 8.58963C198.041 8.71013 198.36 9.73439 197.783 10.321L194.57 13.5873L195.33 18.2012C195.467 19.0289 194.631 19.6599 193.919 19.2699L189.972 17.1083L186.025 19.2698C185.314 19.6599 184.478 19.0288 184.615 18.2012L185.375 13.5872L182.162 10.321C181.585 9.73433 181.904 8.71007 182.7 8.58957L187.141 7.91729L189.125 3.71875C189.296 3.35976 189.618 3.17297 189.947 3.15563V3.15436C189.955 3.15436 189.963 3.15446 189.971 3.15466C189.98 3.15442 189.989 3.1543 189.998 3.1543V3.15569Z" fill="#FFC403"/>
<path fill-rule="evenodd" clip-rule="evenodd" d="M166.587 3.15567C166.917 3.17291 167.239 3.35972 167.409 3.71881L169.394 7.91735L173.835 8.58963C174.631 8.71013 174.95 9.73439 174.373 10.321L171.16 13.5873L171.92 18.2012C172.057 19.0289 171.221 19.6599 170.51 19.2699L166.562 17.1083L162.615 19.2698C161.904 19.6599 161.068 19.0288 161.205 18.2012L161.965 13.5872L158.752 10.321C158.174 9.73433 158.494 8.71007 159.29 8.58957L163.73 7.91729L165.715 3.71875C165.886 3.35966 166.208 3.17285 166.537 3.15561V3.15436C166.545 3.15436 166.553 3.15446 166.561 3.15466C166.57 3.15442 166.579 3.1543 166.587 3.1543V3.15567Z" fill="#FFC403"/>
<path fill-rule="evenodd" clip-rule="evenodd" d="M143.173 3.15568C143.503 3.17297 143.825 3.35977 143.995 3.71881L145.98 7.91735L150.421 8.58963C151.217 8.71013 151.536 9.73439 150.958 10.321L147.746 13.5873L148.506 18.2012C148.642 19.0289 147.807 19.6599 147.095 19.2699L143.148 17.1083L139.201 19.2698C138.49 19.6599 137.654 19.0288 137.791 18.2012L138.55 13.5872L135.338 10.321C134.76 9.73433 135.079 8.71007 135.876 8.58957L140.316 7.91729L142.301 3.71875C142.472 3.35971 142.794 3.17291 143.123 3.15562V3.15436C143.131 3.15436 143.139 3.15446 143.147 3.15466C143.156 3.15442 143.165 3.1543 143.173 3.1543V3.15568Z" fill="#FFC403"/>
<path fill-rule="evenodd" clip-rule="evenodd" d="M119.763 3.1557C120.092 3.17309 120.414 3.35989 120.585 3.71881L122.569 7.91735L127.01 8.58963C127.806 8.71013 128.125 9.73439 127.548 10.321L124.335 13.5873L125.095 18.2012C125.232 19.0289 124.396 19.6599 123.685 19.2699L119.738 17.1084L115.791 19.2698C115.08 19.6599 114.244 19.0288 114.38 18.2012L115.14 13.5872L111.928 10.321C111.35 9.73433 111.669 8.71007 112.466 8.58957L116.906 7.91729L118.891 3.71875C119.061 3.35983 119.383 3.17303 119.712 3.15564V3.15436C119.721 3.15436 119.729 3.15446 119.737 3.15466C119.746 3.15442 119.754 3.1543 119.763 3.1543V3.1557Z" fill="#FFC403"/>
<g clip-path="url(#clip0_4441_7879)">
<path d="M213.358 15.3726L217.136 17.4465L216.416 13.0576L219.473 9.94997L215.248 9.30941L213.358 5.31382V3.1543C213.704 3.1543 214.051 3.34139 214.23 3.71875L216.215 7.91729L220.655 8.58957C221.452 8.71007 221.771 9.73433 221.193 10.321L217.981 13.5872L218.741 18.2012C218.877 19.0288 218.042 19.6599 217.33 19.2698L213.358 17.0945V15.3726Z" fill="#FFC403"/>
</g>
<g clip-path="url(#clip1_4441_7879)">
<path d="M213.408 15.3726L209.63 17.4465L210.35 13.0576L207.292 9.94997L211.517 9.30941L213.408 5.31382V3.1543C213.061 3.1543 212.715 3.34139 212.535 3.71875L210.551 7.91729L206.11 8.58957C205.314 8.71007 204.995 9.73433 205.572 10.321L208.785 13.5872L208.025 18.2012C207.888 19.0288 208.724 19.6599 209.435 19.2698L213.408 17.0945V15.3726Z" fill="#FFC403"/>
</g>
<path d="M215.227 16.8359V8.91471L213.426 4.9541L211.626 8.91471L206.945 9.99488L209.826 13.2354L209.466 17.9161L213.066 16.1158L215.227 16.8359Z" fill="#FFC403" stroke="#FFC403"/>
<path d="M6.83319 16L4.50919 12.01H2.96919V16H1.69519V6.242H4.84519C5.58252 6.242 6.20319 6.368 6.70719 6.62C7.22052 6.872 7.60319 7.21267 7.85519 7.642C8.10719 8.07133 8.23319 8.56133 8.23319 9.112C8.23319 9.784 8.03719 10.3767 7.64519 10.89C7.26252 11.4033 6.68385 11.744 5.90919 11.912L8.35919 16H6.83319ZM2.96919 10.988H4.84519C5.53585 10.988 6.05385 10.82 6.39919 10.484C6.74452 10.1387 6.91719 9.68133 6.91719 9.112C6.91719 8.53333 6.74452 8.08533 6.39919 7.768C6.06319 7.45067 5.54519 7.292 4.84519 7.292H2.96919V10.988ZM11.4868 7.278V10.54H15.0428V11.59H11.4868V14.95H15.4628V16H10.2128V6.228H15.4628V7.278H11.4868ZM25.4545 6.242L21.7725 16H20.3025L16.6205 6.242H17.9785L21.0445 14.656L24.1105 6.242H25.4545ZM28.1254 6.242V16H26.8514V6.242H28.1254ZM31.5708 7.278V10.54H35.1268V11.59H31.5708V14.95H35.5468V16H30.2968V6.228H35.5468V7.278H31.5708ZM49.7385 6.242L46.9105 16H45.4825L43.2145 8.146L40.8625 16L39.4485 16.014L36.7185 6.242H38.0765L40.2045 14.516L42.5565 6.242H43.9845L46.2245 14.488L48.3665 6.242H49.7385ZM52.4067 7.278V10.54H55.9627V11.59H52.4067V14.95H56.3827V16H51.1327V6.228H56.3827V7.278H52.4067ZM61.3484 6.242C62.4124 6.242 63.3318 6.44267 64.1064 6.844C64.8904 7.236 65.4878 7.80067 65.8984 8.538C66.3184 9.27533 66.5284 10.1433 66.5284 11.142C66.5284 12.1407 66.3184 13.0087 65.8984 13.746C65.4878 14.474 64.8904 15.034 64.1064 15.426C63.3318 15.8087 62.4124 16 61.3484 16H58.3104V6.242H61.3484ZM61.3484 14.95C62.6084 14.95 63.5698 14.6187 64.2324 13.956C64.8951 13.284 65.2264 12.346 65.2264 11.142C65.2264 9.92867 64.8904 8.98133 64.2184 8.3C63.5558 7.61867 62.5991 7.278 61.3484 7.278H59.5844V14.95H61.3484ZM76.3653 16.098C75.4599 16.098 74.6339 15.888 73.8873 15.468C73.1406 15.0387 72.5479 14.446 72.1093 13.69C71.6799 12.9247 71.4653 12.066 71.4653 11.114C71.4653 10.162 71.6799 9.308 72.1093 8.552C72.5479 7.78667 73.1406 7.194 73.8873 6.774C74.6339 6.34467 75.4599 6.13 76.3653 6.13C77.2799 6.13 78.1106 6.34467 78.8573 6.774C79.6039 7.194 80.1919 7.782 80.6213 8.538C81.0506 9.294 81.2653 10.1527 81.2653 11.114C81.2653 12.0753 81.0506 12.934 80.6213 13.69C80.1919 14.446 79.6039 15.0387 78.8573 15.468C78.1106 15.888 77.2799 16.098 76.3653 16.098ZM76.3653 14.992C77.0466 14.992 77.6579 14.8333 78.1993 14.516C78.7499 14.1987 79.1793 13.746 79.4873 13.158C79.8046 12.57 79.9633 11.8887 79.9633 11.114C79.9633 10.33 79.8046 9.64867 79.4873 9.07C79.1793 8.482 78.7546 8.02933 78.2133 7.712C77.6719 7.39467 77.0559 7.236 76.3653 7.236C75.6746 7.236 75.0586 7.39467 74.5173 7.712C73.9759 8.02933 73.5466 8.482 73.2293 9.07C72.9213 9.64867 72.7673 10.33 72.7673 11.114C72.7673 11.8887 72.9213 12.57 73.2293 13.158C73.5466 13.746 73.9759 14.1987 74.5173 14.516C75.0679 14.8333 75.6839 14.992 76.3653 14.992ZM90.6191 16H89.3451L84.2211 8.23V16H82.9471V6.228H84.2211L89.3451 13.984V6.228H90.6191V16Z" fill="#C7C7C7"/>
<path d="M131.515 47.4514C131.589 46.4701 131.968 45.7021 132.651 45.1474C133.333 44.5928 134.219 44.3154 135.307 44.3154C136.032 44.3154 136.656 44.4488 137.179 44.7154C137.712 44.9714 138.112 45.3234 138.379 45.7714C138.656 46.2194 138.795 46.7261 138.795 47.2914C138.795 47.9528 138.603 48.5234 138.219 49.0034C137.845 49.4834 137.355 49.7928 136.747 49.9314V50.0114C137.44 50.1821 137.989 50.5181 138.395 51.0194C138.8 51.5208 139.003 52.1768 139.003 52.9874C139.003 53.5954 138.864 54.1448 138.587 54.6354C138.309 55.1154 137.893 55.4941 137.339 55.7714C136.784 56.0488 136.117 56.1874 135.339 56.1874C134.208 56.1874 133.28 55.8941 132.555 55.3074C131.829 54.7101 131.424 53.8674 131.339 52.7794H132.747C132.821 53.4194 133.083 53.9421 133.531 54.3474C133.979 54.7528 134.576 54.9554 135.323 54.9554C136.069 54.9554 136.635 54.7634 137.019 54.3794C137.413 53.9848 137.611 53.4781 137.611 52.8594C137.611 52.0594 137.344 51.4834 136.811 51.1314C136.277 50.7794 135.472 50.6034 134.395 50.6034H134.027V49.3874H134.411C135.392 49.3768 136.133 49.2168 136.635 48.9074C137.136 48.5874 137.387 48.0968 137.387 47.4354C137.387 46.8701 137.2 46.4168 136.827 46.0754C136.464 45.7341 135.941 45.5634 135.259 45.5634C134.597 45.5634 134.064 45.7341 133.659 46.0754C133.253 46.4168 133.013 46.8754 132.939 47.4514H131.515ZM148.089 45.6754L143.641 56.1074H142.169L146.681 45.8194H140.505V44.5714H148.089V45.6754ZM160.081 56.1074L157.425 51.5474H155.665V56.1074H154.209V44.9554H157.809C158.651 44.9554 159.361 45.0994 159.937 45.3874C160.523 45.6754 160.961 46.0648 161.249 46.5554C161.537 47.0461 161.681 47.6061 161.681 48.2354C161.681 49.0034 161.457 49.6808 161.009 50.2674C160.571 50.8541 159.91 51.2434 159.025 51.4354L161.825 56.1074H160.081ZM155.665 50.3794H157.809C158.598 50.3794 159.19 50.1874 159.585 49.8034C159.979 49.4088 160.177 48.8861 160.177 48.2354C160.177 47.5741 159.979 47.0621 159.585 46.6994C159.201 46.3368 158.609 46.1554 157.809 46.1554H155.665V50.3794ZM165.399 46.1394V49.8674H169.463V51.0674H165.399V54.9074H169.943V56.1074H163.943V44.9394H169.943V46.1394H165.399ZM181.362 44.9554L177.154 56.1074H175.474L171.266 44.9554H172.818L176.322 54.5714L179.826 44.9554H181.362ZM184.415 44.9554V56.1074H182.959V44.9554H184.415ZM188.352 46.1394V49.8674H192.416V51.0674H188.352V54.9074H192.896V56.1074H186.896V44.9394H192.896V46.1394H188.352ZM209.115 44.9554L205.883 56.1074H204.251L201.659 47.1314L198.971 56.1074L197.355 56.1234L194.235 44.9554H195.787L198.219 54.4114L200.907 44.9554H202.539L205.099 54.3794L207.547 44.9554H209.115ZM214.245 56.2194C213.509 56.2194 212.847 56.0914 212.261 55.8354C211.685 55.5688 211.231 55.2061 210.901 54.7474C210.57 54.2781 210.399 53.7394 210.389 53.1314H211.941C211.994 53.6541 212.207 54.0968 212.581 54.4594C212.965 54.8114 213.519 54.9874 214.245 54.9874C214.938 54.9874 215.482 54.8168 215.877 54.4754C216.282 54.1234 216.485 53.6754 216.485 53.1314C216.485 52.7048 216.367 52.3581 216.133 52.0914C215.898 51.8248 215.605 51.6221 215.253 51.4834C214.901 51.3448 214.426 51.1954 213.829 51.0354C213.093 50.8434 212.501 50.6514 212.053 50.4594C211.615 50.2674 211.237 49.9688 210.917 49.5634C210.607 49.1474 210.453 48.5928 210.453 47.8994C210.453 47.2914 210.607 46.7528 210.917 46.2834C211.226 45.8141 211.658 45.4514 212.213 45.1954C212.778 44.9394 213.423 44.8114 214.149 44.8114C215.194 44.8114 216.047 45.0728 216.709 45.5954C217.381 46.1181 217.759 46.8114 217.845 47.6754H216.245C216.191 47.2488 215.967 46.8754 215.573 46.5554C215.178 46.2248 214.655 46.0594 214.005 46.0594C213.397 46.0594 212.901 46.2194 212.517 46.5394C212.133 46.8488 211.941 47.2861 211.941 47.8514C211.941 48.2568 212.053 48.5874 212.277 48.8434C212.511 49.0994 212.794 49.2968 213.125 49.4354C213.466 49.5634 213.941 49.7128 214.549 49.8834C215.285 50.0861 215.877 50.2888 216.325 50.4914C216.773 50.6834 217.157 50.9874 217.477 51.4034C217.797 51.8088 217.957 52.3634 217.957 53.0674C217.957 53.6114 217.813 54.1234 217.525 54.6034C217.237 55.0834 216.81 55.4728 216.245 55.7714C215.679 56.0701 215.013 56.2194 214.245 56.2194Z" fill="#C7C7C7"/>
<path d="M26.4102 32.7998H30.9733V60.9725H26.4102V32.7998Z" fill="#E1E1E1"/>
<path d="M46.8429 52.0441C46.8429 56.4089 43.2717 56.8057 42.0813 56.8057C39.3037 56.8057 38.9069 54.2265 38.9069 52.8377V41.9258H34.3438V52.6393C34.3438 55.2185 35.1373 57.5993 36.7245 58.9881C38.1133 60.3769 39.8989 60.9721 42.0813 60.9721C43.6685 60.9721 45.6525 60.5753 46.8429 59.3849V60.9721H51.4061V41.9258H46.8429V52.0441Z" fill="#E1E1E1"/>
<path d="M60.3344 34.9824H55.7712V41.9264H52.3984V46.2912H55.7712V60.9727H60.3344V46.2912H63.7072V41.9264H60.3344V34.9824Z" fill="#E1E1E1"/>
<path d="M77.9911 55.2188C76.9991 56.0124 75.6104 56.6076 74.2216 56.6076C71.0472 56.6076 68.8648 54.2268 68.8648 51.0525C68.8648 47.8781 71.0472 45.6957 74.2216 45.6957C75.6104 45.6957 76.9991 46.0925 77.9911 47.0845L78.5863 47.6797L81.7607 44.7037L80.9671 44.1085C79.1815 42.5213 76.8007 41.5293 74.2216 41.5293C68.6664 41.5293 64.5 45.6957 64.5 51.2509C64.5 56.806 68.6664 60.9724 74.2216 60.9724C76.8007 60.9724 79.1815 59.9804 80.9671 58.3932L81.7607 57.798L78.5863 54.6236L77.9911 55.2188Z" fill="#E1E1E1"/>
<path d="M97.8333 43.5134C96.4445 42.1246 95.0557 41.5294 92.8733 41.5294C91.2861 41.5294 89.6989 41.9262 88.5085 43.1166V32.7998H83.9453V60.9725H88.5085V50.4573C88.5085 46.0925 91.4845 45.6957 92.6749 45.6957C95.4525 45.6957 95.2541 48.2749 95.2541 49.6637V60.7741H99.8172V49.8621C99.8172 47.2829 99.222 44.9022 97.8333 43.5134Z" fill="#E1E1E1"/>
<path d="M74.026 54.4249C75.7791 54.4249 77.2003 53.0037 77.2003 51.2506C77.2003 49.4974 75.7791 48.0762 74.026 48.0762C72.2728 48.0762 70.8516 49.4974 70.8516 51.2506C70.8516 53.0037 72.2728 54.4249 74.026 54.4249Z" fill="#EF4335"/>
<path d="M20.0603 54.0286C18.4731 55.6158 16.0923 56.6078 13.5131 56.6078C8.55315 56.6078 4.98197 52.6398 4.98197 47.2831C4.98197 41.9263 8.55315 37.9583 13.7115 37.9583C16.0923 37.9583 18.4731 38.9503 20.2587 40.7359L20.8539 41.3311L23.8299 38.3551L23.2347 37.7599C20.6555 35.1807 17.2827 33.7919 13.7115 33.7919C6.17236 33.5935 0.617188 39.5455 0.617188 47.2831C0.617188 55.0206 6.17236 60.9726 13.5131 60.9726C17.0843 60.9726 20.6555 59.5838 23.0363 57.0046L23.6315 56.4094L20.6555 53.4334L20.0603 54.0286Z" fill="#E1E1E1"/>
<defs>
<clipPath id="clip0_4441_7879">
<rect width="8.13099" height="16.236" fill="white" transform="translate(213.383 3.1543)"/>
</clipPath>
<clipPath id="clip1_4441_7879">
<rect width="8.13099" height="16.236" fill="white" transform="translate(205.277 3.1543)"/>
</clipPath>
</defs>
</svg>
