<svg width="40" height="40" viewBox="0 0 40 40" fill="none" xmlns="http://www.w3.org/2000/svg">
<circle cx="20" cy="20" r="19.5" stroke="#606060" stroke-dasharray="6 6"/>
<path d="M25.6412 12.7866V10.8167C25.6412 10.3459 25.0718 10.1099 24.7388 10.443L21.2579 13.9239C21.0515 14.1304 21.0515 14.465 21.2579 14.6715L24.7388 18.1524C25.0717 18.4853 25.6412 18.2495 25.6412 17.7787V15.8134C27.8437 15.8403 29.6275 17.6384 29.6275 19.8472C29.6275 22.0729 27.8171 23.8835 25.5914 23.8835C23.3657 23.8835 21.5553 22.0729 21.5553 19.8472C21.5553 15.9523 18.3867 12.7841 14.4923 12.7841C10.5975 12.7841 7.42871 15.9522 7.42871 19.8472C7.42871 23.7142 10.5531 26.8612 14.4097 26.906V28.8777C14.4097 29.3485 14.9789 29.5845 15.3118 29.2513L18.7927 25.7704C18.9992 25.564 18.9992 25.2294 18.7927 25.0229L15.3118 21.542C14.9789 21.2091 14.4097 21.4449 14.4097 21.9157V23.8789C12.2223 23.8345 10.4562 22.0446 10.4562 19.8469C10.4562 17.6214 12.2665 15.8106 14.4923 15.8106C16.7178 15.8106 18.5284 17.6212 18.5284 19.8469C18.5284 23.7418 21.697 26.91 25.5919 26.91C29.4864 26.91 32.655 23.7419 32.655 19.8469C32.655 15.9689 29.5131 12.8135 25.6414 12.7866L25.6412 12.7866Z" fill="#4095C5"/>
</svg>
