<svg width="60" height="60" viewBox="0 0 60 60" fill="none" xmlns="http://www.w3.org/2000/svg">
<path d="M12.5 44.5291L29.1616 13.2882C29.5127 12.6298 30.462 12.6419 30.7956 13.3101L36.5617 24.8422L12.5 44.5291Z" fill="#FF8F00"/>
<path d="M12.5 44.5203L18.5657 7.11642C18.7243 6.13755 20.039 5.92537 20.4983 6.80471L32.1868 29.2083L12.5 44.5203Z" fill="#FFA000"/>
<path d="M12.5088 44.5137L12.7275 44.342L31.8992 28.6571L26.4919 18.2931L12.5088 44.5137Z" fill="#FF6F00"/>
<path d="M12.5 44.5291L41.6649 16.4064C42.2763 15.8169 43.2968 16.1647 43.4215 17.0047L47.4988 44.5291L31.0931 54.0914C30.427 54.4654 29.6144 54.4654 28.9483 54.0914L12.5 44.5291Z" fill="#FFC400"/>
</svg>
