<svg width="40" height="40" viewBox="0 0 40 40" fill="none" xmlns="http://www.w3.org/2000/svg">
<circle cx="20" cy="20" r="19.5" stroke="#606060" stroke-dasharray="6 6"/>
<path d="M9.91975 15.4196H24.1759C24.4993 15.3105 24.8351 15.2451 25.1751 15.2245C25.3024 15.2245 25.4201 15.2095 25.5523 15.2095C26.2935 15.2032 27.0228 15.4011 27.6633 15.7824C27.9795 15.9621 28.2689 16.187 28.5229 16.4501V11.9474C28.5198 11.4875 28.3394 11.0471 28.0209 10.7218C27.7024 10.3964 27.2712 10.2123 26.8209 10.209H9.70201C9.24998 10.2123 8.81742 10.398 8.49865 10.7253C8.1797 11.0528 8.00048 11.4957 8 11.9576V27.4668C8.00564 27.9252 8.18723 28.363 8.50551 28.6862C8.8236 29.0093 9.25326 29.1922 9.70201 29.1953H17.3063V28.9877C17.3065 28.3614 17.4946 27.7504 17.8451 27.2367H9.92023L9.91975 15.4196ZM15.8194 11.9399C16.0478 11.9401 16.2669 12.0329 16.4282 12.198C16.5895 12.3632 16.6797 12.5873 16.679 12.8206C16.6783 13.0539 16.5869 13.2773 16.4246 13.4416C16.2625 13.6058 16.043 13.6974 15.8146 13.696C15.5862 13.6948 15.3677 13.6006 15.2073 13.4345C15.0469 13.2683 14.9578 13.0438 14.9599 12.8105C14.9618 12.5789 15.0532 12.3575 15.2141 12.1945C15.3752 12.0315 15.5927 11.9399 15.8194 11.9399L15.8194 11.9399ZM13.2674 11.9399C13.4958 11.9401 13.7148 12.0329 13.8761 12.198C14.0374 12.3632 14.1278 12.5873 14.1271 12.8206C14.1264 13.0539 14.0348 13.2773 13.8727 13.4416C13.7104 13.6058 13.4909 13.6974 13.2625 13.696C13.0341 13.6948 12.8156 13.6006 12.6553 13.4345C12.4949 13.2683 12.4059 13.0438 12.4078 12.8105C12.4099 12.5789 12.5013 12.3575 12.6622 12.1945C12.8233 12.0315 13.0407 11.9399 13.2674 11.9399L13.2674 11.9399ZM10.7155 11.9399C10.9439 11.9401 11.1629 12.0329 11.3242 12.198C11.4855 12.3632 11.5758 12.5873 11.5752 12.8206C11.5745 13.0539 11.4829 13.2773 11.3208 13.4416C11.1585 13.6058 10.939 13.6974 10.7106 13.696C10.4822 13.6948 10.2637 13.6006 10.1034 13.4345C9.94302 13.2683 9.85401 13.0438 9.85589 12.8105C9.85794 12.5789 9.94933 12.3575 10.1103 12.1945C10.2714 12.0315 10.4888 11.9399 10.7155 11.9399L10.7155 11.9399ZM20.9255 18.9245C20.8059 19.4233 20.7751 19.9402 20.8349 20.4504C20.4283 21.3185 20.693 22.2791 20.7908 22.6266C20.9111 23.1412 21.1308 23.6259 21.4373 24.0524C21.4764 24.1775 21.523 24.3026 21.5744 24.4227C21.1778 24.6504 20.6904 24.9454 20.1613 25.2983H11.8127V17.3534H21.643C21.3041 17.8231 21.0601 18.357 20.9255 18.9243L20.9255 18.9245ZM32 28.9854V30.1212C31.9995 30.3299 31.918 30.5298 31.7735 30.6776C31.6288 30.8252 31.433 30.9085 31.2287 30.909H19.7326C19.5282 30.9085 19.3323 30.8252 19.1878 30.6776C19.0433 30.5298 18.9618 30.3298 18.9613 30.1212V28.9854C18.9599 28.5739 19.1398 28.1836 19.451 27.9222C20.6246 26.9571 21.8965 26.1235 23.2445 25.4357C23.2625 25.427 23.2739 25.4085 23.2739 25.3883V24.1375C23.0991 23.8316 22.9775 23.4975 22.914 23.1494C22.7204 23.0869 22.5467 22.7692 22.3849 22.1788C22.2356 21.6411 22.233 21.2909 22.3849 21.1108V21.1106C22.4464 21.037 22.535 20.9927 22.6299 20.9881C22.5972 20.8815 22.5709 20.7728 22.5514 20.6629C22.4534 20.23 22.4534 19.7799 22.5514 19.3471C22.6761 18.8325 22.9382 18.3631 23.3082 17.9912C23.5151 17.7663 23.7488 17.5688 24.0037 17.4034C24.2027 17.2512 24.421 17.1275 24.6527 17.0357C24.8534 16.9654 25.0629 16.9241 25.2749 16.9131H25.5393C25.9917 16.9075 26.437 17.0277 26.8276 17.2608C27.1264 17.4261 27.3792 17.6662 27.5623 17.9588C27.7938 17.9986 28.0026 18.1253 28.1476 18.3141C28.5052 18.7792 28.5983 19.5648 28.422 20.6505V20.6503C28.4023 20.7604 28.3762 20.869 28.3436 20.9756C28.4382 20.9801 28.5269 21.0244 28.5884 21.0982C28.7353 21.2783 28.7329 21.6261 28.5884 22.1663C28.4242 22.7541 28.2505 23.0743 28.0593 23.1368H28.0594C27.9956 23.4809 27.8738 23.8111 27.6993 24.1124V25.3857C27.6993 25.4061 27.7108 25.4246 27.7287 25.4333C29.0726 26.1226 30.3404 26.9569 31.5101 27.9222C31.8214 28.1836 32.0012 28.574 31.9999 28.9854L32 28.9854Z" fill="#5C9DEE"/>
</svg>
