<svg width="40" height="40" viewBox="0 0 40 40" fill="none" xmlns="http://www.w3.org/2000/svg">
<circle cx="20" cy="20" r="19.5" stroke="#606060" stroke-dasharray="6 6"/>
<path d="M30.7292 24.3513C31.0272 24.9545 30.7857 25.6877 30.1899 25.9891L21.0786 30.5991C20.3994 30.9428 19.6 30.9428 18.9208 30.5991L9.80959 25.9891C9.21377 25.6877 8.97223 24.9544 9.27023 24.3513C9.56805 23.7483 10.2927 23.5039 10.8886 23.8054L19.9995 28.4154L29.1103 23.8054C29.7063 23.5038 30.4309 23.7483 30.7287 24.3513H30.7292ZM30.7292 19.4683C31.0272 20.0713 30.7857 20.8047 30.1899 21.1061L21.0786 25.7161C20.3994 26.0598 19.6 26.0598 18.9208 25.7161L9.80959 21.1061C9.21377 20.8047 8.97223 20.0713 9.27023 19.4683C9.56805 18.8653 10.2927 18.6209 10.8886 18.9224L19.9995 23.5324L29.1103 18.9224C29.7063 18.6209 30.4309 18.8653 30.7287 19.4683H30.7292ZM20.9799 9.35297L28.8666 12.9001C29.4124 13.1455 29.8489 13.5872 30.0914 14.1396C30.6326 15.3718 30.0842 16.8146 28.8666 17.3622L20.9799 20.9094C20.356 21.1899 19.6439 21.1899 19.02 20.9094L11.1333 17.3622C10.5875 17.1168 10.151 16.6751 9.90852 16.1227C9.36735 14.8906 9.91574 13.4477 11.1333 12.9001L19.02 9.35297C19.6439 9.07245 20.356 9.07245 20.9799 9.35297Z" fill="#41BFAD"/>
</svg>
