<svg width="221" height="67" viewBox="0 0 221 67" fill="none" xmlns="http://www.w3.org/2000/svg">
<path fill-rule="evenodd" clip-rule="evenodd" d="M106.674 8.45008C106.674 8.32423 106.548 8.19839 106.548 8.19839C106.422 8.07254 106.044 8.07254 105.54 8.07254C104.28 8.07254 103.146 8.70177 102.641 9.70855V8.45008C102.641 8.32423 102.515 8.19839 102.389 8.19839H100.499C100.373 8.19839 100.247 8.32423 100.247 8.45008V17.1335C100.247 17.2594 100.373 17.3852 100.499 17.3852H102.515C102.641 17.3852 102.767 17.2594 102.767 17.1335V13.2323C102.767 11.4704 104.028 10.5895 105.54 10.5895C105.918 10.5895 106.296 10.7153 106.422 10.7153C106.548 10.7153 106.674 10.7153 106.674 10.4636V8.45008ZM93.9456 8.07254C96.7182 8.07254 98.8606 9.96024 98.8606 12.8547C98.8606 15.7492 96.7182 17.6369 93.9456 17.6369C91.173 17.6369 89.0305 15.7492 89.0305 12.8547C89.0305 9.96024 91.173 8.07254 93.9456 8.07254ZM93.9456 15.2458C95.3319 15.2458 96.3401 14.239 96.3401 12.8547C96.3401 11.3446 95.3319 10.4636 93.9456 10.4636C92.5593 10.4636 91.551 11.4704 91.551 12.8547C91.551 14.239 92.5593 15.2458 93.9456 15.2458ZM82.8551 8.07254C85.6278 8.07254 87.7702 9.96024 87.7702 12.8547C87.7702 15.7492 85.6278 17.6369 82.8551 17.6369C80.0826 17.6369 77.9401 15.7492 77.9401 12.8547C77.9401 9.96024 80.0826 8.07254 82.8551 8.07254ZM82.8551 15.2458C84.2415 15.2458 85.2497 14.239 85.2497 12.8547C85.2497 11.3446 84.2415 10.4636 82.8551 10.4636C81.4688 10.4636 80.4606 11.4704 80.4606 12.8547C80.4606 14.3649 81.4688 15.2458 82.8551 15.2458ZM76.3017 4.67468C76.4278 4.67468 76.5538 4.80052 76.5538 4.92637V17.2594C76.5538 17.3852 76.4278 17.5111 76.3017 17.5111H74.2853C74.1593 17.5111 74.0332 17.3852 74.0332 17.2594V16.1267C73.4031 17.1335 72.3949 17.6369 71.0086 17.6369C68.7401 17.6369 66.8497 15.875 66.8497 12.8547C66.8497 9.70855 68.7401 8.07254 70.8826 8.07254C72.2689 8.07254 73.2771 8.70177 73.9072 9.5827V4.80052C73.9072 4.67468 74.0332 4.54883 74.1593 4.54883L76.3017 4.67468ZM71.7648 15.2458C73.1511 15.2458 74.1593 14.239 74.1593 12.8547C74.1593 11.3446 73.1511 10.4636 71.7648 10.4636C70.3785 10.4636 69.3702 11.4704 69.3702 12.8547C69.4963 14.3649 70.5045 15.2458 71.7648 15.2458ZM65.7154 14.6166C65.7154 16.6301 64.2031 17.6369 61.8086 17.6369C60.1702 17.6369 58.6579 17.1335 57.9017 16.2526C57.7757 16.1267 57.7757 16.1267 57.9017 16.0009L59.036 14.4907C59.162 14.3649 59.288 14.3649 59.288 14.4907C59.9182 15.12 60.8004 15.4975 61.9346 15.4975C62.5648 15.4975 63.1949 15.3717 63.1949 14.7424C63.1949 14.239 62.6908 14.1132 61.1785 13.8615C59.7922 13.6098 58.1538 12.9806 58.1538 10.967C58.1538 9.07932 59.6661 8.07254 61.9346 8.07254C63.4469 8.07254 64.5812 8.57593 65.4634 9.33101C65.5894 9.45686 65.5894 9.5827 65.4634 9.5827L64.3291 10.967C64.2031 11.0929 64.0771 11.0929 64.0771 10.967C63.573 10.4636 62.6908 10.2119 61.8086 10.2119C61.0524 10.2119 60.6743 10.4636 60.6743 10.8412C60.6743 11.3446 61.1785 11.3446 62.8168 11.7221C64.3291 12.0996 65.7154 12.7289 65.7154 14.6166ZM56.5155 14.6166C56.5155 16.6301 55.0031 17.6369 52.6086 17.6369C50.9702 17.6369 49.4579 17.1335 48.7018 16.2526V16.0009L49.836 14.4907C49.962 14.3649 50.0881 14.3649 50.0881 14.4907C50.7182 15.12 51.6004 15.4975 52.7346 15.4975C53.3648 15.4975 53.9949 15.3717 53.9949 14.7424C53.9949 14.239 53.4908 14.1132 51.9785 13.8615C50.5922 13.6098 48.9538 12.9806 48.9538 10.967C48.9538 9.07932 50.3401 8.07254 52.7346 8.07254C54.247 8.07254 55.3812 8.57593 56.2634 9.33101C56.3894 9.45686 56.3894 9.5827 56.2634 9.5827L55.1291 10.967C55.0031 11.0929 54.8771 11.0929 54.8771 10.967C54.373 10.4636 53.4908 10.2119 52.6086 10.2119C51.8524 10.2119 51.4744 10.4636 51.4744 10.8412C51.4744 11.3446 51.9785 11.3446 53.6168 11.7221C55.1291 12.0996 56.5155 12.7289 56.5155 14.6166ZM43.0305 8.07254C45.6771 8.07254 46.9374 9.20516 46.9374 11.7221V17.1335C46.9374 17.2594 46.8113 17.3852 46.6853 17.3852H44.7949C44.6689 17.3852 44.5429 17.2594 44.5429 17.1335V16.1267C44.0387 16.8818 43.1566 17.5111 41.7703 17.5111C40.0059 17.5111 38.7456 16.3784 38.7456 14.6166C38.7456 12.9806 40.0059 11.9738 41.6442 11.7221L44.1648 11.4704C44.5429 11.4704 44.6689 11.3446 44.6689 11.0929V10.967C44.6689 10.4636 44.1648 10.0861 43.0305 10.0861C42.1483 10.0861 41.2661 10.3378 40.8881 11.0929C40.8881 11.2187 40.762 11.2187 40.636 11.0929L39.2497 10.0861C39.1237 10.0861 39.1237 9.96024 39.2497 9.8344C39.6278 8.70178 41.1401 8.07254 43.0305 8.07254ZM44.5429 13.7357V13.3581L42.2744 13.6098C41.5182 13.7356 41.1401 14.1132 41.1401 14.6166C41.1401 15.2458 41.6442 15.6234 42.4004 15.6234C43.7867 15.6234 44.5429 14.7424 44.5429 13.7357ZM37.1072 4.80052V17.1335C37.1072 17.2594 36.9812 17.3852 36.8552 17.3852H34.8388C34.7127 17.3852 34.5867 17.2594 34.5867 17.1335V4.80052C34.5867 4.67468 34.7127 4.54883 34.8388 4.54883H36.8552L37.1072 4.80052ZM32.4442 8.32423C32.5703 8.32423 32.6963 8.45008 32.6963 8.57593V16.8818C32.6963 19.2729 31.562 21.4123 27.7812 21.4123C26.0168 21.4123 24.8826 20.9089 23.8744 20.1538C23.7484 20.1538 23.7484 20.028 23.8744 19.7763L24.7566 18.2661C24.7566 18.1403 25.0086 18.1403 25.0086 18.2661C25.7648 18.8954 26.5209 19.2729 27.5292 19.2729C29.5456 19.2729 30.1757 18.2661 30.1757 16.8818V16.2526C29.5456 17.1335 28.5374 17.6369 27.2771 17.6369C24.8826 17.6369 22.9922 16.0009 22.9922 12.9806C22.9922 9.96024 24.8826 8.19839 27.1511 8.19839C28.5374 8.19839 29.5456 8.82762 30.0497 9.70855V8.70178C30.0497 8.57593 30.1757 8.45008 30.3018 8.45008L32.4442 8.32423ZM28.0333 15.2458C29.4196 15.2458 30.4278 14.239 30.4278 12.8547C30.4278 11.3446 29.4196 10.4636 28.0333 10.4636C26.647 10.4636 25.6388 11.4704 25.6388 12.8547C25.6388 14.3649 26.647 15.2458 28.0333 15.2458Z" fill="#0DAB40"/>
<path fill-rule="evenodd" clip-rule="evenodd" d="M14.1592 20.722H0.44467C0.44467 22.6383 1.99434 24.0947 3.85394 24.0947H14.1592C16.0188 24.0947 17.5685 22.5616 17.5685 20.722V6.77129C17.5685 6.69464 17.491 6.61799 17.4135 6.61799H14.2367C14.1592 6.61799 14.0818 6.69464 14.0818 6.77129V20.722H14.1592ZM14.1592 0.255859C16.0188 0.255859 17.5685 1.7889 17.5685 3.70521H3.85394V17.7326C3.85394 17.8092 3.77646 17.8859 3.69898 17.8859H0.522154C0.444671 17.8859 0.367188 17.8092 0.367188 17.7326V3.70521C0.367188 1.7889 1.91686 0.255859 3.77646 0.255859H14.1592Z" fill="#0DAB40"/>
<path d="M137.44 8.184C137.205 7 136.475 6.408 135.248 6.408C134.299 6.408 133.589 6.776 133.12 7.512C132.651 8.23733 132.421 9.43733 132.432 11.112C132.677 10.5573 133.083 10.1253 133.648 9.816C134.224 9.496 134.864 9.336 135.568 9.336C136.667 9.336 137.541 9.67733 138.192 10.36C138.853 11.0427 139.184 11.9867 139.184 13.192C139.184 13.9173 139.04 14.568 138.752 15.144C138.475 15.72 138.048 16.1787 137.472 16.52C136.907 16.8613 136.219 17.032 135.408 17.032C134.309 17.032 133.451 16.7867 132.832 16.296C132.213 15.8053 131.781 15.128 131.536 14.264C131.291 13.4 131.168 12.3333 131.168 11.064C131.168 7.14933 132.533 5.192 135.264 5.192C136.309 5.192 137.131 5.47467 137.728 6.04C138.325 6.60533 138.677 7.32 138.784 8.184H137.44ZM135.264 10.568C134.805 10.568 134.373 10.664 133.968 10.856C133.563 11.0373 133.232 11.32 132.976 11.704C132.731 12.0773 132.608 12.536 132.608 13.08C132.608 13.8907 132.843 14.552 133.312 15.064C133.781 15.5653 134.453 15.816 135.328 15.816C136.075 15.816 136.667 15.5867 137.104 15.128C137.552 14.6587 137.776 14.0293 137.776 13.24C137.776 12.408 137.563 11.7573 137.136 11.288C136.709 10.808 136.085 10.568 135.264 10.568ZM143.02 13.896C143.127 14.504 143.372 14.9733 143.756 15.304C144.151 15.6347 144.679 15.8 145.34 15.8C146.226 15.8 146.876 15.4533 147.292 14.76C147.719 14.0667 147.922 12.8987 147.9 11.256C147.676 11.736 147.303 12.1147 146.78 12.392C146.258 12.6587 145.676 12.792 145.036 12.792C144.322 12.792 143.682 12.648 143.116 12.36C142.562 12.0613 142.124 11.6293 141.804 11.064C141.484 10.4987 141.324 9.816 141.324 9.016C141.324 7.87467 141.655 6.95733 142.316 6.264C142.978 5.56 143.916 5.208 145.132 5.208C146.626 5.208 147.671 5.69333 148.268 6.664C148.876 7.63467 149.18 9.08 149.18 11C149.18 12.344 149.058 13.4533 148.812 14.328C148.578 15.2027 148.172 15.8693 147.596 16.328C147.031 16.7867 146.252 17.016 145.26 17.016C144.172 17.016 143.324 16.7227 142.716 16.136C142.108 15.5493 141.762 14.8027 141.676 13.896H143.02ZM145.276 11.56C145.991 11.56 146.578 11.3413 147.036 10.904C147.495 10.456 147.724 9.85333 147.724 9.096C147.724 8.296 147.5 7.65067 147.052 7.16C146.604 6.66933 145.975 6.424 145.164 6.424C144.418 6.424 143.82 6.65867 143.372 7.128C142.935 7.59733 142.716 8.216 142.716 8.984C142.716 9.76267 142.935 10.3867 143.372 10.856C143.81 11.3253 144.444 11.56 145.276 11.56ZM161.604 17L158.948 12.44H157.188V17H155.732V5.848H159.332C160.175 5.848 160.884 5.992 161.46 6.28C162.047 6.568 162.484 6.95733 162.772 7.448C163.06 7.93867 163.204 8.49867 163.204 9.128C163.204 9.896 162.98 10.5733 162.532 11.16C162.095 11.7467 161.433 12.136 160.548 12.328L163.348 17H161.604ZM157.188 11.272H159.332C160.121 11.272 160.713 11.08 161.108 10.696C161.503 10.3013 161.7 9.77867 161.7 9.128C161.7 8.46667 161.503 7.95467 161.108 7.592C160.724 7.22933 160.132 7.048 159.332 7.048H157.188V11.272ZM166.922 7.032V10.76H170.986V11.96H166.922V15.8H171.466V17H165.466V5.832H171.466V7.032H166.922ZM182.886 5.848L178.678 17H176.998L172.79 5.848H174.342L177.846 15.464L181.35 5.848H182.886ZM185.938 5.848V17H184.482V5.848H185.938ZM189.876 7.032V10.76H193.94V11.96H189.876V15.8H194.42V17H188.42V5.832H194.42V7.032H189.876ZM210.639 5.848L207.407 17H205.775L203.183 8.024L200.495 17L198.879 17.016L195.759 5.848H197.311L199.743 15.304L202.431 5.848H204.063L206.623 15.272L209.071 5.848H210.639ZM215.768 17.112C215.032 17.112 214.371 16.984 213.784 16.728C213.208 16.4613 212.755 16.0987 212.424 15.64C212.093 15.1707 211.923 14.632 211.912 14.024H213.464C213.517 14.5467 213.731 14.9893 214.104 15.352C214.488 15.704 215.043 15.88 215.768 15.88C216.461 15.88 217.005 15.7093 217.4 15.368C217.805 15.016 218.008 14.568 218.008 14.024C218.008 13.5973 217.891 13.2507 217.656 12.984C217.421 12.7173 217.128 12.5147 216.776 12.376C216.424 12.2373 215.949 12.088 215.352 11.928C214.616 11.736 214.024 11.544 213.576 11.352C213.139 11.16 212.76 10.8613 212.44 10.456C212.131 10.04 211.976 9.48533 211.976 8.792C211.976 8.184 212.131 7.64533 212.44 7.176C212.749 6.70667 213.181 6.344 213.736 6.088C214.301 5.832 214.947 5.704 215.672 5.704C216.717 5.704 217.571 5.96533 218.232 6.488C218.904 7.01067 219.283 7.704 219.368 8.568H217.768C217.715 8.14133 217.491 7.768 217.096 7.448C216.701 7.11733 216.179 6.952 215.528 6.952C214.92 6.952 214.424 7.112 214.04 7.432C213.656 7.74133 213.464 8.17867 213.464 8.744C213.464 9.14933 213.576 9.48 213.8 9.736C214.035 9.992 214.317 10.1893 214.648 10.328C214.989 10.456 215.464 10.6053 216.072 10.776C216.808 10.9787 217.4 11.1813 217.848 11.384C218.296 11.576 218.68 11.88 219 12.296C219.32 12.7013 219.48 13.256 219.48 13.96C219.48 14.504 219.336 15.016 219.048 15.496C218.76 15.976 218.333 16.3653 217.768 16.664C217.203 16.9627 216.536 17.112 215.768 17.112Z" fill="#C7C7C7"/>
<path fill-rule="evenodd" clip-rule="evenodd" d="M159.492 40.0015C159.863 40.0212 160.226 40.2316 160.418 40.636L162.654 45.3663L167.657 46.1237C168.554 46.2594 168.913 47.4134 168.263 48.0744L164.643 51.7543L165.499 56.9526C165.654 57.8851 164.712 58.596 163.911 58.1566L159.463 55.7214L155.017 58.1566C154.215 58.596 153.274 57.885 153.428 56.9526L154.284 51.7542L150.664 48.0743C150.014 47.4134 150.373 46.2594 151.27 46.1236L156.273 45.3662L158.509 40.6359C158.702 40.2316 159.064 40.0211 159.435 40.0015V40C159.444 40 159.454 40.0002 159.463 40.0004C159.473 40.0001 159.482 40 159.492 40V40.0015Z" fill="#0DAB40"/>
<path fill-rule="evenodd" clip-rule="evenodd" d="M133.117 40.0015C133.488 40.021 133.851 40.2314 134.043 40.636L136.279 45.3663L141.282 46.1237C142.179 46.2594 142.539 47.4134 141.888 48.0744L138.269 51.7543L139.125 56.9526C139.279 57.8851 138.337 58.596 137.536 58.1566L133.089 55.7212L128.642 58.1566C127.84 58.596 126.899 57.885 127.053 56.9526L127.909 51.7542L124.289 48.0743C123.639 47.4134 123.998 46.2594 124.895 46.1236L129.898 45.3662L132.134 40.6359C132.327 40.2314 132.689 40.0209 133.06 40.0015V40C133.07 40 133.079 40.0002 133.088 40.0004C133.098 40.0001 133.107 40 133.117 40V40.0015Z" fill="#0DAB40"/>
<path fill-rule="evenodd" clip-rule="evenodd" d="M106.738 40.0015C107.109 40.0211 107.472 40.2315 107.664 40.636L109.9 45.3663L114.903 46.1237C115.8 46.2594 116.16 47.4134 115.509 48.0744L111.89 51.7543L112.746 56.9526C112.9 57.8851 111.958 58.596 111.157 58.1566L106.71 55.7213L102.263 58.1566C101.461 58.596 100.52 57.885 100.674 56.9526L101.53 51.7542L97.9103 48.0743C97.2597 47.4134 97.6192 46.2594 98.5164 46.1236L103.519 45.3662L105.755 40.6359C105.948 40.2315 106.31 40.021 106.681 40.0015V40C106.691 40 106.7 40.0002 106.709 40.0004C106.719 40.0001 106.728 40 106.738 40V40.0015Z" fill="#0DAB40"/>
<path fill-rule="evenodd" clip-rule="evenodd" d="M80.3632 40.0015C80.7342 40.0211 81.0968 40.2315 81.289 40.636L83.5251 45.3663L88.528 46.1237C89.4252 46.2594 89.7847 47.4134 89.1341 48.0744L85.5146 51.7543L86.3707 56.9526C86.5248 57.8851 85.5831 58.596 84.7818 58.1566L80.3347 55.7213L75.8876 58.1566C75.0863 58.596 74.1446 57.885 74.2987 56.9526L75.1548 51.7542L71.5353 48.0743C70.8847 47.4134 71.2442 46.2594 72.1414 46.1236L77.1444 45.3662L79.3804 40.6359C79.5726 40.2315 79.9353 40.0211 80.3062 40.0015V40C80.3154 40 80.3247 40.0002 80.334 40.0004C80.3437 40.0001 80.3535 40 80.3632 40V40.0015Z" fill="#0DAB40"/>
<g clip-path="url(#clip0_4441_7850)">
<path d="M185.813 53.7657L190.069 56.1022L189.257 51.1576L192.702 47.6563L187.942 46.9346L185.813 42.433V40C186.203 40 186.593 40.2108 186.795 40.6359L189.031 45.3662L194.034 46.1236C194.932 46.2594 195.291 47.4134 194.64 48.0743L191.021 51.7542L191.877 56.9526C192.031 57.885 191.089 58.596 190.288 58.1566L185.813 55.7057V53.7657Z" fill="#0DAB40"/>
</g>
<g clip-path="url(#clip1_4441_7850)">
<path d="M185.867 53.7657L181.611 56.1022L182.422 51.1576L178.977 47.6563L183.737 46.9346L185.867 42.433V40C185.477 40 185.086 40.2108 184.884 40.6359L182.648 45.3662L177.645 46.1236C176.748 46.2594 176.389 47.4134 177.039 48.0743L180.659 51.7542L179.803 56.9526C179.649 57.885 180.59 58.596 181.392 58.1566L185.867 55.7057V53.7657Z" fill="#0DAB40"/>
</g>
<path d="M187.916 55.415V46.4905L185.888 42.0283L183.859 46.4905L178.586 47.7075L181.831 51.3584L181.426 56.6319L185.482 54.6037L187.916 55.415Z" fill="#0DAB40" stroke="#0DAB40"/>
<path d="M24.8 53.78V52.4L31.82 42.68H34V52.2H36V53.78H34V57H32.2V53.78H24.8ZM32.28 44.58L26.9 52.2H32.28V44.58ZM38.6981 57.12C38.3515 57.12 38.0581 57 37.8181 56.76C37.5781 56.52 37.4581 56.2267 37.4581 55.88C37.4581 55.5333 37.5781 55.24 37.8181 55C38.0581 54.76 38.3515 54.64 38.6981 54.64C39.0315 54.64 39.3115 54.76 39.5381 55C39.7781 55.24 39.8981 55.5333 39.8981 55.88C39.8981 56.2267 39.7781 56.52 39.5381 56.76C39.3115 57 39.0315 57.12 38.6981 57.12ZM50.9173 43.96L45.3573 57H43.5173L49.1573 44.14H41.4373V42.58H50.9173V43.96Z" fill="#C7C7C7"/>
<defs>
<clipPath id="clip0_4441_7850">
<rect width="9.16077" height="18.2923" fill="white" transform="translate(185.84 40)"/>
</clipPath>
<clipPath id="clip1_4441_7850">
<rect width="9.16077" height="18.2923" fill="white" transform="translate(176.707 40)"/>
</clipPath>
</defs>
</svg>
