<svg width="60" height="60" viewBox="0 0 60 60" fill="none" xmlns="http://www.w3.org/2000/svg">
<path d="M30.9436 18.7471H31.1311C33.494 18.2615 35.6125 16.9645 37.1195 15.0809C38.6264 13.1972 39.4267 10.8457 39.3817 8.43386C39.3811 8.29303 39.3487 8.15416 39.287 8.02756C39.2254 7.90096 39.1359 7.78987 39.0254 7.70256C38.921 7.61273 38.7976 7.54756 38.6645 7.51185C38.5315 7.47615 38.3921 7.47083 38.2566 7.4963C35.8905 7.9824 33.7695 9.28217 32.2623 11.1697C30.755 13.0573 29.9567 15.4133 30.0061 17.8283C30.0061 18.0769 30.1048 18.3154 30.2807 18.4912C30.4565 18.6671 30.695 18.7658 30.9436 18.7658V18.7471Z" fill="white"/>
<path d="M48.1377 38.4922C46.6509 37.8831 45.3799 36.8437 44.4878 35.5073C43.5958 34.1709 43.1233 32.5984 43.1311 30.9917C43.1314 29.5313 43.5141 28.0964 44.2412 26.8298C44.9682 25.5633 46.0142 24.5092 47.2752 23.7724C47.3967 23.7024 47.5009 23.6061 47.5802 23.4905C47.6596 23.3749 47.7119 23.2429 47.7335 23.1044C47.7551 22.9659 47.7454 22.8242 47.705 22.69C47.6646 22.5557 47.5946 22.4322 47.5002 22.3286C46.4603 21.2123 45.2044 20.3192 43.8086 19.7035C42.4128 19.0878 40.9063 18.7624 39.3809 18.7471C37.8683 18.7797 36.3771 19.1111 34.9931 19.7221C33.7166 20.2895 32.3394 20.5956 30.9428 20.6222C29.5461 20.5956 28.169 20.2895 26.8925 19.7221C25.5085 19.1111 24.0173 18.7797 22.5047 18.7471C21.3609 18.7471 11.2539 19.1221 11.2539 31.873C11.2539 42.2987 18.3794 52.4994 22.5047 52.4994C24.3208 52.52 26.1193 52.1423 27.7738 51.3931C28.763 50.9132 29.8436 50.651 30.9428 50.6243C32.0419 50.651 33.1226 50.9132 34.1118 51.3931C35.7662 52.1423 37.5648 52.52 39.3809 52.4994C42.7374 52.4994 46.6939 45.8802 48.7565 39.6735C48.7942 39.5554 48.8081 39.4309 48.7973 39.3073C48.7865 39.1837 48.7514 39.0635 48.6938 38.9537C48.6362 38.8438 48.5575 38.7464 48.462 38.6672C48.3666 38.588 48.2563 38.5285 48.1377 38.4922Z" fill="white"/>
</svg>
