<svg width="80" height="80" viewBox="0 0 80 80" fill="none" xmlns="http://www.w3.org/2000/svg">
<circle cx="40" cy="40" r="40" fill="#222222"/>
<path d="M40.0566 66.259C26.5566 66.259 15.1066 54.856 15.0006 41.259C14.9536 34.639 17.5586 28.275 22.2346 23.589C24.565 21.2022 27.3463 19.3023 30.4171 17.9995C33.4879 16.6967 36.7869 16.0171 40.1226 16C46.7376 15.994 53.0826 18.63 57.7466 23.32C60.095 25.609 61.9671 28.3401 63.255 31.356C64.5429 34.3718 65.2212 37.6128 65.2506 40.892C65.3126 54.779 54.1476 66.109 40.2506 66.25L40.0566 66.259ZM40.1266 17.334C36.9657 17.3524 33.84 17.9985 30.9308 19.2346C28.0216 20.4708 25.3869 22.2724 23.1796 24.535C20.9841 26.7302 19.2462 29.3393 18.0666 32.2112C16.8869 35.083 16.2891 38.1604 16.3076 41.265C16.4076 54.141 27.2576 64.94 40.0416 64.94H40.2116C53.3896 64.811 63.9866 54.074 63.9266 40.907C63.8971 37.8003 63.2531 34.7302 62.0318 31.8735C60.8105 29.0167 59.0361 26.4299 56.8106 24.262C54.6281 22.0606 52.0306 20.314 49.1685 19.1232C46.3064 17.9325 43.2365 17.3213 40.1366 17.325L40.1266 17.334ZM20.6266 48.484V33.804H24.1966V35.119H22.3026V47.194H24.1966V48.509L20.6266 48.484ZM32.7566 40.999C32.7566 43.676 31.1326 45.201 28.9296 45.201C26.7266 45.201 25.2596 43.485 25.2596 41.137C25.2596 38.684 26.7996 36.954 29.0476 36.954C31.2956 36.954 32.7476 38.756 32.7476 40.998L32.7566 40.999ZM26.7986 41.117C26.7986 42.741 27.6136 44.03 29.0146 44.03C30.4156 44.03 31.2176 42.715 31.2176 41.058C31.2176 39.552 30.4746 38.132 29.0146 38.132C27.5546 38.132 26.7846 39.506 26.7846 41.152L26.7986 41.117ZM33.9946 37.231C34.6941 37.1101 35.4028 37.0505 36.1126 37.053C36.91 36.9748 37.7115 37.152 38.4016 37.559C38.9286 37.859 39.2456 38.441 39.2316 39.052C39.2116 39.852 38.6816 40.549 37.9166 40.782C38.3715 40.8744 38.7805 41.1214 39.0739 41.481C39.3674 41.8407 39.5274 42.2908 39.5266 42.755C39.5317 43.0695 39.4652 43.3809 39.3319 43.6658C39.1987 43.9506 39.0023 44.2014 38.7576 44.399C38.1916 44.899 37.2516 45.142 35.7976 45.142C35.1997 45.145 34.6021 45.11 34.0086 45.037L33.9946 37.231ZM35.4416 40.381H36.1846C37.1906 40.381 37.7566 39.908 37.7566 39.231C37.7566 38.554 37.1906 38.139 36.2636 38.139C35.9856 38.129 35.7086 38.149 35.4336 38.199L35.4416 40.381ZM35.4416 44.051C35.6971 44.0774 35.9539 44.0884 36.2106 44.084C37.1446 44.084 37.9726 43.729 37.9726 42.769C37.9726 41.809 37.1706 41.454 36.1646 41.454H35.4416V44.051ZM42.3986 37.126H43.8516V42.326C43.8516 44.529 42.7866 45.266 41.2216 45.266C40.8039 45.261 40.3894 45.1936 39.9916 45.066L40.1696 43.896C40.4615 43.9873 40.7649 44.0361 41.0706 44.041C41.9006 44.041 42.3856 43.661 42.3856 42.279L42.3986 37.126ZM47.9986 41.446V42.452H44.9736V41.446H47.9986ZM55.0516 44.866C54.3979 45.1264 53.6969 45.2474 52.9936 45.221C50.4616 45.221 48.9236 43.636 48.9236 41.209C48.8935 40.6436 48.9835 40.0783 49.1876 39.5501C49.3917 39.022 49.7054 38.5431 50.1079 38.1449C50.5104 37.7468 50.9927 37.4383 51.523 37.24C52.0533 37.0416 52.6196 36.9578 53.1846 36.994C53.8604 36.9659 54.5341 37.0871 55.1576 37.349L54.8356 38.506C54.3406 38.306 53.8076 38.19 53.2706 38.206C51.6466 38.206 50.4756 39.226 50.4756 41.146C50.4756 42.896 51.5076 44.026 53.2576 44.026C53.8006 44.034 54.3396 43.933 54.8426 43.73L55.0516 44.866ZM59.6266 33.764V48.484H56.0566V47.169H57.9506V35.081H56.0466V33.764H59.6266Z" fill="#F1592A"/>
</svg>
