<svg width="188" height="54" viewBox="0 0 188 54" fill="none" xmlns="http://www.w3.org/2000/svg">
<path d="M157.889 47.9996H30.1134C27.3023 47.9996 25.0023 45.6371 25.0023 42.7497V11.25C25.0023 8.36247 27.3023 6 30.1134 6H157.889C160.7 6 163 8.36247 163 11.25V42.7496C163 45.6371 160.7 47.9996 157.889 47.9996" fill="black"/>
<path d="M157.889 6H30.1134C27.3023 6 25.0023 8.36247 25.0023 11.25V42.7496C25.0023 45.6371 27.3023 47.9996 30.1134 47.9996H157.889C160.7 47.9996 163 45.6371 163 42.7497V11.25C163 8.36247 160.7 6 157.889 6M157.889 6.83997C160.256 6.83997 162.182 8.8186 162.182 11.25V42.7496C162.182 45.1815 160.256 47.1601 157.889 47.1601H30.1134C27.7464 47.1601 25.8201 45.1814 25.8201 42.7497V11.25C25.8201 8.8186 27.7463 6.84001 30.1134 6.84001H157.889" fill="#A6A6A6"/>
<path d="M73.4752 16.7554C73.4752 17.6351 73.2216 18.3356 72.7137 18.8582C72.1367 19.4796 71.3848 19.7905 70.4604 19.7905C69.5751 19.7905 68.8225 19.4755 68.2035 18.8447C67.5835 18.2143 67.274 17.4325 67.274 16.4998C67.274 15.5667 67.5835 14.7855 68.2035 14.1546C68.8225 13.5242 69.5751 13.2087 70.4604 13.2087C70.8996 13.2087 71.3202 13.297 71.7194 13.473C72.1187 13.6493 72.439 13.8835 72.6786 14.1767L72.1395 14.7308C71.7334 14.2325 71.1744 13.9835 70.4604 13.9835C69.8148 13.9835 69.2565 14.2166 68.7854 14.6829C68.3142 15.1497 68.0786 15.755 68.0786 16.4998C68.0786 17.2447 68.3142 17.85 68.7854 18.3169C69.2565 18.7832 69.8147 19.0162 70.4604 19.0162C71.1453 19.0162 71.7163 18.7819 72.1734 18.3128C72.4702 18.0071 72.6417 17.5823 72.6877 17.0367H70.4603V16.28H73.4324C73.4611 16.4445 73.4751 16.6024 73.4751 16.7554" fill="white"/>
<path d="M73.4726 16.7557H73.3704C73.3696 17.6153 73.1251 18.283 72.6387 18.7842L72.6377 18.7851L72.6372 18.7859C72.0786 19.3859 71.3606 19.6845 70.4577 19.6858C69.5962 19.6845 68.875 19.3827 68.2728 18.7707C67.6719 18.1575 67.3748 17.409 67.3737 16.5001C67.3748 15.5908 67.6719 14.8427 68.2728 14.2299C68.875 13.6176 69.5962 13.3153 70.4577 13.314C70.8838 13.314 71.2896 13.3994 71.6764 13.5696C72.0638 13.7411 72.3697 13.9658 72.5977 14.2448L72.6759 14.177L72.6037 14.1028L72.0646 14.6572L72.1368 14.7311L72.2156 14.6639C71.7906 14.1409 71.1942 13.8772 70.4578 13.8788C69.7882 13.878 69.1992 14.1237 68.712 14.6077C68.2201 15.0933 67.973 15.7327 67.9738 16.5001C67.973 17.2675 68.2201 17.9069 68.712 18.3925C69.1992 18.8765 69.7882 19.1223 70.4577 19.1214C71.1653 19.1227 71.7683 18.8761 72.2431 18.3872C72.5601 18.0607 72.7398 17.6084 72.787 17.046L72.7965 16.932H70.56V16.3852H73.4298V16.2803L73.3292 16.2987C73.3571 16.4579 73.3703 16.6092 73.3703 16.7557H73.5748C73.5748 16.5961 73.5604 16.4321 73.5304 16.2615L73.5153 16.1753H70.3556V17.142H72.6851V17.037L72.5833 17.028C72.5382 17.5563 72.3744 17.9541 72.0985 18.2388C71.6593 18.6883 71.1203 18.9101 70.4578 18.9114C69.8361 18.9106 69.3087 18.6907 68.8539 18.2416C68.4035 17.7941 68.1794 17.2228 68.1783 16.5001C68.1794 15.7774 68.4035 15.2061 68.8539 14.7586C69.3087 14.3095 69.8361 14.0896 70.4578 14.0888C71.149 14.0905 71.671 14.3251 72.0587 14.7988L72.1306 14.8866L72.7483 14.2513L72.8145 14.1832L72.7542 14.1097C72.5031 13.8022 72.1684 13.5581 71.7572 13.3769C71.3451 13.1951 70.9103 13.104 70.4578 13.104C69.5491 13.1032 68.7648 13.4313 68.1287 14.0806C67.4903 14.7287 67.1684 15.5433 67.1693 16.5001C67.1684 17.4565 67.4903 18.2716 68.1291 18.92C68.7648 19.5689 69.5491 19.8966 70.4578 19.8958C71.4042 19.8966 72.1892 19.5738 72.785 18.9311L72.711 18.8585L72.7833 18.9328C73.3128 18.3893 73.5755 17.6551 73.5748 16.7557H73.4726M78.1843 14.1241H75.3912V16.1216H77.91V16.8786H75.3912V18.8761H78.1843V19.6501H74.6038V13.3501H78.1843V14.1241" fill="white"/>
<path d="M78.1859 14.1238V14.0188H75.2906V16.2263H77.8094V16.7731L75.2906 16.7733V18.9808H78.0837V19.5448H74.7077V13.4549H78.0837V14.1238H78.1859V14.0188V14.1238H78.2881V13.2449H74.5032V19.7548H78.2881V18.7709H75.495V16.9833H78.0139V16.0163H75.495V14.2288H78.2881V14.1238H78.1859M81.5093 19.6498H80.7207V14.1238H79.0077V13.3498H83.2223V14.1238H81.5093V19.6498" fill="white"/>
<path d="M81.509 19.6498V19.5448H80.8226V14.0188H79.1097V13.4549H83.1198V14.0188H81.4068V19.6498H81.509V19.5448V19.6498H81.6113V14.2288H83.3243V13.2449H78.9052V14.2288H80.6182V19.7547H81.6113V19.6498H81.509M86.2715 19.6498V13.3498H87.0593V19.6498H86.2715" fill="white"/>
<path d="M86.2729 19.6498H86.3751V13.4549H86.9584V19.5448H86.2729V19.6498H86.3751H86.2729V19.7548H87.1629V13.2449H86.1707V19.7548H86.2729V19.6498M90.5565 19.6498H89.7679V14.1238H88.055V13.3498H92.2695V14.1238H90.5565V19.6498" fill="white"/>
<path d="M90.5545 19.6499V19.5448H89.8681V14.0188H88.1552V13.4549H92.1653V14.0188H90.4523V19.6498H90.5545V19.5448V19.6498H90.6567V14.2288H92.3697V13.2449H87.9507V14.2288H89.6636V19.7548H90.6567V19.6498H90.5545M96.3308 18.3083C96.7847 18.7803 97.3402 19.0161 97.9971 19.0161C98.6539 19.0161 99.2097 18.7803 99.6629 18.3083C100.117 17.8362 100.345 17.2327 100.345 16.4998C100.345 15.767 100.117 15.1635 99.6629 14.6915C99.2097 14.2194 98.6539 13.9835 97.9971 13.9835C97.3402 13.9835 96.7847 14.2194 96.3308 14.6915C95.8775 15.1635 95.65 15.767 95.65 16.4998C95.65 17.2327 95.8775 17.8362 96.3308 18.3083ZM100.246 18.8357C99.6429 19.4726 98.8931 19.7905 97.9971 19.7905C97.1002 19.7905 96.3507 19.4726 95.749 18.8357C95.1456 18.1995 94.8454 17.4207 94.8454 16.4998C94.8454 15.579 95.1456 14.8001 95.749 14.164C96.3507 13.527 97.1002 13.2087 97.9971 13.2087C98.8883 13.2087 99.6362 13.5287 100.242 14.1681C100.847 14.8076 101.15 15.5848 101.15 16.4998C101.15 17.4207 100.848 18.1995 100.246 18.8357Z" fill="white"/>
<path d="M96.3326 18.3085L96.2599 18.3823C96.7307 18.8733 97.3181 19.1227 97.9989 19.1214C98.6792 19.1227 99.2674 18.8733 99.7374 18.3823C100.211 17.8909 100.45 17.2552 100.449 16.5001C100.45 15.7451 100.211 15.1093 99.7374 14.6179C99.2674 14.1269 98.6792 13.8776 97.9989 13.8788C97.3181 13.8776 96.7307 14.1269 96.2599 14.6179C95.7871 15.1093 95.5483 15.7451 95.5496 16.5001C95.5483 17.2551 95.7871 17.8909 96.2599 18.3823L96.3326 18.3085L96.4053 18.2347C95.9717 17.7814 95.7548 17.2113 95.754 16.5001C95.7548 15.789 95.9717 15.2188 96.4053 14.7655C96.8429 14.3124 97.3655 14.0901 97.9989 14.0888C98.6317 14.0901 99.1556 14.3124 99.5921 14.7655C100.027 15.2188 100.243 15.789 100.244 16.5001C100.243 17.2112 100.027 17.7814 99.5921 18.2347C99.1556 18.6879 98.6318 18.9102 97.9989 18.9114C97.3655 18.9102 96.8429 18.6879 96.4053 18.2347L96.3326 18.3085ZM100.248 18.8359L100.175 18.763C99.5885 19.3798 98.8717 19.6846 97.9989 19.6858C97.1256 19.6845 96.4088 19.3798 95.8238 18.763L95.821 18.7597L95.8238 18.763C95.2389 18.144 94.9503 17.3976 94.9494 16.5001C94.9503 15.6027 95.2389 14.8562 95.8238 14.2373C96.4088 13.6204 97.1256 13.3153 97.9989 13.314C98.8661 13.3153 99.5812 13.6217 100.171 14.2418C100.758 14.8636 101.048 15.6088 101.049 16.5001C101.048 17.3976 100.758 18.144 100.175 18.763L100.248 18.8359L100.321 18.9089C100.941 18.2552 101.254 17.4443 101.254 16.5001C101.254 15.5613 100.94 14.7521 100.317 14.0954C99.6943 13.4362 98.9141 13.1029 97.9989 13.104C97.0789 13.1029 96.2963 13.4347 95.6773 14.0913V14.0909C95.0565 14.7451 94.7442 15.556 94.745 16.5001C94.7442 17.4443 95.0565 18.2552 95.6773 18.9093L95.6801 18.9123L95.6773 18.9089C96.2963 19.5656 97.0789 19.8966 97.9989 19.8958C98.9184 19.8966 99.701 19.5656 100.321 18.9089L100.248 18.8359V18.8359ZM102.257 19.6501V13.3501H103.217L106.197 18.251H106.231L106.197 17.0369V13.3501H106.986V19.65H106.163L103.045 14.5116H103.011L103.045 15.7261V19.65H102.257" fill="white"/>
<path d="M102.256 19.6498H102.359V13.4549H103.159L106.139 18.3558H106.335L106.298 17.0351V13.4549H106.883V19.5448H106.219L103.1 14.4064H102.905L102.941 15.7276V19.5448H102.256V19.6498H102.359H102.256V19.7548H103.146V15.7242L103.112 14.5085L103.01 14.5114V14.6164H103.044V14.5114L102.957 14.5672L106.106 19.7548H107.087V13.2449H106.094V17.0379L106.128 18.2536L106.23 18.2508V18.1458H106.196V18.2508L106.283 18.1951L103.272 13.2449H102.154V19.7548H102.256V19.6498M134.313 37.4996H136.221V24.3735H134.313L134.313 37.4996ZM151.493 29.1019L149.307 34.7927H149.242L146.972 29.1018H144.918L148.321 37.0558L146.38 41.4802H148.371L153.615 29.1018L151.493 29.1019ZM140.676 36.0088C140.051 36.0088 139.18 35.688 139.18 34.894C139.18 33.8808 140.266 33.4925 141.202 33.4925C142.041 33.4925 142.435 33.6782 142.945 33.9318C142.797 35.1474 141.777 36.0088 140.676 36.0088V36.0088ZM140.907 28.8147C139.525 28.8147 138.095 29.4397 137.504 30.8245L139.196 31.5504C139.558 30.8245 140.232 30.5878 140.939 30.5878C141.926 30.5878 142.928 31.196 142.945 32.2768V32.4118C142.599 32.2091 141.86 31.9052 140.956 31.9052C139.131 31.9052 137.273 32.935 137.273 34.8603C137.273 36.6166 138.769 37.7482 140.445 37.7482C141.728 37.7482 142.435 37.1571 142.879 36.4649H142.945V37.4779H144.786V32.4453C144.786 30.1153 143.093 28.8147 140.907 28.8147V28.8147ZM129.118 30.6997H126.406V26.2004H129.118C130.544 26.2004 131.354 27.4132 131.354 28.45C131.354 29.4672 130.544 30.6997 129.118 30.6997ZM129.069 24.3735H124.499V37.4996H126.405V32.5266H129.069C131.183 32.5266 133.261 30.9544 133.261 28.45C133.261 25.9457 131.183 24.3735 129.069 24.3735V24.3735ZM104.147 36.0112C102.829 36.0112 101.726 34.8779 101.726 33.3214C101.726 31.7486 102.829 30.598 104.147 30.598C105.448 30.598 106.469 31.7485 106.469 33.3214C106.469 34.8779 105.448 36.0112 104.147 36.0112H104.147ZM106.337 29.8368H106.271C105.843 29.3126 105.019 28.8389 103.982 28.8389C101.808 28.8389 99.8158 30.801 99.8158 33.3214C99.8158 35.825 101.808 37.7704 103.982 37.7704C105.019 37.7704 105.843 37.2966 106.271 36.7556H106.337V37.3983C106.337 39.1071 105.448 40.0205 104.015 40.0205C102.846 40.0205 102.121 39.1575 101.825 38.4302L100.162 39.1407C100.639 40.3247 101.907 41.7796 104.015 41.7796C106.255 41.7796 108.149 40.4261 108.149 37.1276V29.1096H106.337V29.8368ZM109.466 37.4996H111.376V24.373H109.466V37.4996ZM114.192 33.1693C114.143 31.4437 115.493 30.5643 116.465 30.5643C117.223 30.5643 117.865 30.9532 118.079 31.5119L114.192 33.1693ZM120.121 31.6808C119.759 30.6825 118.655 28.8389 116.399 28.8389C114.159 28.8389 112.299 30.6489 112.299 33.3046C112.299 35.8082 114.143 37.7704 116.613 37.7704C118.606 37.7704 119.759 36.5185 120.237 35.7913L118.754 34.7762C118.261 35.5206 117.585 36.0112 116.613 36.0112C115.642 36.0112 114.95 35.5543 114.505 34.658L120.318 32.1882L120.121 31.6808ZM73.8067 30.2092V32.1037H78.2201C78.0883 33.1693 77.7425 33.9473 77.2154 34.4887C76.5734 35.1486 75.5688 35.8759 73.8067 35.8759C71.0894 35.8759 68.9651 33.6261 68.9651 30.835C68.9651 28.044 71.0894 25.794 73.8067 25.794C75.2725 25.794 76.3426 26.3861 77.1332 27.1473L78.4341 25.8111C77.3309 24.7283 75.865 23.8995 73.8067 23.8995C70.0848 23.8995 66.9559 27.012 66.9559 30.835C66.9559 34.658 70.0848 37.7704 73.8067 37.7704C75.8159 37.7704 77.3309 37.094 78.5164 35.825C79.7351 34.5732 80.114 32.8141 80.114 31.3933C80.114 30.9532 80.0812 30.5475 80.015 30.2092H73.8067ZM85.1316 36.0112C83.8139 36.0112 82.6775 34.8947 82.6775 33.3046C82.6775 31.6976 83.8139 30.598 85.1316 30.598C86.4488 30.598 87.5852 31.6976 87.5852 33.3046C87.5852 34.8947 86.4488 36.0112 85.1316 36.0112ZM85.1316 28.8389C82.727 28.8389 80.7672 30.7165 80.7672 33.3046C80.7672 35.8759 82.727 37.7704 85.1316 37.7704C87.5357 37.7704 89.4955 35.8759 89.4955 33.3046C89.4955 30.7165 87.5357 28.8389 85.1316 28.8389ZM94.6516 36.0112C93.3344 36.0112 92.1979 34.8947 92.1979 33.3046C92.1979 31.6976 93.3344 30.598 94.6516 30.598C95.9689 30.598 97.1053 31.6976 97.1053 33.3046C97.1053 34.8947 95.9689 36.0112 94.6516 36.0112H94.6516ZM94.6516 28.8389C92.2471 28.8389 90.2877 30.7165 90.2877 33.3046C90.2877 35.8759 92.2471 37.7704 94.6516 37.7704C97.0558 37.7704 99.0157 35.8759 99.0157 33.3046C99.0157 30.7165 97.0558 28.8389 94.6516 28.8389H94.6516Z" fill="white"/>
<path d="M35.7435 13.992C35.4004 14.3099 35.1957 14.8401 35.1957 15.544V15.3849V38.6118V38.4588C35.1957 39.1089 35.3713 39.6109 35.6688 39.9342L35.7447 40.0088V40.0091C35.9854 40.2323 36.2941 40.3508 36.6479 40.3504C36.9937 40.3504 37.3826 40.2372 37.7931 39.9981L52.6306 31.3386L57.7272 28.3637C58.3745 27.986 58.7379 27.4988 58.7986 27.0024V27.0004C58.7379 26.5029 58.3745 26.016 57.7273 25.6383L52.6302 22.6638L37.7932 14.0042C37.3818 13.7648 36.9926 13.6511 36.6459 13.6511C36.2925 13.6511 35.9842 13.7692 35.7436 13.992H35.7435Z" fill="#00C1FF"/>
<path d="M35.7447 40.0085L35.6688 39.9339C35.3713 39.6106 35.1957 39.1086 35.1957 38.4586V38.6116V15.3904V15.5437C35.1957 14.8399 35.4004 14.3096 35.7435 13.9917L48.4084 27.0005L35.7447 40.0085Z" fill="url(#paint0_linear_159_46)"/>
<path d="M52.6318 31.3384L48.4096 27.0007L52.6315 22.6637L57.7284 25.6381C58.3757 26.0159 58.7391 26.5027 58.7998 27.0002V27.0022C58.7391 27.4986 58.3757 27.9859 57.7284 28.3635L52.6319 31.3383" fill="url(#paint1_linear_159_46)"/>
<path d="M36.6506 40.3503C36.2969 40.3507 35.9881 40.2321 35.7474 40.009V40.0087L48.4111 27.0007L52.6333 31.3384L37.7958 39.998C37.3853 40.2371 36.9963 40.3503 36.6506 40.3503Z" fill="url(#paint2_linear_159_46)"/>
<path d="M48.4084 27.0005L35.7434 13.9916C35.9842 13.7689 36.2925 13.6508 36.6458 13.6508C36.9924 13.6508 37.3817 13.7644 37.793 14.0039L52.6302 22.6635L48.4083 27.0005" fill="url(#paint3_linear_159_46)"/>
<path d="M36.6505 40.5042C36.2967 40.5042 35.9876 40.3856 35.7468 40.1625L35.7464 40.1629C35.7454 40.1619 35.7444 40.1609 35.7432 40.16L35.6774 40.094C35.6753 40.0919 35.6734 40.0895 35.671 40.0871L35.7469 40.0091C35.9876 40.2322 36.2963 40.3507 36.6502 40.3503C36.9958 40.3503 37.3848 40.2372 37.7953 39.998L52.6328 31.3385L52.7279 31.4362L52.6316 31.4923L37.7952 40.1514C37.4211 40.3692 37.0653 40.4828 36.7439 40.5017C36.7128 40.5033 36.6816 40.5041 36.6505 40.5041" fill="url(#paint4_linear_159_46)"/>
<path d="M35.6688 40.0872C35.3713 39.7639 35.1957 39.2623 35.1957 38.6118V38.4589C35.1957 39.1089 35.3713 39.6109 35.6688 39.9342L35.7447 40.0088L35.6688 40.0872" fill="url(#paint5_linear_159_46)"/>
<path d="M52.7254 31.4357L52.6304 31.3381L57.727 28.3633C58.3742 27.9856 58.7376 27.4983 58.7984 27.002C58.7984 27.1841 58.7588 27.3662 58.6802 27.5434C58.5216 27.9007 58.2038 28.2382 57.727 28.5167L52.7254 31.4358" fill="url(#paint6_linear_159_46)"/>
<path d="M58.7988 27C58.738 26.5025 58.3747 26.0156 57.7274 25.6378L52.6304 22.6634L52.7254 22.5657H52.7259L57.7274 25.4849C58.441 25.9016 58.7984 26.4507 58.7988 27" fill="url(#paint7_linear_159_46)"/>
<path d="M35.1957 15.5439V15.3835C35.1957 15.3256 35.1972 15.2691 35.2001 15.2141V15.2116C35.2001 15.2109 35.2001 15.2101 35.2004 15.2092V15.2031C35.2312 14.6432 35.4004 14.2064 35.6688 13.9148L35.7435 13.9918C35.4004 14.3098 35.1957 14.8401 35.1957 15.5439Z" fill="url(#paint8_linear_159_46)"/>
<path d="M52.6324 22.6638L37.7953 14.0042C37.3839 13.7647 36.9947 13.6511 36.6481 13.6511C36.2947 13.6511 35.9864 13.7692 35.7457 13.9919L35.671 13.9148C35.6943 13.8894 35.7185 13.865 35.7437 13.8414C35.7444 13.8406 35.7457 13.8397 35.7465 13.8389C35.9853 13.6179 36.2903 13.4998 36.6405 13.4977H36.6481C36.9947 13.4977 37.3839 13.6113 37.7953 13.8509L52.7279 22.5658L52.7274 22.5661L52.6324 22.6638" fill="url(#paint9_linear_159_46)"/>
<defs>
<linearGradient id="paint0_linear_159_46" x1="43.2893" y1="15.145" x2="32.0995" y2="26.0738" gradientUnits="userSpaceOnUse">
<stop stop-color="#00A0FF"/>
<stop offset="0.00657" stop-color="#00A1FF"/>
<stop offset="0.2601" stop-color="#00BEFF"/>
<stop offset="0.5122" stop-color="#00D2FF"/>
<stop offset="0.7604" stop-color="#00DFFF"/>
<stop offset="1" stop-color="#00E3FF"/>
</linearGradient>
<linearGradient id="paint1_linear_159_46" x1="59.5884" y1="26.9257" x2="34.8541" y2="26.9257" gradientUnits="userSpaceOnUse">
<stop stop-color="#FFE000"/>
<stop offset="0.4087" stop-color="#FFBD00"/>
<stop offset="0.7754" stop-color="#FFA500"/>
<stop offset="1" stop-color="#FF9C00"/>
</linearGradient>
<linearGradient id="paint2_linear_159_46" x1="50.3917" y1="31.1248" x2="31.4333" y2="49.506" gradientUnits="userSpaceOnUse">
<stop stop-color="#FF3A44"/>
<stop offset="1" stop-color="#C31162"/>
</linearGradient>
<linearGradient id="paint3_linear_159_46" x1="32.4793" y1="12.063" x2="40.929" y2="20.268" gradientUnits="userSpaceOnUse">
<stop stop-color="#32A071"/>
<stop offset="0.0685" stop-color="#2DA771"/>
<stop offset="0.4762" stop-color="#15CF74"/>
<stop offset="0.8009" stop-color="#06E775"/>
<stop offset="1" stop-color="#00F076"/>
</linearGradient>
<linearGradient id="paint4_linear_159_46" x1="50.382" y1="34.1338" x2="35.1963" y2="48.9655" gradientUnits="userSpaceOnUse">
<stop stop-color="#CC2E36"/>
<stop offset="1" stop-color="#9C0E4E"/>
</linearGradient>
<linearGradient id="paint5_linear_159_46" x1="36.8828" y1="15.1452" x2="27.0248" y2="24.7736" gradientUnits="userSpaceOnUse">
<stop stop-color="#008DE0"/>
<stop offset="0.00657" stop-color="#008DE0"/>
<stop offset="0.2601" stop-color="#00A7E0"/>
<stop offset="0.5122" stop-color="#00B8E0"/>
<stop offset="0.7604" stop-color="#00C4E0"/>
<stop offset="1" stop-color="#00C7E0"/>
</linearGradient>
<linearGradient id="paint6_linear_159_46" x1="59.587" y1="27.001" x2="34.8527" y2="27.001" gradientUnits="userSpaceOnUse">
<stop stop-color="#E0C500"/>
<stop offset="0.4087" stop-color="#E0A600"/>
<stop offset="0.7754" stop-color="#E09100"/>
<stop offset="1" stop-color="#E08900"/>
</linearGradient>
<linearGradient id="paint7_linear_159_46" x1="59.5874" y1="27.001" x2="34.8532" y2="27.001" gradientUnits="userSpaceOnUse">
<stop stop-color="#FFE840"/>
<stop offset="0.4087" stop-color="#FFCE40"/>
<stop offset="0.7754" stop-color="#FFBC40"/>
<stop offset="1" stop-color="#FFB540"/>
</linearGradient>
<linearGradient id="paint8_linear_159_46" x1="36.8724" y1="15.163" x2="27.3879" y2="24.025" gradientUnits="userSpaceOnUse">
<stop stop-color="#40B8FF"/>
<stop offset="0.00657" stop-color="#40B9FF"/>
<stop offset="0.2601" stop-color="#40CEFF"/>
<stop offset="0.5122" stop-color="#40DDFF"/>
<stop offset="0.7604" stop-color="#40E7FF"/>
<stop offset="1" stop-color="#40EAFF"/>
</linearGradient>
<linearGradient id="paint9_linear_159_46" x1="32.4631" y1="14.8144" x2="39.2442" y2="21.4375" gradientUnits="userSpaceOnUse">
<stop stop-color="#65B895"/>
<stop offset="0.0685" stop-color="#62BD95"/>
<stop offset="0.4762" stop-color="#50DB97"/>
<stop offset="0.8009" stop-color="#44ED98"/>
<stop offset="1" stop-color="#40F498"/>
</linearGradient>
</defs>
</svg>
