<svg width="60" height="60" viewBox="0 0 60 60" fill="none" xmlns="http://www.w3.org/2000/svg">
<path d="M30.0587 6.25009C28.1149 6.25634 26.7674 6.42759 25.1387 6.70884C20.3287 7.54634 19.4524 9.30509 19.4524 12.5463V17.5001H30.7024V20.0001H19.0249H13.5874C10.2924 20.0001 7.40869 21.5526 6.49494 25.2738C5.46244 29.5451 5.41619 32.2201 6.49494 36.6801C7.31369 40.0063 9.11744 42.5001 12.4137 42.5001H16.9537V36.1201C16.9537 32.4126 20.3112 28.7501 24.1587 28.7501H33.2037C36.3574 28.7501 39.4537 26.4226 39.4537 23.2788V12.5463C39.4537 9.49759 37.2549 7.21759 34.1812 6.70634C34.2574 6.69884 31.9862 6.24259 30.0587 6.25009ZM23.8287 11.2501C24.8549 11.2501 25.7037 12.0963 25.7037 13.1276C25.7037 14.1688 24.8549 15.0001 23.8287 15.0001C22.7824 15.0001 21.9537 14.1701 21.9537 13.1276C21.9537 12.1001 22.7824 11.2501 23.8287 11.2501Z" fill="#0277BD"/>
<path d="M28.8481 53.75C30.7919 53.7437 32.1394 53.5725 33.7681 53.2912C38.5781 52.4537 39.4544 50.695 39.4544 47.4537V42.5H28.2044V40H39.8831H45.3206C48.6156 40 51.4994 38.4475 52.4131 34.7262C53.4456 30.455 53.4919 27.78 52.4131 23.32C51.5931 19.9937 49.7894 17.5 46.4931 17.5H41.9531V23.88C41.9531 27.5875 38.5956 31.25 34.7481 31.25H25.7031C22.5494 31.25 19.4531 33.5775 19.4531 36.7212V47.4537C19.4531 50.5025 21.6519 52.7825 24.7256 53.2937C24.6494 53.3012 26.9206 53.7575 28.8481 53.75ZM35.0794 48.75C34.0531 48.75 33.2044 47.9037 33.2044 46.8725C33.2044 45.8312 34.0531 45 35.0794 45C36.1256 45 36.9544 45.83 36.9544 46.8725C36.9544 47.9 36.1244 48.75 35.0794 48.75Z" fill="#FFC107"/>
</svg>
