<svg width="80" height="80" viewBox="0 0 80 80" fill="none" xmlns="http://www.w3.org/2000/svg">
<circle cx="40" cy="40" r="40" fill="#222222"/>
<path d="M38.9795 20C32.3625 20 26.9795 27.27 26.9795 36.205C26.9795 41.039 28.5615 45.374 31.0575 48.341C31.0095 48.554 30.9795 48.773 30.9795 49C30.9795 50.657 32.3225 52 33.9795 52C35.6365 52 36.9795 50.657 36.9795 49C36.9795 47.343 35.6365 46 33.9795 46C33.6645 46 33.3675 46.062 33.0825 46.152C31.1855 43.731 29.9795 40.175 29.9795 36.205C29.9795 28.924 34.0165 23 38.9795 23C42.8165 23 46.0905 26.547 47.3835 31.518C48.5055 31.864 49.6205 32.3 50.7135 32.826C49.5585 25.508 44.7385 20 38.9795 20Z" fill="#7E57C2"/>
<path d="M51.4865 36.084C47.5395 33.692 43.1125 32.642 39.3045 33.125C38.7545 32.444 37.9225 32 36.9795 32C35.3225 32 33.9795 33.343 33.9795 35C33.9795 36.657 35.3225 38 36.9795 38C38.2515 38 39.3325 37.205 39.7685 36.088C42.8865 35.709 46.5805 36.619 49.9315 38.651C56.3345 42.532 59.6015 49.22 57.2135 53.562C56.3865 55.066 54.9275 56.134 52.9955 56.652C50.7095 57.263 47.9885 57.046 45.2685 56.124C44.4295 56.896 43.5195 57.622 42.5435 58.292C45.0955 59.409 47.7395 59.996 50.2125 59.996C51.4525 59.996 52.6505 59.849 53.7715 59.549C56.5125 58.816 58.6125 57.245 59.8425 55.007C62.9955 49.276 59.2465 40.787 51.4865 36.084Z" fill="#7E57C2"/>
<path d="M50.9792 44.992C50.9792 43.34 49.6362 42 47.9792 42C46.3222 42 44.9792 43.34 44.9792 44.992C44.9792 45.661 45.2072 46.273 45.5792 46.771C44.3002 49.573 41.8352 52.338 38.5172 54.349C34.6522 56.693 30.3322 57.551 26.9622 56.651C25.0302 56.133 23.5712 55.0651 22.7442 53.5611C21.0422 50.4671 22.2232 46.185 25.3542 42.573C25.0312 41.429 24.7922 40.233 24.6482 38.998C19.5782 43.795 17.5392 50.321 20.1162 55.007C21.3462 57.245 23.4462 58.816 26.1872 59.549C27.3082 59.849 28.5052 59.996 29.7462 59.996C33.0922 59.996 36.7532 58.928 40.0722 56.916C43.9082 54.591 46.7552 51.339 48.2812 47.954C49.7942 47.801 50.9792 46.541 50.9792 44.992Z" fill="#7E57C2"/>
</svg>
