<svg width="80" height="80" viewBox="0 0 80 80" fill="none" xmlns="http://www.w3.org/2000/svg">
<circle cx="40" cy="40" r="40" fill="#222222"/>
<path d="M60 54.0001L22.6 59.9001L18 29.8001L55.2 24.1001L60 54.0001Z" fill="#03A9F4"/>
<path d="M55.2002 24.1001L60.0002 54.0001L22.6002 59.9001L22.2002 57.0001L55.2002 24.1001Z" fill="#039BE5"/>
<path d="M18 29.8L20.4 45.2999L38.2 26.7L18 29.8Z" fill="#29B6F6"/>
<path d="M24.2998 57.6L20.2998 31.4L53.5998 26.3L57.7998 52.3L24.2998 57.6ZM22.5998 33.1L25.9998 55.3L55.4998 50.6L51.9998 28.5L22.5998 33.1Z" fill="white"/>
<path d="M27.1001 43.0001L27.5001 46.0001L52.0001 42.1001L51.5001 39.1001L27.1001 43.0001Z" fill="white"/>
<path d="M32.6 50.3001L29.5 54.0001L29.9 49.2001C29.9 49.1001 29.9 49.0001 30 48.9001L35.2 36.2001C35.4 35.7001 36 35.4001 36.5 35.7001L37.4 36.1001C37.9 36.3001 38.2 36.9001 37.9 37.4001L32.8 50.0001C32.7 50.1001 32.7 50.2001 32.6 50.3001ZM46.7 45.2001L37.4 34.3C37 33.9 37.1 33.2001 37.5 32.9001L38.3 32.3C38.7 31.9 39.4 32.0001 39.7 32.4001L49 43.3L46.7 45.2001ZM49.6 44.0001C49.6 44.0001 52 44.7001 52 47.5001C52 49.3001 51.5 50.0001 51.5 50.0001C51.5 50.0001 51.1 48.8 49.2 48.1C46.6 47.2 46.7 45.2001 46.7 45.2001L48.9 44.7001L49.6 44.0001Z" fill="white"/>
<path d="M36.4002 41L35.2002 43.9L37.1002 42.1L37.5002 41H36.4002Z" fill="#03A9F4"/>
<path d="M35.4999 46.0001L37.0999 42.1001L35.1999 43.9001L34.3999 46.0001H35.4999Z" fill="#039BE5"/>
<path d="M31.2001 46L33.2001 41H32.1001L30.1001 46H31.2001Z" fill="#03A9F4"/>
<path d="M49.8999 42.8L46.5999 39H45.2999L48.7999 43L48.9999 43.3L46.6999 45.2L45.3999 43.7L42.1999 40H40.8999L43.8999 43.5L45.8999 45.9L46.5999 46.6L47.2999 46L49.5999 44L50.3999 43.4L49.8999 42.8Z" fill="#039BE5"/>
<path d="M33 36.8999V37.9999L38 40.0999V38.9999L33 36.8999Z" fill="#03A9F4"/>
<path d="M34.0001 49.6L30.9001 48.3L30.1001 49.1L34.0001 50.7001V49.6Z" fill="#039BE5"/>
<path d="M29 47.5V48.6L30.1 49.1L30.9 48.3L29 47.5Z" fill="#03A9F4"/>
<path d="M53.9002 28.2V28.3L54.6002 32.5L55.9002 28.9C55.9002 28.8 56.0002 28.7 56.0002 28.6L55.6002 26.3C54.8002 26.8 54.1002 27.6 53.9002 28.2ZM49.9002 48.4001C49.7002 48.3001 49.5002 48.2 49.2002 48.1C48.7002 47.9 48.4002 47.8 48.1002 47.6L46.8002 52L49.0002 51.7001L49.9002 48.4001ZM46.2002 54.1L45.7002 56.3L47.8002 55.9001L48.4002 53.8L46.2002 54.1ZM50.8002 37.8V37.9L50.4002 39.3L51.5002 39.1L51.9002 41.3L52.7002 38.4L53.2002 36.8L52.5002 32.4L51.4002 35.9L50.8002 37.8Z" fill="#0277BD"/>
<path d="M52.5002 32.4L53.2002 36.8L54.5002 32.5L53.8002 28.3C53.3002 29.7 52.8002 31.1 52.7002 31.3L52.5002 32.4ZM46.8002 52L46.2002 54.1L48.4002 53.8L49.0002 51.7001L46.8002 52ZM51.9002 41.3L51.5002 39.1L50.4002 39.3L49.5002 42.5L51.6002 42.2L51.9002 41.3ZM49.6002 44L49.0002 44.3L48.1002 47.6C48.4002 47.8 48.8002 48 49.2002 48.1C49.5002 48.2 49.7002 48.3001 49.9002 48.4001L50.9002 44.8C50.3002 44.2 49.6002 44 49.6002 44Z" fill="#90A4AE"/>
<path d="M50.8998 44.8001L51.5998 42.1001L49.3998 42.4001L48.7998 44.6001L49.5998 43.9001C49.5998 44.0001 50.2998 44.2001 50.8998 44.8001Z" fill="#0277BD"/>
<path d="M49.6 44L48.8 44.7L48 47.6C48.3 47.8 48.7 48 49.1 48.1C49.4 48.2 49.6 48.3 49.8 48.4L50.8 44.8C50.3 44.2 49.6 44 49.6 44Z" fill="#90A4AE"/>
<path d="M52 20.5C46 20.5 42 22 42 22V22.5C50.6 22.5 51.7 25.7 52 26.5V20.5Z" fill="#78909C"/>
<path d="M60 22.3C59.8 22.7 59.6 23 59 23C57.9 23 57 21.4 57 21.4C55.3 20.3 52 19 49 19C43 19 41 20.5 41 20.5V21C45.2 21 46.8 21.4 48.3 22.5C50.7 24.3 50.5 28.4 49.6 31.6L47.8 37L50.7 37.9L52.8 31.3C52.9 31.2 53.4 29.7 53.9 28.2C54.2 27.4 55 26.4 56 26.1C56.6 25.9 57.4 25.8 57.9 26.2C58.4 26.6 58.4 26.9 58.3 27.3L60.3 27.9L62 23L60 22.3Z" fill="#D7DEE2"/>
<path d="M58.9999 22.9999C57.8999 22.9999 56.9999 21.3999 56.9999 21.3999L56.1999 23.8999C55.8999 24.9999 54.6999 25.4999 53.6999 25.1999L49.3999 23.7999C49.8999 24.6999 50.0999 25.6999 50.1999 26.8999L53.9999 28.0999C54.2999 27.4999 54.7999 26.7999 55.4999 26.3999C55.6999 26.2999 55.8999 26.1999 56.0999 26.0999C56.6999 25.8999 57.4999 25.7999 57.9999 26.1999C58.4999 26.5999 58.4999 26.8999 58.3999 27.2999L59.9999 22.2999C59.7999 22.6999 59.5999 22.9999 58.9999 22.9999Z" fill="#90A4AE"/>
<path d="M47.8001 37L39.1001 57.3C38.6001 58.6 39.3001 60.2 40.7001 60.6L41.6001 60.9C43.0001 61.3 44.4001 60.5 44.7001 59.5L50.7001 37.9L47.8001 37Z" fill="#424242"/>
</svg>
