<svg width="80" height="80" viewBox="0 0 80 80" fill="none" xmlns="http://www.w3.org/2000/svg">
<circle cx="40" cy="40" r="40" fill="#222222"/>
<path d="M40 17C28.4008 17 19 26.4008 19 38C19 44.4148 21.8957 50.1406 26.432 53.9879L23.5609 58.9836V63.2L27.1949 61.0754L33.0273 50.9445C35.1602 52.093 37.5309 52.7 40 52.7C42.5184 52.7 44.8973 52.0602 46.9645 50.9363L47.9898 52.7246C45.6109 54.0289 42.9039 54.8 40 54.8C38.6055 54.8 37.252 54.6113 35.9477 54.2832L33.782 58.0566C35.7508 58.6719 37.8344 59 40 59C43.6668 59 47.1039 58.0402 50.098 56.3914L52.7969 61.0836L56.4391 63.2V58.9836L50.3605 48.418C53.043 45.752 54.7 42.0688 54.7 38H50.5C50.5 40.4938 49.5895 42.7496 48.1375 44.5461L45.0695 39.2223L46.3 38V29.075C46.3 28.2055 45.5945 27.5 44.725 27.5H42.1V23.3H37.9V27.5H35.275C34.4055 27.5 33.7 28.2055 33.7 29.075V38L34.9223 39.2223L28.573 50.2637C25.2754 47.2039 23.2 42.848 23.2 38C23.2 28.7387 30.7387 21.2 40 21.2C49.2613 21.2 56.8 28.7387 56.8 38C56.8 41.232 55.873 44.2426 54.2816 46.802L56.5949 50.8297C59.343 47.2859 61 42.8398 61 38C61 26.4008 51.5992 17 40 17ZM40 31.7C41.7391 31.7 43.15 33.1109 43.15 34.85C43.15 36.5891 41.7391 38 40 38C38.2609 38 36.85 36.5891 36.85 34.85C36.85 33.1109 38.2609 31.7 40 31.7ZM38.0066 42.2984L38.8762 43.1762C39.4996 43.7996 40.5004 43.7996 41.1238 43.1762L41.9934 42.2984L44.848 47.2531C43.3879 48.0242 41.7555 48.5 40 48.5C38.2773 48.5 36.6203 48.0816 35.1273 47.2941L38.0066 42.2984Z" fill="#2ECC71"/>
</svg>
