<svg width="80" height="80" viewBox="0 0 80 80" fill="none" xmlns="http://www.w3.org/2000/svg">
<circle cx="40" cy="40" r="40" fill="#222222"/>
<path fill-rule="evenodd" clip-rule="evenodd" d="M22.009 46.6552C18.7351 46.6552 17.1249 44.661 16.4973 42.5777C17.2061 45.9597 21.0361 49.2702 33.1192 50.7471C44.5356 52.1421 51.9746 48.644 54.4847 47.0163C54.4847 47.0163 56.1807 46.2704 55.1633 47.4233C55.1633 47.4233 47.9732 54.0702 33.8654 54.1381C19.7575 54.206 8.56607 47.0845 8.6336 39.8944C8.56607 32.705 19.7575 25.5832 33.8654 25.6511C47.9732 25.719 55.1633 32.3659 55.1633 32.3659C56.1807 33.5191 54.4847 32.7729 54.4847 32.7729C51.975 31.1452 44.5675 27.9392 33.1192 29.0425C21.8602 30.1278 18.1847 33.9531 16.964 36.5307C16.4941 37.5226 16.2821 38.4578 16.2286 39.4001C16.5329 36.941 18.0615 34.0411 22.009 34.0411C26.4806 34.0411 27.849 37.7619 27.849 40.3485C27.8486 42.9341 26.4806 46.6552 22.009 46.6552V46.6552ZM67.4652 44.1692H73.4217V46.3387H64.9623V34.358H67.4652V44.1692V44.1692ZM58.2741 39.8811H63.2799V46.3387H61.6112L61.3615 44.8363C60.7271 45.571 59.8096 46.6548 57.6239 46.6548C54.7373 46.6548 52.1179 44.5863 52.1179 40.3812C52.1179 37.1109 53.9365 34.0239 57.9741 34.0408C61.6453 34.0408 63.0971 36.4269 63.2304 38.0784H60.7274C60.7274 37.6114 59.8764 36.1097 58.1081 36.1097C56.3223 36.1097 54.6708 37.3448 54.6708 40.415C54.6708 43.6856 56.4559 44.536 58.1581 44.536C58.7088 44.536 60.5439 44.319 61.0608 41.8998H58.2745V39.8811H58.2741V39.8811ZM22.009 35.476C19.4062 35.476 17.8377 37.5284 17.8377 40.3485C17.8377 43.1679 19.4062 45.2203 22.009 45.2203C24.6121 45.2203 26.1802 43.1679 26.1802 40.3485C26.1802 37.5284 24.6117 35.476 22.009 35.476V35.476ZM28.7464 38.6769H29.9625V39.7611H29.9919C30.2994 39.3214 30.8854 38.4574 32.2771 38.4574C34.313 38.4574 35.7644 40.1829 35.7644 42.3363C35.7644 44.1677 34.7089 46.5582 32.1014 46.5582C31.0761 46.5582 30.4022 46.0746 30.0656 45.5325H30.0361V49.3708H28.7467V38.6769H28.7464V38.6769ZM32.0041 45.4445C33.4106 45.4445 34.3633 44.2256 34.3633 42.541C34.3633 41.5603 33.9667 39.6146 31.9746 39.6146C30.1141 39.6146 29.9089 41.6213 29.9089 42.8669C29.9093 44.9031 31.1839 45.4445 32.0041 45.4445V45.4445ZM43.5652 43.936C43.5217 44.3025 43.17 45.3863 42.2033 46.0305C41.8516 46.2647 41.3533 46.5582 40.1229 46.5582C37.9695 46.5582 36.6949 44.9319 36.6949 42.7199C36.6949 40.3471 37.8376 38.457 40.3718 38.457C42.5841 38.457 43.6672 40.2149 43.6672 42.9247H38.0722C38.0722 44.5216 38.8195 45.4445 40.2989 45.4445C41.5146 45.4445 42.232 44.5072 42.2762 43.936H43.5652V43.936ZM42.199 41.8998C42.126 40.7132 41.6278 39.6146 40.0603 39.6146C38.8737 39.6146 37.9361 40.7135 37.9361 41.8998H42.199ZM50.7923 46.3387H49.5033V41.6213C49.5033 40.2882 49.1221 39.6146 47.863 39.6146C47.1304 39.6146 45.8414 40.0834 45.8414 42.1631V46.3387H44.5517V38.6769H45.7678V39.7611H45.7973C46.0757 39.3509 46.7935 38.4574 48.1112 38.4574C49.2978 38.4574 50.7923 38.9406 50.7923 41.1231V46.3387V46.3387Z" fill="#E6E6E7"/>
<path fill-rule="evenodd" clip-rule="evenodd" d="M74.1545 44.6411V44.7492H73.815V45.6873H73.6803V44.7492H73.3379V44.6411H74.1545ZM74.4735 44.6411L74.7347 45.4767H74.7397L75.0113 44.6411H75.2121V45.6873H75.0936V44.7492H75.0878L74.7799 45.6873H74.6901L74.4002 44.7492H74.3945V45.6873H74.2759V44.6411H74.4735V44.6411Z" fill="#5487B2"/>
<path fill-rule="evenodd" clip-rule="evenodd" d="M21.9789 46.6243C18.7047 46.6243 17.0949 44.6301 16.4673 42.5468C17.1761 45.9288 21.0061 49.2393 33.0896 50.7155C44.5059 52.1112 51.945 48.6131 54.4547 46.9854C54.4547 46.9854 56.1507 46.2388 55.1333 47.3924C55.1333 47.3924 47.9432 54.0393 33.8357 54.1072C19.7275 54.1747 8.53642 47.0533 8.60431 39.8635C8.53606 32.6742 19.7275 25.5523 33.8354 25.6199C47.9432 25.6878 55.133 32.3347 55.133 32.3347C56.1504 33.4879 54.4543 32.7417 54.4543 32.7417C51.9446 31.1139 44.5372 27.9079 33.0892 29.0112C21.8302 30.0965 18.1547 33.9222 16.934 36.4995C16.4641 37.4914 16.2521 38.4265 16.1986 39.3688C16.5029 36.9097 18.0315 34.0099 21.9789 34.0099C26.4506 34.0099 27.8186 37.731 27.8186 40.3169C27.8186 42.9032 26.4506 46.6243 21.9789 46.6243V46.6243ZM67.4352 44.1383H73.3916V46.3071H64.9323V34.3271H67.4352V44.1383V44.1383ZM58.2441 39.8495H63.2499V46.3071H61.5812C61.4979 45.8066 61.4142 45.3059 61.3315 44.8054C60.6971 45.5394 59.7796 46.6239 57.5939 46.6239C54.7073 46.6239 52.0872 44.5547 52.0872 40.3503C52.0872 37.0797 53.9058 33.993 57.9441 34.0099C61.6153 34.0099 63.0671 36.396 63.2004 38.0479H60.6974C60.6974 37.5805 59.8464 36.0792 58.0774 36.0792C56.2923 36.0792 54.6408 37.3139 54.6408 40.3837C54.6408 43.6544 56.4259 44.5054 58.1281 44.5054C58.6788 44.5054 60.5139 44.2884 61.0308 41.8692H58.2445L58.2441 39.8495V39.8495ZM21.9789 35.4447C19.3758 35.4447 17.8077 37.4971 17.8077 40.3169C17.8077 43.137 19.3762 45.1891 21.9789 45.1891C24.5817 45.1891 26.1502 43.1367 26.1502 40.3169C26.1502 37.4971 24.5817 35.4447 21.9789 35.4447V35.4447ZM28.7167 38.646H29.9324V39.7299H29.9619C30.2694 39.2905 30.8554 38.4265 32.2471 38.4265C34.283 38.4265 35.7344 40.1524 35.7344 42.3057C35.7344 44.1372 34.6789 46.527 32.0714 46.527C31.0461 46.527 30.3722 46.0434 30.0352 45.5016H30.0057V49.3399H28.7167V38.646ZM31.9741 45.4136C33.3806 45.4136 34.3337 44.1947 34.3337 42.5101C34.3337 41.5287 33.937 39.5837 31.945 39.5837C30.0844 39.5837 29.8796 41.5905 29.8796 42.8353C29.8796 44.8715 31.1539 45.4136 31.9741 45.4136ZM43.5352 43.9044C43.4917 44.2708 43.14 45.3547 42.1733 45.9996C41.8216 46.2338 41.3236 46.5266 40.0932 46.5266C37.9398 46.5266 36.6652 44.901 36.6652 42.689C36.6652 40.3155 37.808 38.4258 40.3422 38.4258C42.5537 38.4258 43.6376 40.184 43.6376 42.8938H38.0422C38.0422 44.49 38.7891 45.4136 40.2689 45.4136C41.4846 45.4136 42.202 44.4763 42.2462 43.9044H43.5352V43.9044ZM42.169 41.8682C42.096 40.6815 41.5981 39.5837 40.0307 39.5837C38.8441 39.5837 37.9064 40.6819 37.9064 41.8682H42.169ZM50.7623 46.3071H49.4733V41.5905C49.4733 40.2573 49.0921 39.5837 47.8322 39.5837C47.1004 39.5837 45.8107 40.0525 45.8107 42.1322V46.3071H44.5217V38.646H45.7378V39.7299H45.7672C46.0457 39.32 46.7635 38.4265 48.0812 38.4265C49.2678 38.4265 50.7623 38.9101 50.7623 41.0925V46.3071V46.3071Z" fill="#DFE0E1"/>
<path fill-rule="evenodd" clip-rule="evenodd" d="M21.9485 46.5933C18.6747 46.5933 17.0645 44.5991 16.4369 42.5158C17.1457 45.8971 20.9757 49.2083 33.0592 50.6845C44.4755 52.0802 51.9146 48.5821 54.4243 46.9543C54.4243 46.9543 56.1203 46.2078 55.1029 47.3614C55.1029 47.3614 47.9128 54.0083 33.805 54.0755C19.6971 54.1434 8.50565 47.0222 8.57355 39.8325C8.50565 32.6431 19.6971 25.5213 33.805 25.5889C47.9128 25.6568 55.1029 32.3037 55.1029 32.3037C56.1203 33.4565 54.4243 32.7107 54.4243 32.7107C51.9146 31.0829 44.5071 27.8766 33.0592 28.9802C21.7998 30.0655 18.1246 33.8908 16.9039 36.4681C16.434 37.46 16.2217 38.3951 16.1685 39.3375C16.4728 36.8787 18.0011 33.9789 21.9485 33.9789C26.4202 33.9789 27.7886 37.6996 27.7886 40.2859C27.7886 42.8722 26.4202 46.5933 21.9485 46.5933V46.5933ZM67.4048 44.1073H73.3612V46.2761H64.9019V34.2961H67.4048V44.1073V44.1073ZM58.2137 39.8185H63.2195V46.2761H61.5508L61.3004 44.7744C60.6667 45.5084 59.7491 46.5929 57.5634 46.5929C54.6768 46.5929 52.0575 44.5236 52.0575 40.3193C52.0575 37.0487 53.8757 33.962 57.9137 33.9789C61.5849 33.9789 63.0367 36.365 63.1699 38.0169H60.667C60.667 37.5495 59.816 36.0481 58.047 36.0481C56.2619 36.0481 54.6104 37.2829 54.6104 40.3527C54.6104 43.6234 56.3955 44.4744 58.0977 44.4744C58.6484 44.4744 60.4835 44.2574 61.0004 41.8382C60.0721 41.8375 59.1431 41.8375 58.2141 41.8382L58.2137 39.8185V39.8185ZM21.9485 35.4141C19.3458 35.4141 17.7773 37.4665 17.7773 40.2863C17.7773 43.1064 19.3458 45.1584 21.9485 45.1584C24.5517 45.1584 26.1198 43.106 26.1198 40.2863C26.1198 37.4661 24.5517 35.4141 21.9485 35.4141ZM28.6867 38.615H29.9024V39.6989H29.9319C30.2394 39.2595 30.8253 38.3955 32.2171 38.3955C34.253 38.3955 35.7047 40.1214 35.7047 42.2747C35.7047 44.1055 34.6489 46.4959 32.0414 46.4959C31.0161 46.4959 30.3425 46.0124 30.0055 45.4706H29.976V49.3089C29.5464 49.3082 29.1167 49.3082 28.687 49.3089L28.6867 38.615ZM31.9437 45.383C33.3502 45.383 34.3033 44.164 34.3033 42.4795C34.3033 41.498 33.9066 39.5527 31.9146 39.5527C30.0544 39.5527 29.8489 41.5598 29.8489 42.8046C29.8489 44.8405 31.1235 45.383 31.9437 45.383V45.383ZM43.5048 43.8734C43.4613 44.2398 43.1096 45.3237 42.1429 45.9686C41.7912 46.2028 41.2932 46.4956 40.0624 46.4956C37.9091 46.4956 36.6348 44.87 36.6348 42.658C36.6348 40.2845 37.7772 38.3948 40.3114 38.3948C42.5237 38.3948 43.6068 40.153 43.6068 42.8628H38.0115C38.0115 44.459 38.7583 45.3826 40.2381 45.3826C41.4538 45.3826 42.1712 44.4446 42.2154 43.8734H43.5048V43.8734ZM42.1386 41.8372C42.0656 40.6505 41.5677 39.5523 40.0003 39.5523C38.8137 39.5523 37.876 40.6509 37.876 41.8372H42.1386ZM50.7319 46.2761H49.4429V41.5594C49.4429 40.2263 49.0617 39.5523 47.8025 39.5523C47.07 39.5523 45.7803 40.0215 45.7803 42.1012V46.2761H44.4913V38.615H45.7074V39.6989H45.7368C46.0153 39.289 46.7323 38.3955 48.0508 38.3955C49.2374 38.3955 50.7319 38.8791 50.7319 41.0615V46.2761V46.2761Z" fill="#D9DADB"/>
<path fill-rule="evenodd" clip-rule="evenodd" d="M21.9183 46.5625C18.6444 46.5625 17.0346 44.5683 16.4066 42.4843C17.1158 45.8663 20.9454 49.1768 33.0289 50.6537C44.4452 52.0487 51.8843 48.5507 54.394 46.9229C54.394 46.9229 56.0901 46.1771 55.0726 47.3306C55.0726 47.3306 47.8826 53.9775 33.7747 54.0447C19.6668 54.1126 8.47538 46.9908 8.54328 39.8018C8.47538 32.612 19.6668 25.4902 33.7747 25.5581C47.8826 25.626 55.0726 32.2729 55.0726 32.2729C56.0901 33.4261 54.394 32.6799 54.394 32.6799C51.8843 31.0522 44.4768 27.8462 33.0289 28.9494C21.7695 30.0348 18.0944 33.8601 16.8736 36.4374C16.4037 37.4293 16.1914 38.3644 16.1382 39.3067C16.4425 36.8476 17.9708 33.9477 21.9183 33.9477C26.3899 33.9477 27.7583 37.6685 27.7583 40.2548C27.7583 42.8414 26.3899 46.5625 21.9183 46.5625V46.5625ZM67.3745 44.0765C69.3601 44.0758 71.3454 44.0758 73.331 44.0765V46.2453H64.8716V34.265H67.3745V44.0765V44.0765ZM58.1834 39.7878H63.1893V46.2453H61.5205C61.4372 45.7442 61.3535 45.2441 61.2708 44.7436C60.6364 45.4776 59.7189 46.5622 57.5332 46.5622C54.6466 46.5622 52.0273 44.4929 52.0273 40.2878C52.0273 37.0179 53.8458 33.9309 57.8834 33.9477C61.5547 33.9477 63.0064 36.3339 63.1397 37.9857H60.6368C60.6368 37.5184 59.7857 36.0167 58.0167 36.0167C56.2316 36.0167 54.5801 37.2518 54.5801 40.3216C54.5801 43.5922 56.3652 44.4433 58.0674 44.4433C58.6174 44.4433 60.4532 44.2263 60.9701 41.8064H58.1838L58.1834 39.7878V39.7878ZM21.9183 35.383C19.3155 35.383 17.747 37.4354 17.747 40.2551C17.747 43.0753 19.3155 45.1273 21.9183 45.1273C24.5214 45.1273 26.0896 43.0749 26.0896 40.2551C26.0896 37.4354 24.5211 35.383 21.9183 35.383ZM28.6561 38.5839H29.8721V39.6678H29.9016C30.2091 39.2284 30.795 38.364 32.1864 38.364C34.2227 38.364 35.6741 40.0902 35.6741 42.2436C35.6741 44.0744 34.6186 46.4648 32.0108 46.4648C30.9855 46.4648 30.3119 45.9813 29.9749 45.4395H29.9454V49.2771H28.6564L28.6561 38.5839V38.5839ZM31.9134 45.3515C33.3199 45.3515 34.273 44.1333 34.273 42.4487C34.273 41.4673 33.8764 39.5215 31.8843 39.5215C30.0241 39.5215 29.8186 41.529 29.8186 42.7739C29.8186 44.8097 31.0932 45.3515 31.9134 45.3515ZM43.4745 43.8426C43.4311 44.2091 43.0793 45.2929 42.1126 45.9378C41.7609 46.172 41.263 46.4648 40.0322 46.4648C37.8788 46.4648 36.6045 44.8392 36.6045 42.6266C36.6045 40.2537 37.747 38.364 40.2811 38.364C42.4934 38.364 43.5766 40.1219 43.5766 42.8324C41.7117 42.8317 39.8464 42.8317 37.9812 42.8324C37.9812 44.4286 38.7281 45.3515 40.2075 45.3515C41.4232 45.3515 42.1406 44.4142 42.1848 43.843L43.4745 43.8426V43.8426ZM42.1083 41.8064C42.0354 40.6198 41.5374 39.5212 39.9697 39.5212C38.7834 39.5212 37.8457 40.6201 37.8457 41.8064H42.1083V41.8064ZM50.7016 46.2453H49.4126V41.5287C49.4126 40.1955 49.0314 39.5212 47.7723 39.5212C47.0398 39.5212 45.7508 39.99 45.7508 42.0704V46.2453H44.461V38.5839H45.6771V39.6678H45.7066C45.9843 39.2579 46.7028 38.364 48.0205 38.364C49.2071 38.364 50.7016 38.8476 50.7016 41.0304V46.2453V46.2453Z" fill="#D3D4D5"/>
<path fill-rule="evenodd" clip-rule="evenodd" d="M21.8881 46.5315C18.6139 46.5315 17.0041 44.5373 16.3765 42.4533C17.0853 45.8353 20.9153 49.1458 32.9987 50.6227C44.4151 52.0177 51.8541 48.5196 54.3639 46.8919C54.3639 46.8919 56.0599 46.1461 55.0425 47.2989C55.0425 47.2989 47.8524 53.9458 33.7449 54.0137C19.6367 54.0816 8.4456 46.9598 8.51349 39.77C8.44524 32.581 19.6367 25.4592 33.7446 25.5271C47.8524 25.5946 55.0422 32.2419 55.0422 32.2419C56.0596 33.3951 54.3635 32.6489 54.3635 32.6489C51.8538 31.0211 44.4463 27.8152 32.9984 28.9184C21.7394 30.0034 18.0639 33.8291 16.8431 36.4064C16.3732 37.3982 16.1613 38.3334 16.1077 39.2757C16.412 36.8166 17.9407 33.9167 21.8881 33.9167C26.3597 33.9167 27.7278 37.6375 27.7278 40.2241C27.7278 42.8108 26.3597 46.5315 21.8881 46.5315V46.5315ZM67.3444 44.0448H73.3008V46.2143H64.8415V34.2339H67.3444V44.0448V44.0448ZM58.1533 39.7567H63.1591V46.2143H61.4904C61.407 45.7132 61.3233 45.2131 61.2407 44.7119C60.6063 45.4466 59.6887 46.5312 57.503 46.5312C54.6164 46.5312 51.9964 44.4619 51.9964 40.2568C51.9964 36.9865 53.8149 33.8998 57.8533 33.9167C61.5245 33.9167 62.9763 36.3029 63.1095 37.9547H60.6066C60.6066 37.4873 59.7556 35.986 57.9866 35.986C56.2015 35.986 54.55 37.2208 54.55 40.291C54.55 43.5616 56.3351 44.4127 58.0372 44.4127C58.588 44.4127 60.423 44.1953 60.94 41.7757H58.1536L58.1533 39.7567V39.7567ZM21.8881 35.3519C19.285 35.3519 17.7168 37.4044 17.7168 40.2241C17.7168 43.0443 19.2853 45.096 21.8881 45.096C24.4909 45.096 26.0594 43.0443 26.0594 40.2241C26.0594 37.4044 24.4909 35.3519 21.8881 35.3519V35.3519ZM28.6259 38.5529H29.842V39.6368H29.8714C30.179 39.1974 30.7649 38.333 32.1567 38.333C34.1925 38.333 35.6439 40.0585 35.6439 42.2126C35.6439 44.0434 34.5884 46.4338 31.981 46.4338C30.9557 46.4338 30.2817 45.9503 29.9447 45.4082H29.9153V49.2464H28.6263L28.6259 38.5529V38.5529ZM31.8833 45.3205C33.2897 45.3205 34.2425 44.1023 34.2425 42.4177C34.2425 41.4363 33.8459 39.4905 31.8538 39.4905C29.9932 39.4905 29.7881 41.4973 29.7881 42.7429C29.7885 44.7787 31.0631 45.3205 31.8833 45.3205ZM43.4444 43.812C43.4009 44.1784 43.0492 45.2623 42.0825 45.9064C41.7307 46.1407 41.2328 46.4342 40.0024 46.4342C37.849 46.4342 36.5744 44.8086 36.5744 42.5959C36.5744 40.2231 37.7172 38.3334 40.2513 38.3334C42.4629 38.3334 43.5468 40.0912 43.5468 42.8011H37.9514C37.9514 44.3979 38.6987 45.3209 40.1781 45.3209C41.3938 45.3209 42.1112 44.3836 42.1554 43.8124L43.4444 43.812V43.812ZM42.0781 41.7757C42.0052 40.5891 41.5073 39.4905 39.9399 39.4905C38.7533 39.4905 37.8156 40.5895 37.8156 41.7757H42.0781ZM50.6715 46.2143H49.3825V41.497C49.3825 40.1638 49.0013 39.4902 47.7414 39.4902C47.0096 39.4902 45.7199 39.959 45.7199 42.0394V46.2143H44.4309V38.5529H45.647V39.6368H45.6764C45.9548 39.2265 46.6726 38.333 47.9904 38.333C49.177 38.333 50.6715 38.8162 50.6715 40.9987V46.2143V46.2143Z" fill="#CCCDCF"/>
<path fill-rule="evenodd" clip-rule="evenodd" d="M21.8582 46.5001C18.5843 46.5001 16.9742 44.5058 16.3465 42.4225C17.0554 45.8045 20.8853 49.1151 32.9688 50.5919C44.3852 51.9869 51.8242 48.4889 54.334 46.8611C54.334 46.8611 56.0293 46.1153 55.0126 47.2681C55.0126 47.2681 47.8225 53.915 33.7146 53.9829C19.6068 54.0508 8.41532 46.9294 8.48322 39.7396C8.41532 32.5503 19.6068 25.4284 33.7146 25.4963C47.8225 25.5639 55.0126 32.2111 55.0126 32.2111C56.0293 33.3643 54.334 32.6182 54.334 32.6182C51.8242 30.9904 44.4168 27.7841 32.9688 28.8877C21.7095 29.973 18.0343 33.7983 16.8132 36.3756C16.3433 37.3675 16.1314 38.303 16.0778 39.2449C16.3821 36.7859 17.9107 33.886 21.8582 33.886C26.3298 33.886 27.6982 37.6067 27.6982 40.1934C27.6982 42.7796 26.3298 46.5001 21.8582 46.5001V46.5001ZM67.3145 44.014H73.2709V46.1828H64.8116V34.2032H67.3145V44.014V44.014ZM58.1234 39.726H63.1292V46.1828H61.4605L61.2101 44.6812C60.5763 45.4158 59.6588 46.4997 57.4731 46.4997C54.5865 46.4997 51.9665 44.4311 51.9665 40.2261C51.9665 36.9558 53.785 33.8691 57.8234 33.8856C61.4946 33.8856 62.9463 36.2718 63.0796 37.9236H60.5767C60.5767 37.4562 59.7256 35.9545 57.9567 35.9545C56.1715 35.9545 54.5201 37.1893 54.5201 40.2595C54.5201 43.5301 56.3052 44.3805 58.0073 44.3805C58.5581 44.3805 60.3931 44.1635 60.9101 41.7443H58.1237L58.1234 39.726V39.726ZM21.8582 35.3208C19.2554 35.3208 17.6869 37.3732 17.6869 40.1934C17.6869 43.0128 19.2554 45.0652 21.8582 45.0652C24.4614 45.0652 26.0295 43.0128 26.0295 40.1934C26.0295 37.3736 24.4614 35.3208 21.8582 35.3208V35.3208ZM28.5964 38.5218H29.8121V39.606H29.8415C30.149 39.1663 30.735 38.3023 32.1267 38.3023C34.1626 38.3023 35.614 40.0278 35.614 42.1811C35.614 44.0126 34.5585 46.4031 31.9507 46.4031C30.9254 46.4031 30.2518 45.9195 29.9148 45.3774H29.8854V49.2156H28.5964V38.5218V38.5218ZM31.8533 45.2897C33.2598 45.2897 34.2129 44.0708 34.2129 42.387C34.2129 41.4055 33.8163 39.4598 31.8242 39.4598C29.964 39.4598 29.7585 41.4666 29.7585 42.7121C29.7585 44.748 31.0332 45.2897 31.8533 45.2897ZM43.4145 43.7812C43.371 44.1477 43.0193 45.2315 42.0525 45.8757C41.7008 46.1099 41.2029 46.4034 39.9721 46.4034C37.8187 46.4034 36.5445 44.7771 36.5445 42.5652C36.5445 40.1923 37.6869 38.3023 40.2211 38.3023C42.4326 38.3023 43.5165 40.0601 43.5165 42.7699H37.9211C37.9211 44.3668 38.668 45.2897 40.1478 45.2897C41.3635 45.2897 42.0809 44.3524 42.1251 43.7812C42.5551 43.7805 42.9852 43.7805 43.4145 43.7812ZM42.0482 41.745C41.9753 40.5584 41.4774 39.4598 39.91 39.4598C38.7233 39.4598 37.7857 40.5587 37.7857 41.745H42.0482ZM50.6416 46.1828H49.3526V41.4662C49.3526 40.133 48.9714 39.4594 47.7122 39.4594C46.9797 39.4594 45.69 39.9282 45.69 42.0087V46.1828H44.401V38.5218H45.617V39.606H45.6465C45.9249 39.1957 46.642 38.3023 47.9605 38.3023C49.1471 38.3023 50.6416 38.7858 50.6416 40.9679V46.1828V46.1828Z" fill="#C6C7C9"/>
<path fill-rule="evenodd" clip-rule="evenodd" d="M21.8279 46.4691C18.5541 46.4691 16.9439 44.4748 16.3163 42.3915C17.0251 45.7735 20.8551 49.0841 32.9386 50.5609C44.3549 51.9559 51.7939 48.4579 54.3037 46.8301C54.3037 46.8301 55.9997 46.0843 54.9823 47.2371C54.9823 47.2371 47.7922 53.884 33.6844 53.9519C19.5765 54.0198 8.38505 46.898 8.45294 39.7083C8.38505 32.5189 19.5765 25.3974 33.6844 25.4653C47.7922 25.5329 54.9823 32.1801 54.9823 32.1801C55.9997 33.333 54.3037 32.5872 54.3037 32.5872C51.7939 30.9594 44.3865 27.753 32.9386 28.8567C21.6792 29.942 18.0037 33.7673 16.7829 36.3446C16.313 37.3365 16.1007 38.2716 16.0476 39.2139C16.3518 36.7549 17.8801 33.855 21.8276 33.855C26.2992 33.855 27.6676 37.5757 27.6676 40.1624C27.668 42.7483 26.2996 46.4691 21.8279 46.4691V46.4691ZM67.2842 43.983H73.2406V46.1526C70.4212 46.1518 67.6014 46.1518 64.7813 46.1526V34.1722H67.2842V43.983ZM58.0931 39.6953C59.7618 39.6946 61.4302 39.6946 63.0989 39.6953V46.1529C62.5432 46.1522 61.9867 46.1522 61.4302 46.1529L61.1798 44.6505C60.5461 45.3852 59.6285 46.4691 57.4428 46.4691C54.5562 46.4691 51.9369 44.4005 51.9369 40.1954C51.9369 36.9251 53.7551 33.8384 57.7931 33.855C61.4643 33.855 62.9161 36.2411 63.0493 37.893H60.5464C60.5464 37.4259 59.6954 35.9243 57.9264 35.9243C56.1413 35.9243 54.4898 37.159 54.4898 40.2292C54.4898 43.4991 56.2749 44.3502 57.977 44.3502C58.5271 44.3502 60.3628 44.1332 60.8798 41.714H58.0934L58.0931 39.6953V39.6953ZM21.8279 35.2898C19.2251 35.2898 17.6566 37.3422 17.6566 40.1624C17.6566 42.9818 19.2251 45.0342 21.8279 45.0342C24.4311 45.0342 25.9992 42.9818 25.9992 40.1624C25.9992 37.3422 24.4307 35.2898 21.8279 35.2898ZM28.5657 38.4908H29.7814V39.5746H29.8109C30.1188 39.1353 30.7044 38.2713 32.0961 38.2713C34.1323 38.2713 35.5837 39.9968 35.5837 42.1501C35.5837 43.9816 34.5282 46.3721 31.9204 46.3721C30.8951 46.3721 30.2215 45.8885 29.8845 45.3464H29.8551V49.1846H28.5661L28.5657 38.4908V38.4908ZM31.8231 45.2587C33.2295 45.2587 34.1826 44.0398 34.1826 42.3552C34.1826 41.3745 33.786 39.4284 31.794 39.4284C29.9338 39.4284 29.7283 41.4352 29.7283 42.6807C29.7283 44.717 31.0029 45.2587 31.8231 45.2587V45.2587ZM43.3842 43.7502C43.34 44.1159 42.9883 45.2005 42.0223 45.8447C41.6706 46.0789 41.1726 46.3724 39.9418 46.3724C37.7885 46.3724 36.5142 44.7461 36.5142 42.5342C36.5142 40.1613 37.6566 38.2713 40.1908 38.2713C42.4031 38.2713 43.4862 40.0291 43.4862 42.7389H37.8909C37.8909 44.3358 38.6377 45.2587 40.1171 45.2587C41.3329 45.2587 42.0503 44.3214 42.0945 43.7502H43.3842V43.7502ZM42.018 41.714C41.945 40.5274 41.4471 39.4284 39.8793 39.4284C38.6931 39.4284 37.7554 40.5274 37.7554 41.714H42.018V41.714ZM50.6113 46.1526C50.182 46.1518 49.7516 46.1518 49.3223 46.1526V41.4352C49.3223 40.102 48.9411 39.4284 47.6819 39.4284C46.9494 39.4284 45.6597 39.8972 45.6597 41.977V46.1526C45.2304 46.1518 44.8007 46.1518 44.3707 46.1526V38.4908H45.5868V39.5746H45.6162C45.8939 39.1647 46.6124 38.2713 47.9302 38.2713C49.1168 38.2713 50.6113 38.7548 50.6113 40.9369V46.1526V46.1526Z" fill="#C1C3C5"/>
<path fill-rule="evenodd" clip-rule="evenodd" d="M21.7977 46.4382C18.5234 46.4382 16.9136 44.444 16.286 42.3606C16.9948 45.7426 20.8248 49.0532 32.9083 50.5301C44.3246 51.925 51.7637 48.427 54.2734 46.7992C54.2734 46.7992 55.9694 46.0534 54.952 47.2062C54.952 47.2062 47.762 53.8531 33.6541 53.9203C19.5462 53.9882 8.35477 46.8671 8.42267 39.6774C8.35477 32.488 19.5462 25.3662 33.6541 25.4341C47.762 25.502 54.952 32.1489 54.952 32.1489C55.9694 33.3021 54.2734 32.5559 54.2734 32.5559C51.7637 30.9281 44.3562 27.7222 32.9083 28.8254C21.6489 29.9107 17.9738 33.7361 16.7527 36.3137C16.2828 37.3056 16.0708 38.2407 16.0173 39.183C16.3216 36.724 17.8502 33.8241 21.7977 33.8241C26.2693 33.8241 27.6373 37.5452 27.6373 40.1311C27.6377 42.7174 26.2693 46.4382 21.7977 46.4382V46.4382ZM67.2539 43.9521H73.2104V46.1209H64.751V34.1409H67.2539V43.9521ZM58.0632 39.6637H63.069V46.1213H61.4003C61.3169 45.6209 61.2332 45.1201 61.1506 44.6196C60.5162 45.3536 59.5986 46.4382 57.4129 46.4382C54.5263 46.4382 51.9063 44.3689 51.9063 40.1645C51.9063 36.8939 53.7248 33.8072 57.7632 33.8241C61.4344 33.8241 62.8861 36.2102 63.0194 37.8621H60.5165C60.5165 37.3947 59.6654 35.8934 57.8965 35.8934C56.1114 35.8934 54.4599 37.1281 54.4599 40.1979C54.4599 43.4686 56.245 44.3196 57.9471 44.3196C58.4979 44.3196 60.3329 44.1027 60.8499 41.6834H58.0635L58.0632 39.6637V39.6637ZM21.7977 35.2589C19.1945 35.2589 17.6264 37.3113 17.6264 40.1308C17.6264 42.9509 19.1949 45.0029 21.7977 45.0029C24.4004 45.0029 25.9689 42.9505 25.9689 40.1308C25.9689 37.3113 24.4004 35.2589 21.7977 35.2589ZM28.5355 38.4602H29.7515V39.5441C29.7613 39.5437 29.7712 39.5437 29.781 39.5441C30.0885 39.1047 30.6744 38.2404 32.0658 38.2404C34.1021 38.2404 35.5535 39.9662 35.5535 42.1196C35.5535 43.9511 34.498 46.3408 31.8902 46.3408C30.8648 46.3408 30.1909 45.858 29.8543 45.3155H29.8248V49.1538H28.5358L28.5355 38.4602V38.4602ZM31.7928 45.2278C33.1993 45.2278 34.152 44.0089 34.152 42.3244C34.152 41.3436 33.7554 39.3975 31.7633 39.3975C29.9028 39.3975 29.6976 41.4043 29.6976 42.6491C29.698 44.6854 30.9726 45.2278 31.7928 45.2278ZM43.3539 43.7186C43.3105 44.0851 42.9587 45.1689 41.992 45.8138C41.6403 46.048 41.142 46.3408 39.9116 46.3408C37.7582 46.3408 36.4836 44.7152 36.4836 42.5033C36.4836 40.1297 37.6263 38.2404 40.1605 38.2404C42.3721 38.2404 43.4559 39.9986 43.4559 42.7084H37.8606C37.8606 44.3046 38.6078 45.2282 40.0872 45.2282C41.3029 45.2282 42.0204 44.2909 42.0646 43.719L43.3539 43.7186V43.7186ZM41.9877 41.6831C41.9148 40.4958 41.4168 39.3975 39.849 39.3975C38.6624 39.3975 37.7251 40.4958 37.7251 41.6831C39.1463 41.6824 40.5672 41.6824 41.9877 41.6831V41.6831ZM50.581 46.1209H49.292V41.4043C49.292 40.0711 48.9108 39.3975 47.6509 39.3975C46.9184 39.3975 45.6294 39.8663 45.6294 41.9461V46.1209H44.3404V38.4599H45.5565V39.5437H45.586C45.8637 39.1335 46.5822 38.24 47.8999 38.24C49.0865 38.24 50.581 38.7232 50.581 40.906V46.1209V46.1209Z" fill="#BBBCBF"/>
<path fill-rule="evenodd" clip-rule="evenodd" d="M21.7674 46.4074C18.4935 46.4074 16.8833 44.4132 16.2557 42.3292C16.9645 45.7112 20.7945 49.0224 32.8776 50.4986C44.294 51.8943 51.733 48.3962 54.2431 46.7684C54.2431 46.7684 55.9385 46.0219 54.9218 47.1755C54.9218 47.1755 47.7317 53.8224 33.6238 53.8896C19.5159 53.9582 8.3245 46.8367 8.3924 39.647C8.3245 32.4572 19.5159 25.3354 33.6238 25.4033C47.7317 25.4712 54.9218 32.1181 54.9218 32.1181C55.9385 33.271 54.2431 32.5251 54.2431 32.5251C51.7334 30.8974 44.326 27.691 32.8776 28.7947C21.6187 29.88 17.9431 33.7053 16.7224 36.2826C16.2525 37.2745 16.0405 38.2096 15.987 39.1519C16.2913 36.6928 17.8199 33.793 21.7674 33.793C26.239 33.793 27.6074 37.5137 27.6074 40.1C27.6074 42.6866 26.239 46.4074 21.7674 46.4074V46.4074ZM67.224 43.9214H73.1805V46.0902H64.7211V34.1102H67.224V43.9214ZM58.0329 39.633H63.0387V46.0905H61.37L61.1196 44.5889C60.4859 45.3228 59.5684 46.4074 57.3827 46.4074C54.4961 46.4074 51.876 44.3381 51.876 40.1338C51.876 36.8631 53.6946 33.7764 57.7329 33.7933C61.4041 33.7933 62.8552 36.1791 62.9892 37.8313H60.4862C60.4862 37.3639 59.6352 35.8626 57.8662 35.8626C56.0811 35.8626 54.4296 37.0974 54.4296 40.1672C54.4296 43.4378 56.2147 44.2889 57.9169 44.2889C58.4676 44.2889 60.3027 44.0719 60.8196 41.6527C59.8913 41.652 58.9623 41.652 58.0333 41.6527L58.0329 39.633V39.633ZM21.7674 35.2282C19.1646 35.2282 17.5961 37.2802 17.5961 40.1004C17.5961 42.9205 19.1646 44.9725 21.7674 44.9725C24.3705 44.9725 25.9387 42.9201 25.9387 40.1004C25.9387 37.2802 24.3702 35.2282 21.7674 35.2282ZM28.5055 38.4291H29.7213V39.513H29.7507C30.0582 39.0736 30.6442 38.2096 32.0359 38.2096C34.0718 38.2096 35.5232 39.9355 35.5232 42.0888C35.5232 43.9196 34.4677 46.31 31.8599 46.31C30.8346 46.31 30.161 45.8265 29.824 45.2847H29.7945V49.123C29.3649 49.1223 28.9352 49.1223 28.5055 49.123V38.4291ZM31.7625 45.1971C33.169 45.1971 34.1217 43.9781 34.1217 42.2936C34.1217 41.3121 33.7255 39.3668 31.7331 39.3668C29.8725 39.3668 29.6674 41.3739 29.6674 42.6187C29.6677 44.6546 30.9423 45.1971 31.7625 45.1971V45.1971ZM43.3236 43.6879C43.2802 44.0543 42.9285 45.1382 41.9617 45.783C41.61 46.0173 41.1121 46.31 39.8813 46.31C37.7279 46.31 36.4533 44.6844 36.4533 42.4725C36.4533 40.0989 37.5961 38.2092 40.1302 38.2092C42.3418 38.2092 43.4257 39.9674 43.4257 42.6773H37.8303C37.8303 44.2734 38.5776 45.1971 40.057 45.1971C41.2723 45.1971 41.9901 44.2591 42.0343 43.6879H43.3236V43.6879ZM41.9574 41.6516C41.8845 40.465 41.3862 39.3668 39.8191 39.3668C38.6325 39.3668 37.6949 40.4654 37.6949 41.6516H41.9574ZM50.5507 46.0902H49.2617V41.3735C49.2617 40.0404 48.8806 39.3664 47.6214 39.3664C46.8889 39.3664 45.5992 39.8356 45.5992 41.9153V46.0902H44.3102V38.4291H45.5262V39.513H45.5557C45.8341 39.1031 46.5512 38.2096 47.8696 38.2096C49.0562 38.2096 50.5507 38.6932 50.5507 40.8756V46.0902Z" fill="#B5B6B8"/>
<path fill-rule="evenodd" clip-rule="evenodd" d="M21.7376 46.3764C18.4637 46.3764 16.8536 44.3822 16.2259 42.2982C16.9347 45.6802 20.7647 48.9907 32.8482 50.4676C44.2646 51.8633 51.7036 48.3652 54.2134 46.7374C54.2134 46.7374 55.9087 45.9909 54.892 47.1445C54.892 47.1445 47.7019 53.7914 33.594 53.8586C19.4862 53.9265 8.29471 46.8046 8.36261 39.6156C8.29471 32.4262 19.4862 25.3044 33.594 25.3723C47.7019 25.4398 54.892 32.0871 54.892 32.0871C55.9087 33.24 54.2134 32.4941 54.2134 32.4941C51.7033 30.866 44.2958 27.6604 32.8482 28.7637C21.5889 29.849 17.9134 33.6743 16.6926 36.2516C16.2227 37.2435 16.0104 38.179 15.9572 39.1209C16.2615 36.6618 17.7901 33.7619 21.7376 33.7619C26.2092 33.7619 27.5776 37.4827 27.5776 40.069C27.5776 42.6556 26.2092 46.3764 21.7376 46.3764ZM67.1943 43.8904H73.1507V46.0592H64.6913V34.0792H67.1943V43.8904V43.8904ZM58.0031 39.602H63.0089V46.0595H61.3402L61.0898 44.5579C60.4561 45.2918 59.5386 46.3764 57.3529 46.3764C54.4663 46.3764 51.847 44.3071 51.847 40.1028C51.847 36.8321 53.6651 33.7454 57.7031 33.7619C61.3743 33.7619 62.8261 36.1481 62.9594 37.7999H60.4565C60.4565 37.3326 59.6054 35.8309 57.8364 35.8309C56.0513 35.8309 54.3998 37.0656 54.3998 40.1355C54.3998 43.4061 56.1849 44.2572 57.8871 44.2572C58.4371 44.2572 60.2729 44.0402 60.7898 41.6202H58.0035L58.0031 39.602V39.602ZM21.7376 35.1972C19.1348 35.1972 17.5663 37.2496 17.5663 40.0693C17.5663 42.8895 19.1348 44.9415 21.7376 44.9415C24.3408 44.9415 25.9089 42.8891 25.9089 40.0693C25.9089 37.2496 24.3404 35.1972 21.7376 35.1972V35.1972ZM28.4754 38.3981H29.6911V39.482H29.7206C30.0284 39.0426 30.614 38.1786 32.0058 38.1786C34.042 38.1786 35.4934 39.9045 35.4934 42.0578C35.4934 43.8886 34.4379 46.279 31.8301 46.279C30.8048 46.279 30.1312 45.7955 29.7942 45.2537H29.7648V49.092C29.3351 49.0913 28.9054 49.0913 28.4758 49.092L28.4754 38.3981V38.3981ZM31.7331 45.1654C33.1396 45.1654 34.0927 43.9471 34.0927 42.2626C34.0927 41.2811 33.6961 39.3354 31.704 39.3354C29.8434 39.3354 29.6383 41.3425 29.6383 42.5874C29.6379 44.6236 30.9126 45.1654 31.7331 45.1654ZM43.2939 43.6568C43.2497 44.0233 42.898 45.1072 41.9319 45.752C41.5802 45.9862 41.0823 46.279 39.8515 46.279C37.6981 46.279 36.4239 44.6534 36.4239 42.4408C36.4239 40.0679 37.5663 38.1782 40.1005 38.1782C42.3127 38.1782 43.3959 39.9357 43.3959 42.6463H37.8005C37.8005 44.2424 38.5474 45.1654 40.0268 45.1654C41.2425 45.1654 41.96 44.2281 42.0041 43.6568H43.2939V43.6568ZM41.9276 41.6206C41.8547 40.434 41.3568 39.3354 39.789 39.3354C38.6024 39.3354 37.6651 40.434 37.6651 41.6206H41.9276V41.6206ZM50.521 46.0592H49.232V41.3425C49.232 40.0094 48.8508 39.3354 47.5916 39.3354C46.8591 39.3354 45.5694 39.8039 45.5694 41.8843V46.0592H44.2804V38.3977H45.4964V39.4816H45.5259C45.8036 39.0717 46.5214 38.1782 47.8399 38.1782C49.0265 38.1782 50.521 38.6618 50.521 40.8443V46.0592V46.0592Z" fill="#AEB0B2"/>
<path fill-rule="evenodd" clip-rule="evenodd" d="M21.7073 46.3455C18.4335 46.3455 16.8236 44.3513 16.1957 42.2673C16.9045 45.6493 20.7345 48.9598 32.8176 50.4367C44.2339 51.8317 51.673 48.3336 54.1831 46.7058C54.1831 46.7058 55.8791 45.96 54.8617 47.1129C54.8617 47.1129 47.6716 53.7605 33.5638 53.8277C19.4559 53.8956 8.26444 46.7737 8.33234 39.5844C8.26444 32.3953 19.4559 25.2732 33.5638 25.3411C47.6716 25.409 54.8617 32.0559 54.8617 32.0559C55.8791 33.2091 54.1831 32.4629 54.1831 32.4629C51.6733 30.8351 44.2659 27.6291 32.8176 28.7324C21.5586 29.8177 17.8831 33.643 16.6623 36.2207C16.1924 37.2126 15.9801 38.1477 15.9269 39.09C16.2312 36.6309 17.7599 33.7311 21.7073 33.7311C26.179 33.7311 27.5473 37.4518 27.5473 40.0381C27.5473 42.6247 26.179 46.3455 21.7073 46.3455V46.3455ZM67.164 43.8588H73.1204V46.0283H64.6611V34.0479H67.164V43.8588V43.8588ZM57.9728 39.5711H62.9787V46.0286H61.3099L61.0595 44.527C60.4258 45.2609 59.5083 46.3455 57.3226 46.3455C54.436 46.3455 51.816 44.2762 51.816 40.0712C51.816 36.8009 53.6345 33.7142 57.6729 33.7311C61.3441 33.7311 62.7958 36.1169 62.9291 37.7691H60.4262C60.4262 37.3017 59.5751 35.8 57.8062 35.8C56.021 35.8 54.3695 37.0351 54.3695 40.1049C54.3695 43.3756 56.1547 44.2266 57.8568 44.2266C58.4068 44.2266 60.2426 44.0093 60.7596 41.5897H57.9732L57.9728 39.5711V39.5711ZM21.7073 35.1663C19.1045 35.1663 17.536 37.2187 17.536 40.0385C17.536 42.8586 19.1045 44.9103 21.7073 44.9103C24.3105 44.9103 25.8786 42.8586 25.8786 40.0385C25.8786 37.2183 24.3101 35.1663 21.7073 35.1663V35.1663ZM28.4451 38.3672H29.6612V39.4511H29.6903C29.9978 39.0117 30.5838 38.1473 31.9755 38.1473C34.0117 38.1473 35.4631 39.8736 35.4631 42.0269C35.4631 43.8577 34.4073 46.2481 31.7998 46.2481C30.7745 46.2481 30.1006 45.7646 29.7639 45.2228C29.7541 45.2221 29.7443 45.2221 29.7345 45.2228V49.0604H28.4455L28.4451 38.3672V38.3672ZM31.7028 45.1345C33.1093 45.1345 34.062 43.9162 34.062 42.2317C34.062 41.2502 33.6654 39.3045 31.6734 39.3045C29.8128 39.3045 29.6077 41.3109 29.6077 42.5565C29.6077 44.5927 30.8823 45.1345 31.7028 45.1345V45.1345ZM43.2636 43.626C43.2201 43.9924 42.8684 45.0763 41.9017 45.7204C41.55 45.9546 41.0517 46.2481 39.8212 46.2481C37.6679 46.2481 36.3932 44.6225 36.3932 42.4099C36.3932 40.037 37.5357 38.1473 40.0702 38.1473C42.2817 38.1473 43.3656 39.9052 43.3656 42.615H37.7702C37.7702 44.2119 38.5175 45.1348 39.9969 45.1348C41.2126 45.1348 41.93 44.1975 41.9742 43.6263L43.2636 43.626V43.626ZM41.8974 41.5897C41.8241 40.4031 41.3265 39.3045 39.7587 39.3045C38.5721 39.3045 37.6348 40.4031 37.6348 41.5897H41.8974V41.5897ZM50.4907 46.0283H49.2017V41.3109C49.2017 39.9777 48.8205 39.3045 47.5606 39.3045C46.8281 39.3045 45.5391 39.773 45.5391 41.8534V46.0283H44.2501V38.3669H45.4662V39.4507H45.4956C45.7733 39.0408 46.4918 38.147 47.8096 38.147C48.9962 38.147 50.4907 38.6305 50.4907 40.8134V46.0283V46.0283Z" fill="#A8AAAC"/>
<path fill-rule="evenodd" clip-rule="evenodd" d="M21.6772 46.3138C18.4033 46.3138 16.7931 44.3196 16.1655 42.2363C16.8747 45.6183 20.7043 48.9288 32.7878 50.4057C44.2041 51.8006 51.6432 48.3026 54.1529 46.6748C54.1529 46.6748 55.849 45.929 54.8316 47.0819C54.8316 47.0819 47.6415 53.7288 33.534 53.7967C19.4261 53.8646 8.23466 46.7427 8.30256 39.553C8.2343 32.364 19.4257 25.2425 33.5336 25.31C47.6415 25.3779 54.8312 32.0248 54.8312 32.0248C55.8486 33.1777 54.1526 32.4315 54.1526 32.4315C51.6428 30.8037 44.2354 27.5978 32.7874 28.7014C21.5285 29.7867 17.8529 33.612 16.6322 36.1897C16.1623 37.1816 15.95 38.1167 15.8968 39.059C16.2011 36.5999 17.7294 33.7 21.6772 33.7C26.1488 33.7 27.5168 37.4208 27.5168 40.0074C27.5168 42.5941 26.1492 46.3138 21.6772 46.3138V46.3138ZM67.1338 43.8277H73.0902V45.9973C70.2708 45.9966 67.451 45.9966 64.6309 45.9973V34.0169H67.1338V43.8277V43.8277ZM57.9427 39.5401H62.9485V45.9976C62.3928 45.9969 61.8363 45.9969 61.2798 45.9976C61.1965 45.4965 61.1127 44.9964 61.0301 44.4952C60.3957 45.2299 59.4781 46.3138 57.2925 46.3138C54.4059 46.3138 51.7865 44.2452 51.7865 40.0401C51.7865 36.7699 53.6051 33.6832 57.6427 33.7C61.3139 33.7 62.7657 36.0862 62.8989 37.738H60.396C60.396 37.2707 59.545 35.7693 57.7767 35.7693C55.9909 35.7693 54.3394 37.0041 54.3394 40.0743C54.3394 43.3449 56.1245 44.1953 57.8267 44.1953C58.3774 44.1953 60.2125 43.9783 60.7294 41.5591H57.9431L57.9427 39.5401V39.5401ZM21.6772 35.1349C19.074 35.1349 17.5059 37.1873 17.5059 40.0071C17.5059 42.8265 19.0744 44.8789 21.6772 44.8789C24.28 44.8789 25.8485 42.8265 25.8485 40.0071C25.8485 37.1873 24.2803 35.1349 21.6772 35.1349V35.1349ZM28.415 38.3358H29.631V39.4197H29.6605C29.968 38.9803 30.554 38.116 31.9457 38.116C33.9816 38.116 35.433 39.8415 35.433 41.9948C35.433 43.8263 34.3775 46.2168 31.7697 46.2168C30.7444 46.2168 30.0708 45.7332 29.7338 45.1911H29.7043V49.0294H28.4153L28.415 38.3358V38.3358ZM31.6727 45.1034C33.0788 45.1034 34.0319 43.8852 34.0319 42.2007C34.0319 41.2192 33.6353 39.2735 31.6432 39.2735C29.783 39.2735 29.5775 41.2803 29.5775 42.5258C29.5775 44.5617 30.8521 45.1034 31.6727 45.1034V45.1034ZM43.2334 43.5949C43.19 43.9614 42.8383 45.0453 41.8715 45.6894C41.5198 45.9236 41.0219 46.2171 39.7911 46.2171C37.6377 46.2171 36.3635 44.5908 36.3635 42.3789C36.3635 40.006 37.5062 38.116 40.04 38.116C42.2523 38.116 43.3362 39.8738 43.3362 42.5836H37.7401C37.7401 44.1805 38.487 45.1034 39.9668 45.1034C41.1825 45.1034 41.8999 44.1662 41.9441 43.5949H43.2334V43.5949ZM41.8672 41.5587C41.7939 40.3721 41.2964 39.2735 39.7289 39.2735C38.5423 39.2735 37.6047 40.3724 37.6047 41.5587H41.8672ZM50.4605 45.9973C50.0312 45.9966 49.6008 45.9966 49.1715 45.9973V41.2799C49.1715 39.9467 48.7904 39.2731 47.5312 39.2731C46.7987 39.2731 45.5097 39.742 45.5097 41.8224V45.9973C45.0798 45.9966 44.6499 45.9966 44.22 45.9973V38.3358H45.436V39.4197H45.4655C45.7439 39.0094 46.4617 38.116 47.7794 38.116C48.966 38.116 50.4605 38.5995 50.4605 40.7816V45.9973Z" fill="#A2A4A6"/>
<path fill-rule="evenodd" clip-rule="evenodd" d="M21.6469 46.283C18.373 46.283 16.7629 44.2888 16.1353 42.2055C16.8444 45.5875 20.6741 48.898 32.7575 50.3749C44.1739 51.7699 51.6129 48.2718 54.1227 46.6441C54.1227 46.6441 55.8187 45.8983 54.8013 47.0511C54.8013 47.0511 47.6112 53.698 33.5037 53.7659C19.3955 53.8338 8.20438 46.712 8.27228 39.5222C8.20403 32.3332 19.3955 25.2114 33.5033 25.2793C47.6112 25.3468 54.8009 31.9937 54.8009 31.9937C55.8183 33.1469 54.1223 32.4008 54.1223 32.4008C51.6126 30.773 44.2051 27.5667 32.7572 28.6703C21.4982 29.7559 17.8227 33.5813 16.6019 36.1585C16.132 37.1504 15.9197 38.0856 15.8665 39.0279C16.1708 36.5688 17.6991 33.6689 21.6469 33.6689C26.1185 33.6689 27.4866 37.3897 27.4866 39.9763C27.4869 42.5622 26.1189 46.283 21.6469 46.283V46.283ZM67.1036 43.797H73.06V45.9658H64.6006V33.9858H67.1036V43.797V43.797ZM57.9124 39.5089H62.9183V45.9662H61.2495C61.1662 45.4657 61.0825 44.9656 60.9998 44.4645C60.3654 45.1984 59.4479 46.283 57.2622 46.283C54.3756 46.283 51.7555 44.2144 51.7555 40.0094C51.7555 36.7391 53.5748 33.6524 57.6124 33.6689C61.2837 33.6689 62.7354 36.0551 62.8687 37.7069H60.3658C60.3658 37.2399 59.5147 35.7379 57.7464 35.7379C55.9606 35.7379 54.3091 36.973 54.3091 40.0432C54.3091 43.3131 56.0942 44.1641 57.7964 44.1641C58.3471 44.1641 60.1822 43.9472 60.6991 41.5279H57.9128L57.9124 39.5089V39.5089ZM21.6469 35.1041C19.0438 35.1041 17.4756 37.1566 17.4756 39.9767C17.4756 42.7961 19.0441 44.8485 21.6469 44.8485C24.2497 44.8485 25.8182 42.7961 25.8182 39.9767C25.8186 37.1566 24.2497 35.1041 21.6469 35.1041ZM28.3851 38.3051H29.6008V39.389H29.6302C29.9378 38.9496 30.5237 38.0856 31.9154 38.0856C33.9513 38.0856 35.4027 39.8111 35.4027 41.9644C35.4027 43.7959 34.3472 46.1864 31.7398 46.1864C30.7145 46.1864 30.0405 45.7028 29.7039 45.1607H29.6744V48.999H28.3854L28.3851 38.3051V38.3051ZM31.6424 45.0727C33.0485 45.0727 34.0016 43.8537 34.0016 42.1692C34.0016 41.1884 33.605 39.2427 31.6129 39.2427C29.7524 39.2427 29.5476 41.2495 29.5476 42.4951C29.5476 44.5309 30.8219 45.0727 31.6424 45.0727ZM43.2032 43.5635C43.1597 43.9299 42.808 45.0138 41.8412 45.6586C41.4895 45.8929 40.9916 46.1864 39.7612 46.1864C37.6078 46.1864 36.3332 44.56 36.3332 42.3481C36.3332 39.9753 37.476 38.0852 40.0098 38.0852C42.222 38.0852 43.3052 39.843 43.3052 42.5529H37.7098C37.7098 44.1498 38.4571 45.0727 39.9365 45.0727C41.1522 45.0727 41.8703 44.1354 41.9138 43.5635H43.2032V43.5635ZM41.8369 41.5279C41.7636 40.3413 41.2661 39.2427 39.6987 39.2427C38.512 39.2427 37.5744 40.3417 37.5744 41.5279H41.8369ZM50.4303 45.9662H49.1413V41.2495C49.1413 39.9163 48.7601 39.2427 47.5009 39.2427C46.7684 39.2427 45.4787 39.7116 45.4787 41.7913V45.9662H44.1897V38.3051H45.4058V39.389H45.4352C45.7136 38.979 46.4314 38.0856 47.7492 38.0856C48.9358 38.0856 50.4303 38.5691 50.4303 40.7512V45.9662V45.9662Z" fill="#9C9EA0"/>
<path fill-rule="evenodd" clip-rule="evenodd" d="M21.6166 46.252C18.3428 46.252 16.7326 44.2578 16.105 42.1745C16.8138 45.5565 20.6438 48.867 32.7273 50.3439C44.1436 51.7389 51.5826 48.2408 54.0924 46.6131C54.0924 46.6131 55.7884 45.8673 54.771 47.0201C54.771 47.0201 47.5809 53.667 33.4731 53.7349C19.3652 53.8024 8.17411 46.681 8.24201 39.4912C8.17375 32.3022 19.3652 25.1804 33.4731 25.2483C47.5809 25.3162 54.771 31.9631 54.771 31.9631C55.7884 33.1163 54.0924 32.3701 54.0924 32.3701C51.5826 30.7423 44.1752 27.5364 32.7273 28.64C21.4679 29.7253 17.7928 33.5503 16.572 36.1279C16.1021 37.1198 15.8898 38.0549 15.8366 38.9973C16.1409 36.5382 17.6692 33.6383 21.617 33.6383C26.0886 33.6383 27.4567 37.3591 27.4567 39.945C27.4567 42.5312 26.0883 46.252 21.6166 46.252V46.252ZM67.0733 43.7663H73.0297V45.9352H64.5704V33.9551H67.0733V43.7663V43.7663ZM57.8822 39.4779H62.888V45.9352H61.2193L60.9689 44.4335C60.3351 45.1674 59.4176 46.252 57.2319 46.252C54.3453 46.252 51.726 44.1827 51.726 39.9784C51.726 36.7081 53.5442 33.621 57.5822 33.6379C61.2534 33.6379 62.7051 36.0241 62.8384 37.6756H60.3355C60.3355 37.2085 59.4844 35.7069 57.7155 35.7069C55.9303 35.7069 54.2788 36.942 54.2788 40.0121C54.2788 43.2821 56.064 44.1331 57.7661 44.1331C58.3168 44.1331 60.1519 43.9162 60.6689 41.4969H57.8825L57.8822 39.4779V39.4779ZM21.6166 35.0731C19.0135 35.0731 17.4454 37.1256 17.4454 39.945C17.4454 42.7651 19.0139 44.8172 21.6166 44.8172C24.2194 44.8172 25.7879 42.7647 25.7879 39.945C25.7879 37.1256 24.2198 35.0731 21.6166 35.0731V35.0731ZM28.3548 38.2741H29.5705V39.3583H29.6C29.9075 38.9186 30.4934 38.0546 31.8852 38.0546C33.9211 38.0546 35.3728 39.7804 35.3728 41.9338C35.3728 43.7653 34.317 46.1557 31.7095 46.1557C30.6842 46.1557 30.0102 45.6722 29.6732 45.1301H29.6438V48.9683H28.3548V38.2741ZM31.6121 45.0417C33.0186 45.0417 33.9717 43.8227 33.9717 42.1382C33.9717 41.1574 33.5751 39.2114 31.583 39.2114C29.7228 39.2114 29.5177 41.2182 29.5177 42.463C29.5173 44.5003 30.7916 45.0417 31.6121 45.0417ZM43.1729 43.5332C43.1294 43.8989 42.7777 44.9828 41.8106 45.6276C41.4589 45.8619 40.961 46.1554 39.7305 46.1554C37.5772 46.1554 36.3029 44.529 36.3029 42.3171C36.3029 39.9442 37.4453 38.0542 39.9795 38.0542C42.1918 38.0542 43.2749 39.8124 43.2749 42.5222H37.6796C37.6796 44.1191 38.4264 45.042 39.9062 45.042C41.1219 45.042 41.8394 44.1048 41.8835 43.5335C42.3136 43.5325 42.7436 43.5325 43.1729 43.5332V43.5332ZM41.807 41.4969C41.7337 40.3103 41.2358 39.2114 39.6684 39.2114C38.4818 39.2114 37.5441 40.3103 37.5441 41.4969H41.807ZM50.4 45.9352H49.111V41.2185C49.111 39.8853 48.7298 39.2117 47.4706 39.2117C46.7381 39.2117 45.4491 39.6806 45.4491 41.7603V45.9352H44.1594V38.2741H45.3755V39.3583H45.4049C45.6834 38.948 46.4011 38.0546 47.7189 38.0546C48.9055 38.0546 50.4 38.5381 50.4 40.7206V45.9352V45.9352Z" fill="#989A9C"/>
<path fill-rule="evenodd" clip-rule="evenodd" d="M21.5867 46.2216C18.3129 46.2216 16.703 44.2274 16.0751 42.1441C16.7842 45.5254 20.6139 48.8366 32.6973 50.3128C44.1137 51.7085 51.5527 48.2104 54.0625 46.5827C54.0625 46.5827 55.7585 45.8361 54.7411 46.9897C54.7411 46.9897 47.551 53.6366 33.4432 53.7038C19.3353 53.7717 8.14383 46.6506 8.21173 39.4608C8.14383 32.2711 19.3353 25.1496 33.4432 25.2175C47.551 25.2854 54.7411 31.9323 54.7411 31.9323C55.7585 33.0855 54.0625 32.3394 54.0625 32.3394C51.5527 30.7116 44.1453 27.5056 32.6973 28.6089C21.438 29.6938 17.7625 33.5195 16.5417 36.0968C16.0718 37.0887 15.8595 38.0238 15.8063 38.9661C16.1106 36.507 17.6389 33.6072 21.5864 33.6072C26.058 33.6072 27.4264 37.3279 27.4264 39.9142C27.4267 42.5005 26.0583 46.2216 21.5867 46.2216V46.2216ZM67.0434 43.7356H72.9998V45.9044H64.5405V33.9244H67.0434V43.7356V43.7356ZM57.8522 39.4468H62.8581V45.9044H61.1893C61.106 45.404 61.0223 44.9032 60.9397 44.4027C60.3052 45.1367 59.3877 46.2213 57.202 46.2213C54.3154 46.2213 51.6961 44.152 51.6961 39.9476C51.6961 36.677 53.5146 33.5903 57.5523 33.6072C61.2235 33.6072 62.6752 35.993 62.8085 37.6452H60.3056C60.3056 37.1778 59.4545 35.6765 57.6855 35.6765C55.9004 35.6765 54.2489 36.9112 54.2489 39.981C54.2489 43.2517 56.0341 44.1027 57.7362 44.1027C58.2869 44.1027 60.122 43.8857 60.639 41.4665H57.8526L57.8522 39.4468V39.4468ZM21.5867 35.0424C18.9839 35.0424 17.4154 37.0944 17.4154 39.9142C17.4154 42.7343 18.9839 44.7864 21.5867 44.7864C24.1899 44.7864 25.758 42.734 25.758 39.9142C25.758 37.0944 24.1899 35.0424 21.5867 35.0424V35.0424ZM28.3245 38.2433H29.5406V39.3272H29.57C29.8776 38.8878 30.4635 38.0238 31.8553 38.0238C33.8911 38.0238 35.3425 39.7497 35.3425 41.903C35.3425 43.7345 34.287 46.1243 31.6792 46.1243C30.6539 46.1243 29.9803 45.6407 29.6433 45.0989H29.6139V48.9372H28.3249L28.3245 38.2433V38.2433ZM31.5822 45.0109C32.9883 45.0109 33.9414 43.792 33.9414 42.1074C33.9414 41.126 33.5448 39.1806 31.5528 39.1806C29.6926 39.1806 29.4871 41.1874 29.4871 42.4322C29.4874 44.4688 30.7617 45.0109 31.5822 45.0109ZM43.143 43.5017C43.0995 43.8681 42.7478 44.952 41.7807 45.5969C41.429 45.8311 40.9311 46.1239 39.7006 46.1239C37.5473 46.1239 36.273 44.4983 36.273 42.2864C36.273 39.9128 37.4154 38.0235 39.9496 38.0235C42.1619 38.0235 43.2457 39.7816 43.2457 42.4915H37.6496C37.6496 44.0876 38.3965 45.0113 39.8759 45.0113C41.0916 45.0113 41.8094 44.074 41.8533 43.5021L43.143 43.5017V43.5017ZM41.7771 41.4655C41.7038 40.2796 41.2059 39.1806 39.6385 39.1806C38.4519 39.1806 37.5142 40.2796 37.5142 41.4655H41.7771ZM50.3701 45.9044H49.0811V41.1878C49.0811 39.8546 48.6999 39.181 47.4407 39.181C46.7082 39.181 45.4192 39.6498 45.4192 41.7295V45.9044H44.1295V38.2433H45.3456V39.3272H45.375C45.6534 38.9173 46.3712 38.0238 47.689 38.0238C48.8756 38.0238 50.3701 38.507 50.3701 40.6898V45.9044Z" fill="#929496"/>
<path fill-rule="evenodd" clip-rule="evenodd" d="M21.5564 46.1907C18.2822 46.1907 16.6724 44.1965 16.0448 42.1125C16.7536 45.4945 20.5836 48.805 32.6671 50.2819C44.0834 51.6776 51.5225 48.1795 54.0322 46.5518C54.0322 46.5518 55.7282 45.8052 54.7108 46.9588C54.7108 46.9588 47.5207 53.6057 33.4132 53.6729C19.305 53.7411 8.11356 46.6193 8.18146 39.4299C8.11356 32.2402 19.305 25.1184 33.4129 25.1863C47.5207 25.2538 54.7105 31.9011 54.7105 31.9011C55.7279 33.0539 54.0318 32.3081 54.0318 32.3081C51.5221 30.6803 44.1147 27.4744 32.6667 28.5776C21.4074 29.6629 17.7322 33.4879 16.5115 36.0655C16.0416 37.0574 15.8292 37.9926 15.7761 38.9349C16.0804 36.4758 17.6086 33.5759 21.5564 33.5759C26.0281 33.5759 27.3961 37.2967 27.3961 39.883C27.3965 42.4696 26.0281 46.1907 21.5564 46.1907V46.1907ZM67.0131 43.7047H72.9695V45.8735H64.5102V33.8935H67.0131V43.7047ZM57.822 39.4163H62.8278V45.8735H61.1591C61.0757 45.3731 60.992 44.8723 60.9094 44.3718C60.2749 45.1058 59.3574 46.1904 57.1717 46.1904C54.2851 46.1904 51.6651 44.1211 51.6651 39.9167C51.6651 36.6461 53.4843 33.5594 57.522 33.5759C61.1932 33.5759 62.6449 35.9621 62.7782 37.6139H60.2753C60.2753 37.1469 59.4242 35.6452 57.656 35.6452C55.8701 35.6452 54.2187 36.88 54.2187 39.9498C54.2187 43.2204 56.0038 44.0715 57.7059 44.0715C58.2567 44.0715 60.0917 43.8545 60.6087 41.4346H57.8223L57.822 39.4163V39.4163ZM21.5564 35.0111C18.9533 35.0111 17.3852 37.0635 17.3852 39.8833C17.3852 42.7035 18.9537 44.7555 21.5564 44.7555C24.1592 44.7555 25.7277 42.7031 25.7277 39.8833C25.7281 37.0635 24.1592 35.0111 21.5564 35.0111ZM28.2946 38.2121H29.5103V39.2963H29.5398C29.8473 38.8569 30.4332 37.9926 31.825 37.9926C33.8609 37.9926 35.3122 39.7184 35.3122 41.8718C35.3122 43.7025 34.2568 46.093 31.6493 46.093C30.624 46.093 29.95 45.6094 29.6134 45.0677H29.584V48.906C29.1543 48.9052 28.7246 48.9052 28.295 48.906L28.2946 38.2121ZM31.5519 44.9797C32.9581 44.9797 33.9112 43.7615 33.9112 42.0769C33.9112 41.0954 33.5145 39.1501 31.5225 39.1501C29.6619 39.1501 29.4568 41.1572 29.4568 42.402C29.4571 44.4379 30.7314 44.9797 31.5519 44.9797V44.9797ZM43.1127 43.4708C43.0692 43.8373 42.7175 44.9211 41.7504 45.566C41.3987 45.7995 40.9008 46.093 39.6703 46.093C37.517 46.093 36.2424 44.4674 36.2424 42.2547C36.2424 39.8819 37.3851 37.9922 39.9193 37.9922C42.1316 37.9922 43.2147 39.7497 43.2147 42.4602H37.6194C37.6194 44.0564 38.3666 44.9793 39.846 44.9793C41.0617 44.9793 41.7795 44.042 41.8234 43.4708H43.1127V43.4708ZM41.7468 41.4346C41.6735 40.248 41.1756 39.1497 39.6082 39.1497C38.4216 39.1497 37.4839 40.2483 37.4839 41.4346H41.7468ZM50.3398 45.8735H49.0508V41.1569C49.0508 39.8237 48.6696 39.1497 47.4097 39.1497C46.6779 39.1497 45.3882 39.6182 45.3882 41.6986V45.8735H44.0992V38.2121H45.3153V39.2963H45.3447C45.6232 38.886 46.341 37.9926 47.6587 37.9926C48.8453 37.9926 50.3398 38.4761 50.3398 40.6586V45.8735V45.8735Z" fill="#8D8E91"/>
<path fill-rule="evenodd" clip-rule="evenodd" d="M21.5263 46.1597C18.2524 46.1597 16.6426 44.1655 16.0146 42.0815C16.7235 45.4635 20.5535 48.774 32.6369 50.2509C44.0533 51.6466 51.4923 48.1478 54.0021 46.52C54.0021 46.52 55.6974 45.7742 54.6807 46.9278C54.6807 46.9278 47.4906 53.5747 33.3827 53.6419C19.2749 53.7098 8.08378 46.5879 8.15168 39.3986C8.08342 32.2092 19.2749 25.0874 33.3827 25.1553C47.4906 25.2228 54.6807 31.8697 54.6807 31.8697C55.6974 33.0229 54.0021 32.2767 54.0021 32.2767C51.4923 30.649 44.0849 27.4426 32.6369 28.5463C21.3776 29.6316 17.7024 33.4569 16.4813 36.0342C16.0114 37.0261 15.7995 37.9612 15.7459 38.9035C16.0502 36.4444 17.5788 33.5445 21.5263 33.5445C25.9979 33.5445 27.3663 37.2653 27.3663 39.8516C27.3663 42.4386 25.9979 46.1597 21.5263 46.1597V46.1597ZM66.983 43.6737C68.9685 43.673 70.9545 43.673 72.9394 43.6737V45.8425H64.48V33.8621H66.983V43.6737ZM57.7918 39.3849H62.7977V45.8425H61.1289L60.8785 44.3408C60.2448 45.0748 59.3273 46.1594 57.1416 46.1594C54.255 46.1594 51.6357 44.0901 51.6357 39.8857C51.6357 36.6151 53.4538 33.528 57.4918 33.5449C61.1631 33.5449 62.6148 35.9311 62.7481 37.5829H60.2452C60.2452 37.1159 59.3941 35.6138 57.6251 35.6138C55.84 35.6138 54.1885 36.849 54.1885 39.9188C54.1885 43.1894 55.9736 44.0405 57.6758 44.0405C58.2265 44.0405 60.0616 43.8235 60.5785 41.4036H57.7922L57.7918 39.3849V39.3849ZM21.5263 34.9801C18.9235 34.9801 17.355 37.0325 17.355 39.8523C17.355 42.6724 18.9235 44.7245 21.5263 44.7245C24.1295 44.7245 25.6976 42.6721 25.6976 39.8523C25.6976 37.0325 24.1295 34.9801 21.5263 34.9801ZM28.2645 38.1811H29.4802V39.2649H29.5096C29.8172 38.8256 30.4031 37.9616 31.7948 37.9616C33.8307 37.9616 35.2825 39.6874 35.2825 41.8408C35.2825 43.6715 34.2266 46.062 31.6192 46.062C30.5939 46.062 29.9199 45.5784 29.5829 45.0367H29.5535V48.8749C29.1238 48.8742 28.6941 48.8742 28.2645 48.8749V38.1811V38.1811ZM31.5218 44.9487C32.9283 44.9487 33.8814 43.7304 33.8814 42.0459C33.8814 41.0644 33.4848 39.1191 31.4927 39.1191C29.6321 39.1191 29.4274 41.1262 29.4274 42.371C29.427 44.4069 30.7013 44.9487 31.5218 44.9487V44.9487ZM43.0826 43.4398C43.0391 43.8062 42.6874 44.8901 41.7203 45.535C41.3686 45.7692 40.8706 46.062 39.6402 46.062C37.4868 46.062 36.2126 44.4364 36.2126 42.2237C36.2126 39.8509 37.355 37.9612 39.8892 37.9612C42.1014 37.9612 43.1846 39.7187 43.1846 42.4292C41.3201 42.4285 39.4545 42.4285 37.5892 42.4292C37.5892 44.0254 38.3361 44.9483 39.8159 44.9483C41.0316 44.9483 41.749 44.011 41.7929 43.4398H43.0826V43.4398ZM41.7167 41.4036C41.6434 40.2169 41.1455 39.1187 39.5781 39.1187C38.3914 39.1187 37.4538 40.2173 37.4538 41.4036H41.7167ZM50.3097 45.8425H49.0207V41.1259C49.0207 39.7927 48.6395 39.1187 47.3803 39.1187C46.6478 39.1187 45.3581 39.5872 45.3581 41.6676V45.8425H44.0691V38.1811H45.2851V39.2649H45.3146C45.593 38.855 46.3108 37.9616 47.6286 37.9616C48.8152 37.9616 50.3097 38.4448 50.3097 40.6276V45.8425V45.8425Z" fill="#87898B"/>
<path fill-rule="evenodd" clip-rule="evenodd" d="M21.4959 46.129C18.222 46.129 16.6119 44.1347 15.9842 42.0507C16.693 45.4327 20.523 48.7432 32.6065 50.2201C44.0229 51.6151 51.4619 48.1171 53.9717 46.4893C53.9717 46.4893 55.6677 45.7435 54.6503 46.8963C54.6503 46.8963 47.4602 53.5432 33.3523 53.6111C19.2445 53.679 8.05301 46.5572 8.12091 39.3678C8.05301 32.1784 19.2445 25.0566 33.3523 25.1245C47.4602 25.1924 54.6503 31.8393 54.6503 31.8393C55.6677 32.9925 53.9717 32.2463 53.9717 32.2463C51.4619 30.6186 44.0545 27.4126 32.6065 28.5159C21.3472 29.6008 17.6717 33.4265 16.4509 36.0041C15.981 36.996 15.7687 37.9312 15.7155 38.8731C16.0198 36.414 17.5481 33.5141 21.4955 33.5141C25.9672 33.5141 27.3356 37.2349 27.3356 39.8215C27.3356 42.4082 25.9675 46.129 21.4959 46.129V46.129ZM66.9525 43.6422H72.909V45.8117H64.4496V33.8314H66.9525V43.6422ZM57.7614 39.3542H62.7672V45.8117H61.0985C61.0152 45.3106 60.9315 44.8105 60.8488 44.3101C60.2144 45.044 59.2969 46.1286 57.1112 46.1286C54.2246 46.1286 51.6053 44.0593 51.6053 39.8542C51.6053 36.584 53.4238 33.4973 57.4614 33.5141C61.1326 33.5141 62.5844 35.9003 62.7177 37.5521H60.2148C60.2148 37.0848 59.3637 35.5834 57.5947 35.5834C55.8096 35.5834 54.1581 36.8182 54.1581 39.8884C54.1581 43.159 55.9432 44.0101 57.6454 44.0101C58.1961 44.0101 60.0312 43.7927 60.5481 41.3732H57.7618L57.7614 39.3542V39.3542ZM21.4959 34.9494C18.8931 34.9494 17.3246 37.0018 17.3246 39.8215C17.3246 42.6417 18.8931 44.6934 21.4959 44.6934C24.0991 44.6934 25.6672 42.6417 25.6672 39.8215C25.6672 37.0018 24.0991 34.9494 21.4959 34.9494V34.9494ZM28.2337 38.1503H29.4494V39.2342H29.4789C29.7867 38.7948 30.3727 37.9304 31.7641 37.9304C33.8 37.9304 35.2513 39.6563 35.2513 41.81C35.2513 43.6408 34.1959 46.0312 31.588 46.0312C30.5627 46.0312 29.8891 45.5477 29.5522 45.0059C29.5423 45.0052 29.5325 45.0052 29.5227 45.0059V48.8435H28.2337V38.1503V38.1503ZM31.4914 44.9179C32.8979 44.9179 33.851 43.6997 33.851 42.0151C33.851 41.0337 33.4544 39.088 31.4623 39.088C29.6021 39.088 29.3966 41.0944 29.3966 42.3399C29.3966 44.3762 30.6709 44.9179 31.4914 44.9179V44.9179ZM43.0522 43.409C43.0087 43.7755 42.657 44.8594 41.6899 45.5035C41.3382 45.7377 40.8402 46.0312 39.6098 46.0312C37.4564 46.0312 36.1822 44.4056 36.1822 42.193C36.1822 39.8201 37.3246 37.9304 39.8588 37.9304C42.071 37.9304 43.1542 39.6883 43.1542 42.3981H37.5588C37.5588 43.995 38.3057 44.9179 39.7851 44.9179C41.0008 44.9179 41.7186 43.9806 41.7624 43.4094L43.0522 43.409V43.409ZM41.6863 41.3728C41.613 40.1862 41.1151 39.0876 39.5476 39.0876C38.3614 39.0876 37.4237 40.1862 37.4237 41.3728H41.6863V41.3728ZM50.2793 45.8117H48.9903V41.0944C48.9903 39.7619 48.6091 39.088 47.3499 39.088C46.6174 39.088 45.3284 39.5564 45.3284 41.6369V45.8117H44.0387V38.1503H45.2547V39.2342H45.2842C45.5626 38.8239 46.2804 37.9304 47.5981 37.9304C48.7848 37.9304 50.2793 38.4136 50.2793 40.5961V45.8117V45.8117Z" fill="#828385"/>
<path fill-rule="evenodd" clip-rule="evenodd" d="M21.4656 46.0971C18.1914 46.0971 16.5816 44.1029 15.954 42.0196C16.6628 45.4016 20.4928 48.7121 32.5762 50.189C43.9926 51.584 51.4316 48.0859 53.9414 46.4581C53.9414 46.4581 55.6374 45.7123 54.62 46.8652C54.62 46.8652 47.4299 53.5121 33.3224 53.58C19.2142 53.6482 8.02274 46.5264 8.09064 39.3367C8.02274 32.1473 19.2142 25.0255 33.3221 25.093C47.4299 25.1609 54.6196 31.8078 54.6196 31.8078C55.6371 32.961 53.941 32.2148 53.941 32.2148C51.4313 30.5871 44.0238 27.3807 32.5759 28.4844C21.3165 29.5697 17.6414 33.395 16.4206 35.9723C15.9507 36.9642 15.7384 37.8993 15.6852 38.8416C15.9895 36.3825 17.5178 33.4826 21.4656 33.4826C25.9373 33.4826 27.3053 37.2034 27.3053 39.79C27.3056 42.3767 25.9373 46.0971 21.4656 46.0971V46.0971ZM66.9223 43.6111H72.8787V45.7799H64.4194V33.8002H66.9223V43.6111V43.6111ZM57.7311 39.323H62.737V45.7799H61.0682C60.9849 45.2794 60.9012 44.7794 60.8186 44.2782C60.1841 45.0129 59.2666 46.0967 57.0809 46.0967C54.1943 46.0967 51.5743 44.0282 51.5743 39.8231C51.5743 36.5528 53.3935 33.4661 57.4312 33.4826C61.1024 33.4826 62.5541 35.8688 62.6874 37.5206H60.1845C60.1845 37.0533 59.3334 35.5516 57.5652 35.5516C55.7793 35.5516 54.1278 36.7863 54.1278 39.8565C54.1278 43.1271 55.913 43.9775 57.6151 43.9775C58.1658 43.9775 60.0009 43.7605 60.5179 41.3413H57.7315L57.7311 39.323V39.323ZM21.4656 34.9179C18.8625 34.9179 17.2943 36.9703 17.2943 39.7904C17.2943 42.6098 18.8628 44.6622 21.4656 44.6622C24.0684 44.6622 25.6369 42.6098 25.6369 39.7904C25.6369 36.9703 24.0684 34.9179 21.4656 34.9179V34.9179ZM28.2034 38.1188H29.4195V39.203H29.449C29.7565 38.7637 30.3424 37.8993 31.7342 37.8993C33.77 37.8993 35.2214 39.6248 35.2214 41.7782C35.2214 43.6096 34.1659 46.0001 31.5585 46.0001C30.5332 46.0001 29.8592 45.5165 29.5226 44.9744H29.4931V48.8127H28.2041L28.2034 38.1188V38.1188ZM31.4611 44.8868C32.8672 44.8868 33.8203 43.6678 33.8203 41.984C33.8203 41.0025 33.4237 39.0568 31.4317 39.0568C29.5711 39.0568 29.366 41.0632 29.366 42.3088C29.3663 44.345 30.6406 44.8868 31.4611 44.8868V44.8868ZM43.0219 43.3779C42.9784 43.7443 42.6267 44.8282 41.6596 45.4724C41.3079 45.7066 40.81 46.0001 39.5795 46.0001C37.4262 46.0001 36.1515 44.3738 36.1515 42.1618C36.1515 39.789 37.2943 37.8989 39.8285 37.8989C42.0408 37.8989 43.1239 39.6568 43.1239 42.3666H37.5286C37.5286 43.9635 38.2758 44.8864 39.7552 44.8864C40.9709 44.8864 41.6887 43.9491 41.7325 43.3779C42.1626 43.3775 42.5926 43.3775 43.0219 43.3779V43.3779ZM41.656 41.3417C41.5831 40.155 41.0852 39.0565 39.5177 39.0565C38.3311 39.0565 37.3935 40.155 37.3935 41.3417H41.656ZM50.2493 45.7799H48.9603V41.0632C48.9603 39.7301 48.5792 39.0568 47.3193 39.0568C46.5875 39.0568 45.2978 39.5253 45.2978 41.6057V45.7799H44.0088V38.1188H45.2248V39.203H45.2543C45.5327 38.7928 46.2505 37.8993 47.5682 37.8993C48.7548 37.8993 50.2493 38.3829 50.2493 40.565V45.7799V45.7799Z" fill="#7C7D80"/>
<path fill-rule="evenodd" clip-rule="evenodd" d="M21.4358 46.0663C18.162 46.0663 16.5522 44.0721 15.9242 41.9888C16.633 45.3708 20.463 48.6813 32.5461 50.1582C43.9624 51.5532 51.4015 48.0552 53.9116 46.4274C53.9116 46.4274 55.6069 45.6816 54.5902 46.8344C54.5902 46.8344 47.4001 53.4813 33.2923 53.5492C19.1844 53.6168 7.99331 46.4953 8.06085 39.3056C7.99296 32.1162 19.1844 24.9944 33.2923 25.0622C47.4001 25.1301 54.5902 31.777 54.5902 31.777C55.6069 32.9303 53.9116 32.1841 53.9116 32.1841C51.4019 30.5563 43.9944 27.3503 32.5461 28.4536C21.2871 29.5389 17.6116 33.3642 16.3909 35.9419C15.921 36.9338 15.709 37.8689 15.6555 38.8112C15.9598 36.3521 17.4884 33.4522 21.4358 33.4522C25.9075 33.4522 27.2759 37.173 27.2759 39.7589C27.2759 42.3452 25.9075 46.0663 21.4358 46.0663V46.0663ZM66.8925 43.5803H72.8489V45.7491H64.3896V33.7691H66.8925V43.5803V43.5803ZM57.7014 39.2919H62.7072V45.7491H61.0385L60.7881 44.2474C60.1543 44.9814 59.2368 46.066 57.0511 46.066C54.1645 46.066 51.5445 43.9967 51.5445 39.7923C51.5445 36.5221 53.363 33.435 57.4014 33.4519C61.0726 33.4519 62.5243 35.838 62.6576 37.4895H60.1547C60.1547 37.0225 59.3036 35.5208 57.5347 35.5208C55.7495 35.5208 54.098 36.7559 54.098 39.8261C54.098 43.096 55.8832 43.9471 57.5853 43.9471C58.1361 43.9471 59.9711 43.7301 60.4881 41.3109H57.7017L57.7014 39.2919V39.2919ZM21.4358 34.8871C18.8331 34.8871 17.2646 36.9395 17.2646 39.7589C17.2646 42.5791 18.8331 44.6311 21.4358 44.6311C24.039 44.6311 25.6071 42.5787 25.6071 39.7589C25.6071 36.9395 24.039 34.8871 21.4358 34.8871V34.8871ZM28.174 38.088H29.3897V39.1719H29.4192C29.7267 38.7325 30.3126 37.8682 31.7044 37.8682C33.7403 37.8682 35.1916 39.594 35.1916 41.7474C35.1916 43.5789 34.1362 45.9693 31.5287 45.9693C30.5034 45.9693 29.8294 45.4858 29.4925 44.9437H29.463V48.7819H28.174V38.088ZM31.4313 44.856C32.8378 44.856 33.7909 43.6371 33.7909 41.9525C33.7909 40.9718 33.3943 39.0257 31.4022 39.0257C29.5417 39.0257 29.3369 41.0325 29.3369 42.2773C29.3365 44.3135 30.6108 44.856 31.4313 44.856ZM42.9921 43.3475C42.9486 43.7132 42.5969 44.7971 41.6298 45.442C41.2781 45.6762 40.7802 45.9697 39.5497 45.9697C37.3964 45.9697 36.1217 44.3434 36.1217 42.1314C36.1217 39.7586 37.2645 37.8685 39.7987 37.8685C42.0103 37.8685 43.0941 39.6267 43.0941 42.3366H37.4988C37.4988 43.9335 38.2457 44.8564 39.7254 44.8564C40.9411 44.8564 41.6586 43.9191 41.7027 43.3479C42.1328 43.3468 42.5628 43.3468 42.9921 43.3475V43.3475ZM41.6262 41.3113C41.5529 40.1246 41.055 39.0257 39.4876 39.0257C38.301 39.0257 37.3633 40.1246 37.3633 41.3113H41.6262ZM50.2196 45.7491H48.9306V41.0325C48.9306 39.6993 48.5494 39.0257 47.2895 39.0257C46.5577 39.0257 45.268 39.4945 45.268 41.5742V45.7491H43.979V38.088H45.195V39.1719H45.2245C45.5029 38.762 46.2207 37.8682 47.5384 37.8682C48.7251 37.8682 50.2196 38.3517 50.2196 40.5342V45.7491V45.7491Z" fill="#76787A"/>
<path fill-rule="evenodd" clip-rule="evenodd" d="M21.4056 46.0353C18.1317 46.0353 16.5215 44.0411 15.8939 41.9578C16.6027 45.3398 20.4327 48.6503 32.5162 50.1272C43.9325 51.5222 51.3716 48.0242 53.8813 46.3964C53.8813 46.3964 55.5774 45.6506 54.56 46.8034C54.56 46.8034 47.3699 53.4503 33.262 53.5182C19.1541 53.5858 7.96268 46.4643 8.03058 39.2745C7.96268 32.0852 19.1541 24.9633 33.262 25.0312C47.3699 25.0991 54.56 31.746 54.56 31.746C55.5774 32.8992 53.8813 32.1531 53.8813 32.1531C51.3716 30.5253 43.9641 27.3193 32.5162 28.4226C21.2568 29.5079 17.5813 33.3332 16.3606 35.9109C15.8907 36.9028 15.6784 37.8379 15.6252 38.7802C15.9295 36.3211 17.4577 33.4212 21.4052 33.4212C25.8768 33.4212 27.2452 37.1424 27.2452 39.7283C27.2456 42.3145 25.8772 46.0353 21.4056 46.0353V46.0353ZM66.8622 43.5493H72.8186V45.7181H64.3593V33.7381H66.8622V43.5493V43.5493ZM57.6711 39.2609H62.6769V45.7181H61.0082L60.7578 44.2164C60.1241 44.9504 59.2065 46.035 57.0208 46.035C54.1342 46.035 51.5149 43.9657 51.5149 39.7613C51.5149 36.4907 53.3331 33.404 57.3711 33.4209C61.0423 33.4209 62.4941 35.807 62.6273 37.4589H60.1244C60.1244 36.9919 59.2734 35.4902 57.5044 35.4902C55.7193 35.4902 54.0678 36.7253 54.0678 39.7955C54.0678 43.0654 55.8529 43.9165 57.555 43.9165C58.1058 43.9165 59.9408 43.6995 60.4578 41.2803H57.6714L57.6711 39.2609V39.2609ZM21.4056 34.8561C18.8028 34.8561 17.2343 36.9085 17.2343 39.7279C17.2343 42.5481 18.8028 44.6001 21.4056 44.6001C24.0087 44.6001 25.5769 42.5477 25.5769 39.7279C25.5769 36.9085 24.0087 34.8561 21.4056 34.8561V34.8561ZM28.1434 38.057H29.3591V39.1413H29.3885C29.6964 38.7015 30.2824 37.8375 31.6737 37.8375C33.7096 37.8375 35.161 39.5634 35.161 41.7168C35.161 43.5482 34.1055 45.938 31.4977 45.938C30.4724 45.938 29.7988 45.4544 29.4618 44.9127H29.4324V48.7509H28.1434V38.057V38.057ZM31.4011 44.825C32.8075 44.825 33.7606 43.6061 33.7606 41.9215C33.7606 40.9408 33.364 38.9947 31.372 38.9947C29.5118 38.9947 29.3063 41.0015 29.3063 42.2463C29.3063 44.2825 30.5805 44.825 31.4011 44.825V44.825ZM42.9618 43.3158C42.9176 43.6822 42.5667 44.7661 41.5995 45.4109C41.2478 45.6452 40.7499 45.938 39.5195 45.938C37.3661 45.938 36.0918 44.3124 36.0918 42.1004C36.0918 39.7276 37.2343 37.8375 39.7684 37.8375C41.9807 37.8375 43.0639 39.5957 43.0639 42.3056H37.4685C37.4685 43.9017 38.2154 44.8254 39.6948 44.8254C40.9105 44.8254 41.6283 43.8881 41.6721 43.3161L42.9618 43.3158V43.3158ZM41.5959 41.2803C41.5227 40.0929 41.0247 38.9947 39.4573 38.9947C38.2707 38.9947 37.3334 40.0929 37.3334 41.2803C38.7543 41.2795 40.1755 41.2795 41.5959 41.2803V41.2803ZM50.1893 45.7181H48.9003V41.0015C48.9003 39.6683 48.5191 38.9947 47.2599 38.9947C46.5274 38.9947 45.2377 39.4635 45.2377 41.5432V45.7181H43.9487V38.057H45.1648V39.1413H45.1942C45.4719 38.731 46.1904 37.8375 47.5082 37.8375C48.6948 37.8375 50.1893 38.3207 50.1893 40.5036V45.7181Z" fill="#737476"/>
<path fill-rule="evenodd" clip-rule="evenodd" d="M21.3753 46.0046C18.1014 46.0046 16.4913 44.0104 15.8636 41.927C16.5724 45.3091 20.4021 48.6196 32.4856 50.0957C43.9019 51.4914 51.341 47.9934 53.8511 46.3656C53.8511 46.3656 55.5471 45.6198 54.5297 46.7727C54.5297 46.7727 47.3396 53.4196 33.2317 53.4867C19.1235 53.5546 7.93241 46.4335 8.00031 39.2434C7.93241 32.0544 19.1235 24.9326 33.2317 25.0005C47.3396 25.0684 54.5297 31.7153 54.5297 31.7153C55.5471 32.8681 53.8511 32.1223 53.8511 32.1223C51.3413 30.4945 43.9339 27.2882 32.4856 28.3918C21.2262 29.4771 17.551 33.3025 16.3303 35.8797C15.8604 36.8716 15.6481 37.8068 15.5949 38.7491C15.8992 36.29 17.4278 33.3901 21.3753 33.3901C25.8469 33.3901 27.2153 37.1109 27.2153 39.6972C27.2153 42.2838 25.8469 46.0046 21.3753 46.0046ZM66.8319 43.5185H72.7884V45.6873H64.329V33.7073H66.8319V43.5185V43.5185ZM57.6408 39.2301H62.6467V45.6873H60.9779L60.7282 44.1857C60.0938 44.9196 59.1763 46.0042 56.9906 46.0042C54.104 46.0042 51.4839 43.9349 51.4839 39.7306C51.4839 36.4599 53.3032 33.3732 57.3408 33.3901C61.012 33.3901 62.4638 35.7763 62.5971 37.4281H60.0942C60.0942 36.9607 59.2431 35.4594 57.4741 35.4594C55.689 35.4594 54.0375 36.6942 54.0375 39.764C54.0375 43.0346 55.8226 43.8857 57.5248 43.8857C58.0748 43.8857 59.9106 43.6687 60.4275 41.2495H57.6412V39.2301H57.6408V39.2301ZM21.3753 34.8253C18.7725 34.8253 17.204 36.8777 17.204 39.6975C17.204 42.5177 18.7725 44.5697 21.3753 44.5697C23.9781 44.5697 25.5466 42.5173 25.5466 39.6975C25.5466 36.8777 23.9781 34.8253 21.3753 34.8253ZM28.1131 38.0263H29.3292V39.1101H29.3586C29.6661 38.6708 30.2521 37.8064 31.6438 37.8064C33.6801 37.8064 35.1311 39.5323 35.1311 41.6856C35.1311 43.5171 34.0756 45.9069 31.4682 45.9069C30.4428 45.9069 29.7689 45.424 29.4323 44.8815H29.4028V48.7198H28.1131V38.0263ZM31.3708 44.7942C32.7773 44.7942 33.73 43.5753 33.73 41.8908C33.73 40.9093 33.3334 38.9639 31.3413 38.9639C29.4811 38.9639 29.2756 40.9707 29.2756 42.2155C29.2756 44.2518 30.5503 44.7942 31.3708 44.7942V44.7942ZM42.9316 43.285C42.8881 43.6515 42.5364 44.7353 41.5693 45.3802C41.2176 45.6144 40.7196 45.9072 39.4892 45.9072C37.3358 45.9072 36.0612 44.2816 36.0612 42.0697C36.0612 39.6961 37.204 37.8064 39.7382 37.8064C41.9504 37.8064 43.0339 39.5646 43.0339 42.2744H37.4386C37.4386 43.8706 38.1858 44.7942 39.6652 44.7942C40.8809 44.7942 41.5987 43.857 41.6426 43.285H42.9316V43.285ZM41.5657 41.2488C41.4924 40.0629 40.9945 38.9639 39.427 38.9639C38.2404 38.9639 37.3028 40.0629 37.3028 41.2488H41.5657ZM50.159 45.6873H48.87V40.9707C48.87 39.6375 48.4888 38.9639 47.2289 38.9639C46.4971 38.9639 45.2074 39.4328 45.2074 41.5125V45.6873H43.9184V38.0263H45.1345V39.1101H45.164C45.4417 38.6999 46.1602 37.8064 47.4779 37.8064C48.6645 37.8064 50.159 38.29 50.159 40.4724V45.6873V45.6873Z" fill="#6D6E70"/>
<path fill-rule="evenodd" clip-rule="evenodd" d="M21.3753 46.0046C18.1014 46.0046 16.4913 44.0104 15.8636 41.927C16.5724 45.3091 20.4021 48.6196 32.4856 50.0957C43.9019 51.4914 51.341 47.9934 53.8511 46.3656C53.8511 46.3656 55.5471 45.6198 54.5297 46.7727C54.5297 46.7727 47.3396 53.4196 33.2317 53.4867C19.1235 53.5546 7.93241 46.4335 8.00031 39.2434C7.93241 32.0544 19.1235 24.9326 33.2317 25.0005C47.3396 25.0684 54.5297 31.7153 54.5297 31.7153C55.5471 32.8681 53.8511 32.1223 53.8511 32.1223C51.3413 30.4945 43.9339 27.2882 32.4856 28.3918C21.2262 29.4771 17.551 33.3025 16.3303 35.8797C15.8604 36.8716 15.6481 37.8068 15.5949 38.7491C15.8992 36.29 17.4278 33.3901 21.3753 33.3901C25.8469 33.3901 27.2153 37.1109 27.2153 39.6972C27.2153 42.2838 25.8469 46.0046 21.3753 46.0046ZM66.8319 43.5185H72.7884V45.6873H64.329V33.7073H66.8319V43.5185V43.5185ZM57.6408 39.2301H62.6467V45.6873H60.9779L60.7282 44.1857C60.0938 44.9196 59.1763 46.0042 56.9906 46.0042C54.104 46.0042 51.4839 43.9349 51.4839 39.7306C51.4839 36.4599 53.3032 33.3732 57.3408 33.3901C61.012 33.3901 62.4638 35.7763 62.5971 37.4281H60.0942C60.0942 36.9607 59.2431 35.4594 57.4741 35.4594C55.689 35.4594 54.0375 36.6942 54.0375 39.764C54.0375 43.0346 55.8226 43.8857 57.5248 43.8857C58.0748 43.8857 59.9106 43.6687 60.4275 41.2495H57.6412V39.2301H57.6408V39.2301ZM21.3753 34.8253C18.7725 34.8253 17.204 36.8777 17.204 39.6975C17.204 42.5177 18.7725 44.5697 21.3753 44.5697C23.9781 44.5697 25.5466 42.5173 25.5466 39.6975C25.5466 36.8777 23.9781 34.8253 21.3753 34.8253ZM28.1131 38.0263H29.3292V39.1101H29.3586C29.6661 38.6708 30.2521 37.8064 31.6438 37.8064C33.6801 37.8064 35.1311 39.5323 35.1311 41.6856C35.1311 43.5171 34.0756 45.9069 31.4682 45.9069C30.4428 45.9069 29.7689 45.424 29.4323 44.8815H29.4028V48.7198H28.1131V38.0263ZM31.3708 44.7942C32.7773 44.7942 33.73 43.5753 33.73 41.8908C33.73 40.9093 33.3334 38.9639 31.3413 38.9639C29.4811 38.9639 29.2756 40.9707 29.2756 42.2155C29.2756 44.2518 30.5503 44.7942 31.3708 44.7942V44.7942ZM42.9316 43.285C42.8881 43.6515 42.5364 44.7353 41.5693 45.3802C41.2176 45.6144 40.7196 45.9072 39.4892 45.9072C37.3358 45.9072 36.0612 44.2816 36.0612 42.0697C36.0612 39.6961 37.204 37.8064 39.7382 37.8064C41.9504 37.8064 43.0339 39.5646 43.0339 42.2744H37.4386C37.4386 43.8706 38.1858 44.7942 39.6652 44.7942C40.8809 44.7942 41.5987 43.857 41.6426 43.285H42.9316V43.285ZM41.5657 41.2488C41.4924 40.0629 40.9945 38.9639 39.427 38.9639C38.2404 38.9639 37.3028 40.0629 37.3028 41.2488H41.5657ZM50.159 45.6873H48.87V40.9707C48.87 39.6375 48.4888 38.9639 47.2289 38.9639C46.4971 38.9639 45.2074 39.4328 45.2074 41.5125V45.6873H43.9184V38.0263H45.1345V39.1101H45.164C45.4417 38.6999 46.1602 37.8064 47.4779 37.8064C48.6645 37.8064 50.159 38.29 50.159 40.4724V45.6873V45.6873Z" fill="#5487B2"/>
</svg>
