<svg width="80" height="80" viewBox="0 0 80 80" fill="none" xmlns="http://www.w3.org/2000/svg">
<circle cx="40" cy="40" r="40" fill="#222222"/>
<path d="M58 61H50.875L51.375 54.9999H47.875L47.375 61H32.625L32.1249 54.9999H28.6251L29.1253 61H21.9999L18 34.9998L28 19H52L62 34.9998L58 61ZM50 26.9999H43.5714L44 30H36L36.4286 26.9999H30L25.9999 35L28 50.9998H52L54.0001 35L50 26.9999V26.9999ZM46.5 45.6899C45.9477 45.6899 45.5 44.0244 45.5 41.97C45.5 39.9154 45.9477 38.25 46.5 38.25C47.0522 38.25 47.4999 39.9154 47.4999 41.97C47.4999 44.0244 47.0522 45.6899 46.5 45.6899ZM33.8751 46C33.3228 46 32.8749 44.3345 32.8749 42.2799C32.8749 40.2255 33.3228 38.56 33.8751 38.56C34.4273 38.56 34.875 40.2255 34.875 42.2799C34.875 44.3345 34.4273 46 33.8751 46Z" fill="#B4B4B4"/>
</svg>
