<svg width="80" height="80" viewBox="0 0 80 80" fill="none" xmlns="http://www.w3.org/2000/svg">
<circle cx="40" cy="40" r="40" fill="#222222"/>
<path d="M27.1907 28L30.1907 53L22.1717 44.981C20.9827 43.792 20.6637 41.985 21.3757 40.461L27.1907 28Z" fill="#1565C0"/>
<path d="M44.5094 22.319C43.6644 21.474 42.5194 21 41.3254 21C40.5804 21 39.8464 21.185 39.1904 21.538L27.1904 28V48.343C27.1904 49.404 27.6114 50.421 28.3624 51.171L30.1904 53H52.1904V48L59.1904 37L44.5094 22.319Z" fill="#42A5F5"/>
<path d="M27.1904 28H48.5334C49.5944 28 50.6114 28.421 51.3614 29.172L59.1904 37V53H52.1904L27.1904 28Z" fill="#1565C0"/>
<path d="M52.1904 53H30.1904L36.1904 59H52.1904V53Z" fill="#85CBF8"/>
</svg>
