<svg width="80" height="80" viewBox="0 0 80 80" fill="none" xmlns="http://www.w3.org/2000/svg">
<circle cx="40" cy="40" r="40" fill="#222222"/>
<path d="M62 32.2556C62 57.3111 40 64.8889 40 64.8889C40 64.8889 18 57.3111 18 32.2556C18 29.2 18.2444 26.6333 18.4889 24.5556C18.8556 21.5 20.9333 19.0556 23.8667 18.3222C27.6556 17.2222 33.6444 16 40 16C46.3556 16 52.3444 17.2222 56.2556 18.3222C59.1889 19.0556 61.2667 21.6222 61.6333 24.5556C61.7556 26.6333 62 29.3222 62 32.2556Z" fill="#5D4037"/>
<path d="M40 19.6667C45.9889 19.6667 51.6111 20.8889 55.2778 21.8667C56.7444 22.2333 57.7222 23.4556 57.9667 25.0444C58.2111 27.3667 58.3333 29.8111 58.3333 32.2556C58.3333 51.3222 44.2778 59.0222 40 60.8556C35.7222 58.9 21.6667 51.2 21.6667 32.2556C21.6667 29.8111 21.7889 27.3667 22.0333 25.0444C22.1556 23.4556 23.2556 22.2333 24.7222 21.8667C28.3889 20.8889 34.0111 19.6667 40 19.6667ZM40 16C33.6444 16 27.6556 17.2222 23.7444 18.3222C20.9333 19.0556 18.7333 21.6222 18.4889 24.5556C18.2444 26.6333 18 29.3222 18 32.2556C18 57.3111 40 64.8889 40 64.8889C40 64.8889 62 57.3111 62 32.2556C62 29.2 61.7556 26.6333 61.5111 24.5556C61.1444 21.5 59.0667 19.0556 56.1333 18.3222C52.3444 17.2222 46.3556 16 40 16Z" fill="#4CAF50"/>
<path d="M38.7778 45.3333H41.2223V55.111H38.7778V45.3333Z" fill="#DCEDC8"/>
<path d="M39.9998 23.3333C39.9998 23.3333 32.6665 29.4444 32.6665 39.2221C32.6665 45.5777 36.6998 49.611 38.7776 51.4444L39.9998 47.7777L41.2221 51.4444C43.2998 49.611 47.3332 45.5777 47.3332 39.2221C47.3332 29.4444 39.9998 23.3333 39.9998 23.3333Z" fill="#4CAF50"/>
<path d="M39.9998 23.3333C39.9998 23.3333 32.6665 29.4444 32.6665 39.2221C32.6665 45.5777 36.6998 49.611 38.7776 51.4444L39.9998 47.7777V23.3333Z" fill="#81C784"/>
</svg>
