<svg width="80" height="80" viewBox="0 0 80 80" fill="none" xmlns="http://www.w3.org/2000/svg">
<circle cx="40" cy="40" r="40" fill="#222222"/>
<path d="M50.5 18H29.5C23.159 18 18 23.159 18 29.5V50.5C18 56.841 23.159 62 29.5 62H50.5C56.841 62 62 56.841 62 50.5V29.5C62 23.159 56.841 18 50.5 18ZM54.615 54C54.615 54 52.965 51.193 50.199 51.193C47.533 51.193 45.492 54 40.125 54C30.15 53.999 24.496 46.602 23.032 44.3C22.917 44.119 23.132 43.919 23.313 44.034C27.555 46.701 31.658 48 34.5 47.999C38.657 47.998 41 46 41 46C37.171 43.745 28 33.25 26.046 30.319C25.911 30.117 26.153 29.894 26.339 30.05C34.286 36.734 38.815 39.253 38.815 39.253C37.133 37.841 32.125 31.249 30.042 28.318C29.901 28.12 30.16 27.891 30.338 28.056C36.038 33.356 46 41 46 41C46.627 39.236 47.024 37.119 46.998 35.5C46.931 31.231 44.178 26.974 43.037 25.309C42.908 25.121 43.143 24.91 43.328 25.043C50.75 30.375 53.001 37.033 53 40.875C52.999 43.635 52 45.375 52 45.375C52 45.375 56.232 49.992 54.615 54Z" fill="#BB6E28"/>
</svg>
