<svg width="80" height="80" viewBox="0 0 80 80" fill="none" xmlns="http://www.w3.org/2000/svg">
<circle cx="40" cy="40" r="40" fill="#222222"/>
<path d="M29.5274 36.529C29.5274 37.126 29.5914 37.609 29.7034 37.964C29.8314 38.319 29.9904 38.706 30.2144 39.125C30.2944 39.254 30.3264 39.383 30.3264 39.496C30.3264 39.657 30.2304 39.818 30.0234 39.98L29.0174 40.657C28.8734 40.754 28.7304 40.802 28.6024 40.802C28.4424 40.802 28.2834 40.721 28.1234 40.576C27.8994 40.334 27.7084 40.076 27.5484 39.818C27.3884 39.544 27.2294 39.238 27.0534 38.867C25.8084 40.35 24.2434 41.092 22.3594 41.092C21.0184 41.092 19.9484 40.705 19.1664 39.931C18.3844 39.157 17.9854 38.125 17.9854 36.835C17.9854 35.465 18.4644 34.352 19.4384 33.514C20.4124 32.676 21.7054 32.256 23.3494 32.256C23.8924 32.256 24.4514 32.304 25.0414 32.385C25.6314 32.466 26.2384 32.595 26.8774 32.74V31.563C26.8774 30.338 26.6224 29.483 26.1274 28.983C25.6164 28.483 24.7544 28.241 23.5254 28.241C22.9664 28.241 22.3924 28.305 21.8014 28.451C21.2104 28.596 20.6364 28.773 20.0774 28.999C19.8224 29.112 19.6304 29.176 19.5184 29.209C19.4064 29.241 19.3264 29.257 19.2634 29.257C19.0394 29.257 18.9284 29.096 18.9284 28.757V27.967C18.9284 27.709 18.9604 27.516 19.0404 27.403C19.1204 27.29 19.2644 27.177 19.4874 27.064C20.0464 26.774 20.7164 26.532 21.4994 26.338C22.2814 26.128 23.1114 26.032 23.9894 26.032C25.8894 26.032 27.2784 26.467 28.1724 27.338C29.0504 28.209 29.4974 29.531 29.4974 31.304V36.528H29.5274V36.529ZM23.0454 38.979C23.5724 38.979 24.1154 38.882 24.6894 38.689C25.2644 38.496 25.7754 38.141 26.2064 37.657C26.4614 37.351 26.6534 37.012 26.7494 36.625C26.8454 36.238 26.9094 35.77 26.9094 35.222V34.545C26.4464 34.432 25.9514 34.335 25.4404 34.271C24.9294 34.207 24.4344 34.174 23.9394 34.174C22.8694 34.174 22.0874 34.384 21.5604 34.819C21.0334 35.254 20.7784 35.867 20.7784 36.673C20.7784 37.431 20.9704 37.995 21.3694 38.382C21.7524 38.786 22.3114 38.979 23.0454 38.979ZM35.8654 40.721C35.5784 40.721 35.3864 40.673 35.2584 40.56C35.1304 40.463 35.0194 40.238 34.9234 39.931L31.1714 27.468C31.0754 27.146 31.0274 26.936 31.0274 26.823C31.0274 26.565 31.1554 26.42 31.4104 26.42H32.9754C33.2784 26.42 33.4864 26.468 33.5984 26.581C33.7264 26.678 33.8214 26.903 33.9174 27.21L36.5994 37.884L39.0894 27.21C39.1694 26.888 39.2654 26.678 39.3924 26.581C39.5204 26.484 39.7434 26.42 40.0314 26.42H41.3084C41.6114 26.42 41.8194 26.468 41.9474 26.581C42.0754 26.678 42.1864 26.903 42.2504 27.21L44.7724 38.013L47.5344 27.21C47.6304 26.888 47.7424 26.678 47.8534 26.581C47.9814 26.484 48.1884 26.42 48.4764 26.42H49.9613C50.2163 26.42 50.3604 26.549 50.3604 26.823C50.3604 26.904 50.3444 26.984 50.3284 27.081C50.3124 27.178 50.2804 27.307 50.2164 27.484L46.3694 39.947C46.2734 40.269 46.1614 40.479 46.0344 40.576C45.9074 40.673 45.6994 40.737 45.4274 40.737H44.0544C43.7514 40.737 43.5434 40.689 43.4154 40.576C43.2874 40.463 43.1764 40.254 43.1124 39.931L40.6384 29.531L38.1804 39.915C38.1004 40.237 38.0044 40.447 37.8774 40.56C37.7494 40.673 37.5264 40.721 37.2384 40.721H35.8654ZM56.3794 41.156C55.5494 41.156 54.7194 41.059 53.9214 40.866C53.1234 40.673 52.5004 40.463 52.0854 40.221C51.8304 40.076 51.6544 39.915 51.5904 39.77C51.5264 39.625 51.4944 39.464 51.4944 39.319V38.497C51.4944 38.158 51.6224 37.997 51.8614 37.997C51.9574 37.997 52.0533 38.013 52.1483 38.045C52.2443 38.077 52.3874 38.142 52.5474 38.206C53.0904 38.448 53.6804 38.641 54.3034 38.77C54.9424 38.899 55.5644 38.963 56.2034 38.963C57.2094 38.963 57.9914 38.786 58.5344 38.431C59.0774 38.076 59.3643 37.56 59.3643 36.899C59.3643 36.448 59.2203 36.077 58.9333 35.77C58.6463 35.464 58.1034 35.19 57.3214 34.932L55.0064 34.206C53.8414 33.835 52.9794 33.287 52.4524 32.561C51.9254 31.852 51.6544 31.062 51.6544 30.223C51.6544 29.546 51.7984 28.949 52.0854 28.433C52.3724 27.917 52.7564 27.466 53.2344 27.111C53.7134 26.74 54.2564 26.466 54.8944 26.273C55.5334 26.081 56.2033 26 56.9063 26C57.2573 26 57.6244 26.016 57.9764 26.064C58.3434 26.112 58.6784 26.177 59.0144 26.241C59.3334 26.322 59.6374 26.402 59.9244 26.499C60.2114 26.596 60.4354 26.692 60.5954 26.789C60.8194 26.918 60.9784 27.047 61.0744 27.192C61.1704 27.321 61.2183 27.498 61.2183 27.724V28.482C61.2183 28.821 61.0904 28.998 60.8514 28.998C60.7234 28.998 60.5164 28.934 60.2444 28.805C59.3344 28.386 58.3124 28.176 57.1794 28.176C56.2694 28.176 55.5514 28.321 55.0564 28.627C54.5614 28.933 54.3064 29.401 54.3064 30.062C54.3064 30.513 54.4664 30.9 54.7854 31.207C55.1044 31.513 55.6954 31.82 56.5414 32.094L58.8083 32.82C59.9573 33.191 60.7884 33.707 61.2824 34.368C61.7764 35.029 62.0163 35.787 62.0163 36.625C62.0163 37.318 61.8724 37.947 61.6014 38.495C61.3144 39.043 60.9304 39.527 60.4364 39.914C59.9414 40.317 59.3504 40.607 58.6644 40.817C57.9434 41.043 57.1934 41.156 56.3794 41.156Z" fill="#7A7D82"/>
<path d="M59.3967 48.992C54.1447 52.91 46.5137 54.99 39.9517 54.99C30.7567 54.99 22.4707 51.556 16.2127 45.848C15.7177 45.397 16.1647 44.784 16.7557 45.139C23.5247 49.105 31.8737 51.508 40.5107 51.508C46.3377 51.508 52.7397 50.283 58.6297 47.767C59.5087 47.364 60.2587 48.347 59.3967 48.992ZM61.5837 46.477C60.9127 45.606 57.1457 46.058 55.4377 46.267C54.9267 46.331 54.8467 45.88 55.3097 45.541C58.3107 43.413 63.2437 44.025 63.8187 44.735C64.3937 45.461 63.6587 50.443 60.8497 52.829C60.4187 53.2 60.0037 53.006 60.1947 52.523C60.8337 50.927 62.2547 47.331 61.5837 46.477Z" fill="#FF9900"/>
</svg>
