<svg width="80" height="80" viewBox="0 0 80 80" fill="none" xmlns="http://www.w3.org/2000/svg">
<circle cx="40" cy="40" r="40" fill="#222222"/>
<path d="M33.737 22H45.042L33.306 56.773C33.059 57.506 32.372 57.999 31.598 57.999H22.8C21.806 57.999 21 57.193 21 56.199C21 56.003 21.032 55.809 21.094 55.623L32.029 23.227C32.276 22.494 32.963 22 33.737 22Z" fill="url(#paint0_linear_747_3449)"/>
<path d="M50.1652 45.324H32.2382C31.7802 45.323 31.4082 45.695 31.4072 46.153C31.4072 46.384 31.5022 46.604 31.6712 46.761L43.1912 57.513C43.5262 57.826 43.9682 58 44.4272 58H54.5782L50.1652 45.324Z" fill="#0078D4"/>
<path d="M33.7369 22C32.9539 21.997 32.2609 22.504 32.0249 23.25L21.1079 55.595C20.7729 56.529 21.2589 57.559 22.1929 57.894C22.3889 57.964 22.5959 58 22.8049 58H31.8309C32.5149 57.878 33.0809 57.397 33.3119 56.741L35.4889 50.325L43.2649 57.578C43.5909 57.848 43.9999 57.997 44.4229 58H54.5369L50.1009 45.324L37.1699 45.327L45.0829 22H33.7369Z" fill="url(#paint1_linear_747_3449)"/>
<path d="M48.1771 23.225C47.9301 22.493 47.2441 22 46.4711 22H33.8711C34.6431 22 35.3301 22.493 35.5761 23.224L46.5111 55.623C46.8291 56.565 46.3231 57.586 45.3811 57.904C45.1961 57.968 45.0021 58 44.8061 58H57.4061C58.4001 58 59.2061 57.194 59.2061 56.199C59.2061 56.003 59.1741 55.809 59.1111 55.624L48.1771 23.225Z" fill="url(#paint2_linear_747_3449)"/>
<defs>
<linearGradient id="paint0_linear_747_3449" x1="37.8577" y1="24.6682" x2="26.1171" y2="59.3526" gradientUnits="userSpaceOnUse">
<stop stop-color="#114A8B"/>
<stop offset="1" stop-color="#0669BC"/>
</linearGradient>
<linearGradient id="paint1_linear_747_3449" x1="41.5248" y1="40.8308" x2="38.8091" y2="41.7495" gradientUnits="userSpaceOnUse">
<stop stop-opacity="0.3"/>
<stop offset="0.071" stop-opacity="0.2"/>
<stop offset="0.321" stop-opacity="0.1"/>
<stop offset="0.623" stop-opacity="0.05"/>
<stop offset="1" stop-opacity="0"/>
</linearGradient>
<linearGradient id="paint2_linear_747_3449" x1="40.1156" y1="23.6245" x2="53.0031" y2="57.9604" gradientUnits="userSpaceOnUse">
<stop stop-color="#3CCBF4"/>
<stop offset="1" stop-color="#2892DF"/>
</linearGradient>
</defs>
</svg>
