<svg width="80" height="80" viewBox="0 0 80 80" fill="none" xmlns="http://www.w3.org/2000/svg">
<circle cx="40" cy="40" r="40" fill="#222222"/>
<path d="M49.5 53.6167L59 55.0417L49.5 59L21 49.5L49.5 53.6167V21L59 24.9583V55.0417L49.5 53.6167Z" fill="white"/>
<path d="M30.4998 27.3333L34.1415 28.1249V33.8249L39.9998 29.7083V34.4583L33.9832 37.6249L39.9998 40.7916V45.5416L33.9832 41.4249V47.1249L30.4998 47.9166L24.1665 42.3749V39.9999L27.8082 37.6249L24.1665 35.2499V32.8749L30.4998 27.3333ZM26.0665 33.8249L30.4998 36.0416V30.4999L26.0665 33.8249ZM30.4998 44.7499V39.2083L26.0665 41.4249L30.4998 44.7499ZM39.9998 29.7083L44.7498 31.2916V43.9583L39.9998 45.5416V29.7083Z" fill="white"/>
</svg>
