<svg width="80" height="80" viewBox="0 0 80 80" fill="none" xmlns="http://www.w3.org/2000/svg">
<circle cx="40" cy="40" r="40" fill="#222222"/>
<path d="M24 52.9992L39.234 24.4352C39.555 23.8332 40.423 23.8442 40.728 24.4552L46 34.9992L24 52.9992Z" fill="#FF8F00"/>
<path d="M24 52.9912L29.546 18.7922C29.691 17.8972 30.893 17.7032 31.313 18.5072L42 38.9912L24 52.9912Z" fill="#FFA000"/>
<path d="M24.008 52.9852L24.208 52.8282L41.737 38.4872L36.793 29.0112L24.008 52.9852Z" fill="#FF6F00"/>
<path d="M24 52.9992L50.666 27.2862C51.225 26.7472 52.158 27.0652 52.272 27.8332L56 52.9992L41 61.7422C40.391 62.0842 39.648 62.0842 39.039 61.7422L24 52.9992Z" fill="#FFC400"/>
</svg>
