<svg width="80" height="80" viewBox="0 0 80 80" fill="none" xmlns="http://www.w3.org/2000/svg">
<circle cx="40" cy="40" r="40" fill="#222222"/>
<path d="M47.388 30.3587H49.0899L53.9385 25.5102L54.1769 23.4529C45.1555 15.4905 31.3837 16.3485 23.4213 25.3699C21.2074 27.876 19.6014 30.8566 18.7271 34.0827C19.2671 33.8607 19.8655 33.8256 20.4289 33.9799L30.1237 32.3808C30.1237 32.3808 30.6169 31.565 30.8717 31.6164C35.1849 26.8801 42.4437 26.3284 47.4231 30.3587H47.388Z" fill="#EA4335"/>
<path d="M60.8439 34.0827C59.7288 29.9799 57.4424 26.2909 54.2607 23.4692L47.4578 30.2721C50.3309 32.6192 51.9674 36.1563 51.8972 39.8663V41.0749C55.2426 41.0749 57.9521 43.7867 57.9521 47.1298C57.9521 50.4751 55.2402 53.1846 51.8972 53.1846H39.7853L38.5767 54.4096V61.673L39.7853 62.8816H51.8972C58.8404 62.9354 65.0004 58.4352 67.0623 51.8053C69.1196 45.173 66.5948 37.9727 60.8439 34.0827Z" fill="#4285F4"/>
<path d="M27.6575 62.8139H39.7694V53.1192H27.6575C26.7949 53.1192 25.9416 52.9345 25.1561 52.5745L23.4542 53.1005L18.5729 57.949L18.1475 59.6509C20.885 61.7175 24.2256 62.8279 27.6575 62.8139Z" fill="#34A853"/>
<path d="M27.6572 31.3617C20.9291 31.4014 14.9702 35.7099 12.8241 42.085C10.678 48.4601 12.8171 55.4967 18.1495 59.5972L25.1745 52.5722C22.1261 51.1953 20.7725 47.6091 22.1495 44.5607C23.5264 41.5122 27.1125 40.1587 30.161 41.5356C31.5029 42.1434 32.5782 43.2188 33.186 44.5607L40.211 37.5357C37.221 33.6293 32.5759 31.3453 27.6572 31.3617Z" fill="#FBBC05"/>
</svg>
