<svg width="80" height="80" viewBox="0 0 80 80" fill="none" xmlns="http://www.w3.org/2000/svg">
<circle cx="40" cy="40" r="40" fill="#222222"/>
<path d="M41.8393 40.2082C41.9413 40.3392 41.9843 40.5282 41.9553 40.7032L41.6793 41.9112C41.6503 42.1002 41.5193 42.2462 41.3603 42.3332L40.2423 42.8572C40.0823 42.9442 39.8793 42.9442 39.7193 42.8572L38.6013 42.3332C38.4413 42.2462 38.3113 42.1002 38.2823 41.9112L38.0063 40.7032C37.9773 40.5282 38.0213 40.3392 38.1223 40.2082L38.9063 39.2332C39.0073 39.0872 39.1823 39.0002 39.3703 39.0002H40.5903C40.7793 39.0002 40.9533 39.0872 41.0553 39.2332L41.8393 40.2082Z" fill="#0277BD"/>
<path d="M41.2762 31.3302L41.3242 31.7052C41.4582 32.7422 41.5542 33.7902 41.6502 34.8272C41.6882 35.2402 41.7272 35.6442 41.7552 36.0572C41.7742 36.3742 42.1292 36.5372 42.3882 36.3552C42.7142 36.1152 43.0502 35.8752 43.3952 35.6442C44.2582 35.0582 45.1112 34.4723 45.9932 33.9053L46.3192 33.7032C44.9482 32.4542 43.2032 31.5992 41.2762 31.3302ZM41.2762 31.3302L41.3242 31.7052C41.4582 32.7422 41.5542 33.7902 41.6502 34.8272C41.6882 35.2402 41.7272 35.6442 41.7552 36.0572C41.7742 36.3742 42.1292 36.5372 42.3882 36.3552C42.7142 36.1152 43.0502 35.8752 43.3952 35.6442C44.2582 35.0582 45.1112 34.4723 45.9932 33.9053L46.3192 33.7032C44.9482 32.4542 43.2032 31.5992 41.2762 31.3302ZM41.2762 31.3302L41.3242 31.7052C41.4582 32.7422 41.5542 33.7902 41.6502 34.8272C41.6882 35.2402 41.7272 35.6442 41.7552 36.0572C41.7742 36.3742 42.1292 36.5372 42.3882 36.3552C42.7142 36.1152 43.0502 35.8752 43.3952 35.6442C44.2582 35.0582 45.1112 34.4723 45.9932 33.9053L46.3192 33.7032C44.9482 32.4542 43.2032 31.5992 41.2762 31.3302ZM41.2762 31.3302L41.3242 31.7052C41.4582 32.7422 41.5542 33.7902 41.6502 34.8272C41.6882 35.2402 41.7272 35.6442 41.7552 36.0572C41.7742 36.3742 42.1292 36.5372 42.3882 36.3552C42.7142 36.1152 43.0502 35.8752 43.3952 35.6442C44.2582 35.0582 45.1112 34.4723 45.9932 33.9053L46.3192 33.7032C44.9482 32.4542 43.2032 31.5992 41.2762 31.3302ZM41.2762 31.3302L41.3242 31.7052C41.4582 32.7422 41.5542 33.7902 41.6502 34.8272C41.6882 35.2402 41.7272 35.6442 41.7552 36.0572C41.7742 36.3742 42.1292 36.5372 42.3882 36.3552C42.7142 36.1152 43.0502 35.8752 43.3952 35.6442C44.2582 35.0582 45.1112 34.4723 45.9932 33.9053L46.3192 33.7032C44.9482 32.4542 43.2032 31.5992 41.2762 31.3302ZM48.0832 35.8352L47.8242 36.1143C47.1052 36.8833 46.3672 37.6222 45.6282 38.3622C45.1582 38.8422 44.6502 39.3033 44.1612 39.7743C44.8132 39.9373 45.4652 40.1102 46.1172 40.3022C47.1242 40.5902 48.1212 40.8692 49.1182 41.1952L49.4732 41.3102C49.4832 41.1562 49.4832 40.9932 49.4832 40.8302C49.4832 38.9962 48.9752 37.2862 48.0832 35.8352ZM48.0832 35.8352L47.8242 36.1143C47.1052 36.8833 46.3672 37.6222 45.6282 38.3622C45.1582 38.8422 44.6502 39.3033 44.1612 39.7743C44.8132 39.9373 45.4652 40.1102 46.1172 40.3022C47.1242 40.5902 48.1212 40.8692 49.1182 41.1952L49.4732 41.3102C49.4832 41.1562 49.4832 40.9932 49.4832 40.8302C49.4832 38.9962 48.9752 37.2862 48.0832 35.8352ZM41.2762 31.3302L41.3242 31.7052C41.4582 32.7422 41.5542 33.7902 41.6502 34.8272C41.6882 35.2402 41.7272 35.6442 41.7552 36.0572C41.7742 36.3742 42.1292 36.5372 42.3882 36.3552C42.7142 36.1152 43.0502 35.8752 43.3952 35.6442C44.2582 35.0582 45.1112 34.4723 45.9932 33.9053L46.3192 33.7032C44.9482 32.4542 43.2032 31.5992 41.2762 31.3302ZM41.2762 31.3302L41.3242 31.7052C41.4582 32.7422 41.5542 33.7902 41.6502 34.8272C41.6882 35.2402 41.7272 35.6442 41.7552 36.0572C41.7742 36.3742 42.1292 36.5372 42.3882 36.3552C42.7142 36.1152 43.0502 35.8752 43.3952 35.6442C44.2582 35.0582 45.1112 34.4723 45.9932 33.9053L46.3192 33.7032C44.9482 32.4542 43.2032 31.5992 41.2762 31.3302ZM48.5912 44.0203C47.5462 43.9533 46.5102 43.8572 45.4652 43.7612C45.0142 43.7232 44.5732 43.6752 44.1232 43.6262C43.8352 43.5882 43.6052 43.8762 43.7112 44.1542C43.8742 44.5862 44.0272 45.0193 44.1812 45.4613C44.5172 46.4413 44.8622 47.4303 45.1782 48.4293L45.2832 48.7753C46.9512 47.6323 48.2462 45.9802 48.9262 44.0392L48.5912 44.0203ZM48.0832 35.8352L47.8242 36.1143C47.1052 36.8833 46.3672 37.6222 45.6282 38.3622C45.1582 38.8422 44.6502 39.3033 44.1612 39.7743C44.8132 39.9373 45.4652 40.1102 46.1172 40.3022C47.1242 40.5902 48.1212 40.8692 49.1182 41.1952L49.4732 41.3102C49.4832 41.1562 49.4832 40.9932 49.4832 40.8302C49.4832 38.9962 48.9752 37.2862 48.0832 35.8352ZM48.0832 35.8352L47.8242 36.1143C47.1052 36.8833 46.3672 37.6222 45.6282 38.3622C45.1582 38.8422 44.6502 39.3033 44.1612 39.7743C44.8132 39.9373 45.4652 40.1102 46.1172 40.3022C47.1242 40.5902 48.1212 40.8692 49.1182 41.1952L49.4732 41.3102C49.4832 41.1562 49.4832 40.9932 49.4832 40.8302C49.4832 38.9962 48.9752 37.2862 48.0832 35.8352ZM48.5912 44.0203C47.5462 43.9533 46.5102 43.8572 45.4652 43.7612C45.0142 43.7232 44.5732 43.6752 44.1232 43.6262C43.8352 43.5882 43.6052 43.8762 43.7112 44.1542C43.8742 44.5862 44.0272 45.0193 44.1812 45.4613C44.5172 46.4413 44.8622 47.4303 45.1782 48.4293L45.2832 48.7753C46.9512 47.6323 48.2462 45.9802 48.9262 44.0392L48.5912 44.0203ZM41.2762 31.3302L41.3242 31.7052C41.4582 32.7422 41.5542 33.7902 41.6502 34.8272C41.6882 35.2402 41.7272 35.6442 41.7552 36.0572C41.7742 36.3742 42.1292 36.5372 42.3882 36.3552C42.7142 36.1152 43.0502 35.8752 43.3952 35.6442C44.2582 35.0582 45.1112 34.4723 45.9932 33.9053L46.3192 33.7032C44.9482 32.4542 43.2032 31.5992 41.2762 31.3302ZM41.2762 31.3302L41.3242 31.7052C41.4582 32.7422 41.5542 33.7902 41.6502 34.8272C41.6882 35.2402 41.7272 35.6442 41.7552 36.0572C41.7742 36.3742 42.1292 36.5372 42.3882 36.3552C42.7142 36.1152 43.0502 35.8752 43.3952 35.6442C44.2582 35.0582 45.1112 34.4723 45.9932 33.9053L46.3192 33.7032C44.9482 32.4542 43.2032 31.5992 41.2762 31.3302ZM48.5912 44.0203C47.5462 43.9533 46.5102 43.8572 45.4652 43.7612C45.0142 43.7232 44.5732 43.6752 44.1232 43.6262C43.8352 43.5882 43.6052 43.8762 43.7112 44.1542C43.8742 44.5862 44.0272 45.0193 44.1812 45.4613C44.5172 46.4413 44.8622 47.4303 45.1782 48.4293L45.2832 48.7753C46.9512 47.6323 48.2462 45.9802 48.9262 44.0392L48.5912 44.0203ZM48.0832 35.8352L47.8242 36.1143C47.1052 36.8833 46.3672 37.6222 45.6282 38.3622C45.1582 38.8422 44.6502 39.3033 44.1612 39.7743C44.8132 39.9373 45.4652 40.1102 46.1172 40.3022C47.1242 40.5902 48.1212 40.8692 49.1182 41.1952L49.4732 41.3102C49.4832 41.1562 49.4832 40.9932 49.4832 40.8302C49.4832 38.9962 48.9752 37.2862 48.0832 35.8352ZM48.0832 35.8352L47.8242 36.1143C47.1052 36.8833 46.3672 37.6222 45.6282 38.3622C45.1582 38.8422 44.6502 39.3033 44.1612 39.7743C44.8132 39.9373 45.4652 40.1102 46.1172 40.3022C47.1242 40.5902 48.1212 40.8692 49.1182 41.1952L49.4732 41.3102C49.4832 41.1562 49.4832 40.9932 49.4832 40.8302C49.4832 38.9962 48.9752 37.2862 48.0832 35.8352ZM48.5912 44.0203C47.5462 43.9533 46.5102 43.8572 45.4652 43.7612C45.0142 43.7232 44.5732 43.6752 44.1232 43.6262C43.8352 43.5882 43.6052 43.8762 43.7112 44.1542C43.8742 44.5862 44.0272 45.0193 44.1812 45.4613C44.5172 46.4413 44.8622 47.4303 45.1782 48.4293L45.2832 48.7753C46.9512 47.6323 48.2462 45.9802 48.9262 44.0392L48.5912 44.0203ZM41.2762 31.3302L41.3242 31.7052C41.4582 32.7422 41.5542 33.7902 41.6502 34.8272C41.6882 35.2402 41.7272 35.6442 41.7552 36.0572C41.7742 36.3742 42.1292 36.5372 42.3882 36.3552C42.7142 36.1152 43.0502 35.8752 43.3952 35.6442C44.2582 35.0582 45.1112 34.4723 45.9932 33.9053L46.3192 33.7032C44.9482 32.4542 43.2032 31.5992 41.2762 31.3302ZM42.5702 49.6202C42.0142 48.7362 41.4962 47.8242 40.9782 46.9212C40.7482 46.5272 40.5272 46.1332 40.3162 45.7302C40.1632 45.4512 39.7692 45.4512 39.6162 45.7302C39.3952 46.1432 39.1652 46.5473 38.9262 46.9403C38.3992 47.8433 37.8712 48.7463 37.3152 49.6303L37.0752 50.0142C37.9672 50.2932 38.9162 50.4373 39.8942 50.4373C40.9012 50.4373 41.8792 50.2833 42.7902 49.9853L42.5702 49.6202ZM41.2762 31.3302L41.3242 31.7052C41.4582 32.7422 41.5542 33.7902 41.6502 34.8272C41.6882 35.2402 41.7272 35.6442 41.7552 36.0572C41.7742 36.3742 42.1292 36.5372 42.3882 36.3552C42.7142 36.1152 43.0502 35.8752 43.3952 35.6442C44.2582 35.0582 45.1112 34.4723 45.9932 33.9053L46.3192 33.7032C44.9482 32.4542 43.2032 31.5992 41.2762 31.3302ZM48.5912 44.0203C47.5462 43.9533 46.5102 43.8572 45.4652 43.7612C45.0142 43.7232 44.5732 43.6752 44.1232 43.6262C43.8352 43.5882 43.6052 43.8762 43.7112 44.1542C43.8742 44.5862 44.0272 45.0193 44.1812 45.4613C44.5172 46.4413 44.8622 47.4303 45.1782 48.4293L45.2832 48.7753C46.9512 47.6323 48.2462 45.9802 48.9262 44.0392L48.5912 44.0203ZM48.0832 35.8352L47.8242 36.1143C47.1052 36.8833 46.3672 37.6222 45.6282 38.3622C45.1582 38.8422 44.6502 39.3033 44.1612 39.7743C44.8132 39.9373 45.4652 40.1102 46.1172 40.3022C47.1242 40.5902 48.1212 40.8692 49.1182 41.1952L49.4732 41.3102C49.4832 41.1562 49.4832 40.9932 49.4832 40.8302C49.4832 38.9962 48.9752 37.2862 48.0832 35.8352ZM48.0832 35.8352L47.8242 36.1143C47.1052 36.8833 46.3672 37.6222 45.6282 38.3622C45.1582 38.8422 44.6502 39.3033 44.1612 39.7743C44.8132 39.9373 45.4652 40.1102 46.1172 40.3022C47.1242 40.5902 48.1212 40.8692 49.1182 41.1952L49.4732 41.3102C49.4832 41.1562 49.4832 40.9932 49.4832 40.8302C49.4832 38.9962 48.9752 37.2862 48.0832 35.8352ZM48.5912 44.0203C47.5462 43.9533 46.5102 43.8572 45.4652 43.7612C45.0142 43.7232 44.5732 43.6752 44.1232 43.6262C43.8352 43.5882 43.6052 43.8762 43.7112 44.1542C43.8742 44.5862 44.0272 45.0193 44.1812 45.4613C44.5172 46.4413 44.8622 47.4303 45.1782 48.4293L45.2832 48.7753C46.9512 47.6323 48.2462 45.9802 48.9262 44.0392L48.5912 44.0203ZM41.2762 31.3302L41.3242 31.7052C41.4582 32.7422 41.5542 33.7902 41.6502 34.8272C41.6882 35.2402 41.7272 35.6442 41.7552 36.0572C41.7742 36.3742 42.1292 36.5372 42.3882 36.3552C42.7142 36.1152 43.0502 35.8752 43.3952 35.6442C44.2582 35.0582 45.1112 34.4723 45.9932 33.9053L46.3192 33.7032C44.9482 32.4542 43.2032 31.5992 41.2762 31.3302ZM42.5702 49.6202C42.0142 48.7362 41.4962 47.8242 40.9782 46.9212C40.7482 46.5272 40.5272 46.1332 40.3162 45.7302C40.1632 45.4512 39.7692 45.4512 39.6162 45.7302C39.3952 46.1432 39.1652 46.5473 38.9262 46.9403C38.3992 47.8433 37.8712 48.7463 37.3152 49.6303L37.0752 50.0142C37.9672 50.2932 38.9162 50.4373 39.8942 50.4373C40.9012 50.4373 41.8792 50.2833 42.7902 49.9853L42.5702 49.6202ZM35.8392 43.4923C35.3882 43.5503 34.9472 43.6173 34.4972 43.6653C33.4522 43.7903 32.4262 43.9152 31.3812 44.0112L30.8632 44.0592C31.5632 46.0192 32.8862 47.6903 34.5832 48.8243L34.7172 48.4202C35.0432 47.4212 35.3882 46.4412 35.7432 45.4522C35.9062 44.9722 36.0792 44.5012 36.2612 44.0212C36.3762 43.7412 36.1362 43.4443 35.8392 43.4923ZM42.5702 49.6202C42.0142 48.7362 41.4962 47.8242 40.9782 46.9212C40.7482 46.5272 40.5272 46.1332 40.3162 45.7302C40.1632 45.4512 39.7692 45.4512 39.6162 45.7302C39.3952 46.1432 39.1652 46.5473 38.9262 46.9403C38.3992 47.8433 37.8712 48.7463 37.3152 49.6303L37.0752 50.0142C37.9672 50.2932 38.9162 50.4373 39.8942 50.4373C40.9012 50.4373 41.8792 50.2833 42.7902 49.9853L42.5702 49.6202ZM41.2762 31.3302L41.3242 31.7052C41.4582 32.7422 41.5542 33.7902 41.6502 34.8272C41.6882 35.2402 41.7272 35.6442 41.7552 36.0572C41.7742 36.3742 42.1292 36.5372 42.3882 36.3552C42.7142 36.1152 43.0502 35.8752 43.3952 35.6442C44.2582 35.0582 45.1112 34.4723 45.9932 33.9053L46.3192 33.7032C44.9482 32.4542 43.2032 31.5992 41.2762 31.3302ZM48.5912 44.0203C47.5462 43.9533 46.5102 43.8572 45.4652 43.7612C45.0142 43.7232 44.5732 43.6752 44.1232 43.6262C43.8352 43.5882 43.6052 43.8762 43.7112 44.1542C43.8742 44.5862 44.0272 45.0193 44.1812 45.4613C44.5172 46.4413 44.8622 47.4303 45.1782 48.4293L45.2832 48.7753C46.9512 47.6323 48.2462 45.9802 48.9262 44.0392L48.5912 44.0203ZM48.0832 35.8352L47.8242 36.1143C47.1052 36.8833 46.3672 37.6222 45.6282 38.3622C45.1582 38.8422 44.6502 39.3033 44.1612 39.7743C44.8132 39.9373 45.4652 40.1102 46.1172 40.3022C47.1242 40.5902 48.1212 40.8692 49.1182 41.1952L49.4732 41.3102C49.4832 41.1562 49.4832 40.9932 49.4832 40.8302C49.4832 38.9962 48.9752 37.2862 48.0832 35.8352ZM48.0832 35.8352L47.8242 36.1143C47.1052 36.8833 46.3672 37.6222 45.6282 38.3622C45.1582 38.8422 44.6502 39.3033 44.1612 39.7743C44.8132 39.9373 45.4652 40.1102 46.1172 40.3022C47.1242 40.5902 48.1212 40.8692 49.1182 41.1952L49.4732 41.3102C49.4832 41.1562 49.4832 40.9932 49.4832 40.8302C49.4832 38.9962 48.9752 37.2862 48.0832 35.8352ZM48.5912 44.0203C47.5462 43.9533 46.5102 43.8572 45.4652 43.7612C45.0142 43.7232 44.5732 43.6752 44.1232 43.6262C43.8352 43.5882 43.6052 43.8762 43.7112 44.1542C43.8742 44.5862 44.0272 45.0193 44.1812 45.4613C44.5172 46.4413 44.8622 47.4303 45.1782 48.4293L45.2832 48.7753C46.9512 47.6323 48.2462 45.9802 48.9262 44.0392L48.5912 44.0203ZM41.2762 31.3302L41.3242 31.7052C41.4582 32.7422 41.5542 33.7902 41.6502 34.8272C41.6882 35.2402 41.7272 35.6442 41.7552 36.0572C41.7742 36.3742 42.1292 36.5372 42.3882 36.3552C42.7142 36.1152 43.0502 35.8752 43.3952 35.6442C44.2582 35.0582 45.1112 34.4723 45.9932 33.9053L46.3192 33.7032C44.9482 32.4542 43.2032 31.5992 41.2762 31.3302ZM42.5702 49.6202C42.0142 48.7362 41.4962 47.8242 40.9782 46.9212C40.7482 46.5272 40.5272 46.1332 40.3162 45.7302C40.1632 45.4512 39.7692 45.4512 39.6162 45.7302C39.3952 46.1432 39.1652 46.5473 38.9262 46.9403C38.3992 47.8433 37.8712 48.7463 37.3152 49.6303L37.0752 50.0142C37.9672 50.2932 38.9162 50.4373 39.8942 50.4373C40.9012 50.4373 41.8792 50.2833 42.7902 49.9853L42.5702 49.6202ZM35.8392 43.4923C35.3882 43.5503 34.9472 43.6173 34.4972 43.6653C33.4522 43.7903 32.4262 43.9152 31.3812 44.0112L30.8632 44.0592C31.5632 46.0192 32.8862 47.6903 34.5832 48.8243L34.7172 48.4202C35.0432 47.4212 35.3882 46.4412 35.7432 45.4522C35.9062 44.9722 36.0792 44.5012 36.2612 44.0212C36.3762 43.7412 36.1362 43.4443 35.8392 43.4923ZM35.8392 43.4923C35.3882 43.5503 34.9472 43.6173 34.4972 43.6653C33.4522 43.7903 32.4262 43.9152 31.3812 44.0112L30.8632 44.0592C31.5632 46.0192 32.8862 47.6903 34.5832 48.8243L34.7172 48.4202C35.0432 47.4212 35.3882 46.4412 35.7432 45.4522C35.9062 44.9722 36.0792 44.5012 36.2612 44.0212C36.3762 43.7412 36.1362 43.4443 35.8392 43.4923ZM42.5702 49.6202C42.0142 48.7362 41.4962 47.8242 40.9782 46.9212C40.7482 46.5272 40.5272 46.1332 40.3162 45.7302C40.1632 45.4512 39.7692 45.4512 39.6162 45.7302C39.3952 46.1432 39.1652 46.5473 38.9262 46.9403C38.3992 47.8433 37.8712 48.7463 37.3152 49.6303L37.0752 50.0142C37.9672 50.2932 38.9162 50.4373 39.8942 50.4373C40.9012 50.4373 41.8792 50.2833 42.7902 49.9853L42.5702 49.6202ZM41.2762 31.3302L41.3242 31.7052C41.4582 32.7422 41.5542 33.7902 41.6502 34.8272C41.6882 35.2402 41.7272 35.6442 41.7552 36.0572C41.7742 36.3742 42.1292 36.5372 42.3882 36.3552C42.7142 36.1152 43.0502 35.8752 43.3952 35.6442C44.2582 35.0582 45.1112 34.4723 45.9932 33.9053L46.3192 33.7032C44.9482 32.4542 43.2032 31.5992 41.2762 31.3302ZM48.5912 44.0203C47.5462 43.9533 46.5102 43.8572 45.4652 43.7612C45.0142 43.7232 44.5732 43.6752 44.1232 43.6262C43.8352 43.5882 43.6052 43.8762 43.7112 44.1542C43.8742 44.5862 44.0272 45.0193 44.1812 45.4613C44.5172 46.4413 44.8622 47.4303 45.1782 48.4293L45.2832 48.7753C46.9512 47.6323 48.2462 45.9802 48.9262 44.0392L48.5912 44.0203ZM48.0832 35.8352L47.8242 36.1143C47.1052 36.8833 46.3672 37.6222 45.6282 38.3622C45.1582 38.8422 44.6502 39.3033 44.1612 39.7743C44.8132 39.9373 45.4652 40.1102 46.1172 40.3022C47.1242 40.5902 48.1212 40.8692 49.1182 41.1952L49.4732 41.3102C49.4832 41.1562 49.4832 40.9932 49.4832 40.8302C49.4832 38.9962 48.9752 37.2862 48.0832 35.8352ZM48.0832 35.8352L47.8242 36.1143C47.1052 36.8833 46.3672 37.6222 45.6282 38.3622C45.1582 38.8422 44.6502 39.3033 44.1612 39.7743C44.8132 39.9373 45.4652 40.1102 46.1172 40.3022C47.1242 40.5902 48.1212 40.8692 49.1182 41.1952L49.4732 41.3102C49.4832 41.1562 49.4832 40.9932 49.4832 40.8302C49.4832 38.9962 48.9752 37.2862 48.0832 35.8352ZM48.5912 44.0203C47.5462 43.9533 46.5102 43.8572 45.4652 43.7612C45.0142 43.7232 44.5732 43.6752 44.1232 43.6262C43.8352 43.5882 43.6052 43.8762 43.7112 44.1542C43.8742 44.5862 44.0272 45.0193 44.1812 45.4613C44.5172 46.4413 44.8622 47.4303 45.1782 48.4293L45.2832 48.7753C46.9512 47.6323 48.2462 45.9802 48.9262 44.0392L48.5912 44.0203ZM41.2762 31.3302L41.3242 31.7052C41.4582 32.7422 41.5542 33.7902 41.6502 34.8272C41.6882 35.2402 41.7272 35.6442 41.7552 36.0572C41.7742 36.3742 42.1292 36.5372 42.3882 36.3552C42.7142 36.1152 43.0502 35.8752 43.3952 35.6442C44.2582 35.0582 45.1112 34.4723 45.9932 33.9053L46.3192 33.7032C44.9482 32.4542 43.2032 31.5992 41.2762 31.3302ZM42.5702 49.6202C42.0142 48.7362 41.4962 47.8242 40.9782 46.9212C40.7482 46.5272 40.5272 46.1332 40.3162 45.7302C40.1632 45.4512 39.7692 45.4512 39.6162 45.7302C39.3952 46.1432 39.1652 46.5473 38.9262 46.9403C38.3992 47.8433 37.8712 48.7463 37.3152 49.6303L37.0752 50.0142C37.9672 50.2932 38.9162 50.4373 39.8942 50.4373C40.9012 50.4373 41.8792 50.2833 42.7902 49.9853L42.5702 49.6202ZM35.8392 43.4923C35.3882 43.5503 34.9472 43.6173 34.4972 43.6653C33.4522 43.7903 32.4262 43.9152 31.3812 44.0112L30.8632 44.0592C31.5632 46.0192 32.8862 47.6903 34.5832 48.8243L34.7172 48.4202C35.0432 47.4212 35.3882 46.4412 35.7432 45.4522C35.9062 44.9722 36.0792 44.5012 36.2612 44.0212C36.3762 43.7412 36.1362 43.4443 35.8392 43.4923ZM35.3022 39.1112C34.9762 38.8132 34.6602 38.5152 34.3432 38.1982C33.5952 37.4582 32.8572 36.7282 32.1282 35.9692L31.8212 35.6523C30.8622 37.1413 30.3062 38.9182 30.3062 40.8302C30.3062 41.0132 30.3162 41.1852 30.3162 41.3582L30.7672 41.2043C31.7552 40.8493 32.7522 40.5413 33.7392 40.2153C34.2092 40.0613 34.6792 39.9273 35.1482 39.7833C35.4462 39.6973 35.5322 39.3222 35.3022 39.1112ZM35.8392 43.4923C35.3882 43.5503 34.9472 43.6173 34.4972 43.6653C33.4522 43.7903 32.4262 43.9152 31.3812 44.0112L30.8632 44.0592C31.5632 46.0192 32.8862 47.6903 34.5832 48.8243L34.7172 48.4202C35.0432 47.4212 35.3882 46.4412 35.7432 45.4522C35.9062 44.9722 36.0792 44.5012 36.2612 44.0212C36.3762 43.7412 36.1362 43.4443 35.8392 43.4923ZM42.5702 49.6202C42.0142 48.7362 41.4962 47.8242 40.9782 46.9212C40.7482 46.5272 40.5272 46.1332 40.3162 45.7302C40.1632 45.4512 39.7692 45.4512 39.6162 45.7302C39.3952 46.1432 39.1652 46.5473 38.9262 46.9403C38.3992 47.8433 37.8712 48.7463 37.3152 49.6303L37.0752 50.0142C37.9672 50.2932 38.9162 50.4373 39.8942 50.4373C40.9012 50.4373 41.8792 50.2833 42.7902 49.9853L42.5702 49.6202ZM41.2762 31.3302L41.3242 31.7052C41.4582 32.7422 41.5542 33.7902 41.6502 34.8272C41.6882 35.2402 41.7272 35.6442 41.7552 36.0572C41.7742 36.3742 42.1292 36.5372 42.3882 36.3552C42.7142 36.1152 43.0502 35.8752 43.3952 35.6442C44.2582 35.0582 45.1112 34.4723 45.9932 33.9053L46.3192 33.7032C44.9482 32.4542 43.2032 31.5992 41.2762 31.3302ZM48.5912 44.0203C47.5462 43.9533 46.5102 43.8572 45.4652 43.7612C45.0142 43.7232 44.5732 43.6752 44.1232 43.6262C43.8352 43.5882 43.6052 43.8762 43.7112 44.1542C43.8742 44.5862 44.0272 45.0193 44.1812 45.4613C44.5172 46.4413 44.8622 47.4303 45.1782 48.4293L45.2832 48.7753C46.9512 47.6323 48.2462 45.9802 48.9262 44.0392L48.5912 44.0203ZM48.0832 35.8352L47.8242 36.1143C47.1052 36.8833 46.3672 37.6222 45.6282 38.3622C45.1582 38.8422 44.6502 39.3033 44.1612 39.7743C44.8132 39.9373 45.4652 40.1102 46.1172 40.3022C47.1242 40.5902 48.1212 40.8692 49.1182 41.1952L49.4732 41.3102C49.4832 41.1562 49.4832 40.9932 49.4832 40.8302C49.4832 38.9962 48.9752 37.2862 48.0832 35.8352ZM48.0832 35.8352L47.8242 36.1143C47.1052 36.8833 46.3672 37.6222 45.6282 38.3622C45.1582 38.8422 44.6502 39.3033 44.1612 39.7743C44.8132 39.9373 45.4652 40.1102 46.1172 40.3022C47.1242 40.5902 48.1212 40.8692 49.1182 41.1952L49.4732 41.3102C49.4832 41.1562 49.4832 40.9932 49.4832 40.8302C49.4832 38.9962 48.9752 37.2862 48.0832 35.8352ZM45.4652 43.7612C45.0142 43.7232 44.5732 43.6752 44.1232 43.6262C43.8352 43.5882 43.6052 43.8762 43.7112 44.1542C43.8742 44.5862 44.0272 45.0193 44.1812 45.4613C44.5172 46.4413 44.8622 47.4303 45.1782 48.4293L45.2832 48.7753C46.9512 47.6323 48.2462 45.9802 48.9262 44.0392L48.5902 44.0203C47.5462 43.9533 46.5112 43.8572 45.4652 43.7612ZM46.3192 33.7032C44.9482 32.4542 43.2032 31.5992 41.2762 31.3302L41.3242 31.7052C41.4582 32.7422 41.5542 33.7902 41.6502 34.8272C41.6882 35.2402 41.7272 35.6442 41.7552 36.0572C41.7742 36.3742 42.1292 36.5372 42.3882 36.3552C42.7142 36.1152 43.0502 35.8752 43.3952 35.6442C44.2582 35.0582 45.1112 34.4723 45.9932 33.9053L46.3192 33.7032ZM40.9782 46.9212C40.7482 46.5272 40.5272 46.1332 40.3162 45.7302C40.1632 45.4512 39.7692 45.4512 39.6162 45.7302C39.3952 46.1432 39.1652 46.5473 38.9262 46.9403C38.3992 47.8433 37.8712 48.7463 37.3152 49.6303L37.0752 50.0142C37.9672 50.2932 38.9162 50.4373 39.8942 50.4373C40.9012 50.4373 41.8792 50.2833 42.7902 49.9853L42.5692 49.6202C42.0142 48.7372 41.4962 47.8242 40.9782 46.9212ZM35.8392 43.4923C35.3882 43.5503 34.9472 43.6173 34.4972 43.6653C33.4522 43.7903 32.4262 43.9152 31.3812 44.0112L30.8632 44.0592C31.5632 46.0192 32.8862 47.6903 34.5832 48.8243L34.7172 48.4202C35.0432 47.4212 35.3882 46.4412 35.7432 45.4522C35.9062 44.9722 36.0792 44.5012 36.2612 44.0212C36.3762 43.7412 36.1362 43.4443 35.8392 43.4923ZM35.1492 39.7833C35.4462 39.6973 35.5332 39.3222 35.3022 39.1112C34.9762 38.8132 34.6602 38.5152 34.3432 38.1982C33.5952 37.4582 32.8572 36.7282 32.1282 35.9692L31.8212 35.6523C30.8622 37.1413 30.3062 38.9182 30.3062 40.8302C30.3062 41.0132 30.3162 41.1852 30.3162 41.3582L30.7672 41.2043C31.7552 40.8493 32.7522 40.5413 33.7392 40.2153C34.2092 40.0623 34.6792 39.9283 35.1492 39.7833ZM60.7302 44.1742L57.0672 28.0542C56.9042 27.3342 56.4252 26.7383 55.7632 26.4113L40.9402 19.2452C40.2782 18.9182 39.5112 18.9182 38.8502 19.2452L24.0272 26.4113C23.3652 26.7383 22.8862 27.3332 22.7232 28.0542L19.0602 44.1742C18.8972 44.8942 19.0702 45.6443 19.5202 46.2113L29.7792 59.1413C30.2392 59.7173 30.9392 60.0543 31.6682 60.0543H48.1212C48.8502 60.0543 49.5502 59.7183 50.0102 59.1413L60.2692 46.2113C60.7202 45.6433 60.8932 44.8942 60.7302 44.1742ZM55.6102 44.8463C55.3222 44.9133 55.0352 44.8462 54.8052 44.7022C54.3352 44.3852 53.8372 44.2123 53.3382 44.0683C53.0892 44.0013 52.8302 43.9433 52.5812 43.9053C52.3322 43.8283 52.0442 43.9052 51.7562 44.0392C51.4682 44.2022 51.2092 44.1742 50.9412 44.1542H50.9122C50.0872 46.8922 48.2752 49.2072 45.8782 50.6772V50.6873C45.9552 50.9373 46.0412 51.1773 45.9642 51.5043C45.8972 51.8213 45.8872 52.1093 46.0222 52.3403C46.1272 52.5713 46.2432 52.8113 46.3672 53.0323C46.6262 53.4833 46.9142 53.9353 47.3352 54.3103C47.7572 54.7043 47.7862 55.3573 47.4022 55.7893C47.0092 56.2123 46.3572 56.2403 45.9252 55.8563C45.7042 55.6543 45.5892 55.3853 45.5892 55.1073C45.5702 54.5403 45.4262 54.0413 45.2532 53.5413C45.1672 53.3013 45.0712 53.0613 44.9562 52.8213C44.8702 52.5713 44.6402 52.3983 44.3612 52.2353C44.0932 52.0913 43.9582 51.8893 43.8242 51.6683C42.5972 52.1203 41.2742 52.3603 39.8932 52.3603C38.5322 52.3603 37.2282 52.1203 36.0192 51.6883C35.9042 51.8993 35.7702 52.0913 35.5012 52.2363C35.2232 52.3903 34.9932 52.5723 34.9072 52.8223C34.7922 53.0533 34.6862 53.2933 34.6002 53.5333C34.4272 54.0333 34.2742 54.5323 34.2642 55.0993C34.2452 55.6753 33.7562 56.1273 33.1812 56.1083C32.6062 56.0893 32.1552 55.6093 32.1742 55.0323C32.1842 54.7343 32.3182 54.4753 32.5192 54.2923C32.9412 53.9083 33.2292 53.4663 33.4972 53.0243C33.6222 52.7933 33.7372 52.5633 33.8422 52.3233C33.9762 52.1023 33.9672 51.8043 33.9092 51.4873C33.8422 51.1893 33.9092 50.9493 33.9862 50.7283C31.5792 49.2773 29.7382 46.9722 28.8952 44.2342C28.6742 44.2532 28.4642 44.2533 28.2142 44.1283C27.9172 44.0033 27.6392 43.9263 27.3892 44.0133C27.1302 44.0613 26.8812 44.1282 26.6322 44.2052C26.1332 44.3682 25.6442 44.5513 25.1842 44.8773C24.7142 45.2133 24.0622 45.0983 23.7272 44.6273C23.4012 44.1563 23.5062 43.5033 23.9762 43.1763C24.2162 43.0033 24.5132 42.9452 24.7812 42.9932C25.3282 43.1082 25.8552 43.0703 26.3732 43.0033C26.6322 42.9743 26.8912 42.9262 27.1402 42.8592C27.3992 42.8402 27.6292 42.6483 27.8402 42.4083C28.0222 42.1973 28.2332 42.1103 28.4442 42.0333C28.4062 41.6393 28.3862 41.2363 28.3862 40.8323C28.3862 38.3733 29.1532 36.0962 30.4672 34.2232C30.2942 34.0502 30.1312 33.8772 30.0642 33.5702C29.9782 33.2632 29.8632 32.9943 29.6422 32.8503C29.4412 32.6773 29.2392 32.5232 29.0282 32.3792C28.5872 32.0912 28.1362 31.8223 27.5992 31.6593C27.0432 31.5053 26.7172 30.9192 26.8802 30.3722C27.0432 29.8152 27.6182 29.4983 28.1742 29.6523C28.4522 29.7383 28.6822 29.9312 28.8072 30.1712C29.0662 30.6712 29.4212 31.0642 29.7952 31.4292C29.9772 31.6122 30.1792 31.7842 30.3802 31.9382C30.5622 32.1302 30.8502 32.1883 31.1662 32.2073C31.5022 32.2173 31.7122 32.3612 31.9332 32.5052L31.9432 32.5152C33.7462 30.7672 36.1232 29.6143 38.7602 29.3643C38.7892 29.1053 38.8082 28.8453 39.0092 28.5863C39.2012 28.3273 39.3352 28.0672 39.3062 27.8082C39.3162 27.5492 39.3062 27.2893 39.2872 27.0203C39.2292 26.5013 39.1532 25.9823 38.9322 25.4643C38.7022 24.9363 38.9512 24.3213 39.4792 24.0903C40.0062 23.8693 40.6202 24.1092 40.8502 24.6382C40.9652 24.9172 40.9552 25.2143 40.8502 25.4643C40.6292 25.9833 40.5532 26.5013 40.4952 27.0203C40.4762 27.2893 40.4662 27.5482 40.4762 27.8082C40.4472 28.0672 40.5812 28.3273 40.7732 28.5863C40.9742 28.8453 40.9942 29.1053 41.0222 29.3643C43.7262 29.6233 46.1612 30.8242 47.9832 32.6493C48.2042 32.5053 48.4142 32.3512 48.7502 32.3422C49.0662 32.3232 49.3542 32.2652 49.5362 32.0732C49.7372 31.9102 49.9292 31.7372 50.1212 31.5542C50.4852 31.1892 50.8402 30.7952 51.0992 30.2962C51.3582 29.7772 51.9912 29.5763 52.4992 29.8453C53.0172 30.1043 53.2182 30.7383 52.9502 31.2483C52.8162 31.5173 52.5862 31.7002 52.3172 31.7762C51.7802 31.9302 51.3292 32.2083 50.8982 32.4963C50.6872 32.6503 50.4762 32.8032 50.2842 32.9762C50.0632 33.1202 49.9482 33.3892 49.8622 33.6962C49.7952 34.0232 49.6132 34.2052 49.4312 34.3972C50.6772 36.2322 51.3972 38.4513 51.3972 40.8333C51.3972 41.1983 51.3782 41.5633 51.3492 41.9193H51.3592C51.6082 41.9963 51.8582 42.0633 52.0782 42.3223C52.2992 42.5533 52.5292 42.7253 52.7882 42.7453C53.0472 42.8033 53.2962 42.8413 53.5552 42.8703C54.0822 42.9183 54.6002 42.9373 55.1562 42.8123C55.7222 42.6873 56.2782 43.0432 56.4022 43.6092C56.5302 44.1642 56.1752 44.7213 55.6102 44.8463ZM47.8242 36.1143C47.1052 36.8833 46.3672 37.6222 45.6282 38.3622C45.1582 38.8422 44.6502 39.3033 44.1612 39.7743C44.8132 39.9373 45.4652 40.1102 46.1172 40.3022C47.1242 40.5902 48.1212 40.8692 49.1182 41.1952L49.4732 41.3102C49.4832 41.1562 49.4832 40.9932 49.4832 40.8302C49.4832 38.9952 48.9752 37.2852 48.0832 35.8352L47.8242 36.1143ZM45.4652 43.7612C45.0142 43.7232 44.5732 43.6752 44.1232 43.6262C43.8352 43.5882 43.6052 43.8762 43.7112 44.1542C43.8742 44.5862 44.0272 45.0193 44.1812 45.4613C44.5172 46.4413 44.8622 47.4303 45.1782 48.4293L45.2832 48.7753C46.9512 47.6323 48.2462 45.9802 48.9262 44.0392L48.5902 44.0203C47.5462 43.9533 46.5112 43.8572 45.4652 43.7612ZM46.3192 33.7032C44.9482 32.4542 43.2032 31.5992 41.2762 31.3302L41.3242 31.7052C41.4582 32.7422 41.5542 33.7902 41.6502 34.8272C41.6882 35.2402 41.7272 35.6442 41.7552 36.0572C41.7742 36.3742 42.1292 36.5372 42.3882 36.3552C42.7142 36.1152 43.0502 35.8752 43.3952 35.6442C44.2582 35.0582 45.1112 34.4723 45.9932 33.9053L46.3192 33.7032ZM40.9782 46.9212C40.7482 46.5272 40.5272 46.1332 40.3162 45.7302C40.1632 45.4512 39.7692 45.4512 39.6162 45.7302C39.3952 46.1432 39.1652 46.5473 38.9262 46.9403C38.3992 47.8433 37.8712 48.7463 37.3152 49.6303L37.0752 50.0142C37.9672 50.2932 38.9162 50.4373 39.8942 50.4373C40.9012 50.4373 41.8792 50.2833 42.7902 49.9853L42.5692 49.6202C42.0142 48.7372 41.4962 47.8242 40.9782 46.9212ZM38.1402 34.8272C38.2362 33.7892 38.3322 32.7422 38.4662 31.7052L38.5142 31.3302C36.6642 31.5892 34.9862 32.3872 33.6432 33.5592L33.9402 33.7423C34.8322 34.2993 35.6952 34.8853 36.5582 35.4713C37.0572 35.7883 37.5262 36.1432 37.9962 36.4802C38.0352 35.9312 38.0832 35.3742 38.1402 34.8272ZM35.8392 43.4923C35.3882 43.5503 34.9472 43.6173 34.4972 43.6653C33.4522 43.7903 32.4262 43.9152 31.3812 44.0112L30.8632 44.0592C31.5632 46.0192 32.8862 47.6903 34.5832 48.8243L34.7172 48.4202C35.0432 47.4212 35.3882 46.4412 35.7432 45.4522C35.9062 44.9722 36.0792 44.5012 36.2612 44.0212C36.3762 43.7412 36.1362 43.4443 35.8392 43.4923ZM35.1492 39.7833C35.4462 39.6973 35.5332 39.3222 35.3022 39.1112C34.9762 38.8132 34.6602 38.5152 34.3432 38.1982C33.5952 37.4582 32.8572 36.7282 32.1282 35.9692L31.8212 35.6523C30.8622 37.1413 30.3062 38.9182 30.3062 40.8302C30.3062 41.0132 30.3162 41.1852 30.3162 41.3582L30.7672 41.2043C31.7552 40.8493 32.7522 40.5413 33.7392 40.2153C34.2092 40.0623 34.6792 39.9283 35.1492 39.7833ZM35.3022 39.1112C34.9762 38.8132 34.6602 38.5152 34.3432 38.1982C33.5952 37.4582 32.8572 36.7282 32.1282 35.9692L31.8212 35.6523C30.8622 37.1413 30.3062 38.9182 30.3062 40.8302C30.3062 41.0132 30.3162 41.1852 30.3162 41.3582L30.7672 41.2043C31.7552 40.8493 32.7522 40.5413 33.7392 40.2153C34.2092 40.0613 34.6792 39.9273 35.1482 39.7833C35.4462 39.6973 35.5322 39.3222 35.3022 39.1112ZM35.8392 43.4923C35.3882 43.5503 34.9472 43.6173 34.4972 43.6653C33.4522 43.7903 32.4262 43.9152 31.3812 44.0112L30.8632 44.0592C31.5632 46.0192 32.8862 47.6903 34.5832 48.8243L34.7172 48.4202C35.0432 47.4212 35.3882 46.4412 35.7432 45.4522C35.9062 44.9722 36.0792 44.5012 36.2612 44.0212C36.3762 43.7412 36.1362 43.4443 35.8392 43.4923ZM42.5702 49.6202C42.0142 48.7362 41.4962 47.8242 40.9782 46.9212C40.7482 46.5272 40.5272 46.1332 40.3162 45.7302C40.1632 45.4512 39.7692 45.4512 39.6162 45.7302C39.3952 46.1432 39.1652 46.5473 38.9262 46.9403C38.3992 47.8433 37.8712 48.7463 37.3152 49.6303L37.0752 50.0142C37.9672 50.2932 38.9162 50.4373 39.8942 50.4373C40.9012 50.4373 41.8792 50.2833 42.7902 49.9853L42.5702 49.6202ZM41.2762 31.3302L41.3242 31.7052C41.4582 32.7422 41.5542 33.7902 41.6502 34.8272C41.6882 35.2402 41.7272 35.6442 41.7552 36.0572C41.7742 36.3742 42.1292 36.5372 42.3882 36.3552C42.7142 36.1152 43.0502 35.8752 43.3952 35.6442C44.2582 35.0582 45.1112 34.4723 45.9932 33.9053L46.3192 33.7032C44.9482 32.4542 43.2032 31.5992 41.2762 31.3302ZM48.5912 44.0203C47.5462 43.9533 46.5102 43.8572 45.4652 43.7612C45.0142 43.7232 44.5732 43.6752 44.1232 43.6262C43.8352 43.5882 43.6052 43.8762 43.7112 44.1542C43.8742 44.5862 44.0272 45.0193 44.1812 45.4613C44.5172 46.4413 44.8622 47.4303 45.1782 48.4293L45.2832 48.7753C46.9512 47.6323 48.2462 45.9802 48.9262 44.0392L48.5912 44.0203ZM48.0832 35.8352L47.8242 36.1143C47.1052 36.8833 46.3672 37.6222 45.6282 38.3622C45.1582 38.8422 44.6502 39.3033 44.1612 39.7743C44.8132 39.9373 45.4652 40.1102 46.1172 40.3022C47.1242 40.5902 48.1212 40.8692 49.1182 41.1952L49.4732 41.3102C49.4832 41.1562 49.4832 40.9932 49.4832 40.8302C49.4832 38.9962 48.9752 37.2862 48.0832 35.8352ZM48.0832 35.8352L47.8242 36.1143C47.1052 36.8833 46.3672 37.6222 45.6282 38.3622C45.1582 38.8422 44.6502 39.3033 44.1612 39.7743C44.8132 39.9373 45.4652 40.1102 46.1172 40.3022C47.1242 40.5902 48.1212 40.8692 49.1182 41.1952L49.4732 41.3102C49.4832 41.1562 49.4832 40.9932 49.4832 40.8302C49.4832 38.9962 48.9752 37.2862 48.0832 35.8352ZM48.5912 44.0203C47.5462 43.9533 46.5102 43.8572 45.4652 43.7612C45.0142 43.7232 44.5732 43.6752 44.1232 43.6262C43.8352 43.5882 43.6052 43.8762 43.7112 44.1542C43.8742 44.5862 44.0272 45.0193 44.1812 45.4613C44.5172 46.4413 44.8622 47.4303 45.1782 48.4293L45.2832 48.7753C46.9512 47.6323 48.2462 45.9802 48.9262 44.0392L48.5912 44.0203ZM41.2762 31.3302L41.3242 31.7052C41.4582 32.7422 41.5542 33.7902 41.6502 34.8272C41.6882 35.2402 41.7272 35.6442 41.7552 36.0572C41.7742 36.3742 42.1292 36.5372 42.3882 36.3552C42.7142 36.1152 43.0502 35.8752 43.3952 35.6442C44.2582 35.0582 45.1112 34.4723 45.9932 33.9053L46.3192 33.7032C44.9482 32.4542 43.2032 31.5992 41.2762 31.3302ZM42.5702 49.6202C42.0142 48.7362 41.4962 47.8242 40.9782 46.9212C40.7482 46.5272 40.5272 46.1332 40.3162 45.7302C40.1632 45.4512 39.7692 45.4512 39.6162 45.7302C39.3952 46.1432 39.1652 46.5473 38.9262 46.9403C38.3992 47.8433 37.8712 48.7463 37.3152 49.6303L37.0752 50.0142C37.9672 50.2932 38.9162 50.4373 39.8942 50.4373C40.9012 50.4373 41.8792 50.2833 42.7902 49.9853L42.5702 49.6202ZM35.8392 43.4923C35.3882 43.5503 34.9472 43.6173 34.4972 43.6653C33.4522 43.7903 32.4262 43.9152 31.3812 44.0112L30.8632 44.0592C31.5632 46.0192 32.8862 47.6903 34.5832 48.8243L34.7172 48.4202C35.0432 47.4212 35.3882 46.4412 35.7432 45.4522C35.9062 44.9722 36.0792 44.5012 36.2612 44.0212C36.3762 43.7412 36.1362 43.4443 35.8392 43.4923ZM35.3022 39.1112C34.9762 38.8132 34.6602 38.5152 34.3432 38.1982C33.5952 37.4582 32.8572 36.7282 32.1282 35.9692L31.8212 35.6523C30.8622 37.1413 30.3062 38.9182 30.3062 40.8302C30.3062 41.0132 30.3162 41.1852 30.3162 41.3582L30.7672 41.2043C31.7552 40.8493 32.7522 40.5413 33.7392 40.2153C34.2092 40.0613 34.6792 39.9273 35.1482 39.7833C35.4462 39.6973 35.5322 39.3222 35.3022 39.1112ZM35.8392 43.4923C35.3882 43.5503 34.9472 43.6173 34.4972 43.6653C33.4522 43.7903 32.4262 43.9152 31.3812 44.0112L30.8632 44.0592C31.5632 46.0192 32.8862 47.6903 34.5832 48.8243L34.7172 48.4202C35.0432 47.4212 35.3882 46.4412 35.7432 45.4522C35.9062 44.9722 36.0792 44.5012 36.2612 44.0212C36.3762 43.7412 36.1362 43.4443 35.8392 43.4923ZM42.5702 49.6202C42.0142 48.7362 41.4962 47.8242 40.9782 46.9212C40.7482 46.5272 40.5272 46.1332 40.3162 45.7302C40.1632 45.4512 39.7692 45.4512 39.6162 45.7302C39.3952 46.1432 39.1652 46.5473 38.9262 46.9403C38.3992 47.8433 37.8712 48.7463 37.3152 49.6303L37.0752 50.0142C37.9672 50.2932 38.9162 50.4373 39.8942 50.4373C40.9012 50.4373 41.8792 50.2833 42.7902 49.9853L42.5702 49.6202ZM41.2762 31.3302L41.3242 31.7052C41.4582 32.7422 41.5542 33.7902 41.6502 34.8272C41.6882 35.2402 41.7272 35.6442 41.7552 36.0572C41.7742 36.3742 42.1292 36.5372 42.3882 36.3552C42.7142 36.1152 43.0502 35.8752 43.3952 35.6442C44.2582 35.0582 45.1112 34.4723 45.9932 33.9053L46.3192 33.7032C44.9482 32.4542 43.2032 31.5992 41.2762 31.3302ZM48.5912 44.0203C47.5462 43.9533 46.5102 43.8572 45.4652 43.7612C45.0142 43.7232 44.5732 43.6752 44.1232 43.6262C43.8352 43.5882 43.6052 43.8762 43.7112 44.1542C43.8742 44.5862 44.0272 45.0193 44.1812 45.4613C44.5172 46.4413 44.8622 47.4303 45.1782 48.4293L45.2832 48.7753C46.9512 47.6323 48.2462 45.9802 48.9262 44.0392L48.5912 44.0203ZM48.0832 35.8352L47.8242 36.1143C47.1052 36.8833 46.3672 37.6222 45.6282 38.3622C45.1582 38.8422 44.6502 39.3033 44.1612 39.7743C44.8132 39.9373 45.4652 40.1102 46.1172 40.3022C47.1242 40.5902 48.1212 40.8692 49.1182 41.1952L49.4732 41.3102C49.4832 41.1562 49.4832 40.9932 49.4832 40.8302C49.4832 38.9962 48.9752 37.2862 48.0832 35.8352ZM48.0832 35.8352L47.8242 36.1143C47.1052 36.8833 46.3672 37.6222 45.6282 38.3622C45.1582 38.8422 44.6502 39.3033 44.1612 39.7743C44.8132 39.9373 45.4652 40.1102 46.1172 40.3022C47.1242 40.5902 48.1212 40.8692 49.1182 41.1952L49.4732 41.3102C49.4832 41.1562 49.4832 40.9932 49.4832 40.8302C49.4832 38.9962 48.9752 37.2862 48.0832 35.8352ZM48.5912 44.0203C47.5462 43.9533 46.5102 43.8572 45.4652 43.7612C45.0142 43.7232 44.5732 43.6752 44.1232 43.6262C43.8352 43.5882 43.6052 43.8762 43.7112 44.1542C43.8742 44.5862 44.0272 45.0193 44.1812 45.4613C44.5172 46.4413 44.8622 47.4303 45.1782 48.4293L45.2832 48.7753C46.9512 47.6323 48.2462 45.9802 48.9262 44.0392L48.5912 44.0203ZM41.2762 31.3302L41.3242 31.7052C41.4582 32.7422 41.5542 33.7902 41.6502 34.8272C41.6882 35.2402 41.7272 35.6442 41.7552 36.0572C41.7742 36.3742 42.1292 36.5372 42.3882 36.3552C42.7142 36.1152 43.0502 35.8752 43.3952 35.6442C44.2582 35.0582 45.1112 34.4723 45.9932 33.9053L46.3192 33.7032C44.9482 32.4542 43.2032 31.5992 41.2762 31.3302ZM42.5702 49.6202C42.0142 48.7362 41.4962 47.8242 40.9782 46.9212C40.7482 46.5272 40.5272 46.1332 40.3162 45.7302C40.1632 45.4512 39.7692 45.4512 39.6162 45.7302C39.3952 46.1432 39.1652 46.5473 38.9262 46.9403C38.3992 47.8433 37.8712 48.7463 37.3152 49.6303L37.0752 50.0142C37.9672 50.2932 38.9162 50.4373 39.8942 50.4373C40.9012 50.4373 41.8792 50.2833 42.7902 49.9853L42.5702 49.6202ZM35.8392 43.4923C35.3882 43.5503 34.9472 43.6173 34.4972 43.6653C33.4522 43.7903 32.4262 43.9152 31.3812 44.0112L30.8632 44.0592C31.5632 46.0192 32.8862 47.6903 34.5832 48.8243L34.7172 48.4202C35.0432 47.4212 35.3882 46.4412 35.7432 45.4522C35.9062 44.9722 36.0792 44.5012 36.2612 44.0212C36.3762 43.7412 36.1362 43.4443 35.8392 43.4923ZM42.5702 49.6202C42.0142 48.7362 41.4962 47.8242 40.9782 46.9212C40.7482 46.5272 40.5272 46.1332 40.3162 45.7302C40.1632 45.4512 39.7692 45.4512 39.6162 45.7302C39.3952 46.1432 39.1652 46.5473 38.9262 46.9403C38.3992 47.8433 37.8712 48.7463 37.3152 49.6303L37.0752 50.0142C37.9672 50.2932 38.9162 50.4373 39.8942 50.4373C40.9012 50.4373 41.8792 50.2833 42.7902 49.9853L42.5702 49.6202ZM41.2762 31.3302L41.3242 31.7052C41.4582 32.7422 41.5542 33.7902 41.6502 34.8272C41.6882 35.2402 41.7272 35.6442 41.7552 36.0572C41.7742 36.3742 42.1292 36.5372 42.3882 36.3552C42.7142 36.1152 43.0502 35.8752 43.3952 35.6442C44.2582 35.0582 45.1112 34.4723 45.9932 33.9053L46.3192 33.7032C44.9482 32.4542 43.2032 31.5992 41.2762 31.3302ZM48.5912 44.0203C47.5462 43.9533 46.5102 43.8572 45.4652 43.7612C45.0142 43.7232 44.5732 43.6752 44.1232 43.6262C43.8352 43.5882 43.6052 43.8762 43.7112 44.1542C43.8742 44.5862 44.0272 45.0193 44.1812 45.4613C44.5172 46.4413 44.8622 47.4303 45.1782 48.4293L45.2832 48.7753C46.9512 47.6323 48.2462 45.9802 48.9262 44.0392L48.5912 44.0203ZM48.0832 35.8352L47.8242 36.1143C47.1052 36.8833 46.3672 37.6222 45.6282 38.3622C45.1582 38.8422 44.6502 39.3033 44.1612 39.7743C44.8132 39.9373 45.4652 40.1102 46.1172 40.3022C47.1242 40.5902 48.1212 40.8692 49.1182 41.1952L49.4732 41.3102C49.4832 41.1562 49.4832 40.9932 49.4832 40.8302C49.4832 38.9962 48.9752 37.2862 48.0832 35.8352ZM48.0832 35.8352L47.8242 36.1143C47.1052 36.8833 46.3672 37.6222 45.6282 38.3622C45.1582 38.8422 44.6502 39.3033 44.1612 39.7743C44.8132 39.9373 45.4652 40.1102 46.1172 40.3022C47.1242 40.5902 48.1212 40.8692 49.1182 41.1952L49.4732 41.3102C49.4832 41.1562 49.4832 40.9932 49.4832 40.8302C49.4832 38.9962 48.9752 37.2862 48.0832 35.8352ZM48.5912 44.0203C47.5462 43.9533 46.5102 43.8572 45.4652 43.7612C45.0142 43.7232 44.5732 43.6752 44.1232 43.6262C43.8352 43.5882 43.6052 43.8762 43.7112 44.1542C43.8742 44.5862 44.0272 45.0193 44.1812 45.4613C44.5172 46.4413 44.8622 47.4303 45.1782 48.4293L45.2832 48.7753C46.9512 47.6323 48.2462 45.9802 48.9262 44.0392L48.5912 44.0203ZM41.2762 31.3302L41.3242 31.7052C41.4582 32.7422 41.5542 33.7902 41.6502 34.8272C41.6882 35.2402 41.7272 35.6442 41.7552 36.0572C41.7742 36.3742 42.1292 36.5372 42.3882 36.3552C42.7142 36.1152 43.0502 35.8752 43.3952 35.6442C44.2582 35.0582 45.1112 34.4723 45.9932 33.9053L46.3192 33.7032C44.9482 32.4542 43.2032 31.5992 41.2762 31.3302ZM42.5702 49.6202C42.0142 48.7362 41.4962 47.8242 40.9782 46.9212C40.7482 46.5272 40.5272 46.1332 40.3162 45.7302C40.1632 45.4512 39.7692 45.4512 39.6162 45.7302C39.3952 46.1432 39.1652 46.5473 38.9262 46.9403C38.3992 47.8433 37.8712 48.7463 37.3152 49.6303L37.0752 50.0142C37.9672 50.2932 38.9162 50.4373 39.8942 50.4373C40.9012 50.4373 41.8792 50.2833 42.7902 49.9853L42.5702 49.6202ZM42.5702 49.6202C42.0142 48.7362 41.4962 47.8242 40.9782 46.9212C40.7482 46.5272 40.5272 46.1332 40.3162 45.7302C40.1632 45.4512 39.7692 45.4512 39.6162 45.7302C39.3952 46.1432 39.1652 46.5473 38.9262 46.9403C38.3992 47.8433 37.8712 48.7463 37.3152 49.6303L37.0752 50.0142C37.9672 50.2932 38.9162 50.4373 39.8942 50.4373C40.9012 50.4373 41.8792 50.2833 42.7902 49.9853L42.5702 49.6202ZM41.2762 31.3302L41.3242 31.7052C41.4582 32.7422 41.5542 33.7902 41.6502 34.8272C41.6882 35.2402 41.7272 35.6442 41.7552 36.0572C41.7742 36.3742 42.1292 36.5372 42.3882 36.3552C42.7142 36.1152 43.0502 35.8752 43.3952 35.6442C44.2582 35.0582 45.1112 34.4723 45.9932 33.9053L46.3192 33.7032C44.9482 32.4542 43.2032 31.5992 41.2762 31.3302ZM48.5912 44.0203C47.5462 43.9533 46.5102 43.8572 45.4652 43.7612C45.0142 43.7232 44.5732 43.6752 44.1232 43.6262C43.8352 43.5882 43.6052 43.8762 43.7112 44.1542C43.8742 44.5862 44.0272 45.0193 44.1812 45.4613C44.5172 46.4413 44.8622 47.4303 45.1782 48.4293L45.2832 48.7753C46.9512 47.6323 48.2462 45.9802 48.9262 44.0392L48.5912 44.0203ZM48.0832 35.8352L47.8242 36.1143C47.1052 36.8833 46.3672 37.6222 45.6282 38.3622C45.1582 38.8422 44.6502 39.3033 44.1612 39.7743C44.8132 39.9373 45.4652 40.1102 46.1172 40.3022C47.1242 40.5902 48.1212 40.8692 49.1182 41.1952L49.4732 41.3102C49.4832 41.1562 49.4832 40.9932 49.4832 40.8302C49.4832 38.9962 48.9752 37.2862 48.0832 35.8352ZM48.0832 35.8352L47.8242 36.1143C47.1052 36.8833 46.3672 37.6222 45.6282 38.3622C45.1582 38.8422 44.6502 39.3033 44.1612 39.7743C44.8132 39.9373 45.4652 40.1102 46.1172 40.3022C47.1242 40.5902 48.1212 40.8692 49.1182 41.1952L49.4732 41.3102C49.4832 41.1562 49.4832 40.9932 49.4832 40.8302C49.4832 38.9962 48.9752 37.2862 48.0832 35.8352ZM48.5912 44.0203C47.5462 43.9533 46.5102 43.8572 45.4652 43.7612C45.0142 43.7232 44.5732 43.6752 44.1232 43.6262C43.8352 43.5882 43.6052 43.8762 43.7112 44.1542C43.8742 44.5862 44.0272 45.0193 44.1812 45.4613C44.5172 46.4413 44.8622 47.4303 45.1782 48.4293L45.2832 48.7753C46.9512 47.6323 48.2462 45.9802 48.9262 44.0392L48.5912 44.0203ZM41.2762 31.3302L41.3242 31.7052C41.4582 32.7422 41.5542 33.7902 41.6502 34.8272C41.6882 35.2402 41.7272 35.6442 41.7552 36.0572C41.7742 36.3742 42.1292 36.5372 42.3882 36.3552C42.7142 36.1152 43.0502 35.8752 43.3952 35.6442C44.2582 35.0582 45.1112 34.4723 45.9932 33.9053L46.3192 33.7032C44.9482 32.4542 43.2032 31.5992 41.2762 31.3302ZM42.5702 49.6202C42.0142 48.7362 41.4962 47.8242 40.9782 46.9212C40.7482 46.5272 40.5272 46.1332 40.3162 45.7302C40.1632 45.4512 39.7692 45.4512 39.6162 45.7302C39.3952 46.1432 39.1652 46.5473 38.9262 46.9403C38.3992 47.8433 37.8712 48.7463 37.3152 49.6303L37.0752 50.0142C37.9672 50.2932 38.9162 50.4373 39.8942 50.4373C40.9012 50.4373 41.8792 50.2833 42.7902 49.9853L42.5702 49.6202ZM41.2762 31.3302L41.3242 31.7052C41.4582 32.7422 41.5542 33.7902 41.6502 34.8272C41.6882 35.2402 41.7272 35.6442 41.7552 36.0572C41.7742 36.3742 42.1292 36.5372 42.3882 36.3552C42.7142 36.1152 43.0502 35.8752 43.3952 35.6442C44.2582 35.0582 45.1112 34.4723 45.9932 33.9053L46.3192 33.7032C44.9482 32.4542 43.2032 31.5992 41.2762 31.3302ZM48.5912 44.0203C47.5462 43.9533 46.5102 43.8572 45.4652 43.7612C45.0142 43.7232 44.5732 43.6752 44.1232 43.6262C43.8352 43.5882 43.6052 43.8762 43.7112 44.1542C43.8742 44.5862 44.0272 45.0193 44.1812 45.4613C44.5172 46.4413 44.8622 47.4303 45.1782 48.4293L45.2832 48.7753C46.9512 47.6323 48.2462 45.9802 48.9262 44.0392L48.5912 44.0203ZM48.0832 35.8352L47.8242 36.1143C47.1052 36.8833 46.3672 37.6222 45.6282 38.3622C45.1582 38.8422 44.6502 39.3033 44.1612 39.7743C44.8132 39.9373 45.4652 40.1102 46.1172 40.3022C47.1242 40.5902 48.1212 40.8692 49.1182 41.1952L49.4732 41.3102C49.4832 41.1562 49.4832 40.9932 49.4832 40.8302C49.4832 38.9962 48.9752 37.2862 48.0832 35.8352ZM48.0832 35.8352L47.8242 36.1143C47.1052 36.8833 46.3672 37.6222 45.6282 38.3622C45.1582 38.8422 44.6502 39.3033 44.1612 39.7743C44.8132 39.9373 45.4652 40.1102 46.1172 40.3022C47.1242 40.5902 48.1212 40.8692 49.1182 41.1952L49.4732 41.3102C49.4832 41.1562 49.4832 40.9932 49.4832 40.8302C49.4832 38.9962 48.9752 37.2862 48.0832 35.8352ZM48.5912 44.0203C47.5462 43.9533 46.5102 43.8572 45.4652 43.7612C45.0142 43.7232 44.5732 43.6752 44.1232 43.6262C43.8352 43.5882 43.6052 43.8762 43.7112 44.1542C43.8742 44.5862 44.0272 45.0193 44.1812 45.4613C44.5172 46.4413 44.8622 47.4303 45.1782 48.4293L45.2832 48.7753C46.9512 47.6323 48.2462 45.9802 48.9262 44.0392L48.5912 44.0203ZM41.2762 31.3302L41.3242 31.7052C41.4582 32.7422 41.5542 33.7902 41.6502 34.8272C41.6882 35.2402 41.7272 35.6442 41.7552 36.0572C41.7742 36.3742 42.1292 36.5372 42.3882 36.3552C42.7142 36.1152 43.0502 35.8752 43.3952 35.6442C44.2582 35.0582 45.1112 34.4723 45.9932 33.9053L46.3192 33.7032C44.9482 32.4542 43.2032 31.5992 41.2762 31.3302ZM41.2762 31.3302L41.3242 31.7052C41.4582 32.7422 41.5542 33.7902 41.6502 34.8272C41.6882 35.2402 41.7272 35.6442 41.7552 36.0572C41.7742 36.3742 42.1292 36.5372 42.3882 36.3552C42.7142 36.1152 43.0502 35.8752 43.3952 35.6442C44.2582 35.0582 45.1112 34.4723 45.9932 33.9053L46.3192 33.7032C44.9482 32.4542 43.2032 31.5992 41.2762 31.3302ZM48.0832 35.8352L47.8242 36.1143C47.1052 36.8833 46.3672 37.6222 45.6282 38.3622C45.1582 38.8422 44.6502 39.3033 44.1612 39.7743C44.8132 39.9373 45.4652 40.1102 46.1172 40.3022C47.1242 40.5902 48.1212 40.8692 49.1182 41.1952L49.4732 41.3102C49.4832 41.1562 49.4832 40.9932 49.4832 40.8302C49.4832 38.9962 48.9752 37.2862 48.0832 35.8352ZM48.0832 35.8352L47.8242 36.1143C47.1052 36.8833 46.3672 37.6222 45.6282 38.3622C45.1582 38.8422 44.6502 39.3033 44.1612 39.7743C44.8132 39.9373 45.4652 40.1102 46.1172 40.3022C47.1242 40.5902 48.1212 40.8692 49.1182 41.1952L49.4732 41.3102C49.4832 41.1562 49.4832 40.9932 49.4832 40.8302C49.4832 38.9962 48.9752 37.2862 48.0832 35.8352ZM41.2762 31.3302L41.3242 31.7052C41.4582 32.7422 41.5542 33.7902 41.6502 34.8272C41.6882 35.2402 41.7272 35.6442 41.7552 36.0572C41.7742 36.3742 42.1292 36.5372 42.3882 36.3552C42.7142 36.1152 43.0502 35.8752 43.3952 35.6442C44.2582 35.0582 45.1112 34.4723 45.9932 33.9053L46.3192 33.7032C44.9482 32.4542 43.2032 31.5992 41.2762 31.3302ZM41.2762 31.3302L41.3242 31.7052C41.4582 32.7422 41.5542 33.7902 41.6502 34.8272C41.6882 35.2402 41.7272 35.6442 41.7552 36.0572C41.7742 36.3742 42.1292 36.5372 42.3882 36.3552C42.7142 36.1152 43.0502 35.8752 43.3952 35.6442C44.2582 35.0582 45.1112 34.4723 45.9932 33.9053L46.3192 33.7032C44.9482 32.4542 43.2032 31.5992 41.2762 31.3302ZM48.0832 35.8352L47.8242 36.1143C47.1052 36.8833 46.3672 37.6222 45.6282 38.3622C45.1582 38.8422 44.6502 39.3033 44.1612 39.7743C44.8132 39.9373 45.4652 40.1102 46.1172 40.3022C47.1242 40.5902 48.1212 40.8692 49.1182 41.1952L49.4732 41.3102C49.4832 41.1562 49.4832 40.9932 49.4832 40.8302C49.4832 38.9962 48.9752 37.2862 48.0832 35.8352ZM48.0832 35.8352L47.8242 36.1143C47.1052 36.8833 46.3672 37.6222 45.6282 38.3622C45.1582 38.8422 44.6502 39.3033 44.1612 39.7743C44.8132 39.9373 45.4652 40.1102 46.1172 40.3022C47.1242 40.5902 48.1212 40.8692 49.1182 41.1952L49.4732 41.3102C49.4832 41.1562 49.4832 40.9932 49.4832 40.8302C49.4832 38.9962 48.9752 37.2862 48.0832 35.8352ZM41.2762 31.3302L41.3242 31.7052C41.4582 32.7422 41.5542 33.7902 41.6502 34.8272C41.6882 35.2402 41.7272 35.6442 41.7552 36.0572C41.7742 36.3742 42.1292 36.5372 42.3882 36.3552C42.7142 36.1152 43.0502 35.8752 43.3952 35.6442C44.2582 35.0582 45.1112 34.4723 45.9932 33.9053L46.3192 33.7032C44.9482 32.4542 43.2032 31.5992 41.2762 31.3302ZM41.2762 31.3302L41.3242 31.7052C41.4582 32.7422 41.5542 33.7902 41.6502 34.8272C41.6882 35.2402 41.7272 35.6442 41.7552 36.0572C41.7742 36.3742 42.1292 36.5372 42.3882 36.3552C42.7142 36.1152 43.0502 35.8752 43.3952 35.6442C44.2582 35.0582 45.1112 34.4723 45.9932 33.9053L46.3192 33.7032C44.9482 32.4542 43.2032 31.5992 41.2762 31.3302ZM41.2762 31.3302L41.3242 31.7052C41.4582 32.7422 41.5542 33.7902 41.6502 34.8272C41.6882 35.2402 41.7272 35.6442 41.7552 36.0572C41.7742 36.3742 42.1292 36.5372 42.3882 36.3552C42.7142 36.1152 43.0502 35.8752 43.3952 35.6442C44.2582 35.0582 45.1112 34.4723 45.9932 33.9053L46.3192 33.7032C44.9482 32.4542 43.2032 31.5992 41.2762 31.3302Z" fill="#0277BD"/>
</svg>
