<svg width="140" height="70" viewBox="0 0 140 70" fill="none" xmlns="http://www.w3.org/2000/svg">
<path d="M75.2792 40.9615C75.2792 40.9615 72.9232 37.2088 72.25 36.6283C72.425 36.6283 72.872 36.6364 73.2597 36.6688C73.7444 36.7093 74.7541 35.4134 75.6023 34.644C76.3293 34.158 76.8948 25.6941 75.2792 21.4419C76.814 21.8873 78.47 28.2859 78.47 32.8216C80.2148 33.0808 83.1013 31.9307 84.3264 31.3232C85.2957 31.1477 87.3556 30.5618 87.8403 29.6223C88.4461 28.4479 87.921 23.9527 87.8403 23.5477C87.7595 23.1428 83.8417 19.903 80.6106 18.3641C82.5816 18.1697 86.0901 20.038 87.5979 20.9964C87.6652 20.3889 87.5414 18.2183 86.5074 14.3954C88.6723 16.1448 89.9136 20.9019 90.2636 23.0618L92.1215 24.7626C91.9196 19.93 91.1926 9.21171 89.9001 5C91.5965 6.13392 94.141 15.8533 94.6257 25.3701C95.8373 18.1616 94.9892 13.2614 92.5658 6.78188C97.8972 8.92823 97.4125 26.9495 96.2412 29.6223C95.0699 32.2951 90.9502 33.672 85.8208 34.239C80.6914 34.806 75.8446 39.1392 75.6023 39.9491C75.6023 40.6619 75.3869 40.921 75.2792 40.9615Z" fill="white"/>
<path d="M63.9063 40.9615C63.9063 40.9615 66.2825 37.2088 66.9614 36.6283C66.7849 36.6283 66.3341 36.6364 65.9431 36.6688C65.4542 36.7093 64.4359 35.4134 63.5805 34.644C62.8472 34.158 62.277 25.6941 63.9063 21.4419C62.3584 21.8873 60.6883 28.2859 60.6883 32.8216C58.9286 33.0808 56.0174 31.9307 54.7818 31.3232C53.8042 31.1477 51.7267 30.5618 51.2379 29.6223C50.6269 28.4479 51.1564 23.9527 51.2379 23.5477C51.3194 23.1428 55.2706 19.903 58.5294 18.3641C56.5415 18.1697 53.0031 20.038 51.4823 20.9964C51.4144 20.3889 51.5393 18.2183 52.5822 14.3954C50.3988 16.1448 49.1469 20.9019 48.7938 23.0618L46.9201 24.7626C47.1237 19.93 47.857 9.21171 49.1605 5C47.4496 6.13392 44.8833 15.8533 44.3945 25.3701C43.1725 18.1616 44.0279 13.2614 46.472 6.78188C41.095 8.92823 41.5838 26.9495 42.7651 29.6223C43.9464 32.2951 48.1014 33.672 53.2746 34.239C58.4479 34.806 63.3361 39.1392 63.5805 39.9491C63.5805 40.6619 63.7977 40.921 63.9063 40.9615Z" fill="white"/>
<path d="M48.892 59.0594H43.654L42.754 61.6154H40.612L45.094 49.0874H47.47L51.952 61.6154H49.792L48.892 59.0594ZM48.316 57.3854L46.282 51.5714L44.23 57.3854H48.316ZM59.9048 51.5354C60.6848 51.5354 61.3808 51.6974 61.9928 52.0214C62.6168 52.3454 63.1028 52.8254 63.4508 53.4614C63.7988 54.0974 63.9728 54.8654 63.9728 55.7654V61.6154H61.9388V56.0714C61.9388 55.1834 61.7168 54.5054 61.2728 54.0374C60.8288 53.5574 60.2228 53.3174 59.4548 53.3174C58.6868 53.3174 58.0748 53.5574 57.6188 54.0374C57.1748 54.5054 56.9528 55.1834 56.9528 56.0714V61.6154H54.9008V51.6974H56.9528V52.8314C57.2888 52.4234 57.7148 52.1054 58.2308 51.8774C58.7588 51.6494 59.3168 51.5354 59.9048 51.5354ZM69.9842 53.3714V58.8614C69.9842 59.2334 70.0682 59.5034 70.2362 59.6714C70.4162 59.8274 70.7162 59.9054 71.1362 59.9054H72.3962V61.6154H70.7762C69.8522 61.6154 69.1442 61.3994 68.6522 60.9674C68.1602 60.5354 67.9142 59.8334 67.9142 58.8614V53.3714H66.7442V51.6974H67.9142V49.2314H69.9842V51.6974H72.3962V53.3714H69.9842ZM77.3395 48.2954V61.6154H75.2875V48.2954H77.3395ZM90.1236 56.4134C90.1236 56.7854 90.0996 57.1214 90.0516 57.4214H82.4736C82.5336 58.2134 82.8276 58.8494 83.3556 59.3294C83.8836 59.8094 84.5316 60.0494 85.2996 60.0494C86.4036 60.0494 87.1836 59.5874 87.6396 58.6634H89.8536C89.5536 59.5754 89.0076 60.3254 88.2156 60.9134C87.4356 61.4894 86.4636 61.7774 85.2996 61.7774C84.3516 61.7774 83.4996 61.5674 82.7436 61.1474C81.9996 60.7154 81.4116 60.1154 80.9796 59.3474C80.5596 58.5674 80.3496 57.6674 80.3496 56.6474C80.3496 55.6274 80.5536 54.7334 80.9616 53.9654C81.3816 53.1854 81.9636 52.5854 82.7076 52.1654C83.4636 51.7454 84.3276 51.5354 85.2996 51.5354C86.2356 51.5354 87.0696 51.7394 87.8016 52.1474C88.5336 52.5554 89.1036 53.1314 89.5116 53.8754C89.9196 54.6074 90.1236 55.4534 90.1236 56.4134ZM87.9816 55.7654C87.9696 55.0094 87.6996 54.4034 87.1716 53.9474C86.6436 53.4914 85.9896 53.2634 85.2096 53.2634C84.5016 53.2634 83.8956 53.4914 83.3916 53.9474C82.8876 54.3914 82.5876 54.9974 82.4916 55.7654H87.9816ZM95.195 53.1374C95.495 52.6334 95.891 52.2434 96.383 51.9674C96.887 51.6794 97.481 51.5354 98.165 51.5354V53.6594H97.643C96.839 53.6594 96.227 53.8634 95.807 54.2714C95.399 54.6794 95.195 55.3874 95.195 56.3954V61.6154H93.143V51.6974H95.195V53.1374Z" fill="white"/>
</svg>
