<svg width="140" height="70" viewBox="0 0 140 70" fill="none" xmlns="http://www.w3.org/2000/svg">
<path d="M86.6596 17.0726H85.25V17H69.5V24H79.3901C77.9473 28.0749 74.0701 31 69.5 31C63.7014 31 59 26.2986 59 20.5C59 14.7014 63.7014 10 69.5 10C72.1766 10 74.6118 11.0098 76.4659 12.6591L81.4158 7.70925C78.2903 4.79638 74.1095 3 69.5 3C59.8356 3 52 10.8356 52 20.5C52 30.1644 59.8356 38 69.5 38C79.1644 38 87 30.1644 87 20.5C87 19.3266 86.8793 18.1813 86.6596 17.0726Z" fill="white"/>
<path d="M54.0178 12.3546L59.7674 16.5713C61.3232 12.7195 65.0909 10 69.5001 10C72.1767 10 74.6118 11.0098 76.466 12.6591L81.4158 7.70925C78.2903 4.79638 74.1096 3 69.5001 3C62.7783 3 56.9491 6.79488 54.0178 12.3546Z" fill="white"/>
<path d="M69.5 38C74.0203 38 78.1275 36.2701 81.2329 33.457L75.8167 28.8737C74.0006 30.2548 71.7816 31.0018 69.5 31C64.9483 31 61.0834 28.0976 59.6274 24.0472L53.9207 28.4441C56.8169 34.1115 62.6987 38 69.5 38Z" fill="white"/>
<path d="M86.6596 17.0726H85.25V17H69.5V24H79.3901C78.6999 25.9394 77.4567 27.634 75.814 28.8746L75.8166 28.8729L81.2329 33.4561C80.8496 33.8044 87 29.25 87 20.5C87 19.3266 86.8793 18.1813 86.6596 17.0726Z" fill="white"/>
<path d="M46.1 49.1C45.7133 48.2867 45.1533 47.66 44.42 47.22C43.6867 46.7667 42.8333 46.54 41.86 46.54C40.8867 46.54 40.0067 46.7667 39.22 47.22C38.4467 47.66 37.8333 48.3 37.38 49.14C36.94 49.9667 36.72 50.9267 36.72 52.02C36.72 53.1133 36.94 54.0733 37.38 54.9C37.8333 55.7267 38.4467 56.3667 39.22 56.82C40.0067 57.26 40.8867 57.48 41.86 57.48C43.22 57.48 44.34 57.0733 45.22 56.26C46.1 55.4467 46.6133 54.3467 46.76 52.96H41.2V51.48H48.7V52.88C48.5933 54.0267 48.2333 55.08 47.62 56.04C47.0067 56.9867 46.2 57.74 45.2 58.3C44.2 58.8467 43.0867 59.12 41.86 59.12C40.5667 59.12 39.3867 58.82 38.32 58.22C37.2533 57.6067 36.4067 56.76 35.78 55.68C35.1667 54.6 34.86 53.38 34.86 52.02C34.86 50.66 35.1667 49.44 35.78 48.36C36.4067 47.2667 37.2533 46.42 38.32 45.82C39.3867 45.2067 40.5667 44.9 41.86 44.9C43.34 44.9 44.6467 45.2667 45.78 46C46.9267 46.7333 47.76 47.7667 48.28 49.1H46.1ZM55.8864 59.18C54.8597 59.18 53.9264 58.9467 53.0864 58.48C52.2597 58.0133 51.6064 57.3533 51.1264 56.5C50.6597 55.6333 50.4264 54.6333 50.4264 53.5C50.4264 52.38 50.6664 51.3933 51.1464 50.54C51.6397 49.6733 52.3064 49.0133 53.1464 48.56C53.9864 48.0933 54.9264 47.86 55.9664 47.86C57.0064 47.86 57.9464 48.0933 58.7864 48.56C59.6264 49.0133 60.2864 49.6667 60.7664 50.52C61.2597 51.3733 61.5064 52.3667 61.5064 53.5C61.5064 54.6333 61.2531 55.6333 60.7464 56.5C60.2531 57.3533 59.5797 58.0133 58.7264 58.48C57.8731 58.9467 56.9264 59.18 55.8864 59.18ZM55.8864 57.58C56.5397 57.58 57.1531 57.4267 57.7264 57.12C58.2997 56.8133 58.7597 56.3533 59.1064 55.74C59.4664 55.1267 59.6464 54.38 59.6464 53.5C59.6464 52.62 59.4731 51.8733 59.1264 51.26C58.7797 50.6467 58.3264 50.1933 57.7664 49.9C57.2064 49.5933 56.5997 49.44 55.9464 49.44C55.2797 49.44 54.6664 49.5933 54.1064 49.9C53.5597 50.1933 53.1197 50.6467 52.7864 51.26C52.4531 51.8733 52.2864 52.62 52.2864 53.5C52.2864 54.3933 52.4464 55.1467 52.7664 55.76C53.0997 56.3733 53.5397 56.8333 54.0864 57.14C54.6331 57.4333 55.2331 57.58 55.8864 57.58ZM68.6794 59.18C67.6527 59.18 66.7194 58.9467 65.8794 58.48C65.0527 58.0133 64.3994 57.3533 63.9194 56.5C63.4527 55.6333 63.2194 54.6333 63.2194 53.5C63.2194 52.38 63.4594 51.3933 63.9394 50.54C64.4327 49.6733 65.0994 49.0133 65.9394 48.56C66.7794 48.0933 67.7194 47.86 68.7594 47.86C69.7994 47.86 70.7394 48.0933 71.5794 48.56C72.4194 49.0133 73.0794 49.6667 73.5594 50.52C74.0527 51.3733 74.2994 52.3667 74.2994 53.5C74.2994 54.6333 74.046 55.6333 73.5394 56.5C73.046 57.3533 72.3727 58.0133 71.5194 58.48C70.666 58.9467 69.7194 59.18 68.6794 59.18ZM68.6794 57.58C69.3327 57.58 69.946 57.4267 70.5194 57.12C71.0927 56.8133 71.5527 56.3533 71.8994 55.74C72.2594 55.1267 72.4394 54.38 72.4394 53.5C72.4394 52.62 72.266 51.8733 71.9194 51.26C71.5727 50.6467 71.1194 50.1933 70.5594 49.9C69.9994 49.5933 69.3927 49.44 68.7394 49.44C68.0727 49.44 67.4594 49.5933 66.8994 49.9C66.3527 50.1933 65.9127 50.6467 65.5794 51.26C65.246 51.8733 65.0794 52.62 65.0794 53.5C65.0794 54.3933 65.2394 55.1467 65.5594 55.76C65.8927 56.3733 66.3327 56.8333 66.8794 57.14C67.426 57.4333 68.026 57.58 68.6794 57.58ZM81.2123 47.86C82.159 47.86 82.9857 48.0667 83.6923 48.48C84.4123 48.8933 84.9457 49.4133 85.2923 50.04V48.04H87.1323V59.24C87.1323 60.24 86.919 61.1267 86.4923 61.9C86.0657 62.6867 85.4523 63.3 84.6523 63.74C83.8657 64.18 82.9457 64.4 81.8923 64.4C80.4523 64.4 79.2523 64.06 78.2923 63.38C77.3323 62.7 76.7657 61.7733 76.5923 60.6H78.3923C78.5923 61.2667 79.0057 61.8 79.6323 62.2C80.259 62.6133 81.0123 62.82 81.8923 62.82C82.8923 62.82 83.7057 62.5067 84.3323 61.88C84.9723 61.2533 85.2923 60.3733 85.2923 59.24V56.94C84.9323 57.58 84.399 58.1133 83.6923 58.54C82.9857 58.9667 82.159 59.18 81.2123 59.18C80.239 59.18 79.3523 58.94 78.5523 58.46C77.7657 57.98 77.1457 57.3067 76.6923 56.44C76.239 55.5733 76.0123 54.5867 76.0123 53.48C76.0123 52.36 76.239 51.38 76.6923 50.54C77.1457 49.6867 77.7657 49.0267 78.5523 48.56C79.3523 48.0933 80.239 47.86 81.2123 47.86ZM85.2923 53.5C85.2923 52.6733 85.1257 51.9533 84.7923 51.34C84.459 50.7267 84.0057 50.26 83.4323 49.94C82.8723 49.6067 82.2523 49.44 81.5723 49.44C80.8923 49.44 80.2723 49.6 79.7123 49.92C79.1523 50.24 78.7057 50.7067 78.3723 51.32C78.039 51.9333 77.8723 52.6533 77.8723 53.48C77.8723 54.32 78.039 55.0533 78.3723 55.68C78.7057 56.2933 79.1523 56.7667 79.7123 57.1C80.2723 57.42 80.8923 57.58 81.5723 57.58C82.2523 57.58 82.8723 57.42 83.4323 57.1C84.0057 56.7667 84.459 56.2933 84.7923 55.68C85.1257 55.0533 85.2923 54.3267 85.2923 53.5ZM92.028 44.2V59H90.208V44.2H92.028ZM105.13 53.1C105.13 53.4467 105.11 53.8133 105.07 54.2H96.3098C96.3765 55.28 96.7432 56.1267 97.4098 56.74C98.0898 57.34 98.9098 57.64 99.8698 57.64C100.657 57.64 101.31 57.46 101.83 57.1C102.363 56.7267 102.737 56.2333 102.95 55.62H104.91C104.617 56.6733 104.03 57.5333 103.15 58.2C102.27 58.8533 101.177 59.18 99.8698 59.18C98.8298 59.18 97.8965 58.9467 97.0698 58.48C96.2565 58.0133 95.6165 57.3533 95.1498 56.5C94.6832 55.6333 94.4498 54.6333 94.4498 53.5C94.4498 52.3667 94.6765 51.3733 95.1298 50.52C95.5832 49.6667 96.2165 49.0133 97.0298 48.56C97.8565 48.0933 98.8032 47.86 99.8698 47.86C100.91 47.86 101.83 48.0867 102.63 48.54C103.43 48.9933 104.043 49.62 104.47 50.42C104.91 51.2067 105.13 52.1 105.13 53.1ZM103.25 52.72C103.25 52.0267 103.097 51.4333 102.79 50.94C102.483 50.4333 102.063 50.0533 101.53 49.8C101.01 49.5333 100.43 49.4 99.7898 49.4C98.8698 49.4 98.0832 49.6933 97.4298 50.28C96.7898 50.8667 96.4232 51.68 96.3298 52.72H103.25Z" fill="white"/>
</svg>
