<svg width="140" height="70" viewBox="0 0 140 70" fill="none" xmlns="http://www.w3.org/2000/svg">
<path d="M34.4875 30.4885C34.4875 30.5713 34.4875 30.6154 34.4213 30.6154C33.9798 30.6154 33.6321 30.6154 33.3782 30.6154H31.8991H30.2986C30.0612 30.6154 29.7466 30.6154 29.3162 30.6154C29.272 30.6154 29.2555 30.5713 29.2555 30.4885C29.2555 30.4057 29.2555 30.3615 29.3162 30.3615C29.7087 30.3751 30.1015 30.3418 30.4862 30.2622C30.5956 30.237 30.6977 30.1872 30.7848 30.1164C30.8718 30.0456 30.9415 29.9557 30.9884 29.8538C31.0944 29.5567 31.1412 29.2417 31.1264 28.9266V24.0698H23.3556V28.9266C23.3394 29.2413 23.3844 29.5562 23.488 29.8538C23.5356 29.9553 23.6055 30.0447 23.6925 30.1154C23.7794 30.1861 23.8812 30.2363 23.9903 30.2622C24.3767 30.3422 24.7714 30.3756 25.1658 30.3615C25.1989 30.3615 25.21 30.4057 25.21 30.4885C25.21 30.5713 25.21 30.6154 25.1658 30.6154C24.7243 30.6154 24.3766 30.6154 24.1283 30.6154H22.5608L21.1038 30.5933C20.8555 30.5933 20.5022 30.5933 20.0442 30.5933C20 30.6154 20 30.5713 20 30.4885C20 30.4057 20 30.3615 20.0442 30.3615C20.4312 30.3749 20.8185 30.3416 21.1976 30.2622C21.3067 30.2363 21.4085 30.1861 21.4954 30.1154C21.5824 30.0447 21.6523 29.9553 21.6999 29.8538C21.8035 29.5562 21.8485 29.2413 21.8323 28.9266V19.2738C21.8486 18.9627 21.8036 18.6514 21.6999 18.3576C21.6495 18.2587 21.5786 18.1717 21.492 18.1022C21.4055 18.0327 21.3051 17.9825 21.1976 17.9547C20.826 17.8628 20.4432 17.8238 20.0607 17.8388C20.0607 17.8388 20 17.7947 20 17.7119C20 17.6291 20 17.5905 20.0386 17.5905L21.1038 17.607C21.6888 17.6346 22.169 17.6512 22.5388 17.6512C22.9085 17.6512 23.488 17.6512 24.1227 17.607H25.1438C25.1769 17.607 25.1879 17.6456 25.1879 17.7284C25.1879 17.8112 25.1879 17.8554 25.1438 17.8554C24.7514 17.8372 24.3585 17.88 23.9792 17.9823C23.8683 18.0124 23.7651 18.0659 23.6766 18.1392C23.5881 18.2125 23.5163 18.3039 23.466 18.4073C23.3623 18.7049 23.3174 19.0198 23.3335 19.3345V23.6062H31.1319V19.3179C31.1467 19.0028 31.0999 18.6879 30.994 18.3907C30.9458 18.2869 30.8753 18.195 30.7875 18.1215C30.6998 18.0481 30.5969 17.9949 30.4862 17.9657C30.107 17.8631 29.7141 17.8203 29.3217 17.8388C29.2775 17.8388 29.261 17.7947 29.261 17.7119C29.261 17.6291 29.261 17.5905 29.3217 17.5905H30.3041C30.9112 17.618 31.4465 17.6346 31.9046 17.6346C32.3627 17.6346 32.7766 17.6346 33.3837 17.5905H34.4268C34.471 17.5905 34.493 17.6291 34.493 17.7119C34.493 17.7947 34.493 17.8388 34.4268 17.8388C34.0296 17.8204 33.6318 17.8594 33.2457 17.9547C33.1375 17.9808 33.0364 18.0304 32.9496 18.1C32.8628 18.1697 32.7924 18.2576 32.7435 18.3576C32.6373 18.6509 32.5904 18.9623 32.6055 19.2738V28.9266C32.5907 29.2417 32.6376 29.5567 32.7435 29.8538C32.7897 29.9562 32.8592 30.0465 32.9464 30.1173C33.0335 30.1882 33.136 30.2378 33.2457 30.2622C33.6248 30.3419 34.0121 30.3752 34.3992 30.3615C34.4654 30.3615 34.4875 30.4057 34.4875 30.4885Z" fill="white"/>
<path d="M46.321 27.4366C46.4038 27.4366 46.4479 27.4366 46.4479 27.5083C46.3204 28.4337 46.2577 29.3669 46.2603 30.301C46.2689 30.3882 46.2431 30.4753 46.1885 30.5438C46.1132 30.5976 46.0214 30.623 45.9291 30.6156H37.1097C37.0821 30.6156 37.071 30.5714 37.071 30.4886C37.071 30.4058 37.071 30.3617 37.1097 30.3617C37.4803 30.3733 37.8509 30.3399 38.2135 30.2623C38.32 30.2369 38.4191 30.1866 38.5025 30.1157C38.5859 30.0447 38.6514 29.955 38.6936 29.8539C38.7922 29.5552 38.8352 29.2409 38.8206 28.9267V19.2739C38.8354 18.9633 38.7923 18.6526 38.6936 18.3577C38.6486 18.2591 38.5822 18.1717 38.4991 18.102C38.416 18.0323 38.3185 17.982 38.2135 17.9548C37.8528 17.8645 37.4812 17.8255 37.1097 17.8389C37.0821 17.8389 37.071 17.7948 37.071 17.712C37.071 17.6292 37.071 17.5906 37.1097 17.5906H45.5704C45.5959 17.5869 45.6219 17.5892 45.6464 17.5973C45.6708 17.6054 45.693 17.6191 45.7113 17.6374C45.7295 17.6556 45.7432 17.6778 45.7513 17.7023C45.7594 17.7267 45.7617 17.7527 45.758 17.7782L45.8022 20.3832C45.8022 20.4219 45.7636 20.4439 45.6863 20.4439C45.609 20.4439 45.5704 20.4439 45.5704 20.3832C45.5367 19.7276 45.2638 19.1071 44.8032 18.6392C44.3409 18.2251 43.7344 18.009 43.1144 18.0376H41.9664C41.5181 17.9873 41.0654 18.0821 40.675 18.3081C40.5528 18.4504 40.4617 18.6168 40.4075 18.7964C40.3533 18.976 40.3373 19.165 40.3604 19.3512V23.6064H42.7612C43.293 23.6554 43.8266 23.5336 44.2844 23.2587C44.4493 23.1192 44.578 22.942 44.6597 22.7422C44.7413 22.5423 44.7736 22.3257 44.7536 22.1107C44.7536 22.1107 44.7977 22.0665 44.8805 22.0665C44.9633 22.0665 45.0074 22.0665 45.0074 22.1107V23.8382C45.0074 24.2466 45.0074 24.5501 45.0074 24.7598V25.7974C45.0074 25.8305 44.9633 25.8416 44.8805 25.8416C44.7977 25.8416 44.7536 25.8416 44.7536 25.7974C44.7765 25.5566 44.7463 25.3138 44.6653 25.0859C44.5842 24.858 44.4542 24.6506 44.2844 24.4784C43.8264 24.1664 43.2747 24.0222 42.7226 24.07H40.3604V28.8439C40.3441 29.1275 40.3874 29.4114 40.4873 29.6773C40.5292 29.7684 40.5896 29.8498 40.6647 29.9163C40.7398 29.9829 40.8278 30.033 40.9233 30.0637C41.2349 30.1546 41.5594 30.1938 41.8837 30.1796H43.3628C43.6994 30.1904 44.0349 30.134 44.3495 30.0137C44.6642 29.8933 44.9516 29.7114 45.1951 29.4786C45.7307 28.9298 46.0818 28.2275 46.1996 27.4697C46.1996 27.4697 46.2382 27.4311 46.321 27.4366Z" fill="white"/>
<path d="M63.2258 30.4886C63.2258 30.5714 63.2258 30.6156 63.143 30.6156C62.8781 30.6156 62.4697 30.6156 61.9123 30.5714C61.3548 30.5273 60.9464 30.5328 60.6815 30.5328C60.4166 30.5328 59.9695 30.5328 59.4949 30.5714C59.0203 30.6101 58.7057 30.6156 58.4518 30.6156C58.3966 30.6156 58.369 30.5714 58.369 30.4886C58.369 30.4058 58.369 30.3617 58.4518 30.3617C58.8247 30.3844 59.1987 30.3395 59.5556 30.2292C59.6552 30.1934 59.7404 30.1261 59.7981 30.0374C59.8559 29.9487 59.8832 29.8436 59.8757 29.738C59.8424 29.4088 59.7429 29.0896 59.5832 28.7998L57.795 25.0524H52.8279L51.5971 27.9057C51.4286 28.2656 51.3366 28.6564 51.3267 29.0537C51.3267 29.9257 52 30.3617 53.3467 30.3617C53.4184 30.3617 53.4515 30.4058 53.4515 30.4886C53.4515 30.5714 53.4184 30.6156 53.3467 30.6156C53.0983 30.6156 52.7396 30.6156 52.2429 30.5714C51.7462 30.5273 51.255 30.5328 50.8686 30.5328C50.4823 30.5328 50.096 30.5328 49.5992 30.5714C49.1025 30.6101 48.8266 30.6156 48.5341 30.6156C48.4623 30.6156 48.4292 30.5714 48.4292 30.4886C48.4292 30.4058 48.4623 30.3617 48.5341 30.3617C48.876 30.3718 49.2152 30.2979 49.522 30.1465C49.8421 29.9516 50.1108 29.6828 50.3057 29.3627C50.6325 28.8369 50.9115 28.2828 51.1391 27.707L55.5543 17.4085C55.5751 17.3859 55.601 17.3687 55.6298 17.3581C55.6585 17.3476 55.6894 17.344 55.7199 17.3478C55.8027 17.3478 55.8523 17.3478 55.8634 17.4085L60.8305 27.7457C61.1379 28.4853 61.5445 29.1797 62.0392 29.8098C62.1791 29.9795 62.3543 30.1167 62.5525 30.212C62.7507 30.3073 62.9672 30.3584 63.1872 30.3617C63.1982 30.3617 63.2258 30.4058 63.2258 30.4886ZM52.9714 24.6108H57.5577L55.1404 19.5664L52.9714 24.6108Z" fill="white"/>
<path d="M68.1865 28.8438C68.1746 29.1263 68.2138 29.4086 68.3024 29.6772C68.3421 29.7674 68.4021 29.8471 68.4778 29.9103C68.5534 29.9735 68.6426 30.0184 68.7384 30.0414C69.0771 30.1158 69.4239 30.1473 69.7704 30.1353H71.7683C72.5266 30.1633 73.265 29.8894 73.8214 29.3736C74.3861 28.8127 74.7556 28.0853 74.8756 27.2985C74.8756 27.2598 74.9142 27.2378 74.9915 27.2488C75.0687 27.2598 75.1019 27.2764 75.1019 27.3205C74.9804 28.5016 74.9197 29.4895 74.9197 30.2788C74.9272 30.365 74.9037 30.4511 74.8535 30.5216C74.819 30.5496 74.7793 30.5704 74.7366 30.5827C74.6939 30.595 74.6492 30.5987 74.6051 30.5933H64.9358C64.9358 30.5933 64.8916 30.5492 64.8916 30.4664C64.8916 30.3836 64.8916 30.3395 64.9358 30.3395C65.3064 30.3511 65.677 30.3177 66.0396 30.2401C66.1451 30.2139 66.243 30.1633 66.3255 30.0924C66.4079 30.0214 66.4725 29.9322 66.5142 29.8317C66.6154 29.5336 66.6585 29.2189 66.6411 28.9045V19.2738C66.6588 18.963 66.6156 18.6518 66.5142 18.3576C66.4695 18.2598 66.4037 18.173 66.3217 18.1033C66.2397 18.0337 66.1434 17.983 66.0396 17.9547C65.6789 17.8644 65.3073 17.8254 64.9358 17.8388C64.9358 17.8388 64.8916 17.7947 64.8916 17.7119C64.8916 17.6291 64.8916 17.5905 64.9358 17.5905H65.9733C66.5584 17.618 67.0385 17.6346 67.4138 17.6346C67.7891 17.6346 68.3079 17.6346 68.8929 17.5905H69.9139C69.9139 17.5905 69.9581 17.6291 69.9581 17.7119C69.9581 17.7947 69.9581 17.8388 69.9139 17.8388C69.5424 17.8256 69.1708 17.8646 68.8101 17.9547C68.7027 17.9831 68.603 18.0349 68.518 18.1065C68.4331 18.1781 68.3651 18.2676 68.3189 18.3686C68.2232 18.6679 68.1821 18.982 68.1975 19.2958L68.1865 28.8438Z" fill="white"/>
<path d="M77.9883 18.6833C77.4397 19.3303 77.089 20.1216 76.9783 20.9627C76.9783 21.0068 76.9231 21.0234 76.8459 21.0179C76.7686 21.0124 76.73 21.0179 76.73 20.9627C76.7852 20.5763 76.8459 19.9527 76.9176 19.0917C76.9894 18.2307 77.0225 17.574 77.0225 17.1325C77.0225 17.0607 77.0611 17.0276 77.1439 17.0276C77.2267 17.0276 77.2708 17.0607 77.2708 17.1325C77.2708 17.436 77.6461 17.5905 78.3747 17.5905C79.5705 17.6273 80.9668 17.6476 82.5636 17.6512C83.386 17.6512 84.2525 17.6512 85.1686 17.6071H86.587C86.9579 17.6176 87.3286 17.5824 87.6908 17.5022C87.7983 17.4781 87.8978 17.4269 87.9799 17.3535C88.062 17.2801 88.124 17.1869 88.1599 17.0828C88.1599 17.0276 88.2151 17 88.2869 17C88.3586 17 88.3917 17.0276 88.3917 17.0828C88.3476 17.4857 88.3034 18.1093 88.2648 18.9482C88.2262 19.7871 88.2041 20.466 88.2041 20.9792C88.2041 20.9792 88.1655 21.0234 88.0882 21.0234C88.0109 21.0234 87.9668 21.0234 87.9502 20.9792C87.9804 20.1526 87.7186 19.3417 87.2107 18.6888C86.9376 18.4406 86.6164 18.2512 86.267 18.1325C85.9175 18.0138 85.5474 17.9684 85.1797 17.9989C84.7913 17.9877 84.4028 18.0173 84.0207 18.0873C83.9155 18.1038 83.8155 18.1442 83.7284 18.2054C83.6414 18.2667 83.5695 18.3471 83.5184 18.4405C83.4131 18.7262 83.368 19.0306 83.386 19.3346V28.9267C83.3681 29.2451 83.4131 29.5639 83.5184 29.8649C83.5743 29.9686 83.6531 30.0582 83.7487 30.1271C83.8443 30.1959 83.9542 30.2421 84.0703 30.2623C84.4996 30.3422 84.9363 30.3755 85.3728 30.3616C85.3728 30.3616 85.417 30.4058 85.417 30.4886C85.417 30.5714 85.417 30.6155 85.3728 30.6155C84.9037 30.6155 84.5284 30.6155 84.269 30.6155H82.6133H81.0293C80.7534 30.6155 80.3615 30.6155 79.8648 30.6155C79.8648 30.6155 79.8207 30.5714 79.8207 30.4886C79.8207 30.4058 79.8207 30.3616 79.8648 30.3616C80.2976 30.3742 80.7305 30.3409 81.1563 30.2623C81.2728 30.2394 81.3828 30.1909 81.4782 30.1203C81.5737 30.0496 81.6522 29.9586 81.7082 29.8539C81.8192 29.5579 81.868 29.2423 81.8517 28.9267V19.2739C81.8707 18.9806 81.8255 18.6868 81.7192 18.4129C81.6665 18.3218 81.594 18.2438 81.5071 18.1845C81.4202 18.1253 81.321 18.0864 81.217 18.0707C80.8147 17.9977 80.4058 17.9681 79.9973 17.9824C79.6325 17.958 79.2665 18.0074 78.9213 18.1279C78.5761 18.2483 78.2587 18.4372 77.9883 18.6833Z" fill="white"/>
<path d="M105.386 30.4885C105.386 30.5713 105.386 30.6154 105.325 30.6154C104.878 30.6154 104.531 30.6154 104.282 30.6154H102.803H101.197C100.96 30.6154 100.645 30.6154 100.22 30.6154C100.176 30.6154 100.16 30.5713 100.16 30.4885C100.16 30.4057 100.16 30.3615 100.22 30.3615C100.615 30.3756 101.009 30.3422 101.396 30.2622C101.505 30.2363 101.607 30.1861 101.694 30.1154C101.781 30.0447 101.85 29.9553 101.898 29.8538C102.002 29.5562 102.047 29.2413 102.03 28.9266V24.0698H94.2596V28.9266C94.2435 29.2413 94.2885 29.5562 94.3921 29.8538C94.4397 29.9553 94.5096 30.0447 94.5965 30.1154C94.6835 30.1861 94.7853 30.2363 94.8943 30.2622C95.2808 30.3422 95.6755 30.3756 96.0699 30.3615C96.0699 30.3615 96.114 30.4057 96.114 30.4885C96.114 30.5713 96.114 30.6154 96.0699 30.6154C95.6284 30.6154 95.2807 30.6154 95.0323 30.6154H93.4649H92.0079C91.7595 30.6154 91.4063 30.6154 90.9427 30.6154C90.9427 30.6154 90.9041 30.5713 90.9041 30.4885C90.9041 30.4057 90.904 30.3615 90.9427 30.3615C91.3316 30.3751 91.7208 30.3418 92.1017 30.2622C92.2107 30.2363 92.3125 30.1861 92.3995 30.1154C92.4864 30.0447 92.5563 29.9553 92.6039 29.8538C92.7076 29.5562 92.7525 29.2413 92.7364 28.9266V19.2738C92.7526 18.9627 92.7076 18.6514 92.6039 18.3576C92.5535 18.2587 92.4827 18.1717 92.3961 18.1022C92.3095 18.0327 92.2092 17.9825 92.1017 17.9547C91.73 17.8628 91.3473 17.8238 90.9648 17.8388C90.9372 17.8388 90.9261 17.7947 90.9261 17.7119C90.9261 17.6291 90.9261 17.5905 90.9648 17.5905H92.0299C92.6094 17.618 93.0896 17.6346 93.4649 17.6346C93.8402 17.6346 94.4086 17.6346 95.0489 17.5905H96.0699C96.0699 17.5905 96.114 17.6291 96.114 17.7119C96.114 17.7947 96.114 17.8388 96.0699 17.8388C95.6775 17.8206 95.2846 17.8635 94.9054 17.9657C94.7945 17.9959 94.6913 18.0494 94.6027 18.1227C94.5142 18.196 94.4424 18.2874 94.3921 18.3907C94.2885 18.6883 94.2435 19.0032 94.2596 19.3179V23.6062H102.03V19.3179C102.047 19.0032 102.002 18.6883 101.898 18.3907C101.849 18.2867 101.777 18.1948 101.688 18.1214C101.6 18.048 101.496 17.9949 101.385 17.9657C101.005 17.8635 100.613 17.8206 100.22 17.8388C100.176 17.8388 100.16 17.7947 100.16 17.7119C100.16 17.6291 100.16 17.5905 100.22 17.5905H101.197C101.81 17.618 102.345 17.6346 102.803 17.6346C103.178 17.6346 103.67 17.6346 104.282 17.5905H105.325C105.369 17.5905 105.386 17.6291 105.386 17.7119C105.386 17.7947 105.386 17.8388 105.325 17.8388C104.937 17.823 104.549 17.862 104.172 17.9547C104.064 17.9808 103.963 18.0304 103.876 18.1C103.789 18.1697 103.719 18.2576 103.67 18.3576C103.561 18.6502 103.514 18.9621 103.532 19.2738V28.9266C103.514 29.2418 103.561 29.5573 103.67 29.8538C103.716 29.9562 103.785 30.0465 103.872 30.1173C103.96 30.1882 104.062 30.2378 104.172 30.2622C104.551 30.3419 104.938 30.3752 105.325 30.3615C105.369 30.3615 105.386 30.4057 105.386 30.4885Z" fill="white"/>
<path d="M120 17.7119C120 17.7947 120 17.8388 119.956 17.8388C119.396 17.8664 118.86 18.0735 118.427 18.4294C117.851 18.8713 117.366 19.4204 116.998 20.0464L114.31 24.2133V28.9266C114.292 29.2441 114.333 29.5622 114.431 29.8648C114.475 29.9619 114.54 30.048 114.621 30.1168C114.702 30.1855 114.797 30.2352 114.9 30.2622C115.263 30.3411 115.634 30.3745 116.004 30.3615C116.048 30.3615 116.07 30.4057 116.07 30.4885C116.07 30.5713 116.07 30.6154 116.004 30.6154C115.574 30.6154 115.243 30.6154 115.005 30.6154H113.526H112.086C111.826 30.6154 111.467 30.6154 111.026 30.6154C111.026 30.6154 110.982 30.5713 110.982 30.4885C110.982 30.4057 110.982 30.3615 111.026 30.3615C111.397 30.3732 111.767 30.3398 112.13 30.2622C112.236 30.2352 112.335 30.1844 112.419 30.1137C112.504 30.0429 112.571 29.9541 112.615 29.8538C112.724 29.5573 112.771 29.2418 112.753 28.9266V24.55L109.409 19.5497C109.109 19.0414 108.722 18.5894 108.266 18.2141C107.933 17.9702 107.531 17.8388 107.118 17.8388C107.074 17.8388 107.052 17.7947 107.052 17.7119C107.052 17.6291 107.052 17.5905 107.118 17.5905H107.847C108.178 17.618 108.399 17.6346 108.576 17.6346C109.05 17.6346 109.679 17.6346 110.413 17.5905H111.578C111.578 17.5905 111.617 17.6291 111.617 17.7119C111.617 17.7947 111.617 17.8388 111.578 17.8388C110.899 17.8388 110.557 17.9989 110.557 18.319C110.58 18.5202 110.658 18.7112 110.783 18.8709L114.056 23.7276L116.473 19.9361C116.743 19.5525 116.908 19.1057 116.953 18.6391C116.953 18.0872 116.578 17.8498 115.85 17.8498C115.85 17.8498 115.811 17.8057 115.811 17.7229C115.811 17.6401 115.811 17.6015 115.85 17.6015H116.854C117.406 17.6291 117.908 17.6456 118.355 17.6456C118.587 17.6456 118.874 17.6456 119.205 17.6015H119.978C119.978 17.6015 120 17.6291 120 17.7119Z" fill="white"/>
<path d="M76.393 33.0439C76.2814 33.4066 76.1893 33.7751 76.1171 34.1477C75.99 34.5519 75.99 34.9853 76.1171 35.3895C75.9625 35.4778 75.8687 35.6047 75.7418 35.6654C75.7488 35.7212 75.7697 35.7743 75.8025 35.82C75.8356 35.8531 75.9294 35.82 75.9294 35.82C75.9901 35.6654 76.0508 35.5109 76.084 35.3895C76.2716 35.0142 76.4261 34.672 76.6083 34.2857C76.6232 34.1924 76.6232 34.0974 76.6083 34.0042C76.3599 33.8497 76.4206 33.7283 76.6083 33.6013C76.7071 33.5662 76.7899 33.4967 76.8416 33.4054C76.8933 33.3142 76.9104 33.2074 76.8897 33.1046C76.8829 32.7442 76.9807 32.3896 77.1712 32.0836C77.3589 31.7218 77.4945 31.3353 77.5741 30.9356C77.7977 30.1758 78.0877 29.4371 78.4406 28.728C78.5273 28.5067 78.5992 28.2799 78.6558 28.0491C78.7497 27.8615 78.8766 27.6463 78.998 27.4255H78.9649C79.1381 27.2113 79.2949 26.9844 79.434 26.7466C79.6983 26.2924 80.0212 25.8749 80.3943 25.5049V25.538C80.6096 25.4442 80.7641 25.2565 81.0456 25.2896C81.3271 25.3227 81.5975 25.4773 81.5423 25.5711C81.4871 25.6649 81.3546 25.8139 81.2608 25.9409C80.876 26.2486 80.5681 26.6416 80.3612 27.0888C79.7707 28.143 79.2574 29.164 78.7497 30.2181C78.6558 30.4334 78.5951 30.6541 78.5013 30.9025C78.3799 31.333 78.2253 31.8297 78.0708 32.2933C77.4472 34.0318 76.7959 35.831 76.1447 37.5971C76.0439 37.8975 75.8507 38.1583 75.5928 38.3422C75.532 38.3698 75.4989 38.4967 75.4989 38.5905C75.4899 38.9615 75.4474 39.331 75.372 39.6944C74.9415 41.5543 74.4448 43.3535 74.1026 45.1858C73.8545 46.4154 73.6703 47.657 73.5507 48.9056C73.51 49.1538 73.5045 49.4065 73.5341 49.6562V49.9708C73.6887 49.9708 73.6887 49.8163 73.7218 49.7225C73.8763 49.5679 73.937 49.3196 74.1247 49.1706C74.6503 48.6813 75.1087 48.1246 75.4879 47.5148C75.6407 47.2001 75.8635 46.9245 76.1391 46.7091C76.3544 46.4883 76.542 46.2455 76.7573 45.9971C76.7904 45.9309 76.818 45.8426 76.8511 45.7763C76.9449 45.5611 77.254 45.5942 77.3147 45.2796C77.3754 44.965 77.6238 44.8767 77.7783 44.6946C77.9328 44.5125 78.0598 44.2917 78.2143 44.1041C78.275 43.9771 78.402 43.8888 78.4627 43.7619C78.6172 43.6074 78.7386 43.6405 78.8656 43.795H78.8048V43.7619C79.3568 43.1106 79.9087 42.4318 80.4164 41.8081C80.7104 41.4558 81.0679 41.1618 81.4705 40.9417L81.5368 41.0024C81.5732 40.9804 81.6158 40.9707 81.6582 40.9748H82.0004C81.8734 41.1293 81.7851 41.2838 81.6582 41.4384C81.443 41.5929 81.3822 41.9351 81.0069 41.9351H81.0401C81.0401 42.1503 81.1615 42.3656 80.8855 42.5201V42.5532C80.6372 42.3049 80.5102 42.5201 80.4164 42.6802C80.3833 42.7133 80.3557 42.7133 80.3833 42.7409C80.4109 42.7685 80.4164 42.774 80.4164 42.8347C80.2784 43.2693 80.0593 43.6738 79.7707 44.0268C79.4441 44.5268 79.1456 45.0445 78.8766 45.5777C77.9108 47.1285 76.9504 48.707 75.9625 50.2302C75.5265 50.9091 75.0298 51.5603 74.5662 52.2447C74.3786 52.493 74.1633 52.7966 73.8543 52.769C73.5452 52.7414 73.043 52.9235 72.6732 52.6145C72.5794 52.5206 72.4248 52.5537 72.331 52.5206C72.2372 52.4875 72.2372 52.493 72.1765 52.493L72.1489 52.5537C72.055 52.6145 71.9281 52.6476 71.8343 52.7083C71.7754 52.5862 71.6737 52.49 71.5485 52.4381C71.4233 52.3862 71.2834 52.3822 71.1554 52.4268C70.8464 52.493 70.7525 52.2447 70.5649 52.1177C70.4517 52.0784 70.3544 52.0032 70.2877 51.9037C70.221 51.8041 70.1885 51.6855 70.1951 51.5658C70.1765 51.4022 70.1239 51.2443 70.0406 51.1022C69.8147 50.4018 69.771 49.6553 69.9136 48.9332C70.1951 48.6849 69.8529 48.4641 69.9136 48.2489C69.9744 48.0336 70.2503 47.9398 70.2227 47.6583C70.1896 47.5976 70.2227 47.5645 70.2227 47.5038C70.1396 47.1374 70.1607 46.7551 70.2834 46.4C70.4048 45.7763 70.438 45.0975 70.5318 44.4463C70.5318 44.38 70.438 44.3193 70.4048 44.2586H70.438C70.5811 43.8728 70.634 43.4593 70.5925 43.0499C70.5786 42.9566 70.5786 42.8618 70.5925 42.7685C70.9678 41.5929 71.1444 40.3511 71.6963 39.2032C71.6963 39.1424 71.7625 39.0817 71.7625 38.9879C71.9575 38.1409 72.2482 37.3188 72.629 36.5375C72.629 36.4436 72.7228 36.3553 72.7504 36.2615C72.9789 35.9385 73.1766 35.5948 73.341 35.235C73.4691 34.86 73.5778 34.4787 73.6666 34.0925C73.9114 33.3367 74.2371 32.6095 74.638 31.9235C74.8419 31.5527 75.0262 31.1714 75.1899 30.7811C75.2561 30.6541 75.2837 30.5327 75.4106 30.4665C75.4424 30.4244 75.4845 30.3911 75.5328 30.3699C75.5811 30.3486 75.634 30.3401 75.6866 30.3451C75.7197 30.3451 75.7804 30.4665 75.7804 30.5327C75.7702 30.5634 75.7671 30.5959 75.7715 30.6279C75.776 30.6599 75.7877 30.6905 75.8059 30.7172C75.824 30.7439 75.8481 30.766 75.8762 30.7819C75.9044 30.7978 75.9358 30.8069 75.9681 30.8087C75.9681 30.9356 75.9349 31.0239 75.7804 31.0239C75.6259 31.0239 75.4713 31.0901 75.3775 31.2723C75.2837 31.6145 75.1623 31.9566 75.0684 32.2657C75.0771 32.3703 75.1197 32.4691 75.1899 32.5472H75.1623C75.2353 32.7096 75.2679 32.8873 75.2573 33.0651C75.2467 33.2429 75.1933 33.4155 75.1016 33.5682C75.0549 33.7741 74.9807 33.9728 74.8808 34.1587C74.6987 34.4678 74.8201 34.683 75.0353 34.9314C75.012 34.9327 74.9892 34.9388 74.9683 34.9492C74.9475 34.9596 74.9289 34.9742 74.9139 34.9921C74.9174 35.0172 74.929 35.0405 74.947 35.0583C74.9746 34.9921 74.9746 34.9314 75.0077 34.9038C75.0408 34.8762 75.1899 34.7162 75.2561 34.6223C75.3467 34.412 75.4188 34.194 75.4713 33.9711L75.532 33.9435C75.5405 33.8954 75.5637 33.851 75.5983 33.8166C75.5983 33.8166 75.659 33.7834 75.6866 33.7558C75.7804 33.6289 75.7197 33.5682 75.6866 33.4744C75.7804 33.2591 75.9018 33.0715 75.9956 32.8562L76.0288 32.8231L75.9956 32.8838C75.808 32.7017 75.808 32.4809 75.9956 32.4809C76.3654 32.4809 76.4317 32.1443 76.6469 32.0781C76.6745 32.4368 76.4537 32.7017 76.393 33.0439ZM70.4104 44.2641L70.3497 44.3248C70.3497 44.3248 70.3497 44.3248 70.3497 44.2641H70.4104ZM70.6918 51.1133H70.7194C70.7064 51.1931 70.7137 51.2749 70.7407 51.3511C70.7677 51.4273 70.8136 51.4955 70.874 51.5493C70.9408 51.6656 70.9927 51.7898 71.0285 51.9191H71.0947C71.0947 51.9191 71.0947 51.8583 71.0947 51.8307C70.9947 51.7452 70.9023 51.651 70.8188 51.5493C70.8446 51.4792 70.8649 51.4073 70.8795 51.334C70.9402 51.2071 70.8188 51.1464 70.6918 51.1464V51.1133ZM71.3707 52.8573C71.31 52.8242 71.2493 52.8242 71.2161 52.7966C71.183 52.769 71.1554 52.7304 71.1554 52.7028H71.2493C71.31 52.7635 71.31 52.8242 71.3431 52.8573H71.3707ZM71.3707 52.8573H71.6797C71.5583 52.9456 71.4645 53.0394 71.3707 52.8573ZM71.6797 52.8573C71.7151 52.7918 71.7688 52.7381 71.8343 52.7028C71.7688 52.7381 71.7151 52.7918 71.6797 52.8573ZM72.3641 52.7028C72.3641 52.7028 72.331 52.7028 72.331 52.7304C72.331 52.7579 72.2096 52.7028 72.1765 52.7028C72.1515 52.6553 72.1419 52.6014 72.1489 52.5482L72.1765 52.4875C72.2285 52.4938 72.28 52.503 72.331 52.5151C72.3267 52.5776 72.338 52.6402 72.3641 52.6972V52.7028ZM74.4393 34.1919C74.4635 34.1441 74.4749 34.0908 74.4724 34.0373C74.4393 34.0704 74.3786 34.0704 74.3786 34.1311C74.3521 34.1679 74.3403 34.2131 74.3455 34.2581C74.3455 34.2857 74.3455 34.2857 74.3455 34.3188C74.3455 34.3519 74.3455 34.2857 74.3455 34.2581C74.3804 34.2393 74.412 34.2151 74.4393 34.1863V34.1919ZM74.8146 33.3254C74.7605 33.3644 74.7089 33.4068 74.66 33.4523C74.6269 33.4523 74.66 33.513 74.66 33.5461C74.66 33.5792 74.7207 33.5461 74.7207 33.513C74.7533 33.4547 74.7757 33.3912 74.787 33.3254L74.8146 33.2922V33.3254ZM75.1236 32.5527C75.1405 32.4999 75.1608 32.4483 75.1843 32.3982C75.1843 32.4589 75.1512 32.4865 75.1512 32.5527H75.1236ZM75.4934 37.0452C75.5678 36.9499 75.6308 36.8461 75.6811 36.7361C75.7142 36.703 75.6479 36.6147 75.6204 36.6147C75.5928 36.6147 75.5265 36.6147 75.4934 36.6754C75.4479 36.7651 75.4073 36.8572 75.372 36.9514C75.372 36.9845 75.4327 37.0176 75.4327 37.0452H75.4934ZM75.4327 33.9766C75.4182 33.9259 75.4071 33.8743 75.3996 33.8221H75.4658V33.789C75.4686 33.8423 75.4686 33.8957 75.4658 33.949L75.4327 33.9766ZM75.4658 33.8221C75.498 33.7002 75.5502 33.5846 75.6204 33.4799C75.6204 33.5737 75.6204 33.6344 75.6204 33.7614C75.6204 33.789 75.5596 33.8221 75.532 33.8221C75.5149 33.8248 75.4973 33.8231 75.481 33.8174C75.4646 33.8116 75.4499 33.8018 75.4382 33.789L75.4658 33.8221ZM76.4868 29.7325C76.4868 30.0084 75.9901 30.2568 75.7418 30.1353C75.7104 30.0964 75.6885 30.0507 75.678 30.0018C75.6674 29.9529 75.6685 29.9023 75.6811 29.8539C75.8481 29.4156 76.0667 28.9987 76.3323 28.6121C76.6083 28.1816 76.7352 27.5911 77.265 27.3758C77.2778 27.3345 77.2778 27.2902 77.265 27.2489C77.265 26.7853 77.5465 26.8184 77.8169 26.8184C77.8169 26.846 77.8169 26.9067 77.8169 26.9398C77.8176 27.0071 77.8388 27.0725 77.8776 27.1275C77.9384 27.0612 77.9715 27.0336 77.9715 26.9729C77.9715 26.9122 77.9715 26.846 77.9715 26.8184L78.0046 26.7853C77.9876 26.8017 77.9761 26.8229 77.9715 26.846H77.8169C77.8776 26.4155 77.9715 26.0402 78.5289 25.9795C78.7497 25.9795 78.7497 25.7311 78.8104 25.5435L78.7773 25.5766C78.9397 25.5057 79.0965 25.4227 79.2464 25.3283C79.3241 25.2692 79.4136 25.2274 79.5087 25.2055C79.6038 25.1837 79.7025 25.1822 79.7983 25.2013C79.9135 25.2154 80.0237 25.2568 80.1197 25.322C80.2157 25.3873 80.2947 25.4746 80.3502 25.5766V25.538C80.1378 25.5043 79.9202 25.5333 79.7241 25.6215C79.528 25.7098 79.362 25.8534 79.2464 26.0347C78.7912 26.6521 78.387 27.3055 78.0377 27.9884C77.9163 28.2037 77.8501 28.3913 77.7617 28.579C77.7039 28.6116 77.6401 28.6322 77.5741 28.6397C77.5134 28.579 77.5134 28.4852 77.4803 28.4244H77.4472C77.5134 28.2975 77.5741 28.2037 77.6348 28.0823L77.6679 28.0491L77.6348 28.1099C77.4472 27.9884 77.3257 28.0216 77.2926 28.2368H77.3975C77.3037 28.2975 77.243 28.3306 77.2098 28.3913C77.1372 28.5473 77.096 28.7161 77.0884 28.888C76.7021 29.0757 76.4537 29.2578 76.4868 29.7269V29.7325ZM75.8356 36.1456C75.8185 36.1434 75.801 36.1452 75.7847 36.151C75.7684 36.1567 75.7537 36.1662 75.7418 36.1787L75.7749 36.2118C75.7831 36.2196 75.7939 36.2239 75.8052 36.2239C75.8165 36.2239 75.8274 36.2196 75.8356 36.2118V36.1456ZM76.5476 31.2778C76.5476 31.2502 76.4537 31.1895 76.4537 31.1564L76.5476 31.0626C76.5807 31.0957 76.6083 31.1233 76.6083 31.1564C76.6083 31.1895 76.5807 31.2116 76.5476 31.2723V31.2778ZM76.6083 32.056V32.0836V32.056ZM76.7683 30.7204L76.7021 30.7535L76.7352 30.6928L76.7683 30.7204ZM77.0112 31.2723C76.9814 31.3412 76.9404 31.4046 76.8897 31.4599C76.8606 31.4435 76.8289 31.4323 76.7959 31.4268C76.8317 31.3408 76.8741 31.2578 76.9228 31.1784C76.9504 31.184 77.0112 31.2116 77.0112 31.2447V31.2723ZM77.5079 28.452C77.4698 28.3795 77.4172 28.3157 77.3533 28.2644H77.3975C77.4583 28.3186 77.5104 28.3819 77.552 28.452H77.5079ZM77.5079 29.876C77.541 29.8428 77.541 29.8428 77.541 29.8152V29.876H77.5079ZM77.541 29.876L77.5079 29.9091V29.876H77.541ZM77.6348 27.4586C77.6348 27.5193 77.5741 27.5524 77.6017 27.5524C77.6293 27.5524 77.6679 27.6463 77.7286 27.6463C77.7893 27.6463 77.7562 27.6131 77.8225 27.5524C77.7562 27.5248 77.6955 27.4696 77.6348 27.431V27.4586ZM77.7893 29.3461L77.7562 29.4399V29.3461H77.7893ZM78.3412 28.2423H78.3744C78.3105 28.3504 78.2587 28.4651 78.2198 28.5845C78.2253 28.452 78.2861 28.3582 78.3137 28.2368L78.3412 28.2423ZM78.3744 26.3824L78.4075 26.3217L78.3137 26.4155L78.3744 26.3824ZM78.3412 28.2423H78.3744C78.4075 28.1816 78.4075 28.0878 78.4351 28.0271C78.4627 27.9664 78.4682 27.7456 78.6227 27.8063C78.6834 27.8394 78.6834 27.994 78.6834 28.0878C78.5692 28.1574 78.4442 28.2077 78.3137 28.2368L78.3412 28.2423ZM78.838 25.5766C78.838 25.5435 78.838 25.5435 78.838 25.5159C78.838 25.4883 78.838 25.5435 78.8987 25.5435L78.838 25.5766ZM78.9925 27.4641C78.976 27.4482 78.9546 27.4385 78.9318 27.4365C78.9485 27.4347 78.9654 27.4362 78.9815 27.4409C78.9976 27.4457 79.0126 27.4536 79.0256 27.4641H78.9925ZM80.4495 42.6912V42.8126V42.8457V42.7188V42.6912ZM80.9186 42.5643H80.8855L80.9186 42.5311V42.5643ZM81.5037 40.9527C81.5482 40.8296 81.6115 40.7142 81.6913 40.6105C81.7529 40.5951 81.8174 40.5951 81.879 40.6105C81.8637 40.6493 81.8412 40.6849 81.8127 40.7154C81.7658 40.8009 81.7142 40.8839 81.6582 40.9637C81.6582 40.9637 81.5644 40.9913 81.5368 40.9913L81.5037 40.9527ZM82.2211 40.7982C82.1429 40.8428 82.0781 40.9076 82.0335 40.9858C82.0751 40.9157 82.1272 40.8524 82.188 40.7982H82.2211Z" fill="white"/>
<path d="M86.9632 43.6128C86.4875 43.8594 86.1142 44.2659 85.909 44.7608C85.8483 44.8822 85.7545 44.9153 85.6607 45.0092C85.3037 45.3855 84.922 45.7377 84.5182 46.0633C84.4244 46.124 84.3637 46.1847 84.3637 46.2785C84.2699 46.8304 83.867 46.8304 83.5248 46.7753C82.8993 46.7639 82.2764 46.6918 81.6649 46.56C81.3691 46.5011 81.098 46.3542 80.8873 46.1385C80.6765 45.9228 80.5359 45.6484 80.4838 45.3513C80.1471 44.1427 80.55 42.2827 81.0357 41.0741C81.2079 40.7515 81.3627 40.4199 81.4993 40.0806C81.7145 39.6778 81.9353 39.3025 82.1506 38.9327C82.2757 38.7469 82.4468 38.5967 82.6473 38.4967C83.0502 38.3145 83.4862 38 83.9166 38.0938C83.9829 38.1269 84.1043 38.0938 84.165 38.0331C84.4134 37.9393 84.5679 37.8178 84.7887 37.7516C85.0977 37.6909 85.2191 37.8785 85.0646 38.3035C84.9708 38.5188 84.7887 38.8554 84.8163 38.9492C84.9101 39.3576 84.6948 39.6667 84.6617 40.053C84.5823 40.4109 84.4791 40.7631 84.3527 41.1072C84.1155 41.8287 83.931 42.5665 83.8007 43.3148C83.8007 43.3755 83.8007 43.4693 83.8339 43.4693C83.867 43.4693 83.9277 43.4693 83.9608 43.4693C84.117 43.3722 84.2614 43.2574 84.3913 43.1272C84.5068 42.9756 84.6322 42.8318 84.7666 42.6967C84.9146 42.5163 85.079 42.35 85.2578 42.2C85.4454 42.0454 85.4785 41.7364 85.6607 41.6481C85.909 41.1845 86.4389 40.9085 86.6541 40.3456C86.9661 40.1635 87.2323 39.9124 87.4323 39.6115C87.5753 39.3524 87.7516 39.113 87.9566 38.8996C88.5747 38.0938 89.226 37.288 89.8165 36.5153C89.9627 36.3717 90.1175 36.2372 90.2801 36.1124C90.3739 36.0793 90.5285 35.9855 90.5947 36.0462C90.7768 36.14 90.9038 35.9855 91.0859 35.9579C91.5219 35.8034 91.7703 36.14 91.7095 36.6368C91.6764 36.6699 91.6764 36.7637 91.6157 36.8244C91.5447 36.9094 91.501 37.0139 91.4902 37.1241C91.4793 37.2344 91.5019 37.3453 91.555 37.4425C91.5667 37.5906 91.546 37.7393 91.4943 37.8785C91.1797 39.3356 90.8707 40.7319 90.5947 42.1558C90.3849 43.3442 90.2704 44.5476 90.2525 45.7542V46.0302C90.2525 46.2509 90.3739 46.3117 90.5009 46.2178C90.9711 45.8873 91.2938 45.3863 91.4005 44.8215C91.4005 44.7884 91.4612 44.7608 91.5219 44.7608V44.7884L91.4943 44.7608C91.5826 44.6339 91.7095 44.5456 91.7703 44.4517C92.0793 43.3479 93.9779 41.5046 94.3753 40.5884C94.3753 40.5553 94.4028 40.5553 94.436 40.5222C94.6236 40.3069 94.9327 40.1193 95.0872 40.2738C95.2417 40.4283 95.5232 40.6767 95.3356 40.9582C94.5905 42.4483 95.2417 40.9582 94.4967 42.5697C93.8544 43.7733 93.1507 44.943 92.3884 46.0743C92.1124 46.4441 91.8034 46.7863 91.555 47.1781C91.4582 47.4061 91.2919 47.5977 91.0798 47.7255C90.8678 47.8534 90.6207 47.911 90.3739 47.8901C89.9103 47.8294 89.4743 47.7963 89.0714 47.7687C88.9169 47.7356 88.7624 47.6749 88.6078 47.6417C88.4719 47.5833 88.3542 47.4895 88.2668 47.3701C88.1795 47.2507 88.1257 47.1101 88.1111 46.9629C87.9124 45.959 87.9124 44.9258 88.1111 43.9219C88.3595 42.9285 88.205 42.9616 88.514 41.5377C88.1442 41.7529 88.205 42.0344 87.9621 42.3711C87.7199 42.8126 87.3937 43.2026 87.0018 43.519C87.0945 43.3536 87.1668 43.1775 87.217 42.9947V42.923H87.1232C87.032 43.0307 86.949 43.145 86.8749 43.2651C86.7203 43.5135 86.908 43.5135 87.0018 43.5411C86.9963 43.5797 86.9963 43.6128 86.9632 43.6128ZM87.1508 40.9802L87.1839 40.9471H87.1508V40.9802Z" fill="white"/>
<path d="M98.0331 40.2352C98.0019 40.2823 97.9794 40.3346 97.9668 40.3897C97.9668 40.5443 97.873 40.7319 97.9392 40.7926C98.0938 40.9471 98.1876 40.6988 98.2759 40.605C99.1479 39.8599 99.9813 39.0541 100.914 38.3973C101.124 38.2704 101.342 38.1561 101.565 38.0552C101.593 37.9945 101.753 38.022 101.814 38.0883C101.869 38.1508 101.904 38.2283 101.915 38.3108C101.925 38.3934 101.911 38.4773 101.874 38.5519C101.716 38.6486 101.57 38.7634 101.438 38.8941C100.605 39.5729 99.7826 40.2849 98.9603 40.9692C98.7252 41.1823 98.4763 41.3796 98.2152 41.5598C98.1375 41.6276 98.0774 41.7132 98.0399 41.8093C98.0024 41.9054 97.9887 42.0091 97.9999 42.1117C98.0331 42.7629 98.0607 42.6636 98.1214 43.3203C98.4028 44.2199 99.1479 45.2134 98.7119 45.4286C98.5574 45.4893 98.8996 45.6439 99.0541 45.5224C99.2086 45.401 99.1479 45.4617 99.2693 45.3017C99.3336 45.211 99.4157 45.1343 99.5106 45.0764C99.6055 45.0185 99.7112 44.9806 99.8212 44.965C99.8875 45.0257 99.9151 45.0257 99.9151 45.0588C99.9151 45.092 99.9151 45.1471 99.8875 45.1803C99.8599 45.2134 99.9482 45.0864 99.9758 45.0588C100.003 45.0312 100.07 44.9926 100.07 44.9319C100.17 44.869 100.264 44.797 100.351 44.7167C100.409 44.66 100.461 44.5971 100.506 44.529C100.599 44.4959 100.627 44.4352 100.693 44.3414L100.754 44.2199C100.721 44.2807 100.721 44.3414 100.693 44.3414C100.667 44.421 100.612 44.4879 100.539 44.529C100.482 44.597 100.419 44.6598 100.351 44.7167C100.196 44.7212 100.04 44.7101 99.8875 44.6835V44.7167C100.108 44.4153 100.356 44.1345 100.627 43.8778C101.096 43.3259 101.587 42.8236 102.056 42.3269C102.084 42.2662 102.178 42.2331 102.178 42.2055C102.239 41.5211 102.956 41.2728 103.204 40.6546C103.234 40.5956 103.278 40.5446 103.332 40.5061C103.386 40.4677 103.448 40.4429 103.513 40.4339C103.747 40.3176 103.999 40.2447 104.259 40.2186C104.363 40.1917 104.474 40.1961 104.576 40.2314C104.678 40.2667 104.768 40.3313 104.834 40.4172C104.9 40.5031 104.939 40.6064 104.947 40.7144C104.954 40.8223 104.93 40.9302 104.877 41.0244C104.675 41.4852 104.448 41.9348 104.198 42.3711C103.795 42.8954 103.392 43.4749 102.962 44.0268C102.559 44.4904 102.09 44.8933 101.659 45.3624C101.505 45.5445 101.256 45.7653 101.069 45.9805C101.008 46.0817 100.921 46.1642 100.817 46.2188C100.713 46.2734 100.595 46.2979 100.478 46.2896C100.202 46.2289 99.9261 46.4772 99.7053 46.2289C99.7808 46.1954 99.8457 46.142 99.893 46.0743C100.23 46.0743 100.23 46.0743 100.202 45.7653C100.23 45.7322 100.323 45.6715 100.357 45.6107C100.323 45.6715 100.23 45.7322 100.202 45.7929C100.118 45.9044 100.024 46.0079 99.9206 46.1019C99.8267 46.1958 99.766 46.1958 99.7384 46.262C99.4846 46.4165 99.1865 46.4772 99.0541 46.7863C98.9603 47.0015 98.8664 46.7532 98.745 46.7532C98.6512 46.847 98.5905 46.974 98.4359 47.0347C98.1286 47.1146 97.8279 47.2179 97.5363 47.3437C97.3039 47.4184 97.0527 47.4097 96.826 47.319C96.5993 47.2284 96.4113 47.0614 96.2946 46.847C96.2338 46.5987 96.0131 46.5048 95.9248 46.3503C95.7708 46.2042 95.6252 46.0494 95.4888 45.8867C95.4444 45.7909 95.3928 45.6986 95.3342 45.6107C95.1135 45.0588 95.0252 45.0588 94.683 45.5169C94.4678 45.7929 94.2194 46.1351 93.971 46.4441C93.7595 46.7369 93.531 47.017 93.2867 47.283C93.1897 47.4203 93.0649 47.5355 92.9203 47.6211C92.7757 47.7067 92.6147 47.7607 92.4478 47.7797C92.2868 47.7929 92.1249 47.7689 91.9747 47.7096C91.8244 47.6502 91.6898 47.5572 91.5813 47.4376C91.4875 47.3768 91.4875 47.1561 91.5206 47.0954C91.9235 46.4165 92.3871 46.1958 92.8231 45.5445C93.2591 44.8933 93.8165 44.5566 94.247 43.9661C94.3733 43.7766 94.4876 43.5794 94.5892 43.3755C94.6196 43.3468 94.6433 43.3115 94.6584 43.2725C94.6735 43.2334 94.6797 43.1914 94.6765 43.1496C94.6733 43.1079 94.6609 43.0673 94.64 43.031C94.6192 42.9946 94.5905 42.9634 94.5561 42.9395C94.5892 42.4759 93.8441 40.8312 93.9379 40.4008C94.0052 40.2388 94.0294 40.0621 94.0081 39.888C93.9868 39.714 93.9208 39.5483 93.8165 39.4073C93.7984 39.3569 93.7915 39.3031 93.7963 39.2498C93.8011 39.1964 93.8174 39.1447 93.8441 39.0983C93.9127 39.0061 93.9573 38.8983 93.9737 38.7845C93.99 38.6708 93.9778 38.5548 93.9379 38.447C93.9172 38.04 93.96 37.6322 94.0649 37.2383C94.0649 37.1776 94.1863 37.0838 94.1863 37.0838C94.2176 37.0863 94.2471 37.0999 94.2693 37.1222C94.2916 37.1444 94.3052 37.1739 94.3077 37.2052C94.4346 37.3598 94.5892 37.5805 94.4953 37.7958C94.4953 37.7958 94.4953 37.7958 94.4346 37.8289C94.3739 37.862 94.4677 37.7958 94.4677 37.7627C94.5355 37.5723 94.5872 37.3766 94.6223 37.1776C94.7437 36.8355 95.2404 36.9293 95.6433 36.9293C95.8359 36.8788 96.0348 36.8565 96.2338 36.863C96.4491 36.9293 96.5429 37.0507 96.7306 36.9293C96.7582 36.863 96.9458 36.9293 97.0065 37.0231C97.169 37.1804 97.2773 37.3852 97.3156 37.6081C97.4964 38.3347 97.631 39.0721 97.7185 39.8157C97.7829 39.9848 97.8915 40.1335 98.0331 40.2462V40.2352ZM95.8254 42.062C95.7978 42.062 95.7978 42.0951 95.7978 42.1227H95.6102V42.062L95.6378 42.0951C95.6709 42.1558 95.7316 42.2165 95.7978 42.3104V42.4649H95.8585C95.8509 42.4007 95.8303 42.3387 95.7978 42.2828V42.0951C95.7978 42.0951 95.7702 42.062 95.7978 42.062H95.8254ZM95.8585 45.5335C95.8585 45.5335 95.8254 45.5335 95.7978 45.4728C95.8059 45.3994 95.7945 45.3251 95.7647 45.2575C95.7618 45.2338 95.75 45.2121 95.7316 45.1968C95.7316 45.2244 95.6709 45.2575 95.6709 45.2575C95.7233 45.3229 95.766 45.3953 95.7978 45.4728C95.7978 45.5059 95.831 45.5059 95.831 45.5335H95.8585ZM95.8585 43.2707V43.3038C95.8585 43.4252 95.9193 43.4583 95.9524 43.5521C95.98 43.5521 95.98 43.519 96.0407 43.4583C95.9524 43.4252 95.9248 43.3369 95.8585 43.2707ZM96.852 45.7818V45.5997C96.7306 45.4121 96.4491 45.4728 96.3553 45.1968L96.2946 45.2575C96.4491 45.5059 96.3553 45.9088 96.6974 46.0909C96.7306 46.1571 96.7306 46.1847 96.7582 46.1847C96.7858 46.1847 96.8851 46.2178 96.8851 46.251C96.8851 46.1847 96.8851 46.1847 96.8189 46.1847C96.7749 46.1424 96.7221 46.1104 96.6643 46.0909C96.7359 45.984 96.7987 45.8714 96.852 45.7542V45.7818ZM97.3156 45.3182C97.23 45.4481 97.1872 45.6014 97.1931 45.7568C97.199 45.9122 97.2534 46.0618 97.3487 46.1847C97.3813 46.2246 97.4245 46.2545 97.4733 46.271C97.522 46.2876 97.5745 46.2902 97.6246 46.2786C97.7185 46.2178 97.9061 46.0633 97.9061 46.0633C97.7666 45.7795 97.6002 45.5097 97.4094 45.2575C97.3487 45.2575 97.3156 45.2851 97.3156 45.3182ZM98.0331 40.2352C98.0691 40.1345 98.1359 40.0477 98.2241 39.9873C98.3123 39.9268 98.4174 39.8958 98.5243 39.8985C98.4959 40.004 98.4309 40.0958 98.3408 40.1576C98.2508 40.2193 98.1416 40.2468 98.0331 40.2352ZM98.6788 39.7716L98.5243 39.9261L98.4635 39.2749C98.4967 39.2418 98.6181 39.8268 98.6788 39.8268V39.7716ZM98.6788 39.7992C98.6788 39.7385 98.6181 39.6778 98.6181 39.6447C98.7361 39.4136 98.8929 39.2045 99.0817 39.0265C99.2113 38.983 99.3496 38.9717 99.4846 38.9934V38.9603C99.2693 39.3025 99.1148 39.7054 98.6788 39.7716V39.7992ZM99.7826 38.6512C99.6888 38.7782 99.5674 38.872 99.5011 38.9603V38.9934C99.5011 38.7782 99.5674 38.6236 99.8157 38.6512H99.7826ZM99.7826 38.6512H99.8433H99.7826ZM99.9095 44.8546C99.7826 44.7884 99.8157 44.7608 99.9095 44.7001V44.667C99.9095 44.7608 99.9095 44.7884 99.9371 44.8215L99.9095 44.8546ZM99.9095 44.8546L99.9371 44.8215C99.9702 44.8822 100.064 44.8822 100.092 44.9153C100.119 44.9485 100.064 45.0092 99.9978 45.0423H99.9371C99.9371 45.0092 99.9095 45.0092 99.8433 44.9485C99.8599 44.8822 99.8599 44.8822 99.893 44.8546H99.9095Z" fill="white"/>
<path d="M110.215 40.5774C110.491 40.3567 110.121 41.3501 110.308 41.1293C110.496 40.9086 110.618 40.6326 110.772 40.7872C110.927 40.9417 110.833 41.2508 110.711 41.4991C110.651 41.6536 110.524 41.7475 110.584 41.8744C110.739 42.1172 109.315 44.2255 108.106 45.8095C107.608 46.429 107.012 46.9622 106.34 47.3879C105.887 47.6403 105.364 47.7391 104.85 47.6694C104.602 47.6087 104.353 47.6087 104.044 47.5149C103.829 47.4818 103.608 47.4818 103.426 47.4542C102.836 47.2996 102.554 46.7698 102.587 45.964C102.609 45.659 102.51 45.3577 102.311 45.1251C102.311 45.1251 102.311 45.0644 102.339 45.0644C102.367 45.0644 102.311 45.1251 102.311 45.1582C102.151 45.0037 102.339 44.783 102.311 44.6063C102.284 44.4297 102.124 44.3856 102.124 44.2642C102.094 43.7624 102.146 43.2591 102.278 42.774C102.62 42.0014 102.775 41.0079 103.178 40.2021C103.383 39.6344 103.676 39.102 104.044 38.6237C104.105 38.4968 104.199 38.3422 104.293 38.1877C104.508 37.8179 104.696 37.415 105.038 37.255C105.098 37.255 105.192 37.1059 105.314 37.0121C105.335 36.9361 105.372 36.8652 105.421 36.8036C105.47 36.7419 105.532 36.6908 105.601 36.6532C105.671 36.6157 105.747 36.5924 105.825 36.5849C105.904 36.5773 105.983 36.5856 106.059 36.6092C106.462 36.7914 106.837 36.6092 107.207 36.7307C107.673 36.8193 108.1 37.0481 108.433 37.3864C108.765 37.7246 108.986 38.1563 109.067 38.6237C109.177 39.0066 109.198 39.4096 109.128 39.8019C109.058 40.1942 108.9 40.5653 108.664 40.8865C108.549 41.1106 108.378 41.3008 108.167 41.4384C107.693 41.894 107.174 42.2991 106.616 42.6471C105.844 43.05 105.75 43.2983 105.562 44.3028C105.533 44.383 105.512 44.4663 105.501 44.5512C105.501 44.8326 105.408 45.1748 105.534 45.2631C105.628 45.5115 105.844 45.1748 105.998 45.1086C106.504 44.7957 106.973 44.4253 107.394 44.0048C107.643 43.4805 108.046 43.2321 108.322 42.7023V42.7354C108.415 42.6747 108.449 42.6084 108.542 42.5477C109.1 41.8799 109.751 41.4439 110.215 40.5774ZM105.408 39.2418H105.347L105.38 39.3356L105.408 39.2418ZM107.615 38.7782C107.561 38.6977 107.498 38.6236 107.428 38.5575C107.428 38.4968 107.334 38.6237 107.306 38.6844C107.025 39.3356 106.754 39.9869 106.5 40.6381C106.497 40.6911 106.506 40.7443 106.528 40.7927H106.594C106.688 40.6381 106.809 40.5112 106.87 40.3898C107.367 40.1414 107.422 39.5509 107.582 39.0266C107.587 38.9434 107.596 38.8604 107.61 38.7782H107.615ZM108.305 42.7133C108.244 42.7133 108.211 42.5588 108.338 42.465L108.526 42.5588C108.432 42.6195 108.399 42.6857 108.305 42.7464V42.7133ZM109.409 41.753C109.254 41.753 109.315 41.8799 109.436 41.753H109.409Z" fill="white"/>
</svg>
