<svg width="140" height="70" viewBox="0 0 140 70" fill="none" xmlns="http://www.w3.org/2000/svg">
<mask id="mask0_2595_5638" style="mask-type:alpha" maskUnits="userSpaceOnUse" x="38" y="3" width="65" height="65">
<rect x="38" y="3" width="65" height="65" rx="6.92222" fill="white"/>
</mask>
<g mask="url(#mask0_2595_5638)">
<path d="M52.2146 29.7182H54.3144V41.9498H52.2146V29.7182ZM52.2146 25.0941H54.3144V27.4349H52.2146V25.0941Z" fill="white"/>
<path d="M59.0533 25.0941L63.8954 39.4484L68.6802 25.0941H71.2389L65.0887 41.9498H62.6677L56.5289 25.0941H59.0533Z" fill="white"/>
<path d="M76.9531 29.3855C77.8252 29.3855 78.6704 29.592 79.4889 30.0051C80.3074 30.4105 80.9309 30.9383 81.3592 31.5886C81.7723 32.2082 82.0477 32.931 82.1854 33.7572C82.3078 34.3233 82.369 35.2259 82.369 36.4651H73.3617C73.3999 37.712 73.6944 38.7141 74.2452 39.4714C74.796 40.221 75.6489 40.5959 76.804 40.5959C77.8825 40.5959 78.7431 40.2402 79.3857 39.5287C79.7529 39.1157 80.0129 38.6376 80.1659 38.0945H82.1969C82.1433 38.5458 81.9636 39.0507 81.6576 39.6091C81.3592 40.1598 81.0227 40.6112 80.6478 40.963C80.0206 41.575 79.2442 41.9881 78.3186 42.2023C77.8213 42.3246 77.2591 42.3858 76.6318 42.3858C75.1019 42.3858 73.8054 41.8313 72.7421 40.7221C71.6788 39.6052 71.1471 38.0447 71.1471 36.0406C71.1471 34.067 71.6826 32.4644 72.7535 31.2329C73.8245 30.0013 75.2243 29.3855 76.9531 29.3855ZM80.2462 34.8243C80.1621 33.9293 79.967 33.2141 79.6611 32.6786C79.095 31.6842 78.1503 31.187 76.8269 31.187C75.8784 31.187 75.0828 31.5312 74.4403 32.2196C73.7977 32.9004 73.4573 33.7687 73.4191 34.8243H80.2462Z" fill="white"/>
<path d="M85.3293 26.2301H87.4177V29.6609H89.3798V31.3476H87.4177V39.3681C87.4177 39.7965 87.563 40.0833 87.8537 40.2287C88.0143 40.3128 88.2821 40.3549 88.6569 40.3549C88.7563 40.3549 88.8634 40.3549 88.9782 40.3549C89.0929 40.3472 89.2268 40.3358 89.3798 40.3205V41.9498C89.1426 42.0187 88.894 42.0684 88.6339 42.099C88.3815 42.1296 88.1061 42.1449 87.8078 42.1449C86.844 42.1449 86.1899 41.9001 85.8457 41.4105C85.5015 40.9133 85.3293 40.2708 85.3293 39.4829V31.3476H83.6656V29.6609H85.3293V26.2301Z" fill="white"/>
</g>
<mask id="mask1_2595_5638" style="mask-type:alpha" maskUnits="userSpaceOnUse" x="38" y="3" width="65" height="65">
<rect x="38" y="3" width="65" height="65" rx="6.92222" fill="white"/>
</mask>
<g mask="url(#mask1_2595_5638)">
<path d="M98.6683 48.0612L57.2326 82.1916C49.7906 88.3216 39.036 88.2745 31.6479 82.0796C24.2615 75.8798 22.3464 65.2942 27.0925 56.8994L53.5114 10.1716C55.4621 6.7075 58.8573 4.2949 62.7703 3.59215C66.6808 2.87677 70.7064 3.94477 73.748 6.50451L75.4507 7.9327L73.8076 9.89354L72.1032 8.46354C69.6434 6.39469 66.3891 5.53079 63.2271 6.10729C60.0627 6.67579 57.3168 8.626 55.7376 11.4265L29.3169 58.1614C25.1805 65.4828 26.8518 74.7127 33.2928 80.1188C39.7358 85.5216 49.115 85.5634 55.6058 80.2181L97.0397 46.0841C99.5232 44.0429 100.967 41.0004 100.978 37.7858C100.997 34.571 99.5798 31.5155 97.1137 29.4531L95.4129 28.0249L97.056 26.0641L98.7604 27.4941C101.809 30.0459 103.561 33.8245 103.538 37.8002C103.524 41.7751 101.739 45.5369 98.6683 48.0612Z" fill="white"/>
<path d="M96.4674 104.053C100.916 95.4945 105.181 87.2846 111.603 82.6299L111.363 82.3157L109.632 80.0335L109.397 79.7266C102.283 84.9356 97.6988 93.7575 93.2246 102.366C86.0385 116.193 78.6087 130.493 60.8456 131.801C47.9052 132.752 36.3533 126.285 30.6983 114.919C26.3017 106.08 26.3234 96.2203 30.4455 87.6475C31.3392 85.7878 33.5781 85.0349 35.4505 85.907C38.109 87.1468 40.9998 87.8101 43.933 87.8534C48.6981 87.9159 53.3404 86.3417 57.0846 83.3936C57.2704 83.2557 57.3828 83.0405 57.3898 82.8092C57.3969 82.578 57.2977 82.3563 57.1208 82.2074L55.1112 80.5228C54.843 80.2973 54.4549 80.2861 54.1741 80.4957C47.9769 85.1266 39.4048 84.8721 33.4933 79.8818C27.5521 74.9253 25.8122 66.527 29.2953 59.6181C29.4513 59.3049 29.3722 58.9255 29.104 58.7009L27.1178 57.0325C26.945 56.8788 26.7115 56.8124 26.4836 56.8521C26.2557 56.8918 26.0584 57.0334 25.9478 57.2366C23.6864 61.44 22.938 66.2928 23.8281 70.9822C24.3773 73.8503 25.524 76.5707 27.1937 78.9664C28.481 80.8153 28.5876 83.2257 27.5566 85.2281C22.5371 94.9889 22.362 106.371 27.4266 116.547C29.5238 120.798 32.4768 124.569 36.1005 127.624C42.828 133.27 51.6409 136.143 61.1128 135.444C80.9126 133.987 89.1748 118.082 96.4674 104.053Z" fill="white"/>
<path fill-rule="evenodd" clip-rule="evenodd" d="M79.8176 10.0526C79.8907 10.1014 79.9585 10.1576 80.0199 10.2205L80.0181 10.2223C80.8803 11.0187 81.1061 12.2921 80.5703 13.3364C80.0345 14.3806 78.8685 14.9399 77.7187 14.704C76.5689 14.4681 75.7173 13.4949 75.636 12.324L73.4061 10.0255C73.101 9.71137 73.1118 9.18053 73.4296 8.80137L74.2638 7.8065C74.5815 7.42734 75.1033 7.32623 75.4645 7.57178L78.3461 9.52359C78.8793 9.54464 79.3931 9.72935 79.8176 10.0526ZM95.0835 23.5706L97.4036 25.963C97.7088 26.2771 97.6979 26.808 97.3802 27.1872L96.5442 28.182C96.2282 28.5612 95.7046 28.6623 95.3435 28.4167L92.5864 26.548C91.1789 26.5974 89.9851 25.5231 89.8866 24.1181C89.788 22.7132 90.82 21.4827 92.2207 21.3351C93.6213 21.1875 94.8871 22.176 95.0835 23.5706Z" fill="white"/>
</g>
</svg>
