<svg width="140" height="70" viewBox="0 0 140 70" fill="none" xmlns="http://www.w3.org/2000/svg">
<path d="M54.2159 52.7432C56.5439 52.7432 58.4311 54.6304 58.4311 56.9583V62.719C58.4311 62.8743 58.3055 63.0001 58.1501 63.0001H57.0259C56.871 63.0001 56.7448 62.8743 56.7448 62.719V56.9583C56.7448 55.5615 55.6128 54.4292 54.2159 54.4292C52.8191 54.4292 51.687 55.5615 51.687 56.9583V62.719C51.687 62.8743 51.5609 63.0001 51.406 63.0001H50.2818C50.1263 63.0001 50.0007 62.8743 50.0007 62.719V56.9583C50.0007 54.6304 51.888 52.7432 54.2159 52.7432Z" fill="white"/>
<path d="M50.2818 52.7432H51.406C51.5609 52.7432 51.687 52.869 51.687 53.0242V62.157C51.687 62.3122 51.5609 62.438 51.406 62.438H50.2818C50.1263 62.438 50.0007 62.3122 50.0007 62.157V53.0242C50.0007 52.869 50.1263 52.7432 50.2818 52.7432Z" fill="white"/>
<path d="M68.2663 62.9999C72.4098 62.9999 75.7133 59.6973 75.7133 55.6233C75.7133 51.5494 72.4098 48.2468 68.2663 48.2468C67.8963 48.2468 67.2871 48.2468 66.4382 48.2468V50.0734H68.2663C71.4798 50.0734 74.0271 52.6208 74.0271 55.7638C74.0271 58.9069 71.4798 61.3138 68.2663 61.3138C67.8869 61.3138 67.2777 61.3138 66.4382 61.3138V62.9999H68.2663Z" fill="white"/>
<path d="M65.1751 48.2468H66.5803V62.9999H65.1751C65.0197 62.9999 64.894 62.8741 64.894 62.7188V48.5278C64.894 48.3726 65.0197 48.2468 65.1751 48.2468Z" fill="white"/>
<path fill-rule="evenodd" clip-rule="evenodd" d="M33 55.6233C33 51.5494 36.3026 48.2468 40.3765 48.2468C44.4502 48.2468 47.7532 51.5494 47.7532 55.6233C47.7532 59.6973 44.4502 62.9999 40.3765 62.9999C36.3026 62.9999 33 59.6973 33 55.6233ZM40.3765 49.9329C37.2338 49.9329 34.6861 52.4806 34.6861 55.6233C34.6861 58.7661 37.2338 61.3138 40.3765 61.3138C43.5191 61.3138 46.0669 58.7661 46.0669 55.6233C46.0669 52.4806 43.5191 49.9329 40.3765 49.9329Z" fill="white"/>
<path d="M101.511 56.3138L104.801 53.1038C104.854 53.0526 104.924 53.024 104.997 53.024H106.792C106.869 53.024 106.933 53.0869 106.933 53.1645C106.933 53.2017 106.918 53.2375 106.891 53.2638L103.268 56.8879L108.068 62.7699C108.117 62.8301 108.108 62.9186 108.048 62.9677C108.022 62.9882 107.991 62.9993 107.959 62.9993L106.28 62.9965C106.196 62.9963 106.117 62.9591 106.064 62.8949L102.073 58.0821L101.511 58.6442V62.7153C101.511 62.8704 101.386 62.9963 101.23 62.9963H100.106C99.9511 62.9963 99.825 62.8704 99.825 62.7153V49.2303C99.825 49.0752 99.9511 48.9493 100.106 48.9493H101.23C101.386 48.9493 101.511 49.0752 101.511 49.2303V56.3138Z" fill="white"/>
<path d="M97.422 54.2996L97.3686 54.2414C96.4773 53.3156 95.248 52.7432 93.8893 52.7432C92.494 52.7432 91.2343 53.3103 90.3377 54.2639C89.4799 55.1807 88.9634 56.4457 88.9634 57.8716C88.9634 60.8445 91.1688 63.0001 93.8893 63.0001C95.2422 63.0001 96.4679 62.4321 97.3582 61.5129L97.3545 61.5091L97.4163 61.4438C97.5199 61.3344 97.5183 61.1629 97.4137 61.0549L96.6302 60.2494C96.525 60.141 96.3528 60.1366 96.2418 60.2379C95.6447 60.9055 94.801 61.314 93.8893 61.314C92.0879 61.314 90.6497 59.9009 90.6497 57.8716C90.6497 55.8422 92.0879 54.4292 93.8893 54.4292C94.8036 54.4292 95.6494 54.8401 96.2471 55.5111C96.3591 55.6065 96.5271 55.6 96.6312 55.4931L97.4163 54.6853C97.5204 54.5786 97.523 54.4094 97.422 54.2996Z" fill="white"/>
<path d="M77.6096 57.8716C77.6096 54.9756 79.7402 52.7432 82.5355 52.7432C85.2283 52.7432 87.3725 54.9745 87.4589 57.7001C87.44 57.8367 87.3223 57.9419 87.1804 57.9419H80.7284C80.5734 57.9419 80.4473 57.8161 80.4473 57.6609V56.9583C80.4473 56.8031 80.5734 56.6773 80.7284 56.6773H85.5768C85.1142 55.3461 83.9015 54.4292 82.5355 54.4292C80.7346 54.4292 79.2959 55.8422 79.2959 57.8716C79.2959 59.9009 80.7346 61.314 82.5355 61.314C83.4478 61.314 84.2909 60.9055 84.8886 60.2379C84.999 60.1366 85.1712 60.141 85.2769 60.2494L86.0599 61.0549C86.1651 61.1629 86.1661 61.3344 86.0625 61.4438L86.0008 61.5091L86.0044 61.5129C85.1184 62.4294 83.8973 63.0001 82.5355 63.0001C79.7402 63.0001 77.6096 60.7676 77.6096 57.8716Z" fill="white"/>
<path fill-rule="evenodd" clip-rule="evenodd" d="M79.78 15.9432H83.826C84.1916 15.9432 84.488 16.2396 84.488 16.6052V18.26C84.488 18.6256 84.1916 18.922 83.826 18.922H82.0074C81.4046 17.8266 80.653 16.8247 79.78 15.9432ZM77.1355 18.922H70.2564C69.8908 18.922 69.5945 18.6256 69.5945 18.26V16.6052C69.5945 16.2396 69.8908 15.9432 70.2564 15.9432C72.9692 15.9432 75.4147 17.0885 77.1355 18.922ZM77.1355 31.8297C75.4147 33.6631 72.9692 34.8084 70.2564 34.8084C69.8908 34.8084 69.5945 34.512 69.5945 34.1465V32.4916C69.5945 32.1261 69.8908 31.8297 70.2564 31.8297H77.1355ZM82.0074 31.8297H83.826C84.1916 31.8297 84.488 32.1261 84.488 32.4916V34.1465C84.488 34.512 84.1916 34.8084 83.826 34.8084H79.78C80.653 33.927 81.4046 32.925 82.0074 31.8297ZM79.3589 27.8581C79.0643 28.9409 78.5817 29.9462 77.9483 30.8368H70.2564C69.8908 30.8368 69.5945 30.5404 69.5945 30.1748V28.52C69.5945 28.1544 69.8908 27.8581 70.2564 27.8581H79.3589ZM83.4311 27.8581H83.826C84.1916 27.8581 84.488 28.1544 84.488 28.52V30.1748C84.488 30.5404 84.1916 30.8368 83.826 30.8368H82.5013C82.9215 29.8962 83.2364 28.8983 83.4311 27.8581ZM79.572 23.8865C79.649 24.3716 79.689 24.869 79.689 25.3758C79.689 25.8826 79.649 26.3801 79.572 26.8652H70.2564C69.8908 26.8652 69.5945 26.5688 69.5945 26.2033V24.5484C69.5945 24.1828 69.8908 23.8865 70.2564 23.8865H79.572ZM83.5787 23.8865H83.826C84.1916 23.8865 84.488 24.1828 84.488 24.5484V26.2033C84.488 26.5688 84.1916 26.8652 83.826 26.8652H83.5787C83.6328 26.3762 83.6605 25.8793 83.6605 25.3758C83.6605 24.8724 83.6328 24.3755 83.5787 23.8865ZM77.9483 19.9149C78.5817 20.8055 79.0643 21.8108 79.3589 22.8935H70.2012C69.8356 22.8935 69.5393 22.5972 69.5393 22.2316V20.5768C69.5393 20.2112 69.8356 19.9149 70.2012 19.9149H77.9483ZM82.5013 19.9149H83.7709C84.1364 19.9149 84.4328 20.2112 84.4328 20.5768V22.2316C84.4328 22.5972 84.1364 22.8935 83.7709 22.8935H83.4311C83.2364 21.8534 82.9215 20.8555 82.5013 19.9149Z" fill="white"/>
<path fill-rule="evenodd" clip-rule="evenodd" d="M70.2015 42.7516C60.6051 42.7516 52.8257 34.9722 52.8257 25.3758C52.8257 15.7794 60.6051 8 70.2015 8C79.7979 8 87.5772 15.7794 87.5772 25.3758C87.5772 34.9722 79.7979 42.7516 70.2015 42.7516ZM70.2015 38.7799C77.6044 38.7799 83.6056 32.7787 83.6056 25.3758C83.6056 17.9729 77.6044 11.9716 70.2015 11.9716C62.7985 11.9716 56.7973 17.9729 56.7973 25.3758C56.7973 32.7787 62.7985 38.7799 70.2015 38.7799Z" fill="white"/>
</svg>
