<svg width="140" height="70" viewBox="0 0 140 70" fill="none" xmlns="http://www.w3.org/2000/svg">
<path fill-rule="evenodd" clip-rule="evenodd" d="M70.6714 37.4945C61.8252 37.5185 54.5521 30.3903 54.5345 21.6802C54.5168 12.97 61.7435 5.79136 70.5826 5.76654C79.4352 5.74173 86.6867 12.8579 86.7067 21.5905C86.7267 30.323 79.5305 37.4713 70.6714 37.4945ZM59.5355 18.4418L56.0347 22.3709C56.2172 24.8719 56.8761 27.0871 58.2122 29.1757L63.367 30.3357L66.2683 26.5371C66.0657 25.7701 65.8904 25.1073 65.7127 24.4356C67.4291 24.2098 74.7511 24.2643 75.7197 24.5068C75.5863 24.9497 75.4529 25.392 75.3204 25.831L75.3176 25.8403L75.3114 25.8611L75.3086 25.8702L74.9672 27.0022L77.5362 30.5463L82.9696 29.3398C84.2401 27.3072 85.0295 25.1857 85.1544 22.764L81.539 18.6947L77.1744 19.9997L75.9583 23.1515H65.254L64.1908 19.9925L59.5355 18.4418ZM66.8387 27.2564H74.0438L76.7361 31.0327L73.9557 35.6391C71.6054 36.226 69.1419 36.1835 66.8131 35.5159L64.052 30.9446L66.8387 27.2564ZM71.0863 15.0355L73.0821 18.4539C73.7518 18.0733 74.3695 17.6373 74.9948 17.1959C75.9333 16.5334 76.889 15.8588 78.0633 15.3413C77.8447 16.6887 77.667 17.7871 77.4676 19.0191L81.3103 17.8047C81.4157 16.7212 81.5182 15.6648 81.6206 14.6099L81.8323 12.4297C80.2928 10.542 78.3619 9.21382 76.1059 8.28356L71.0863 10.4131V15.0355ZM59.8253 16.9154C59.6871 15.4343 59.5488 13.9532 59.4106 12.4232C61.0446 10.4963 62.9507 9.18735 65.2507 8.25309L70.175 10.3762C70.175 10.7092 70.1753 11.0425 70.1755 11.3761C70.1764 12.4897 70.1772 13.6065 70.1686 14.7232C70.1623 14.8998 70.1123 15.072 70.0229 15.2244C69.5646 16.0102 69.0984 16.7933 68.6194 17.598C68.4532 17.8772 68.2854 18.1589 68.116 18.4443C67.4549 18.0634 66.8455 17.6261 66.2302 17.1845C65.2934 16.5121 64.3428 15.8299 63.1749 15.3221C63.3048 16.0125 63.4224 16.636 63.5395 17.2574C63.6419 17.8002 63.744 18.3415 63.8538 18.9246L59.891 17.6197C59.8691 17.3848 59.8472 17.1501 59.8253 16.9154Z" fill="white"/>
<path fill-rule="evenodd" clip-rule="evenodd" d="M31.1189 63C32.4659 63 33.4891 62.592 34.1886 61.776C34.888 60.96 35.2377 59.8007 35.2377 58.2983V50.352C35.2377 48.9143 34.888 47.8295 34.1886 47.0977C33.4891 46.3659 32.4659 46 31.1189 46C29.7718 46 28.7486 46.3659 28.0491 47.0977C27.3497 47.8295 27 48.9143 27 50.352V58.2983C27 59.7878 27.3497 60.9438 28.0491 61.7663C28.7486 62.5887 29.7718 63 31.1189 63ZM31.1225 59.9298C30.8117 59.9298 30.598 59.8068 30.4814 59.5607C30.3648 59.3146 30.3066 58.9519 30.3066 58.4727V50.3321C30.3066 49.4902 30.585 49.0693 31.142 49.0693C31.4399 49.0693 31.6374 49.1826 31.7345 49.4093C31.8317 49.6359 31.8803 49.9306 31.8803 50.2933V58.4532C31.8803 58.9195 31.8285 59.2822 31.7248 59.5412C31.6212 59.8003 31.4205 59.9298 31.1225 59.9298ZM39.8421 54.4908V62.8451H36.5781V46.156H40.0169L41.5518 54.1411V46.156H44.7769V62.8451H41.5129L39.8421 54.4908ZM55.5789 62.8451V49.3617H57.5606V46.156H50.2555V49.3617H52.2372V62.8451H55.5789ZM61.8141 55.268V62.8451H58.4918V46.156H61.8141V52.1205H63.3878V46.156H66.7101V62.8451H63.3878V55.268H61.8141ZM75.0874 62.8451V59.6005H71.5903V55.7731H74.7377V52.6257H71.5903V49.3811H74.8737V46.156H68.1903V62.8451H75.0874ZM88.1427 61.4754C87.6116 62.3885 86.6531 62.8451 85.2672 62.8451H80.7404V46.156H85.2672C86.4848 46.156 87.3688 46.4539 87.9192 47.0497C88.4697 47.6455 88.7449 48.6169 88.7449 49.964V50.7023C88.7449 52.2954 88.175 53.2474 87.0352 53.5583C87.7347 53.7396 88.2269 54.1605 88.5118 54.8211C88.7968 55.4817 88.9392 56.356 88.9392 57.444C88.9392 59.2184 88.6737 60.5623 88.1427 61.4754ZM84.6855 52.4314H84.0055V48.7205H84.7049C85.1842 48.7205 85.4238 48.9925 85.4238 49.5365V51.2074C85.4238 51.5959 85.372 51.8971 85.2684 52.1108C85.1648 52.3245 84.9705 52.4314 84.6855 52.4314ZM84.0055 59.8913L84.3358 59.9108C85.2036 59.9108 85.6375 59.4963 85.6375 58.6673V56.5885C85.6375 56.0833 85.563 55.7012 85.4141 55.4422C85.2651 55.1832 85.0028 55.0536 84.6272 55.0536H84.0055V59.8913ZM92.8453 62.8451L93.0396 60.1445H95.0601L95.2933 62.8451H98.4601L96.867 46.156H91.2133L89.6007 62.8451H92.8453ZM93.2885 57.4827H94.804L94.0657 48.9925H93.9103L93.2885 57.4827ZM106.248 62.8451V60.0085H102.81V46.156H99.4679V62.8451H106.248ZM113.963 60.0085V62.8451H107.182V46.156H110.524V60.0085H113.963Z" fill="white"/>
</svg>
