<svg width="140" height="70" viewBox="0 0 140 70" fill="none" xmlns="http://www.w3.org/2000/svg">
<path d="M33 53.854V51.4413L42.3999 39.8732H33.0708V36.8042H47.0065V39.2169L37.6067 50.785H47.1031V53.854H33Z" fill="white"/>
<path d="M53.0933 54.0726C51.7293 54.0726 50.6163 53.7123 49.7541 52.9853C48.892 52.2647 48.4609 51.3254 48.4609 50.1737C48.4609 48.9706 48.9242 48.0312 49.8507 47.3492C50.7771 46.6672 52.051 46.3262 53.6724 46.3262C54.1935 46.3262 54.7147 46.3648 55.2294 46.4485C55.7505 46.5321 56.2588 46.6544 56.7606 46.8152V45.9145C56.7606 45.181 56.5355 44.6341 56.0786 44.261C55.6218 43.8878 54.9592 43.7012 54.0841 43.7012C53.5501 43.7012 52.9647 43.7849 52.3406 43.9586C51.7165 44.1259 51.0023 44.3961 50.211 44.7499L48.9949 42.2922C49.9858 41.8354 50.9508 41.4944 51.8838 41.2692C52.8167 41.044 53.7367 40.9282 54.6503 40.9282C56.3553 40.9282 57.6807 41.34 58.6329 42.1571C59.5851 42.9742 60.0548 44.1323 60.0548 45.6314V53.8667H56.7671V52.9917C56.2331 53.3649 55.6669 53.6416 55.075 53.8217C54.4895 53.9826 53.8268 54.0726 53.0933 54.0726ZM51.6586 50.1029C51.6586 50.5919 51.8709 50.9779 52.2891 51.261C52.7137 51.5441 53.2735 51.6857 53.9683 51.6857C54.5216 51.6857 55.0299 51.6149 55.4932 51.4798C55.9564 51.3447 56.381 51.1452 56.7735 50.8814V48.9834C56.3682 48.8226 55.9435 48.7003 55.4932 48.6296C55.0492 48.5588 54.5796 48.5202 54.0906 48.5202C53.3249 48.5202 52.733 48.6617 52.302 48.9448C51.8709 49.2279 51.6586 49.614 51.6586 50.1029Z" fill="white"/>
<path d="M75.9396 47.5229C75.9396 48.4301 75.7723 49.2858 75.4313 50.0836C75.0903 50.8814 74.6271 51.5698 74.0416 52.1553C73.4561 52.7408 72.7612 53.1976 71.957 53.5322C71.1528 53.8667 70.2971 54.034 69.3899 54.034C68.7594 54.034 68.1417 53.9439 67.5369 53.7638C66.9321 53.5836 66.3853 53.3327 65.8834 53.011V53.8667H62.5957V36.817L65.9349 36.0835V42.1699C66.4367 41.7968 66.9965 41.5073 67.6013 41.3078C68.2125 41.1084 68.8366 41.0054 69.4864 41.0054C70.3807 41.0054 71.2171 41.1791 72.0085 41.5137C72.7934 41.8547 73.4818 42.3179 74.0673 42.9034C74.6528 43.4889 75.1096 44.1773 75.4442 44.9751C75.7787 45.76 75.9396 46.6093 75.9396 47.5229ZM68.9524 43.8428C68.354 43.8428 67.7943 43.9457 67.2731 44.1451C66.752 44.351 66.308 44.647 65.9349 45.033V50.0257C66.2952 50.386 66.7327 50.6691 67.2603 50.8814C67.7878 51.0937 68.354 51.1967 68.9524 51.1967C69.9882 51.1967 70.8697 50.8428 71.5838 50.1351C72.298 49.4274 72.6583 48.5588 72.6583 47.5165C72.6583 46.4742 72.298 45.6056 71.5774 44.8979C70.8504 44.1966 69.9754 43.8428 68.9524 43.8428Z" fill="white"/>
<path d="M91.336 47.5229C91.336 48.4301 91.1688 49.2858 90.8278 50.0836C90.4867 50.8814 90.0235 51.5698 89.438 52.1553C88.8525 52.7408 88.1577 53.1976 87.3535 53.5322C86.5492 53.8667 85.6935 54.034 84.7864 54.034C84.1558 54.034 83.5381 53.9439 82.9333 53.7638C82.3286 53.5836 81.7817 53.3327 81.2799 53.011V53.8667H77.9922V36.817L81.3314 36.0835V42.1699C81.8332 41.7968 82.393 41.5073 82.9977 41.3078C83.609 41.1084 84.233 41.0054 84.8828 41.0054C85.7771 41.0054 86.6135 41.1791 87.4049 41.5137C88.1898 41.8547 88.8783 42.3179 89.4638 42.9034C90.0493 43.4889 90.5061 44.1773 90.8406 44.9751C91.1688 45.76 91.336 46.6093 91.336 47.5229ZM84.3488 43.8428C83.7504 43.8428 83.1908 43.9457 82.6696 44.1451C82.1485 44.351 81.7045 44.647 81.3314 45.033V50.0257C81.6917 50.386 82.1292 50.6691 82.6567 50.8814C83.1843 51.0937 83.7504 51.1967 84.3488 51.1967C85.3846 51.1967 86.2662 50.8428 86.9803 50.1351C87.6945 49.4274 88.0548 48.5588 88.0548 47.5165C88.0548 46.4742 87.6944 45.6056 86.9738 44.8979C86.2404 44.1966 85.3718 43.8428 84.3488 43.8428Z" fill="white"/>
<path d="M95.042 39.6544C94.5209 39.6544 94.077 39.4678 93.7038 39.0946C93.3306 38.7215 93.144 38.2775 93.144 37.7564C93.144 37.2352 93.3306 36.7913 93.7038 36.4181C94.077 36.045 94.5209 35.8584 95.042 35.8584C95.5632 35.8584 96.0071 36.045 96.3803 36.4181C96.7534 36.7913 96.94 37.2352 96.94 37.7564C96.94 38.2775 96.7534 38.7215 96.3803 39.0946C96.0071 39.4678 95.5567 39.6544 95.042 39.6544ZM96.7213 41.1599V53.8475H93.3821V41.1599H96.7213Z" fill="white"/>
<path d="M101.057 50.2704V43.9587H98.4517V41.16H101.057V37.9173L104.397 37.1646V41.16H108V43.9587H104.397V49.5884C104.397 50.1867 104.525 50.6114 104.789 50.8558C105.053 51.1003 105.503 51.2226 106.153 51.2226C106.462 51.2226 106.751 51.2033 107.028 51.1647C107.305 51.1261 107.607 51.0489 107.929 50.933V53.661C107.568 53.7768 107.144 53.8669 106.636 53.9441C106.134 54.0149 105.703 54.0535 105.342 54.0535C103.927 54.0535 102.859 53.7318 102.138 53.0884C101.418 52.445 101.057 51.5057 101.057 50.2704Z" fill="white"/>
<path d="M94.7454 32.0233C92.5772 29.868 90.0937 28.0472 87.385 26.6317C87.2821 26.5803 87.2435 26.4516 87.2949 26.3486C87.3271 26.2907 87.3786 26.2521 87.4429 26.2393C89.7591 25.7825 92.011 24.4764 93.2141 23.685C93.568 23.4534 93.6645 22.9773 93.4329 22.6234C93.375 22.5398 93.3042 22.469 93.2205 22.4111C91.4319 21.2015 86.9861 18.5829 80.0633 17.0581C73.0825 15.5268 65.5935 15.9772 61.6109 16.4404C60.5686 16.5048 59.5328 16.6656 58.5291 16.9359C58.3618 16.9809 58.2653 17.1482 58.3103 17.3155C58.3489 17.4506 58.4712 17.5471 58.6063 17.5471C61.939 17.3862 65.2846 17.4441 68.611 17.7208C77.8757 18.9175 81.884 20.8734 81.3436 21.3945C81.305 21.4331 81.2471 21.4524 81.1892 21.446C80.5265 21.401 79.8574 21.3688 79.1883 21.3624C78.8344 21.3495 78.4741 21.3431 78.1202 21.3431H78.0109C75.4952 21.3109 72.9796 21.6069 70.5347 22.2181C61.1541 24.4378 53.2018 30.6272 48.756 39.1778C48.5115 39.6475 48.6917 40.2265 49.1613 40.471C49.5667 40.6833 50.0685 40.5804 50.3516 40.2201C52.8544 37.0803 55.8976 34.4167 59.3526 32.3579C64.4997 29.4112 70.3224 27.867 76.248 27.8799C78.7958 27.867 81.3307 28.1179 83.8206 28.6327C87.919 29.6685 91.67 31.515 94.0762 32.8661C94.34 33.0141 94.6746 32.9176 94.8226 32.6538C94.9448 32.4608 94.9126 32.197 94.7454 32.0233ZM89.3023 22.6299C89.3409 22.2567 89.6755 21.9864 90.0486 22.025C90.4218 22.0637 90.692 22.3982 90.6534 22.7714C90.6213 23.0931 90.3703 23.344 90.0486 23.3762C89.6755 23.4148 89.3409 23.1381 89.3023 22.765C89.2959 22.7199 89.2959 22.6749 89.3023 22.6299Z" fill="white"/>
<path d="M55.6091 25.2748C55.6091 26.658 54.4896 27.7775 53.1063 27.7775C51.723 27.7775 50.6035 26.658 50.6035 25.2748C50.6035 23.8915 51.723 22.772 53.1063 22.772C54.4896 22.772 55.6091 23.8915 55.6091 25.2748Z" fill="white"/>
</svg>
