<svg width="80" height="80" viewBox="0 0 80 80" fill="none" xmlns="http://www.w3.org/2000/svg">
<circle cx="40" cy="40" r="40" fill="#222222"/>
<path d="M40 17C27.3086 17 17 27.3086 17 40C17 52.6914 27.3086 63 40 63C52.6914 63 63 52.6914 63 40C63 37.1953 62.4961 34.5039 61.5742 32.0195C61.4531 31.6953 61.1758 31.457 60.8398 31.3867C60.5 31.3164 60.1523 31.4258 59.9141 31.6758C59.0703 32.5547 58.0273 33.2266 56.8477 33.6172C56.3281 33.7891 56.043 34.3477 56.207 34.8711C56.7188 36.4883 57 38.2109 57 40C57 49.4023 49.4023 57 40 57C30.5977 57 23 49.4023 23 40C23 30.5977 30.5977 23 40 23C42.2148 23 44.3242 23.4375 46.2695 24.2109C46.7773 24.4102 47.3555 24.1641 47.5625 23.6602C48.0312 22.5156 48.7773 21.5117 49.7148 20.7305C49.9805 20.5117 50.1133 20.168 50.0664 19.8281C50.0234 19.4883 49.8047 19.1914 49.4883 19.0508C46.5977 17.7383 43.3828 17 40 17ZM40 19C42.582 19 45.0039 19.5586 47.2852 20.4141C46.8477 20.9297 46.4805 21.4961 46.1602 22.1016C44.2227 21.4297 42.168 21 40 21C29.5195 21 21 29.5195 21 40C21 50.4805 29.5195 59 40 59C50.4805 59 59 50.4805 59 40C59 38.3086 58.668 36.707 58.2539 35.1484C58.9023 34.8633 59.5156 34.5234 60.082 34.1094C60.6328 35.9844 61 37.9414 61 40C61 51.6094 51.6094 61 40 61C28.3906 61 19 51.6094 19 40C19 28.3906 28.3906 19 40 19ZM54.5 21C51.4727 21 49 23.4727 49 26.5C49 29.5273 51.4727 32 54.5 32C57.5273 32 60 29.5273 60 26.5C60 23.4727 57.5273 21 54.5 21ZM54.5 23C56.4453 23 58 24.5547 58 26.5C58 28.4453 56.4453 30 54.5 30C52.5547 30 51 28.4453 51 26.5C51 24.5547 52.5547 23 54.5 23ZM40 30C34.4883 30 30 34.4883 30 40C30 45.5117 34.4883 50 40 50C45.5117 50 50 45.5117 50 40C50 34.4883 45.5117 30 40 30ZM40 32C44.4297 32 48 35.5703 48 40C48 44.4297 44.4297 48 40 48C35.5703 48 32 44.4297 32 40C32 35.5703 35.5703 32 40 32Z" fill="#F1C40F"/>
</svg>
