<svg width="80" height="80" viewBox="0 0 80 80" fill="none" xmlns="http://www.w3.org/2000/svg">
<circle cx="40" cy="40" r="40" fill="#222222"/>
<path d="M40 22L33.99 28.35L27.97 34.69L22 41V22H40Z" fill="#0D91D6"/>
<path d="M40 22H39.96L22 40.97V41V41.09V58L30.69 49.31L36.87 43.13L43.06 36.94L49.25 30.75L58 22H40Z" fill="#F88909"/>
<path d="M30.69 49.31L22 58V41.09L30.69 49.31Z" fill="#C757BC"/>
<path d="M36.87 43.13L30.69 49.31L22 41.09V41L27.97 34.69L36.87 43.13Z" fill="#D3638F"/>
<path d="M43.06 36.94L36.87 43.13L27.97 34.69L33.99 28.35L43.06 36.94Z" fill="#E07063"/>
<path d="M49.25 30.75L43.06 36.94L33.99 28.35L40 22L49.25 30.75Z" fill="#EC7D36"/>
<path d="M58 22L49.25 30.75L40 22H58Z" fill="#F88909"/>
<path d="M27.51 35.15L23.99 38.88L22 37V29.94L27.51 35.15Z" fill="#0095D5"/>
<path d="M31.03 31.42L27.51 35.15L22 29.94V22.87L31.03 31.42Z" fill="#2B88DA"/>
<path d="M34.56 27.7L31.03 31.42L22 22.87V22H28.53L34.56 27.7Z" fill="#557BDE"/>
<path d="M38.08 23.97L34.56 27.7L28.53 22H40L38.08 23.97Z" fill="#806EE3"/>
<path d="M39 41L22 58H33.52H56L39 41Z" fill="#0095D5"/>
<path d="M41.68 58H33.52L27.76 52.25L31.84 48.17L41.68 58Z" fill="#2B88DA"/>
<path d="M49.86 58H41.68L31.84 48.17L35.92 44.09L49.86 58Z" fill="#557BDE"/>
<path d="M58 58H49.86L35.92 44.09L40 40L58 58Z" fill="#806EE3"/>
</svg>
