<svg width="80" height="80" viewBox="0 0 80 80" fill="none" xmlns="http://www.w3.org/2000/svg">
<circle cx="40" cy="40" r="40" fill="#222222"/>
<path d="M29.2926 17C27.8612 17.003 26.46 17.7957 25.7395 19.0048L14.5321 37.9952C13.8226 39.2076 13.8226 40.7922 14.5321 42.0045L25.7395 60.9953C26.46 62.2043 27.8612 62.9972 29.2926 63H51.7075C53.1389 62.997 54.5401 62.2043 55.2605 60.9953L66.468 42.0045C67.1774 40.7922 67.1772 39.2076 66.468 37.9952L55.2605 19.0048C54.5401 17.7955 53.1389 17.0028 51.7075 17H29.2926ZM29.4961 28.1098C29.527 28.1068 29.5593 28.1068 29.5901 28.1098H33.4562C33.5421 28.1126 33.6259 28.1364 33.6998 28.1792C33.7738 28.222 33.8354 28.2823 33.879 28.3546L40.4375 39.755C40.4706 39.8116 40.4918 39.8742 40.4996 39.9388C40.5079 39.8742 40.529 39.8116 40.5621 39.755L47.105 28.3546C47.15 28.2803 47.2141 28.2187 47.291 28.1758C47.3678 28.1329 47.4547 28.1101 47.5432 28.1098H51.4095C51.7518 28.1127 52.0083 28.5333 51.8478 28.829L45.4458 40L51.8478 51.1557C52.0234 51.4529 51.7609 51.893 51.4095 51.8902H47.5432C47.4532 51.8883 47.3652 51.8633 47.2882 51.8176C47.2113 51.7719 47.148 51.7072 47.105 51.6301L40.5621 40.2294C40.529 40.1731 40.5079 40.1103 40.4998 40.0458C40.4918 40.1105 40.4706 40.173 40.4375 40.2296L33.8788 51.6301C33.8371 51.705 33.7763 51.7683 33.7024 51.8139C33.6285 51.8594 33.5438 51.8857 33.4564 51.8902H29.5899C29.2386 51.8932 28.9761 51.4529 29.1516 51.1557L35.5537 40L29.1516 28.829C28.9982 28.5592 29.1854 28.1674 29.4959 28.1098H29.4961Z" fill="#3498DB"/>
</svg>
